<svg width="24" height="24" viewBox="0 0 24 24" fill="none" xmlns="http://www.w3.org/2000/svg">
<path fill-rule="evenodd" clip-rule="evenodd" d="M12.4889 5.06004C12.168 4.97913 11.832 4.97913 11.5111 5.06004C11.1916 5.14057 10.8688 5.34964 9.8001 6.10842L6.6001 8.38037C5.81108 8.94057 5.58634 9.11186 5.42908 9.31142C5.27125 9.51172 5.15317 9.74036 5.08123 9.98501C5.00954 10.2288 4.99997 10.5112 4.99997 11.4788V15.2C4.99997 16.0566 5.00075 16.6389 5.03753 17.089C5.07335 17.5274 5.13827 17.7516 5.21796 17.908C5.40971 18.2843 5.71567 18.5903 6.09199 18.782C6.24839 18.8617 6.4726 18.9266 6.91101 18.9625C7.3611 18.9992 7.94339 19 8.79997 19H15.2C16.0566 19 16.6388 18.9992 17.0889 18.9625C17.5274 18.9266 17.7516 18.8617 17.908 18.782C18.2843 18.5903 18.5902 18.2843 18.782 17.908C18.8617 17.7516 18.9266 17.5274 18.9624 17.089C18.9992 16.6389 19 16.0566 19 15.2V11.4788C19 10.5112 18.9904 10.2288 18.9187 9.98501C18.8468 9.74036 18.7287 9.51172 18.5709 9.31142C18.4136 9.11186 18.1889 8.94057 17.3998 8.38037L14.1998 6.10842C13.1311 5.34964 12.8083 5.14057 12.4889 5.06004ZM11.0222 3.12072C11.664 2.95891 12.336 2.95891 12.9778 3.12072C13.7085 3.30493 14.3554 3.76494 15.2147 4.37603C15.2617 4.40946 15.3094 4.44333 15.3577 4.47764L18.5577 6.7496C18.5927 6.77447 18.6273 6.79899 18.6614 6.8232C19.3008 7.27658 19.7834 7.61881 20.1418 8.07356C20.4574 8.47416 20.6936 8.93143 20.8375 9.42074C21.0008 9.97619 21.0005 10.5678 21 11.3516C21 11.3935 21 11.4359 21 11.4788V15.2413C21 16.0463 21 16.7107 20.9558 17.2518C20.9099 17.8139 20.8113 18.3306 20.564 18.816C20.1805 19.5686 19.5686 20.1805 18.8159 20.564C18.3306 20.8113 17.8139 20.9099 17.2518 20.9558C16.7106 21 16.0463 21 15.2413 21H8.75865C7.95369 21 7.28934 21 6.74815 20.9558C6.18605 20.9099 5.66935 20.8113 5.18401 20.564C4.43136 20.1805 3.81944 19.5686 3.43595 18.816C3.18866 18.3306 3.09009 17.8139 3.04417 17.2518C2.99995 16.7106 2.99996 16.0463 2.99997 15.2413L2.99997 11.4788C2.99997 11.4359 2.99995 11.3935 2.99992 11.3516C2.99947 10.5678 2.99913 9.97619 3.16248 9.42074C3.30637 8.93143 3.54252 8.47416 3.85819 8.07356C4.21653 7.61881 4.69916 7.27658 5.33852 6.8232C5.37265 6.79899 5.40724 6.77447 5.44227 6.74959L8.64227 4.47764C8.6906 4.44333 8.73823 4.40946 8.78523 4.37603C9.64457 3.76494 10.2915 3.30493 11.0222 3.12072Z" fill="#1F2024"/>
</svg>
