<svg width="80" height="80" viewBox="0 0 80 80" fill="none" xmlns="http://www.w3.org/2000/svg">
<path fill-rule="evenodd" clip-rule="evenodd" d="M70.5896 24.959L78.2365 40.6147H60.385V20.1493H62.8879C66.1633 20.1493 69.1525 22.0159 70.5896 24.959ZM46.62 14.2857C49.2873 14.2857 51.67 15.5041 53.2421 17.4146V44.1861C53.2421 46.1586 54.841 47.7575 56.8135 47.7575H78.8365V59.6514C78.8365 64.3857 74.9987 68.2229 70.265 68.2229H69.313C69.317 68.3383 69.3187 68.4537 69.3187 68.5697C69.3187 74.5531 64.4679 79.404 58.4845 79.404C52.7429 79.404 48.0444 74.9371 47.6741 69.2891H33.0842C32.714 74.9371 28.0154 79.404 22.2737 79.404C16.532 79.404 11.8334 74.9371 11.4632 69.2891H9.72647C4.9926 69.2891 1.15503 65.4514 1.15503 60.7177V22.8571C1.15503 18.1233 4.99259 14.2857 9.72647 14.2857H46.62ZM28.1751 27.1429C30.1476 27.1429 31.7465 28.7418 31.7465 30.7143V36.4286H37.4608C39.4333 36.4286 41.0322 38.0275 41.0322 40C41.0322 41.9725 39.4333 43.5714 37.4608 43.5714H31.7465V49.2857C31.7465 51.2582 30.1476 52.8571 28.1751 52.8571C26.2027 52.8571 24.6037 51.2582 24.6037 49.2857V43.5714H18.8894C16.917 43.5714 15.318 41.9725 15.318 40C15.318 38.0275 16.917 36.4286 18.8894 36.4286H24.6037V30.7143C24.6037 28.7418 26.2027 27.1429 28.1751 27.1429Z" fill="white"/>
</svg>
