<svg width="14" height="14" viewBox="0 0 14 14" fill="none" xmlns="http://www.w3.org/2000/svg">
<g clip-path="url(#clip0_6_5924)">
<path d="M7 5.81998H13.5V1.31998C13.5007 1.2493 13.4861 1.17929 13.4573 1.11477C13.4284 1.05025 13.3859 0.992738 13.3327 0.946189C13.2795 0.899639 13.2169 0.865152 13.1491 0.845093C13.0813 0.825034 13.01 0.819878 12.94 0.829981L7 1.53998V5.81998Z" stroke="#000001" stroke-linecap="round" stroke-linejoin="round"/>
<path d="M5.00001 5.81996V1.70996L0.940013 2.20996C0.818058 2.2247 0.705796 2.28382 0.624643 2.37604C0.54349 2.46825 0.499126 2.58712 0.500013 2.70996V5.81996H5.00001Z" stroke="#000001" stroke-linecap="round" stroke-linejoin="round"/>
<path d="M5 7.82007H0.5V10.8201C0.500467 10.9394 0.542748 11.0547 0.619487 11.1461C0.696225 11.2375 0.802564 11.299 0.92 11.3201L5 12.0001V7.82007Z" stroke="#000001" stroke-linecap="round" stroke-linejoin="round"/>
<path d="M7 7.82007V12.2201L12.92 13.1701C12.9912 13.1816 13.0641 13.1776 13.1336 13.1583C13.2031 13.1391 13.2676 13.105 13.3227 13.0585C13.3778 13.0119 13.4222 12.954 13.4528 12.8887C13.4834 12.8234 13.4995 12.7522 13.5 12.6801V7.82007H7Z" stroke="#000001" stroke-linecap="round" stroke-linejoin="round"/>
</g>
<defs>
<clipPath id="clip0_6_5924">
<rect width="14" height="14" fill="white"/>
</clipPath>
</defs>
</svg>
