<svg width="14" height="14" viewBox="0 0 14 14" fill="none" xmlns="http://www.w3.org/2000/svg">
<g clip-path="url(#clip0_6_5593)">
<path d="M6 11L5 13.5" stroke="#000001" stroke-linecap="round" stroke-linejoin="round"/>
<path d="M8 11L9 13.5" stroke="#000001" stroke-linecap="round" stroke-linejoin="round"/>
<path d="M4 13.5H10" stroke="#000001" stroke-linecap="round" stroke-linejoin="round"/>
<path d="M13 2C13.1326 2 13.2598 2.05268 13.3536 2.14645C13.4473 2.24021 13.5 2.36739 13.5 2.5V10.5C13.5 10.6326 13.4473 10.7598 13.3536 10.8536C13.2598 10.9473 13.1326 11 13 11H1C0.867392 11 0.740215 10.9473 0.646447 10.8536C0.552678 10.7598 0.5 10.6326 0.5 10.5V2.5C0.5 2.36739 0.552678 2.24021 0.646447 2.14645C0.740215 2.05268 0.867392 2 1 2" stroke="#000001" stroke-linecap="round" stroke-linejoin="round"/>
<path d="M7 4.00004C8.17 1.41004 10.5 2.71004 10.5 4.65004C10.5 7.20004 7 8.50004 7 8.50004C7 8.50004 3.5 7.20004 3.5 4.60004C3.5 2.66004 5.83 1.36004 7 4.00004Z" stroke="#000001" stroke-linecap="round" stroke-linejoin="round"/>
</g>
<defs>
<clipPath id="clip0_6_5593">
<rect width="14" height="14" fill="white"/>
</clipPath>
</defs>
</svg>
