<svg width="14" height="14" viewBox="0 0 14 14" fill="none" xmlns="http://www.w3.org/2000/svg">
<g clip-path="url(#clip0_6_5680)">
<path d="M10.5 11H12.5C12.7652 11 13.0196 10.8946 13.2071 10.7071C13.3946 10.5196 13.5 10.2652 13.5 10V5.5C13.5 5.23478 13.3946 4.98043 13.2071 4.79289C13.0196 4.60536 12.7652 4.5 12.5 4.5H1.5C1.23478 4.5 0.98043 4.60536 0.792893 4.79289C0.605357 4.98043 0.5 5.23478 0.5 5.5V10C0.5 10.2652 0.605357 10.5196 0.792893 10.7071C0.98043 10.8946 1.23478 11 1.5 11H3.5" stroke="#000001" stroke-linecap="round" stroke-linejoin="round"/>
<path d="M3.5 9.5V13C3.5 13.1326 3.55268 13.2598 3.64645 13.3536C3.74021 13.4473 3.86739 13.5 4 13.5H10C10.1326 13.5 10.2598 13.4473 10.3536 13.3536C10.4473 13.2598 10.5 13.1326 10.5 13V9.5H3.5Z" stroke="#000001" stroke-linecap="round" stroke-linejoin="round"/>
<path d="M10.5 4.5V1C10.5 0.867392 10.4473 0.740215 10.3536 0.646447C10.2598 0.552678 10.1326 0.5 10 0.5H4C3.86739 0.5 3.74021 0.552678 3.64645 0.646447C3.55268 0.740215 3.5 0.867392 3.5 1V4.5" stroke="#000001" stroke-linecap="round" stroke-linejoin="round"/>
<path d="M11 7H10" stroke="#000001" stroke-linecap="round" stroke-linejoin="round"/>
</g>
<defs>
<clipPath id="clip0_6_5680">
<rect width="14" height="14" fill="white"/>
</clipPath>
</defs>
</svg>
