<svg width="14" height="14" viewBox="0 0 14 14" fill="none" xmlns="http://www.w3.org/2000/svg">
<g clip-path="url(#clip0_6_5521)">
<path d="M13 1.5H1C0.723858 1.5 0.5 1.72386 0.5 2V10C0.5 10.2761 0.723858 10.5 1 10.5H13C13.2761 10.5 13.5 10.2761 13.5 10V2C13.5 1.72386 13.2761 1.5 13 1.5Z" stroke="#000001" stroke-linecap="round" stroke-linejoin="round"/>
<path d="M3.52979 13.4999C3.65614 12.6701 4.07566 11.9131 4.71227 11.3661C5.34888 10.8191 6.16044 10.5183 6.99979 10.5183C7.83913 10.5183 8.65069 10.8191 9.2873 11.3661C9.92391 11.9131 10.3434 12.6701 10.4698 13.4999" stroke="#000001" stroke-linecap="round" stroke-linejoin="round"/>
</g>
<defs>
<clipPath id="clip0_6_5521">
<rect width="14" height="14" fill="white"/>
</clipPath>
</defs>
</svg>
