<svg width="14" height="14" viewBox="0 0 14 14" fill="none" xmlns="http://www.w3.org/2000/svg">
<g clip-path="url(#clip0_6_5530)">
<path d="M12.5 3H1.5C0.947715 3 0.5 3.44772 0.5 4V12.5C0.5 13.0523 0.947715 13.5 1.5 13.5H12.5C13.0523 13.5 13.5 13.0523 13.5 12.5V4C13.5 3.44772 13.0523 3 12.5 3Z" stroke="#000001" stroke-linecap="round" stroke-linejoin="round"/>
<path d="M10 5.5H4C3.44772 5.5 3 5.94772 3 6.5V10C3 10.5523 3.44772 11 4 11H10C10.5523 11 11 10.5523 11 10V6.5C11 5.94772 10.5523 5.5 10 5.5Z" stroke="#000001" stroke-linecap="round" stroke-linejoin="round"/>
<path d="M5 0.5L7 3L9 0.5" stroke="#000001" stroke-linecap="round" stroke-linejoin="round"/>
</g>
<defs>
<clipPath id="clip0_6_5530">
<rect width="14" height="14" fill="white"/>
</clipPath>
</defs>
</svg>
