<svg width="14" height="14" viewBox="0 0 14 14" fill="none" xmlns="http://www.w3.org/2000/svg">
<g clip-path="url(#clip0_6_5712)">
<path d="M12.5 3H1.5C0.947715 3 0.5 3.44772 0.5 4V8C0.5 8.55228 0.947715 9 1.5 9H12.5C13.0523 9 13.5 8.55228 13.5 8V4C13.5 3.44772 13.0523 3 12.5 3Z" stroke="#000001" stroke-linecap="round" stroke-linejoin="round"/>
<path d="M3.5 6.5C3.77614 6.5 4 6.27614 4 6C4 5.72386 3.77614 5.5 3.5 5.5C3.22386 5.5 3 5.72386 3 6C3 6.27614 3.22386 6.5 3.5 6.5Z" stroke="#000001" stroke-linecap="round" stroke-linejoin="round"/>
<path d="M6.5 6H8.5" stroke="#000001" stroke-linecap="round" stroke-linejoin="round"/>
<path d="M7 9V13.5" stroke="#000001" stroke-linecap="round" stroke-linejoin="round"/>
<path d="M2 13.5H12" stroke="#000001" stroke-linecap="round" stroke-linejoin="round"/>
</g>
<defs>
<clipPath id="clip0_6_5712">
<rect width="14" height="14" fill="white"/>
</clipPath>
</defs>
</svg>
