<svg width="14" height="14" viewBox="0 0 14 14" fill="none" xmlns="http://www.w3.org/2000/svg">
<g clip-path="url(#clip0_6_5861)">
<path d="M3 9.5L0.5 7L3 4.5" stroke="#000001" stroke-linecap="round" stroke-linejoin="round"/>
<path d="M11 9.5L13.5 7L11 4.5" stroke="#000001" stroke-linecap="round" stroke-linejoin="round"/>
<path d="M9 7.5C9.27614 7.5 9.5 7.27614 9.5 7C9.5 6.72386 9.27614 6.5 9 6.5C8.72386 6.5 8.5 6.72386 8.5 7C8.5 7.27614 8.72386 7.5 9 7.5Z" stroke="#000001" stroke-linecap="round" stroke-linejoin="round"/>
<path d="M5 7.5C5.27614 7.5 5.5 7.27614 5.5 7C5.5 6.72386 5.27614 6.5 5 6.5C4.72386 6.5 4.5 6.72386 4.5 7C4.5 7.27614 4.72386 7.5 5 7.5Z" stroke="#000001" stroke-linecap="round" stroke-linejoin="round"/>
</g>
<defs>
<clipPath id="clip0_6_5861">
<rect width="14" height="14" fill="white"/>
</clipPath>
</defs>
</svg>
