<svg width="14" height="14" viewBox="0 0 14 14" fill="none" xmlns="http://www.w3.org/2000/svg">
<g clip-path="url(#clip0_6_5671)">
<path d="M8 6.5C8 4.567 6.433 3 4.5 3C2.567 3 1 4.567 1 6.5V10C1 11.933 2.567 13.5 4.5 13.5C6.433 13.5 8 11.933 8 10V6.5Z" stroke="#000001" stroke-linecap="round" stroke-linejoin="round"/>
<path d="M1 7H8" stroke="#000001" stroke-linecap="round" stroke-linejoin="round"/>
<path d="M4.5 7V2.75C4.5 2.15326 4.73705 1.58097 5.15901 1.15901C5.58097 0.737053 6.15326 0.5 6.75 0.5V0.5C7.34674 0.5 7.91903 0.737053 8.34099 1.15901C8.76295 1.58097 9 2.15326 9 2.75V3C9 3.53043 9.21071 4.03914 9.58579 4.41421C9.96086 4.78929 10.4696 5 11 5C11.5304 5 12.0391 4.78929 12.4142 4.41421C12.7893 4.03914 13 3.53043 13 3V1.5" stroke="#000001" stroke-linecap="round" stroke-linejoin="round"/>
</g>
<defs>
<clipPath id="clip0_6_5671">
<rect width="14" height="14" fill="white"/>
</clipPath>
</defs>
</svg>
