<svg width="14" height="14" viewBox="0 0 14 14" fill="none" xmlns="http://www.w3.org/2000/svg">
<g clip-path="url(#clip0_6_5767)">
<path d="M11.75 10C12.0961 10 12.4345 10.1026 12.7222 10.2949C13.01 10.4872 13.2343 10.7605 13.3668 11.0803C13.4992 11.4001 13.5339 11.7519 13.4664 12.0914C13.3989 12.4309 13.2322 12.7427 12.9874 12.9874C12.7427 13.2322 12.4309 13.3989 12.0914 13.4664C11.7519 13.5339 11.4001 13.4992 11.0803 13.3668C10.7605 13.2343 10.4872 13.01 10.2949 12.7222C10.1026 12.4345 10 12.0961 10 11.75V2.25C10 1.90388 10.1026 1.56554 10.2949 1.27775C10.4872 0.989967 10.7605 0.765665 11.0803 0.633212C11.4001 0.500758 11.7519 0.466102 12.0914 0.533627C12.4309 0.601151 12.7427 0.767822 12.9874 1.01256C13.2322 1.25731 13.3989 1.56913 13.4664 1.90859C13.5339 2.24806 13.4992 2.59993 13.3668 2.9197C13.2343 3.23947 13.01 3.51278 12.7222 3.70507C12.4345 3.89737 12.0961 4 11.75 4H2.25C1.90388 4 1.56554 3.89737 1.27775 3.70507C0.989967 3.51278 0.765665 3.23947 0.633212 2.9197C0.500758 2.59993 0.466102 2.24806 0.533627 1.90859C0.601151 1.56913 0.767822 1.25731 1.01256 1.01256C1.25731 0.767822 1.56913 0.601151 1.90859 0.533627C2.24806 0.466102 2.59993 0.500758 2.9197 0.633212C3.23947 0.765665 3.51278 0.989967 3.70507 1.27775C3.89737 1.56554 4 1.90388 4 2.25V11.75C4 12.0961 3.89737 12.4345 3.70507 12.7222C3.51278 13.01 3.23947 13.2343 2.9197 13.3668C2.59993 13.4992 2.24806 13.5339 1.90859 13.4664C1.56913 13.3989 1.25731 13.2322 1.01256 12.9874C0.767822 12.7427 0.601151 12.4309 0.533627 12.0914C0.466102 11.7519 0.500758 11.4001 0.633212 11.0803C0.765665 10.7605 0.989967 10.4872 1.27775 10.2949C1.56554 10.1026 1.90388 10 2.25 10H11.75Z" stroke="#000001" stroke-linecap="round" stroke-linejoin="round"/>
</g>
<defs>
<clipPath id="clip0_6_5767">
<rect width="14" height="14" fill="white"/>
</clipPath>
</defs>
</svg>
