<svg width="14" height="14" viewBox="0 0 14 14" fill="none" xmlns="http://www.w3.org/2000/svg">
<g clip-path="url(#clip0_6_5662)">
<path d="M7 12.52C10.3137 12.52 13 9.83373 13 6.52002C13 3.20631 10.3137 0.52002 7 0.52002C3.68629 0.52002 1 3.20631 1 6.52002C1 9.83373 3.68629 12.52 7 12.52Z" stroke="#000001" stroke-linecap="round" stroke-linejoin="round"/>
<path d="M10.0701 11.6799C11.0133 12.1003 11.858 12.7135 12.5501 13.4799" stroke="#000001" stroke-linecap="round" stroke-linejoin="round"/>
<path d="M1.44995 13.4799C2.14197 12.7135 2.98675 12.1003 3.92995 11.6799" stroke="#000001" stroke-linecap="round" stroke-linejoin="round"/>
<path d="M7 9.52002C8.65685 9.52002 10 8.17687 10 6.52002C10 4.86317 8.65685 3.52002 7 3.52002C5.34315 3.52002 4 4.86317 4 6.52002C4 8.17687 5.34315 9.52002 7 9.52002Z" stroke="#000001" stroke-linecap="round" stroke-linejoin="round"/>
<path d="M7 7.02002C7.27614 7.02002 7.5 6.79616 7.5 6.52002C7.5 6.24388 7.27614 6.02002 7 6.02002C6.72386 6.02002 6.5 6.24388 6.5 6.52002C6.5 6.79616 6.72386 7.02002 7 7.02002Z" stroke="#000001" stroke-linecap="round" stroke-linejoin="round"/>
</g>
<defs>
<clipPath id="clip0_6_5662">
<rect width="14" height="14" fill="white"/>
</clipPath>
</defs>
</svg>
