<svg width="14" height="14" viewBox="0 0 14 14" fill="none" xmlns="http://www.w3.org/2000/svg">
<g clip-path="url(#clip0_6_5913)">
<path d="M12.87 8.62999L12.78 8.55999C12.9205 8.05169 12.9944 7.52731 13 6.99999C13 5.40869 12.3679 3.88257 11.2427 2.75735C10.1174 1.63213 8.59131 0.999991 7.00001 0.999991C6.47647 1.00318 5.95552 1.07376 5.45001 1.20999L5.38001 1.11999C4.81582 0.655174 4.09125 0.431281 3.36319 0.496788C2.63513 0.562295 1.96217 0.911929 1.49001 1.46999C0.931949 1.94215 0.582314 2.61511 0.516807 3.34317C0.4513 4.07123 0.675194 4.7958 1.14001 5.35999L1.22001 5.41999C1.07561 5.93429 1.0016 6.4658 1.00001 6.99999C1.00001 8.59129 1.63215 10.1174 2.75737 11.2426C3.88259 12.3678 5.40871 13 7.00001 13C7.5342 12.9984 8.06571 12.9244 8.58001 12.78L8.64001 12.86C9.2042 13.3248 9.92877 13.5487 10.6568 13.4832C11.3849 13.4177 12.0579 13.0681 12.53 12.51C13.0837 12.0367 13.4295 11.3651 13.4931 10.6395C13.5566 9.9139 13.3329 9.19234 12.87 8.62999V8.62999Z" stroke="#000001" stroke-linecap="round" stroke-linejoin="round"/>
<path d="M7.14994 4.07003C7.56994 4.07003 8.59994 4.22003 8.59994 4.81003C8.60398 4.87783 8.59444 4.94576 8.57187 5.00982C8.54931 5.07389 8.51417 5.1328 8.46853 5.1831C8.42288 5.2334 8.36765 5.27408 8.30607 5.30274C8.2445 5.33141 8.17781 5.34749 8.10994 5.35003C7.79994 5.35003 7.56994 5.13003 7.10994 5.13003C6.64994 5.13003 6.50994 5.30003 6.50994 5.61003C6.51994 6.38003 8.99994 5.89003 8.99994 7.80003C8.9939 8.03919 8.93918 8.2746 8.8391 8.4919C8.73902 8.7092 8.5957 8.90381 8.41787 9.06385C8.24005 9.22389 8.03147 9.34599 7.80487 9.42271C7.57827 9.49942 7.33841 9.52913 7.09994 9.51003C6.52994 9.51003 5.30994 9.38003 5.30994 8.68003C5.30584 8.6132 5.31548 8.54624 5.33826 8.48329C5.36104 8.42033 5.39649 8.36271 5.4424 8.31398C5.48832 8.26526 5.54373 8.22646 5.60522 8.19998C5.66672 8.1735 5.73299 8.1599 5.79994 8.16003C6.14994 8.16003 6.55994 8.45003 7.04994 8.45003C7.14219 8.46275 7.23609 8.4558 7.32546 8.42964C7.41484 8.40349 7.49766 8.35871 7.5685 8.29827C7.63934 8.23782 7.69658 8.16306 7.73647 8.07892C7.77636 7.99477 7.79799 7.90313 7.79994 7.81003C7.79994 6.94003 5.32994 7.46003 5.32994 5.75003C5.33352 5.51844 5.38411 5.28999 5.47864 5.07855C5.57318 4.8671 5.70968 4.67706 5.87987 4.51996C6.05007 4.36286 6.2504 4.24197 6.46872 4.16463C6.68704 4.08729 6.9188 4.0551 7.14994 4.07003V4.07003ZM7.14994 3.07003C6.78626 3.05249 6.42279 3.10869 6.0814 3.23525C5.74 3.3618 5.42773 3.5561 5.16336 3.80646C4.89899 4.05681 4.68799 4.35805 4.54305 4.69206C4.3981 5.02607 4.32221 5.38594 4.31994 5.75003C4.30743 6.05489 4.36182 6.35879 4.4793 6.64039C4.59678 6.92198 4.77448 7.17444 4.99994 7.38003C4.7824 7.51937 4.60397 7.71186 4.48149 7.93933C4.35901 8.16679 4.29653 8.42171 4.29994 8.68003C4.29994 9.81003 5.36994 10.51 7.08994 10.51C7.46096 10.5317 7.83252 10.4779 8.18218 10.3519C8.53184 10.226 8.85234 10.0305 9.12432 9.77717C9.3963 9.52388 9.61412 9.21809 9.76461 8.87827C9.91511 8.53845 9.99516 8.17165 9.99994 7.80003C10.0145 7.44406 9.94729 7.08949 9.8034 6.76358C9.65952 6.43766 9.44281 6.14908 9.16994 5.92003C9.45159 5.61967 9.60574 5.22175 9.59994 4.81003C9.59994 3.61003 8.32994 3.07003 7.14994 3.07003V3.07003Z" fill="#000001"/>
</g>
<defs>
<clipPath id="clip0_6_5913">
<rect width="14" height="14" fill="white"/>
</clipPath>
</defs>
</svg>
