<svg width="14" height="14" viewBox="0 0 14 14" fill="none" xmlns="http://www.w3.org/2000/svg">
<g clip-path="url(#clip0_6_5724)">
<path d="M11.5 0.5H2.5C1.94772 0.5 1.5 0.947715 1.5 1.5V12.5C1.5 13.0523 1.94772 13.5 2.5 13.5H11.5C12.0523 13.5 12.5 13.0523 12.5 12.5V1.5C12.5 0.947715 12.0523 0.5 11.5 0.5Z" stroke="#000001" stroke-linecap="round" stroke-linejoin="round"/>
<path d="M4.5 10.5L6.25 7.75" stroke="#000001" stroke-linecap="round" stroke-linejoin="round"/>
<path d="M4.08994 7.0001C3.86289 6.4124 3.83133 5.76716 3.99994 5.1601C4.13728 4.70627 4.38023 4.29146 4.70888 3.94968C5.03752 3.6079 5.4425 3.34889 5.8906 3.19389C6.3387 3.03888 6.81716 2.9923 7.28675 3.05795C7.75634 3.12361 8.20367 3.29964 8.59207 3.5716C8.98048 3.84357 9.29888 4.20373 9.52118 4.62254C9.74349 5.04135 9.86335 5.50689 9.87095 5.98098C9.87855 6.45507 9.77366 6.92422 9.56489 7.34994C9.35613 7.77566 9.04942 8.14583 8.66994 8.4301" stroke="#000001" stroke-linecap="round" stroke-linejoin="round"/>
<path d="M7.5 11H10" stroke="#000001" stroke-linecap="round" stroke-linejoin="round"/>
</g>
<defs>
<clipPath id="clip0_6_5724">
<rect width="14" height="14" fill="white"/>
</clipPath>
</defs>
</svg>
