<svg width="14" height="14" viewBox="0 0 14 14" fill="none" xmlns="http://www.w3.org/2000/svg">
<g clip-path="url(#clip0_6_5742)">
<path d="M12.5 5.5H1.5C0.947715 5.5 0.5 5.94772 0.5 6.5V12.5C0.5 13.0523 0.947715 13.5 1.5 13.5H12.5C13.0523 13.5 13.5 13.0523 13.5 12.5V6.5C13.5 5.94772 13.0523 5.5 12.5 5.5Z" stroke="#000001" stroke-linecap="round" stroke-linejoin="round"/>
<path d="M3.5 10.75H10.5" stroke="#000001" stroke-linecap="round" stroke-linejoin="round"/>
<path d="M3.5 8.25H10.5" stroke="#000001" stroke-linecap="round" stroke-linejoin="round"/>
<path d="M3.5 5.5V4.5C3.5 3.96957 3.71071 3.46086 4.08579 3.08579C4.46086 2.71071 4.96957 2.5 5.5 2.5H9.5C10.0304 2.5 10.5391 2.28929 10.9142 1.91421C11.2893 1.53914 11.5 1.03043 11.5 0.5" stroke="#000001" stroke-linecap="round" stroke-linejoin="round"/>
</g>
<defs>
<clipPath id="clip0_6_5742">
<rect width="14" height="14" fill="white"/>
</clipPath>
</defs>
</svg>
