<svg width="14" height="14" viewBox="0 0 14 14" fill="none" xmlns="http://www.w3.org/2000/svg">
<g clip-path="url(#clip0_6_5600)">
<path d="M11.5 2H13C13.1326 2 13.2598 2.05268 13.3536 2.14645C13.4473 2.24021 13.5 2.36739 13.5 2.5V10.5C13.5 10.6326 13.4473 10.7598 13.3536 10.8536C13.2598 10.9473 13.1326 11 13 11H1C0.867392 11 0.740215 10.9473 0.646447 10.8536C0.552678 10.7598 0.5 10.6326 0.5 10.5V2.5C0.5 2.36739 0.552678 2.24021 0.646447 2.14645C0.740215 2.05268 0.867392 2 1 2H2.5" stroke="#000001" stroke-linecap="round" stroke-linejoin="round"/>
<path d="M6 11L5 13.5" stroke="#000001" stroke-linecap="round" stroke-linejoin="round"/>
<path d="M8 11L9 13.5" stroke="#000001" stroke-linecap="round" stroke-linejoin="round"/>
<path d="M4 13.5H10" stroke="#000001" stroke-linecap="round" stroke-linejoin="round"/>
<path d="M6.44992 2.3601C6.49296 2.24923 6.56852 2.15395 6.66667 2.08677C6.76482 2.01959 6.88098 1.98364 6.99992 1.98364C7.11886 1.98364 7.23502 2.01959 7.33317 2.08677C7.43132 2.15395 7.50687 2.24923 7.54992 2.3601L8.18992 4.0001H9.89992C10.0215 4.00189 10.1398 4.03997 10.2396 4.10947C10.3393 4.17896 10.4161 4.27668 10.4599 4.3901C10.4937 4.4965 10.4966 4.6103 10.4683 4.71827C10.4399 4.82625 10.3816 4.92397 10.2999 5.0001L8.78992 6.3401L9.42992 7.6201C9.48785 7.73247 9.50748 7.8607 9.48582 7.98526C9.46416 8.10982 9.40239 8.22389 9.30992 8.3101C9.2197 8.40015 9.10274 8.45856 8.97656 8.47658C8.85037 8.49461 8.72174 8.47129 8.60992 8.4101L6.99992 7.5301L5.38992 8.4101C5.27809 8.47129 5.14946 8.49461 5.02328 8.47658C4.89709 8.45856 4.78014 8.40015 4.68992 8.3101C4.59745 8.22389 4.53568 8.10982 4.51401 7.98526C4.49235 7.8607 4.51198 7.73247 4.56992 7.6201L5.20992 6.3401L3.69992 5.0001C3.61054 4.92072 3.54738 4.81606 3.51881 4.69999C3.49024 4.58391 3.4976 4.4619 3.53992 4.3501C3.58982 4.24416 3.66916 4.15483 3.76846 4.09277C3.86776 4.0307 3.98283 3.99853 4.09992 4.0001H5.80992L6.44992 2.3601Z" stroke="#000001" stroke-linecap="round" stroke-linejoin="round"/>
</g>
<defs>
<clipPath id="clip0_6_5600">
<rect width="14" height="14" fill="white"/>
</clipPath>
</defs>
</svg>
