<svg width="14" height="14" viewBox="0 0 14 14" fill="none" xmlns="http://www.w3.org/2000/svg">
<g clip-path="url(#clip0_6_5895)">
<path d="M10.1802 7.50007C10.1811 6.97149 10.3502 6.45692 10.6631 6.03084C10.9759 5.60476 11.4162 5.28928 11.9202 5.13007C11.7249 4.77037 11.456 4.4559 11.1309 4.20721C10.8058 3.95851 10.432 3.78119 10.0337 3.68681C9.63546 3.59244 9.22177 3.58314 8.81967 3.65952C8.41757 3.7359 8.03611 3.89624 7.70019 4.13007C7.54817 4.21784 7.37573 4.26405 7.20019 4.26405C7.02466 4.26405 6.85221 4.21784 6.70019 4.13007C6.3366 3.89946 5.92882 3.74738 5.50301 3.68358C5.07721 3.61978 4.64276 3.64567 4.22755 3.7596C3.81233 3.87352 3.42551 4.07297 3.09188 4.34514C2.75825 4.61731 2.48519 4.9562 2.29019 5.34007C1.73313 6.36601 1.54264 7.55126 1.75019 8.70007C1.91872 10.2779 2.60023 11.7569 3.69019 12.9101C4.0495 13.2509 4.51817 13.4531 5.01267 13.4806C5.50716 13.5081 5.99534 13.359 6.39019 13.0601C6.61741 12.892 6.89257 12.8013 7.17519 12.8013C7.45782 12.8013 7.73298 12.892 7.96019 13.0601C8.3391 13.3662 8.81421 13.5281 9.30118 13.5171C9.78815 13.5061 10.2555 13.3229 10.6202 13.0001C11.4435 12.169 12.0303 11.1334 12.3202 10.0001C11.7195 9.91703 11.1701 9.61681 10.7758 9.15616C10.3815 8.69551 10.1696 8.10635 10.1802 7.50007Z" stroke="#000001" stroke-linecap="round" stroke-linejoin="round"/>
<path d="M8.18018 2L9.68018 0.5" stroke="#000001" stroke-linecap="round" stroke-linejoin="round"/>
</g>
<defs>
<clipPath id="clip0_6_5895">
<rect width="14" height="14" fill="white"/>
</clipPath>
</defs>
</svg>
