<svg width="14" height="14" viewBox="0 0 14 14" fill="none" xmlns="http://www.w3.org/2000/svg">
<g clip-path="url(#clip0_6_5748)">
<path d="M13.5 2.5V1.5C13.5 1.23478 13.3946 0.98043 13.2071 0.792893C13.0196 0.605357 12.7652 0.5 12.5 0.5H1.5C1.23478 0.5 0.98043 0.605357 0.792893 0.792893C0.605357 0.98043 0.5 1.23478 0.5 1.5V2.5" stroke="#000001" stroke-linecap="round" stroke-linejoin="round"/>
<path d="M0.5 11.5V12.5C0.5 12.7652 0.605357 13.0196 0.792893 13.2071C0.98043 13.3946 1.23478 13.5 1.5 13.5H12.5C12.7652 13.5 13.0196 13.3946 13.2071 13.2071C13.3946 13.0196 13.5 12.7652 13.5 12.5V11.75" stroke="#000001" stroke-linecap="round" stroke-linejoin="round"/>
<path d="M10.5 5H13.5" stroke="#000001" stroke-linecap="round" stroke-linejoin="round"/>
<path d="M12 5V9" stroke="#000001" stroke-linecap="round" stroke-linejoin="round"/>
<path d="M6.5 5V9H8.5" stroke="#000001" stroke-linecap="round" stroke-linejoin="round"/>
<path d="M3.5 9V6.5C3.5 6.10218 3.34196 5.72064 3.06066 5.43934C2.77936 5.15804 2.39782 5 2 5C1.60218 5 1.22064 5.15804 0.93934 5.43934C0.658035 5.72064 0.5 6.10218 0.5 6.5V9" stroke="#000001" stroke-linecap="round" stroke-linejoin="round"/>
<path d="M0.5 7.5H3.5" stroke="#000001" stroke-linecap="round" stroke-linejoin="round"/>
</g>
<defs>
<clipPath id="clip0_6_5748">
<rect width="14" height="14" fill="white"/>
</clipPath>
</defs>
</svg>
