<svg width="14" height="14" viewBox="0 0 14 14" fill="none" xmlns="http://www.w3.org/2000/svg">
<g clip-path="url(#clip0_6_5525)">
<path d="M12.93 11.34C8.99655 10.78 5.00354 10.78 1.07004 11.34C0.999595 11.35 0.927831 11.3448 0.859546 11.3248C0.791262 11.3048 0.72803 11.2705 0.674075 11.2241C0.620121 11.1777 0.576687 11.1203 0.546675 11.0558C0.516664 10.9913 0.500766 10.9211 0.500044 10.85V2.48999C0.499081 2.41832 0.513853 2.34731 0.543318 2.28198C0.572783 2.21664 0.616223 2.15856 0.670576 2.11183C0.724928 2.06511 0.788869 2.03088 0.857891 2.01155C0.926912 1.99223 0.999332 1.98828 1.07004 1.99999C5.00425 2.55 8.99584 2.55 12.93 1.99999C12.9999 1.98842 13.0715 1.99215 13.1398 2.0109C13.2081 2.02965 13.2715 2.06298 13.3257 2.10861C13.3799 2.15423 13.4235 2.21106 13.4536 2.27517C13.4837 2.33929 13.4995 2.40916 13.5 2.47999V10.84C13.5008 10.912 13.4859 10.9833 13.4565 11.049C13.4271 11.1147 13.3839 11.1733 13.3298 11.2208C13.2757 11.2683 13.2119 11.3035 13.1429 11.3241C13.0739 11.3446 13.0013 11.3501 12.93 11.34V11.34Z" stroke="#000001" stroke-linecap="round" stroke-linejoin="round"/>
<path d="M7 10.9199V13.4199" stroke="#000001" stroke-linecap="round" stroke-linejoin="round"/>
<path d="M4.5 13.4199H9.5" stroke="#000001" stroke-linecap="round" stroke-linejoin="round"/>
</g>
<defs>
<clipPath id="clip0_6_5525">
<rect width="14" height="14" fill="white"/>
</clipPath>
</defs>
</svg>
