<svg width="14" height="14" viewBox="0 0 14 14" fill="none" xmlns="http://www.w3.org/2000/svg">
<g clip-path="url(#clip0_6_5736)">
<path d="M10.5 13.5C11.2956 13.5 12.0587 13.1839 12.6213 12.6213C13.1839 12.0587 13.5 11.2956 13.5 10.5C13.5 9.70435 13.1839 8.94129 12.6213 8.37868C12.0587 7.81607 11.2956 7.5 10.5 7.5H3.5C2.70435 7.5 1.94129 7.81607 1.37868 8.37868C0.81607 8.94129 0.5 9.70435 0.5 10.5C0.5 11.2956 0.81607 12.0587 1.37868 12.6213C1.94129 13.1839 2.70435 13.5 3.5 13.5H10.5Z" stroke="#000001" stroke-linecap="round" stroke-linejoin="round"/>
<path d="M0.580078 9.78992L2.17008 2.09992C2.26358 1.64137 2.51493 1.23012 2.88036 0.937774C3.2458 0.645425 3.70219 0.490483 4.17008 0.499919H9.87008C10.338 0.490483 10.7944 0.645425 11.1598 0.937774C11.5252 1.23012 11.7766 1.64137 11.8701 2.09992L13.4601 9.78992" stroke="#000001" stroke-linecap="round" stroke-linejoin="round"/>
<path d="M3.5 10.5H6.5" stroke="#000001" stroke-linecap="round" stroke-linejoin="round"/>
<path d="M10.5 11C10.7761 11 11 10.7761 11 10.5C11 10.2239 10.7761 10 10.5 10C10.2239 10 10 10.2239 10 10.5C10 10.7761 10.2239 11 10.5 11Z" stroke="#000001" stroke-linecap="round" stroke-linejoin="round"/>
</g>
<defs>
<clipPath id="clip0_6_5736">
<rect width="14" height="14" fill="white"/>
</clipPath>
</defs>
</svg>
