<svg width="14" height="14" viewBox="0 0 14 14" fill="none" xmlns="http://www.w3.org/2000/svg">
<g clip-path="url(#clip0_6_5652)">
<path d="M2.50003 8L0.720035 10.55C0.639743 10.7064 0.602089 10.8811 0.610867 11.0567C0.619645 11.2323 0.674545 11.4024 0.770035 11.55C0.860105 11.6941 0.985417 11.8129 1.13414 11.8951C1.28286 11.9774 1.45009 12.0203 1.62003 12.02H12.38C12.55 12.0203 12.7172 11.9774 12.8659 11.8951C13.0147 11.8129 13.14 11.6941 13.23 11.55C13.3178 11.398 13.364 11.2255 13.364 11.05C13.364 10.8745 13.3178 10.702 13.23 10.55L11.5 8" stroke="#000001" stroke-linecap="round" stroke-linejoin="round"/>
<path d="M3.5 2C3.23478 2 2.98043 2.10536 2.79289 2.29289C2.60536 2.48043 2.5 2.73478 2.5 3V8H11.5V3C11.5 2.73478 11.3946 2.48043 11.2071 2.29289C11.0196 2.10536 10.7652 2 10.5 2H3.5Z" stroke="#000001" stroke-linecap="round" stroke-linejoin="round"/>
</g>
<defs>
<clipPath id="clip0_6_5652">
<rect width="14" height="14" fill="white"/>
</clipPath>
</defs>
</svg>
