<svg width="14" height="14" viewBox="0 0 14 14" fill="none" xmlns="http://www.w3.org/2000/svg">
<g clip-path="url(#clip0_6_5901)">
<path d="M7.99992 3.99996C7.99992 2.99996 8.49992 2.99996 8.99992 2.99996H9.59992C9.7001 3.0013 9.79953 2.98256 9.89234 2.94485C9.98516 2.90713 10.0695 2.8512 10.1403 2.78036C10.2112 2.70951 10.2671 2.6252 10.3048 2.53238C10.3425 2.43957 10.3613 2.34014 10.3599 2.23996V1.29996C10.3599 1.19931 10.3399 1.09966 10.3011 1.00679C10.2623 0.913926 10.2054 0.829696 10.1338 0.758992C10.0622 0.688287 9.9772 0.632516 9.88383 0.594915C9.79047 0.557315 9.69056 0.538635 9.58992 0.539959L8.16992 0.519959C7.75645 0.503967 7.34443 0.577883 6.96231 0.736606C6.58018 0.895328 6.23705 1.13508 5.95659 1.43931C5.67613 1.74354 5.46502 2.105 5.33784 2.49875C5.21065 2.89249 5.17042 3.30915 5.21992 3.71996V5.16996H4.42992C4.22836 5.16996 4.03505 5.25003 3.89252 5.39256C3.74999 5.53509 3.66992 5.72839 3.66992 5.92996V6.86996C3.66992 7.07152 3.74999 7.26483 3.89252 7.40736C4.03505 7.54989 4.22836 7.62996 4.42992 7.62996H5.21992V13C5.21992 13.1326 5.2726 13.2597 5.36637 13.3535C5.46014 13.4473 5.58731 13.5 5.71992 13.5H7.52992C7.65726 13.4923 7.77686 13.4363 7.86424 13.3433C7.95161 13.2504 8.00015 13.1275 7.99992 13V7.62996H8.87992C9.08149 7.62996 9.2748 7.54989 9.41732 7.40736C9.55985 7.26483 9.63992 7.07152 9.63992 6.86996V5.92996C9.63992 5.72839 9.55985 5.53509 9.41732 5.39256C9.2748 5.25003 9.08149 5.16996 8.87992 5.16996H7.99992V3.99996Z" stroke="#000001" stroke-linecap="round" stroke-linejoin="round"/>
</g>
<defs>
<clipPath id="clip0_6_5901">
<rect width="14" height="14" fill="white"/>
</clipPath>
</defs>
</svg>
