<svg width="14" height="14" viewBox="0 0 14 14" fill="none" xmlns="http://www.w3.org/2000/svg">
<g clip-path="url(#clip0_6_5557)">
<path d="M11.5 0.5H2.5C1.94772 0.5 1.5 0.947715 1.5 1.5V7.5C1.5 8.05228 1.94772 8.5 2.5 8.5H11.5C12.0523 8.5 12.5 8.05228 12.5 7.5V1.5C12.5 0.947715 12.0523 0.5 11.5 0.5Z" stroke="#000001" stroke-linecap="round" stroke-linejoin="round"/>
<path d="M12.28 11.05C12.1962 10.8836 12.0675 10.7439 11.9084 10.6467C11.7494 10.5495 11.5664 10.4987 11.38 10.5H2.62003C2.43367 10.4987 2.25065 10.5495 2.09163 10.6467C1.9326 10.7439 1.8039 10.8836 1.72003 11.05L1.22003 12.05C1.13974 12.2064 1.10209 12.3812 1.11087 12.5567C1.11965 12.7323 1.17455 12.9024 1.27003 13.05C1.36011 13.1941 1.48542 13.3129 1.63414 13.3952C1.78286 13.4774 1.95009 13.5204 2.12003 13.52H11.88C12.05 13.5204 12.2172 13.4774 12.3659 13.3952C12.5147 13.3129 12.64 13.1941 12.73 13.05C12.8178 12.898 12.864 12.7256 12.864 12.55C12.864 12.3745 12.8178 12.202 12.73 12.05L12.28 11.05Z" stroke="#000001" stroke-linecap="round" stroke-linejoin="round"/>
<path d="M1.5 6H12.5" stroke="#000001" stroke-linecap="round" stroke-linejoin="round"/>
</g>
<defs>
<clipPath id="clip0_6_5557">
<rect width="14" height="14" fill="white"/>
</clipPath>
</defs>
</svg>
