<svg width="14" height="14" viewBox="0 0 14 14" fill="none" xmlns="http://www.w3.org/2000/svg">
<g clip-path="url(#clip0_6_5669)">
<path d="M12.82 3.75L10 5V3.5C10 3.23478 9.89464 2.98043 9.70711 2.79289C9.51957 2.60536 9.26522 2.5 9 2.5H1.5C1.23478 2.5 0.98043 2.60536 0.792893 2.79289C0.605357 2.98043 0.5 3.23478 0.5 3.5V10.5C0.5 10.7652 0.605357 11.0196 0.792893 11.2071C0.98043 11.3946 1.23478 11.5 1.5 11.5H9C9.26522 11.5 9.51957 11.3946 9.70711 11.2071C9.89464 11.0196 10 10.7652 10 10.5V9L12.82 10.25C12.896 10.2793 12.9781 10.2897 13.059 10.28C13.1399 10.2704 13.2173 10.2412 13.2843 10.1948C13.3513 10.1485 13.406 10.0865 13.4436 10.0142C13.4812 9.94189 13.5006 9.86149 13.5 9.78V4.22C13.5006 4.13851 13.4812 4.05811 13.4436 3.98581C13.406 3.91351 13.3513 3.85149 13.2843 3.80516C13.2173 3.75882 13.1399 3.72958 13.059 3.71996C12.9781 3.71035 12.896 3.72066 12.82 3.75V3.75Z" stroke="#000001" stroke-linecap="round" stroke-linejoin="round"/>
</g>
<defs>
<clipPath id="clip0_6_5669">
<rect width="14" height="14" fill="white"/>
</clipPath>
</defs>
</svg>
