<svg width="14" height="14" viewBox="0 0 14 14" fill="none" xmlns="http://www.w3.org/2000/svg">
<g clip-path="url(#clip0_6_5905)">
<path d="M3.53993 1.70993C3.54265 2.05926 3.40781 2.39563 3.16456 2.64637C2.92131 2.8971 2.58918 3.04206 2.23993 3.04993C1.89141 3.03714 1.56111 2.89095 1.31731 2.64156C1.0735 2.39218 0.934826 2.05866 0.929932 1.70993C0.945082 1.37017 1.08886 1.04888 1.33212 0.811191C1.57537 0.573505 1.89991 0.437208 2.23993 0.429932C2.57896 0.437344 2.90235 0.573979 3.14399 0.8119C3.38563 1.04982 3.52726 1.37106 3.53993 1.70993ZM1.06993 5.42993C1.06993 4.65993 1.55993 4.77993 2.23993 4.77993C2.91993 4.77993 3.39993 4.65993 3.39993 5.42993V12.9299C3.39993 13.7099 2.90993 13.5499 2.23993 13.5499C1.56993 13.5499 1.06993 13.7099 1.06993 12.9299V5.42993Z" stroke="#000001" stroke-linecap="round" stroke-linejoin="round"/>
<path d="M5.41992 5.42996C5.41992 4.99996 5.57992 4.83996 5.82992 4.78996C6.07992 4.73996 6.93992 4.78996 7.23992 4.78996C7.53992 4.78996 7.65992 5.27996 7.64992 5.64996C7.90654 5.30555 8.24724 5.03276 8.63944 4.85767C9.03163 4.68259 9.46219 4.61107 9.88992 4.64996C10.3099 4.62428 10.7307 4.68726 11.1248 4.83479C11.5189 4.98232 11.8775 5.21112 12.1774 5.50631C12.4773 5.8015 12.7118 6.15648 12.8655 6.54819C13.0193 6.9399 13.0889 7.35958 13.0699 7.77996V12.9C13.0699 13.68 12.5899 13.52 11.9099 13.52C11.2299 13.52 10.7499 13.68 10.7499 12.9V8.89996C10.7675 8.69409 10.7406 8.48685 10.671 8.29232C10.6014 8.09778 10.4907 7.9205 10.3465 7.77251C10.2023 7.62453 10.028 7.5093 9.83531 7.43467C9.64265 7.36003 9.43618 7.32773 9.22992 7.33996C9.02462 7.33475 8.82056 7.3732 8.63124 7.45278C8.44192 7.53235 8.27166 7.65124 8.13174 7.80156C7.99182 7.95188 7.88542 8.13021 7.8196 8.32474C7.75378 8.51927 7.73003 8.72556 7.74992 8.92996V12.93C7.74992 13.71 7.25992 13.55 6.57992 13.55C5.89992 13.55 5.41992 13.71 5.41992 12.93V5.42996Z" stroke="#000001" stroke-linecap="round" stroke-linejoin="round"/>
</g>
<defs>
<clipPath id="clip0_6_5905">
<rect width="14" height="14" fill="white"/>
</clipPath>
</defs>
</svg>
