<svg width="14" height="14" viewBox="0 0 14 14" fill="none" xmlns="http://www.w3.org/2000/svg">
<g clip-path="url(#clip0_6_5507)">
<path d="M0.5 13.5L13.5 0.5" stroke="#000001" stroke-linecap="round" stroke-linejoin="round"/>
<path d="M5.50001 8.5C5.18894 8.26767 4.93651 7.96583 4.76288 7.61856C4.58925 7.2713 4.49923 6.88825 4.50001 6.5V3C4.50001 2.33696 4.7634 1.70107 5.23224 1.23223C5.70108 0.763392 6.33696 0.5 7.00001 0.5C7.66305 0.5 8.29893 0.763392 8.76777 1.23223C9.23661 1.70107 9.50001 2.33696 9.50001 3V4.5" stroke="#000001" stroke-linecap="round" stroke-linejoin="round"/>
<path d="M9.27 7.54004C9.01458 8.09856 8.5625 8.54351 8 8.79004" stroke="#000001" stroke-linecap="round" stroke-linejoin="round"/>
<path d="M3.58002 10.42C3.08309 9.99975 2.68414 9.47583 2.41119 8.88501C2.13825 8.2942 1.99791 7.65081 2.00002 7V7" stroke="#000001" stroke-linecap="round" stroke-linejoin="round"/>
<path d="M11.9999 7C12.0013 7.59132 11.8858 8.17707 11.6601 8.72363C11.4344 9.27019 11.103 9.76679 10.6849 10.1849C10.2667 10.603 9.77014 10.9345 9.22358 11.1601C8.67701 11.3858 8.09126 11.5013 7.49994 11.5H6.49994C6.31341 11.51 6.12648 11.51 5.93994 11.5" stroke="#000001" stroke-linecap="round" stroke-linejoin="round"/>
<path d="M7 11.5V13.5" stroke="#000001" stroke-linecap="round" stroke-linejoin="round"/>
</g>
<defs>
<clipPath id="clip0_6_5507">
<rect width="14" height="14" fill="white"/>
</clipPath>
</defs>
</svg>
