<svg width="14" height="14" viewBox="0 0 14 14" fill="none" xmlns="http://www.w3.org/2000/svg">
<g clip-path="url(#clip0_6_5961)">
<path d="M12.5 9.5C12.5 6.5 10.04 4.5 7 4.5C3.96 4.5 1.5 6.5 1.5 9.5V13.5H12.5V9.5Z" stroke="#000001" stroke-linecap="round" stroke-linejoin="round"/>
<path d="M7 4.5V0.5" stroke="#000001" stroke-linecap="round" stroke-linejoin="round"/>
<path d="M1.5 10.5H12.5" stroke="#000001" stroke-linecap="round" stroke-linejoin="round"/>
<path d="M5 10.5V13.5" stroke="#000001" stroke-linecap="round" stroke-linejoin="round"/>
<path d="M9 10.5V13.5" stroke="#000001" stroke-linecap="round" stroke-linejoin="round"/>
<path d="M5 8.5C5.27614 8.5 5.5 8.27614 5.5 8C5.5 7.72386 5.27614 7.5 5 7.5C4.72386 7.5 4.5 7.72386 4.5 8C4.5 8.27614 4.72386 8.5 5 8.5Z" stroke="#000001" stroke-linecap="round" stroke-linejoin="round"/>
<path d="M9 8.5C9.27614 8.5 9.5 8.27614 9.5 8C9.5 7.72386 9.27614 7.5 9 7.5C8.72386 7.5 8.5 7.72386 8.5 8C8.5 8.27614 8.72386 8.5 9 8.5Z" stroke="#000001" stroke-linecap="round" stroke-linejoin="round"/>
</g>
<defs>
<clipPath id="clip0_6_5961">
<rect width="14" height="14" fill="white"/>
</clipPath>
</defs>
</svg>
