<svg width="14" height="14" viewBox="0 0 14 14" fill="none" xmlns="http://www.w3.org/2000/svg">
<g clip-path="url(#clip0_6_5656)">
<path d="M11 5.5H12.5C12.7652 5.5 13.0196 5.60536 13.2071 5.79289C13.3946 5.98043 13.5 6.23478 13.5 6.5V12.5C13.5 12.7652 13.3946 13.0196 13.2071 13.2071C13.0196 13.3946 12.7652 13.5 12.5 13.5H9" stroke="#000001" stroke-linecap="round" stroke-linejoin="round"/>
<path d="M7.5 5.5H1.5C0.947715 5.5 0.5 5.94772 0.5 6.5V10.5C0.5 11.0523 0.947715 11.5 1.5 11.5H7.5C8.05228 11.5 8.5 11.0523 8.5 10.5V6.5C8.5 5.94772 8.05228 5.5 7.5 5.5Z" stroke="#000001" stroke-linecap="round" stroke-linejoin="round"/>
<path d="M4.5 11.5V13.5" stroke="#000001" stroke-linecap="round" stroke-linejoin="round"/>
<path d="M2.5 13.5H6.5" stroke="#000001" stroke-linecap="round" stroke-linejoin="round"/>
</g>
<defs>
<clipPath id="clip0_6_5656">
<rect width="14" height="14" fill="white"/>
</clipPath>
</defs>
</svg>
