<svg width="14" height="14" viewBox="0 0 14 14" fill="none" xmlns="http://www.w3.org/2000/svg">
<g clip-path="url(#clip0_6_5909)">
<path d="M8.61994 1.58989L3.59994 0.509887C3.53621 0.493599 3.46985 0.490311 3.40482 0.500219C3.33979 0.510126 3.27742 0.533027 3.22142 0.567555C3.16543 0.602084 3.11697 0.647532 3.07891 0.701193C3.04086 0.754853 3.01401 0.815625 2.99994 0.879887L1.63995 7.28989L0.629945 11.9999C0.603062 12.1258 0.626805 12.2572 0.696042 12.3657C0.765278 12.4743 0.874446 12.5512 0.999945 12.5799L2.19995 12.8399C2.26298 12.8531 2.328 12.8537 2.39128 12.8417C2.45455 12.8297 2.51485 12.8054 2.56872 12.7701C2.62258 12.7348 2.66896 12.6893 2.70521 12.636C2.74145 12.5828 2.76685 12.5229 2.77994 12.4599L3.77994 7.77989L7.21994 8.51989C7.73235 8.63007 8.26289 8.62444 8.77284 8.50341C9.28279 8.38237 9.75928 8.14899 10.1675 7.82029C10.5757 7.49159 10.9054 7.07588 11.1325 6.6035C11.3596 6.13112 11.4783 5.614 11.4799 5.08989C11.4765 4.26709 11.1905 3.47044 10.6699 2.8333C10.1493 2.19615 9.42556 1.75719 8.61994 1.58989V1.58989ZM7.25995 6.24989L4.25995 5.59989L4.80995 2.99989L7.80995 3.64989C8.15207 3.72415 8.45069 3.93128 8.6401 4.22571C8.82951 4.52014 8.8942 4.87776 8.81994 5.21989C8.74568 5.56202 8.53856 5.86063 8.24412 6.05004C7.94969 6.23946 7.59207 6.30415 7.24995 6.22989L7.25995 6.24989Z" stroke="#000001" stroke-linecap="round" stroke-linejoin="round"/>
<path d="M5.15991 13.5L5.77991 10.6L8.77991 11.23C11.0199 11.72 13.3799 9.37 13.4099 6.94C13.4103 6.53494 13.3427 6.13268 13.2099 5.75" stroke="#000001" stroke-linecap="round" stroke-linejoin="round"/>
</g>
<defs>
<clipPath id="clip0_6_5909">
<rect width="14" height="14" fill="white"/>
</clipPath>
</defs>
</svg>
