<svg width="14" height="14" viewBox="0 0 14 14" fill="none" xmlns="http://www.w3.org/2000/svg">
<g clip-path="url(#clip0_6_5903)">
<path d="M11.3601 5.8299H8.87008C8.80225 5.82988 8.73511 5.8434 8.67257 5.86965C8.61004 5.8959 8.55336 5.93437 8.50587 5.98279C8.45838 6.03121 8.42103 6.08862 8.39599 6.15166C8.37096 6.21469 8.35875 6.28209 8.36008 6.3499V7.7599C8.36008 7.89516 8.41381 8.02488 8.50945 8.12052C8.6051 8.21616 8.73482 8.2699 8.87008 8.2699H10.1601C10.1673 8.65641 10.093 9.04011 9.9419 9.39596C9.79083 9.75181 9.56643 10.0718 9.28334 10.3351C9.00026 10.5983 8.66485 10.799 8.29899 10.9239C7.93313 11.0488 7.54506 11.0951 7.16008 11.0599C4.92008 11.0599 3.84008 9.1599 3.84008 6.9999C3.84008 4.8399 5.00008 2.9399 7.16008 2.9399C8.11368 2.90825 9.04809 3.21264 9.80008 3.7999C9.86018 3.83923 9.9282 3.86487 9.99932 3.875C10.0704 3.88513 10.1429 3.8795 10.2116 3.85851C10.2803 3.83752 10.3435 3.80168 10.3968 3.75354C10.4502 3.70539 10.4922 3.64611 10.5201 3.5799L11.1501 2.1399C11.2019 2.03376 11.2153 1.91293 11.1879 1.79803C11.1605 1.68313 11.0942 1.58129 11.0001 1.5099C9.85335 0.824193 8.53579 0.477466 7.20008 0.509896C3.56008 0.499896 1.08008 3.3299 1.08008 6.9999C1.08008 10.6699 3.57008 13.4999 7.16008 13.4999C10.7501 13.4999 12.9201 10.9399 12.9201 7.4999C12.9201 6.3999 12.4801 5.8299 11.3601 5.8299Z" stroke="#000001" stroke-linecap="round" stroke-linejoin="round"/>
</g>
<defs>
<clipPath id="clip0_6_5903">
<rect width="14" height="14" fill="white"/>
</clipPath>
</defs>
</svg>
