<svg width="14" height="14" viewBox="0 0 14 14" fill="none" xmlns="http://www.w3.org/2000/svg">
<g clip-path="url(#clip0_6_5934)">
<path d="M13.5 6.5H0.5V11.5C0.5 11.7652 0.605357 12.0196 0.792893 12.2071C0.98043 12.3946 1.23478 12.5 1.5 12.5H4.5C4.65021 12.4993 4.79832 12.4648 4.93336 12.399C5.06839 12.3332 5.18687 12.2379 5.28 12.12L6.59 10.49C6.63685 10.4316 6.69622 10.3845 6.76372 10.3521C6.83122 10.3197 6.90513 10.3029 6.98 10.3029C7.05487 10.3029 7.12878 10.3197 7.19628 10.3521C7.26378 10.3845 7.32315 10.4316 7.37 10.49L8.7 12.12C8.79313 12.2379 8.91161 12.3332 9.04664 12.399C9.18167 12.4648 9.32979 12.4993 9.48 12.5H12.48C12.7452 12.5 12.9996 12.3946 13.1871 12.2071C13.3746 12.0196 13.48 11.7652 13.48 11.5L13.5 6.5Z" stroke="#000001" stroke-linecap="round" stroke-linejoin="round"/>
<path d="M13.5 6.50001L10.79 2.00001C10.7015 1.85073 10.5757 1.72706 10.4249 1.64115C10.2741 1.55523 10.1035 1.51004 9.93 1.51001H4.07C3.89646 1.51004 3.72591 1.55523 3.57512 1.64115C3.42434 1.72706 3.29851 1.85073 3.21 2.00001L0.5 6.50001" stroke="#000001" stroke-linecap="round" stroke-linejoin="round"/>
</g>
<defs>
<clipPath id="clip0_6_5934">
<rect width="14" height="14" fill="white"/>
</clipPath>
</defs>
</svg>
