<svg width="14" height="14" viewBox="0 0 14 14" fill="none" xmlns="http://www.w3.org/2000/svg">
<g clip-path="url(#clip0_6_5930)">
<path d="M11.5 2H2.5C1.39543 2 0.5 2.89543 0.5 4V10C0.5 11.1046 1.39543 12 2.5 12H11.5C12.6046 12 13.5 11.1046 13.5 10V4C13.5 2.89543 12.6046 2 11.5 2Z" stroke="#000001" stroke-linecap="round" stroke-linejoin="round"/>
<path d="M5.31023 9.31998V5.11998C5.30814 5.04907 5.32543 4.97894 5.36024 4.91713C5.39505 4.85532 5.44607 4.80417 5.50778 4.7692C5.5695 4.73422 5.63959 4.71675 5.7105 4.71865C5.78142 4.72055 5.85047 4.74175 5.91023 4.77998L9.51023 6.87998C9.57038 6.91527 9.62026 6.96568 9.65491 7.0262C9.68957 7.08671 9.7078 7.15524 9.7078 7.22498C9.7078 7.29472 9.68957 7.36325 9.65491 7.42376C9.62026 7.48428 9.57038 7.53469 9.51023 7.56998L5.91023 9.66998C5.84916 9.70524 5.77985 9.72374 5.70933 9.72358C5.6388 9.72342 5.56958 9.70462 5.50866 9.66909C5.44775 9.63356 5.39731 9.58255 5.36246 9.52124C5.32761 9.45993 5.30959 9.3905 5.31023 9.31998V9.31998Z" stroke="#000001" stroke-linecap="round" stroke-linejoin="round"/>
</g>
<defs>
<clipPath id="clip0_6_5930">
<rect width="14" height="14" fill="white"/>
</clipPath>
</defs>
</svg>
