<svg width="14" height="14" viewBox="0 0 14 14" fill="none" xmlns="http://www.w3.org/2000/svg">
<g clip-path="url(#clip0_6_5692)">
<path d="M12.5 1H1.5C0.947715 1 0.5 1.44772 0.5 2V6C0.5 6.55228 0.947715 7 1.5 7H12.5C13.0523 7 13.5 6.55228 13.5 6V2C13.5 1.44772 13.0523 1 12.5 1Z" stroke="#000001" stroke-linecap="round" stroke-linejoin="round"/>
<path d="M3.5 4.5C3.77614 4.5 4 4.27614 4 4C4 3.72386 3.77614 3.5 3.5 3.5C3.22386 3.5 3 3.72386 3 4C3 4.27614 3.22386 4.5 3.5 4.5Z" stroke="#000001" stroke-linecap="round" stroke-linejoin="round"/>
<path d="M7.5 4H11" stroke="#000001" stroke-linecap="round" stroke-linejoin="round"/>
<path d="M1.5 7C1.23478 7 0.98043 7.10536 0.792893 7.29289C0.605357 7.48043 0.5 7.73478 0.5 8V12C0.5 12.2652 0.605357 12.5196 0.792893 12.7071C0.98043 12.8946 1.23478 13 1.5 13H12.5C12.7652 13 13.0196 12.8946 13.2071 12.7071C13.3946 12.5196 13.5 12.2652 13.5 12V8C13.5 7.73478 13.3946 7.48043 13.2071 7.29289C13.0196 7.10536 12.7652 7 12.5 7" stroke="#000001" stroke-linecap="round" stroke-linejoin="round"/>
<path d="M3.5 10.5C3.77614 10.5 4 10.2761 4 10C4 9.72386 3.77614 9.5 3.5 9.5C3.22386 9.5 3 9.72386 3 10C3 10.2761 3.22386 10.5 3.5 10.5Z" stroke="#000001" stroke-linecap="round" stroke-linejoin="round"/>
<path d="M7.5 10H11" stroke="#000001" stroke-linecap="round" stroke-linejoin="round"/>
</g>
<defs>
<clipPath id="clip0_6_5692">
<rect width="14" height="14" fill="white"/>
</clipPath>
</defs>
</svg>
