<svg width="14" height="14" viewBox="0 0 14 14" fill="none" xmlns="http://www.w3.org/2000/svg">
<g clip-path="url(#clip0_6_5873)">
<path d="M6.96997 13.5C8.07454 13.5 8.96997 12.6046 8.96997 11.5C8.96997 10.3954 8.07454 9.5 6.96997 9.5C5.8654 9.5 4.96997 10.3954 4.96997 11.5C4.96997 12.6046 5.8654 13.5 6.96997 13.5Z" stroke="#000001" stroke-linecap="round" stroke-linejoin="round"/>
<path d="M6.96997 9.5V0.5" stroke="#000001" stroke-linecap="round" stroke-linejoin="round"/>
<path d="M5.46997 2L6.96997 0.5L8.46997 2" stroke="#000001" stroke-linecap="round" stroke-linejoin="round"/>
<path d="M5.9999 9.77999C5.42683 9.60875 4.89766 9.31538 4.44883 8.92006C3.99999 8.52473 3.64214 8.03685 3.3999 7.48999" stroke="#000001" stroke-linecap="round" stroke-linejoin="round"/>
<path d="M3.21997 7.5C3.91033 7.5 4.46997 6.94036 4.46997 6.25C4.46997 5.55964 3.91033 5 3.21997 5C2.52961 5 1.96997 5.55964 1.96997 6.25C1.96997 6.94036 2.52961 7.5 3.21997 7.5Z" stroke="#000001" stroke-linecap="round" stroke-linejoin="round"/>
<path d="M7 8.60003C7.76762 8.36803 8.47645 7.97387 9.07856 7.44422C9.68067 6.91458 10.162 6.26179 10.49 5.53003" stroke="#000001" stroke-linecap="round" stroke-linejoin="round"/>
<path d="M10.78 5.57007C11.4704 5.57007 12.03 5.01042 12.03 4.32007C12.03 3.62971 11.4704 3.07007 10.78 3.07007C10.0897 3.07007 9.53003 3.62971 9.53003 4.32007C9.53003 5.01042 10.0897 5.57007 10.78 5.57007Z" stroke="#000001" stroke-linecap="round" stroke-linejoin="round"/>
</g>
<defs>
<clipPath id="clip0_6_5873">
<rect width="14" height="14" fill="white"/>
</clipPath>
</defs>
</svg>
