<svg width="80" height="80" viewBox="0 0 80 80" fill="none" xmlns="http://www.w3.org/2000/svg">
<path d="M4.9948 70C3.66285 70 2.4974 69.5 1.49844 68.5C0.49948 67.5 0 66.3333 0 65V15C0 13.6667 0.49948 12.5 1.49844 11.5C2.4974 10.5 3.66285 10 4.9948 10H75.0052C76.3372 10 77.5027 10.5 78.5015 11.5C79.5005 12.5 80 13.6667 80 15V65C80 66.3333 79.5005 67.5 78.5015 68.5C77.5027 69.5 76.3372 70 75.0052 70H4.9948ZM27.4713 46.6667C30.2463 46.6667 32.605 45.6945 34.5473 43.75C36.4898 41.8055 37.461 39.4445 37.461 36.6667C37.461 33.8888 36.4898 31.5278 34.5473 29.5833C32.605 27.6388 30.2463 26.6667 27.4713 26.6667C24.6965 26.6667 22.3378 27.6388 20.3955 29.5833C18.453 31.5278 17.4818 33.8888 17.4818 36.6667C17.4818 39.4445 18.453 41.8055 20.3955 43.75C22.3378 45.6945 24.6965 46.6667 27.4713 46.6667ZM63.0177 61L69.4277 54.6667L64.6827 47.9167H58.8553C58.4668 46.5278 58.1478 45.2778 57.898 44.1667C57.6483 43.0555 57.5233 41.7778 57.5233 40.3333C57.5233 38.8888 57.6483 37.5417 57.898 36.2917C58.1478 35.0417 58.4668 33.6945 58.8553 32.25H64.6827L69.4277 25.5L63.0177 19.1667C59.9653 21.6667 57.5928 24.7917 55.9002 28.5417C54.2075 32.2917 53.361 36.2222 53.361 40.3333C53.361 44.3888 54.2075 48.2222 55.9002 51.8333C57.5928 55.4445 59.9653 58.5 63.0177 61ZM5.57752 65H49.282C46.7847 61.1667 43.649 58.1388 39.8752 55.9167C36.1013 53.6945 31.9667 52.5833 27.4713 52.5833C23.0315 52.5833 18.8832 53.6945 15.026 55.9167C11.1689 58.1388 8.01942 61.1667 5.57752 65Z" fill="white"/>
</svg>
