<svg width="14" height="14" viewBox="0 0 14 14" fill="none" xmlns="http://www.w3.org/2000/svg">
<g clip-path="url(#clip0_6_6361)">
<path d="M2.62993 8.13004C0.84993 10.49 0.0499302 12.53 0.75993 13.24C1.75993 14.24 5.35993 12.24 8.75993 8.80004C12.1599 5.36004 14.1999 1.80004 13.1999 0.800042C12.5599 0.150042 10.8199 0.800042 8.72993 2.21004" stroke="#000001" stroke-linecap="round" stroke-linejoin="round"/>
<path d="M12.05 4.91992C12.3986 5.68188 12.5501 6.51922 12.4906 7.355C12.4311 8.19079 12.1625 8.99822 11.7095 9.70311C11.2565 10.408 10.6336 10.9877 9.89809 11.3891C9.16255 11.7904 8.33795 12.0005 7.50005 11.9999C6.83065 12.0002 6.16785 11.8676 5.55005 11.6099" stroke="#000001" stroke-linecap="round" stroke-linejoin="round"/>
<path d="M3.50001 10C2.77786 9.03715 2.42727 7.84611 2.51259 6.64556C2.59791 5.44501 3.11342 4.31553 3.96447 3.46447C4.81553 2.61342 5.94501 2.09791 7.14556 2.01259C8.34611 1.92727 9.53715 2.27786 10.5 3.00001" stroke="#000001" stroke-linecap="round" stroke-linejoin="round"/>
</g>
<defs>
<clipPath id="clip0_6_6361">
<rect width="14" height="14" fill="white"/>
</clipPath>
</defs>
</svg>
