<svg width="14" height="14" viewBox="0 0 14 14" fill="none" xmlns="http://www.w3.org/2000/svg">
<g clip-path="url(#clip0_6_6345)">
<path d="M13.5 5.5C13.5 9.09 10.55 13.5 7 13.5C3.45 13.5 0.5 9.09 0.5 5.5C0.5 1.91 3.41 0.5 7 0.5C10.59 0.5 13.5 1.91 13.5 5.5Z" stroke="#000001" stroke-linecap="round" stroke-linejoin="round"/>
<path d="M2.75007 4.75007C2.65995 5.16863 2.65695 5.60126 2.74125 6.02104C2.82555 6.44081 2.99534 6.83874 3.24007 7.19007C3.59139 7.43479 3.98932 7.60458 4.40909 7.68888C4.82887 7.77318 5.2615 7.77018 5.68007 7.68007C5.77018 7.2615 5.77318 6.82887 5.68888 6.40909C5.60458 5.98932 5.43479 5.59139 5.19007 5.24007C4.83874 4.99534 4.44081 4.82555 4.02104 4.74125C3.60126 4.65695 3.16863 4.65995 2.75007 4.75007Z" stroke="#000001" stroke-linecap="round" stroke-linejoin="round"/>
<path d="M11.2499 4.75007C11.34 5.16863 11.343 5.60126 11.2587 6.02104C11.1744 6.44081 11.0046 6.83874 10.7599 7.19007C10.4086 7.43479 10.0106 7.60458 9.59086 7.68888C9.17109 7.77318 8.73845 7.77018 8.31989 7.68007C8.22977 7.2615 8.22677 6.82887 8.31107 6.40909C8.39537 5.98932 8.56517 5.59139 8.80989 5.24007C9.16121 4.99534 9.55914 4.82555 9.97892 4.74125C10.3987 4.65695 10.8313 4.65995 11.2499 4.75007Z" stroke="#000001" stroke-linecap="round" stroke-linejoin="round"/>
</g>
<defs>
<clipPath id="clip0_6_6345">
<rect width="14" height="14" fill="white"/>
</clipPath>
</defs>
</svg>
