<svg width="14" height="14" viewBox="0 0 14 14" fill="none" xmlns="http://www.w3.org/2000/svg">
<g clip-path="url(#clip0_6_6682)">
<path d="M7 13.5C10.5899 13.5 13.5 10.5899 13.5 7C13.5 3.41015 10.5899 0.5 7 0.5C3.41015 0.5 0.5 3.41015 0.5 7C0.5 10.5899 3.41015 13.5 7 13.5Z" stroke="#000001" stroke-linecap="round" stroke-linejoin="round"/>
<path d="M8.5 4.5H5.5C4.94772 4.5 4.5 4.94772 4.5 5.5V8.5C4.5 9.05228 4.94772 9.5 5.5 9.5H8.5C9.05228 9.5 9.5 9.05228 9.5 8.5V5.5C9.5 4.94772 9.05228 4.5 8.5 4.5Z" stroke="#000001" stroke-linecap="round" stroke-linejoin="round"/>
</g>
<defs>
<clipPath id="clip0_6_6682">
<rect width="14" height="14" fill="white"/>
</clipPath>
</defs>
</svg>
