<svg width="14" height="14" viewBox="0 0 14 14" fill="none" xmlns="http://www.w3.org/2000/svg">
<g clip-path="url(#clip0_6_6656)">
<path d="M0.5 0.5V13.5" stroke="#000001" stroke-linecap="round" stroke-linejoin="round"/>
<path d="M13.4999 11.6599C13.5004 11.8398 13.4524 12.0165 13.3609 12.1714C13.2693 12.3263 13.1377 12.4536 12.9799 12.5399C12.8279 12.6277 12.6555 12.6739 12.4799 12.6739C12.3044 12.6739 12.132 12.6277 11.9799 12.5399L4.78993 7.83994C4.64959 7.74929 4.53419 7.62491 4.45429 7.47817C4.37438 7.33144 4.33252 7.16702 4.33252 6.99994C4.33252 6.83286 4.37438 6.66844 4.45429 6.52171C4.53419 6.37497 4.64959 6.2506 4.78993 6.15994L11.9999 1.49994C12.152 1.41217 12.3244 1.36597 12.4999 1.36597C12.6755 1.36597 12.8479 1.41217 12.9999 1.49994C13.1577 1.58629 13.2893 1.71361 13.3809 1.86848C13.4724 2.02336 13.5204 2.20005 13.5199 2.37994L13.4999 11.6599Z" stroke="#000001" stroke-linecap="round" stroke-linejoin="round"/>
</g>
<defs>
<clipPath id="clip0_6_6656">
<rect width="14" height="14" fill="white"/>
</clipPath>
</defs>
</svg>
