<svg width="14" height="14" viewBox="0 0 14 14" fill="none" xmlns="http://www.w3.org/2000/svg">
<g clip-path="url(#clip0_6_6493)">
<path d="M5.5 10.5C8.26142 10.5 10.5 8.26142 10.5 5.5C10.5 2.73858 8.26142 0.5 5.5 0.5C2.73858 0.5 0.5 2.73858 0.5 5.5C0.5 8.26142 2.73858 10.5 5.5 10.5Z" stroke="#000001" stroke-linecap="round" stroke-linejoin="round"/>
<path d="M5.5 7C6.32843 7 7 6.32843 7 5.5C7 4.67157 6.32843 4 5.5 4C4.67157 4 4 4.67157 4 5.5C4 6.32843 4.67157 7 5.5 7Z" stroke="#000001" stroke-linecap="round" stroke-linejoin="round"/>
<path d="M10.5 5.5V12C10.5 12.3978 10.658 12.7794 10.9393 13.0607C11.2206 13.342 11.6022 13.5 12 13.5C12.3978 13.5 12.7794 13.342 13.0607 13.0607C13.342 12.7794 13.5 12.3978 13.5 12V11.5" stroke="#000001" stroke-linecap="round" stroke-linejoin="round"/>
</g>
<defs>
<clipPath id="clip0_6_6493">
<rect width="14" height="14" fill="white"/>
</clipPath>
</defs>
</svg>
