<svg width="14" height="14" viewBox="0 0 14 14" fill="none" xmlns="http://www.w3.org/2000/svg">
<g clip-path="url(#clip0_6_6690)">
<path d="M3.5 6.5C5.15685 6.5 6.5 5.15685 6.5 3.5C6.5 1.84315 5.15685 0.5 3.5 0.5C1.84315 0.5 0.5 1.84315 0.5 3.5C0.5 5.15685 1.84315 6.5 3.5 6.5Z" stroke="#000001" stroke-linecap="round" stroke-linejoin="round"/>
<path d="M10.5 6.5C11.6046 6.5 12.5 5.60457 12.5 4.5C12.5 3.39543 11.6046 2.5 10.5 2.5C9.39543 2.5 8.5 3.39543 8.5 4.5C8.5 5.60457 9.39543 6.5 10.5 6.5Z" stroke="#000001" stroke-linecap="round" stroke-linejoin="round"/>
<path d="M10 9H4.5C3.94772 9 3.5 9.44772 3.5 10V12.5C3.5 13.0523 3.94772 13.5 4.5 13.5H10C10.5523 13.5 11 13.0523 11 12.5V10C11 9.44772 10.5523 9 10 9Z" stroke="#000001" stroke-linecap="round" stroke-linejoin="round"/>
<path d="M13.5 10V12.5" stroke="#000001" stroke-linecap="round" stroke-linejoin="round"/>
</g>
<defs>
<clipPath id="clip0_6_6690">
<rect width="14" height="14" fill="white"/>
</clipPath>
</defs>
</svg>
