<svg width="14" height="14" viewBox="0 0 14 14" fill="none" xmlns="http://www.w3.org/2000/svg">
<g clip-path="url(#clip0_6_6508)">
<path d="M2.5 0.500003C1.76258 0.498921 1.0506 0.769474 0.5 1.26V5.74C1.0506 6.23053 1.76258 6.50109 2.5 6.5C2.66632 6.51524 2.83368 6.51524 3 6.5V12.29C3 12.6215 3.1317 12.9395 3.36612 13.1739C3.60054 13.4083 3.91848 13.54 4.25 13.54C4.58152 13.54 4.89946 13.4083 5.13388 13.1739C5.3683 12.9395 5.5 12.6215 5.5 12.29V3.5C5.5 2.70435 5.18393 1.94129 4.62132 1.37868C4.05871 0.816074 3.29565 0.500003 2.5 0.500003V0.500003Z" stroke="#000001" stroke-linecap="round" stroke-linejoin="round"/>
<path d="M11.5 0.500003C12.2374 0.498921 12.9494 0.769474 13.5 1.26V5.74C12.9494 6.23053 12.2374 6.50109 11.5 6.5C11.3337 6.51524 11.1663 6.51524 11 6.5V12.29C11 12.6215 10.8683 12.9395 10.6339 13.1739C10.3995 13.4083 10.0815 13.54 9.75 13.54C9.41848 13.54 9.10054 13.4083 8.86612 13.1739C8.6317 12.9395 8.5 12.6215 8.5 12.29V3.5C8.5 2.70435 8.81607 1.94129 9.37868 1.37868C9.94129 0.816074 10.7044 0.500003 11.5 0.500003V0.500003Z" stroke="#000001" stroke-linecap="round" stroke-linejoin="round"/>
</g>
<defs>
<clipPath id="clip0_6_6508">
<rect width="14" height="14" fill="white"/>
</clipPath>
</defs>
</svg>
