<svg width="14" height="14" viewBox="0 0 14 14" fill="none" xmlns="http://www.w3.org/2000/svg">
<g clip-path="url(#clip0_6_6571)">
<path d="M3 5H1.5C1.23478 5 0.98043 5.10536 0.792893 5.29289C0.605357 5.48043 0.5 5.73478 0.5 6V8C0.5 8.26522 0.605357 8.51957 0.792893 8.70711C0.98043 8.89464 1.23478 9 1.5 9H3V5Z" stroke="#000001" stroke-linecap="round" stroke-linejoin="round"/>
<path d="M3 9.00011L6.91 11.8101C7.05487 11.9103 7.22364 11.9705 7.39924 11.9846C7.57484 11.9986 7.75104 11.966 7.91 11.8901C8.08239 11.8127 8.22931 11.688 8.33373 11.5304C8.43816 11.3729 8.49581 11.189 8.5 11.0001V3.00011C8.50428 2.82052 8.4601 2.64311 8.37212 2.4865C8.28414 2.32989 8.15559 2.19987 8 2.11011C7.84104 2.03418 7.66484 2.00159 7.48924 2.01564C7.31364 2.02968 7.14487 2.08987 7 2.19011L3 5.00011" stroke="#000001" stroke-linecap="round" stroke-linejoin="round"/>
<path d="M10.5 5.5C10.8476 5.92029 11.0259 6.45518 11 7C11.0259 7.54482 10.8476 8.07971 10.5 8.5" stroke="#000001" stroke-linecap="round" stroke-linejoin="round"/>
</g>
<defs>
<clipPath id="clip0_6_6571">
<rect width="14" height="14" fill="white"/>
</clipPath>
</defs>
</svg>
