<svg width="14" height="14" viewBox="0 0 14 14" fill="none" xmlns="http://www.w3.org/2000/svg">
<g clip-path="url(#clip0_6_6512)">
<path d="M12.5 4H1.5C0.947715 4 0.5 4.44772 0.5 5V12.5C0.5 13.0523 0.947715 13.5 1.5 13.5H12.5C13.0523 13.5 13.5 13.0523 13.5 12.5V5C13.5 4.44772 13.0523 4 12.5 4Z" stroke="#000001" stroke-linecap="round" stroke-linejoin="round"/>
<path d="M2 4L13.5 0.5" stroke="#000001" stroke-linecap="round" stroke-linejoin="round"/>
<path d="M4.5 11.5C5.32843 11.5 6 10.8284 6 10C6 9.17157 5.32843 8.5 4.5 8.5C3.67157 8.5 3 9.17157 3 10C3 10.8284 3.67157 11.5 4.5 11.5Z" stroke="#000001" stroke-linecap="round" stroke-linejoin="round"/>
<path d="M9.5 8.75H11" stroke="#000001" stroke-linecap="round" stroke-linejoin="round"/>
<path d="M9.5 11.25H11" stroke="#000001" stroke-linecap="round" stroke-linejoin="round"/>
<path d="M0.5 6.5H13.5" stroke="#000001" stroke-linecap="round" stroke-linejoin="round"/>
</g>
<defs>
<clipPath id="clip0_6_6512">
<rect width="14" height="14" fill="white"/>
</clipPath>
</defs>
</svg>
