<svg width="14" height="14" viewBox="0 0 14 14" fill="none" xmlns="http://www.w3.org/2000/svg">
<g clip-path="url(#clip0_6_6643)">
<path d="M13.5 2.5V11.5" stroke="#000001" stroke-linecap="round" stroke-linejoin="round"/>
<path d="M10.5 2.5V11.5" stroke="#000001" stroke-linecap="round" stroke-linejoin="round"/>
<path d="M0.500005 10.29C0.499521 10.4172 0.533711 10.5422 0.598901 10.6514C0.664091 10.7607 0.757817 10.8501 0.870005 10.91C0.980283 10.9761 1.10644 11.011 1.23501 11.011C1.36357 11.011 1.48973 10.9761 1.60001 10.91L6.68001 7.61004C6.77911 7.54676 6.86068 7.45954 6.91718 7.35643C6.97369 7.25331 7.00331 7.13762 7.00331 7.02004C7.00331 6.90246 6.97369 6.78677 6.91718 6.68365C6.86068 6.58053 6.77911 6.49331 6.68001 6.43004L1.60001 3.11004C1.48973 3.04394 1.36357 3.00903 1.23501 3.00903C1.10644 3.00903 0.980283 3.04394 0.870005 3.11004C0.757817 3.17001 0.664091 3.25942 0.598901 3.36865C0.533711 3.47789 0.499521 3.60283 0.500005 3.73004V10.29Z" stroke="#000001" stroke-linecap="round" stroke-linejoin="round"/>
</g>
<defs>
<clipPath id="clip0_6_6643">
<rect width="14" height="14" fill="white"/>
</clipPath>
</defs>
</svg>
