<svg width="14" height="14" viewBox="0 0 14 14" fill="none" xmlns="http://www.w3.org/2000/svg">
<g clip-path="url(#clip0_6_6696)">
<path d="M11.8499 13.2001L5.16993 10.7101C4.9722 10.6402 4.79521 10.5218 4.65526 10.3656C4.51532 10.2094 4.41691 10.0206 4.3691 9.81639C4.32129 9.61221 4.32562 9.39928 4.38169 9.19722C4.43775 8.99515 4.54375 8.81043 4.68993 8.66007L8.87993 4.47007C9.03471 4.325 9.22361 4.22136 9.42912 4.16875C9.63463 4.11615 9.85009 4.11628 10.0555 4.16913C10.261 4.22199 10.4498 4.32586 10.6044 4.47112C10.759 4.61638 10.8744 4.79832 10.9399 5.00007L13.4199 11.6801C13.4888 11.8965 13.4959 12.1278 13.4405 12.3481C13.385 12.5683 13.2692 12.7687 13.106 12.9266C12.9428 13.0846 12.7388 13.1939 12.5169 13.2422C12.295 13.2905 12.064 13.2759 11.8499 13.2001V13.2001Z" stroke="#000001" stroke-linecap="round" stroke-linejoin="round"/>
<path d="M2.05005 7.13004C2.49411 6.88223 3.01414 6.80743 3.51005 6.92004" stroke="#000001" stroke-linecap="round" stroke-linejoin="round"/>
<path d="M4.32999 4.28008C4.04681 3.85318 3.92945 3.33748 3.99999 2.83008" stroke="#000001" stroke-linecap="round" stroke-linejoin="round"/>
<path d="M6.63 0.719971C6.27951 1.79364 6.32563 2.9574 6.76 3.99997" stroke="#000001" stroke-linecap="round" stroke-linejoin="round"/>
<path d="M1 3.78003C1.27614 3.78003 1.5 3.55617 1.5 3.28003C1.5 3.00389 1.27614 2.78003 1 2.78003C0.723858 2.78003 0.5 3.00389 0.5 3.28003C0.5 3.55617 0.723858 3.78003 1 3.78003Z" stroke="#000001" stroke-linecap="round" stroke-linejoin="round"/>
</g>
<defs>
<clipPath id="clip0_6_6696">
<rect width="14" height="14" fill="white"/>
</clipPath>
</defs>
</svg>
