<svg width="14" height="14" viewBox="0 0 14 14" fill="none" xmlns="http://www.w3.org/2000/svg">
<g clip-path="url(#clip0_6_6637)">
<path d="M1.5 12.35C1.50359 12.5583 1.56422 12.7617 1.67529 12.938C1.78636 13.1143 1.94363 13.2568 2.13 13.35C2.31611 13.4551 2.52624 13.5104 2.74 13.5104C2.95376 13.5104 3.16389 13.4551 3.35 13.35L12 7.99996C12.1882 7.90928 12.347 7.76734 12.4581 7.59044C12.5693 7.41354 12.6282 7.20887 12.6282 6.99996C12.6282 6.79105 12.5693 6.58637 12.4581 6.40948C12.347 6.23258 12.1882 6.09063 12 5.99996L3.35 0.689958C3.16389 0.584801 2.95376 0.529541 2.74 0.529541C2.52624 0.529541 2.31611 0.584801 2.13 0.689958C1.94363 0.783147 1.78636 0.925635 1.67529 1.10194C1.56422 1.27824 1.50359 1.48162 1.5 1.68996V12.35Z" stroke="#000001" stroke-linecap="round" stroke-linejoin="round"/>
</g>
<defs>
<clipPath id="clip0_6_6637">
<rect width="14" height="14" fill="white"/>
</clipPath>
</defs>
</svg>
