<svg width="14" height="14" viewBox="0 0 14 14" fill="none" xmlns="http://www.w3.org/2000/svg">
<g clip-path="url(#clip0_6_6615)">
<path d="M13.5 0.5V13.5" stroke="#000001" stroke-linecap="round" stroke-linejoin="round"/>
<path d="M0.499984 11.6599C0.499493 11.8398 0.547537 12.0165 0.639054 12.1714C0.73057 12.3263 0.86217 12.4536 1.01998 12.5399C1.172 12.6277 1.34445 12.6739 1.51998 12.6739C1.69552 12.6739 1.86797 12.6277 2.01998 12.5399L9.20998 7.83994C9.35033 7.74929 9.46573 7.62491 9.54563 7.47817C9.62553 7.33144 9.6674 7.16702 9.6674 6.99994C9.6674 6.83286 9.62553 6.66844 9.54563 6.52171C9.46573 6.37497 9.35033 6.2506 9.20998 6.15994L1.99998 1.49994C1.84797 1.41217 1.67552 1.36597 1.49998 1.36597C1.32445 1.36597 1.152 1.41217 0.999984 1.49994C0.84217 1.58629 0.71057 1.71361 0.619054 1.86848C0.527537 2.02336 0.479493 2.20005 0.479984 2.37994L0.499984 11.6599Z" stroke="#000001" stroke-linecap="round" stroke-linejoin="round"/>
</g>
<defs>
<clipPath id="clip0_6_6615">
<rect width="14" height="14" fill="white"/>
</clipPath>
</defs>
</svg>
