<svg width="14" height="14" viewBox="0 0 14 14" fill="none" xmlns="http://www.w3.org/2000/svg">
<g clip-path="url(#clip0_6_6671)">
<path d="M13.4999 10.29C13.5004 10.4172 13.4662 10.5422 13.401 10.6514C13.3358 10.7607 13.2421 10.8501 13.1299 10.91C13.0196 10.9761 12.8935 11.011 12.7649 11.011C12.6363 11.011 12.5102 10.9761 12.3999 10.91L7.31989 7.59004C7.22078 7.52676 7.13921 7.43954 7.08271 7.33643C7.0262 7.23331 6.99658 7.11762 6.99658 7.00004C6.99658 6.88246 7.0262 6.76677 7.08271 6.66365C7.13921 6.56053 7.22078 6.47331 7.31989 6.41004L12.3999 3.11004C12.5102 3.04394 12.6363 3.00903 12.7649 3.00903C12.8935 3.00903 13.0196 3.04394 13.1299 3.11004C13.2421 3.17001 13.3358 3.25942 13.401 3.36865C13.4662 3.47789 13.5004 3.60283 13.4999 3.73004V10.29Z" stroke="#000001" stroke-linecap="round" stroke-linejoin="round"/>
<path d="M6.99989 10.29C7.00037 10.4172 6.96618 10.5422 6.90099 10.6514C6.8358 10.7607 6.74207 10.8501 6.62989 10.91C6.51961 10.9761 6.39345 11.011 6.26489 11.011C6.13632 11.011 6.01016 10.9761 5.89989 10.91L0.819886 7.59004C0.72078 7.52676 0.639211 7.43954 0.582706 7.33643C0.526201 7.23331 0.496582 7.11762 0.496582 7.00004C0.496582 6.88246 0.526201 6.76677 0.582706 6.66365C0.639211 6.56053 0.72078 6.47331 0.819886 6.41004L5.89989 3.11004C6.01016 3.04394 6.13632 3.00903 6.26489 3.00903C6.39345 3.00903 6.51961 3.04394 6.62989 3.11004C6.73912 3.16838 6.83092 3.25466 6.89592 3.36007C6.96092 3.46547 6.9968 3.58624 6.99989 3.71004V10.29Z" stroke="#000001" stroke-linecap="round" stroke-linejoin="round"/>
</g>
<defs>
<clipPath id="clip0_6_6671">
<rect width="14" height="14" fill="white"/>
</clipPath>
</defs>
</svg>
