<svg width="14" height="14" viewBox="0 0 14 14" fill="none" xmlns="http://www.w3.org/2000/svg">
<g clip-path="url(#clip0_6_6603)">
<path d="M0.500005 10.29C0.499521 10.4172 0.533711 10.5422 0.598901 10.6514C0.664091 10.7607 0.757817 10.8501 0.870005 10.91C0.980283 10.9761 1.10644 11.011 1.23501 11.011C1.36357 11.011 1.48973 10.9761 1.60001 10.91L6.68001 7.61004C6.77911 7.54676 6.86068 7.45954 6.91718 7.35643C6.97369 7.25331 7.00331 7.13762 7.00331 7.02004C7.00331 6.90246 6.97369 6.78677 6.91718 6.68365C6.86068 6.58053 6.77911 6.49331 6.68001 6.43004L1.60001 3.11004C1.48973 3.04394 1.36357 3.00903 1.23501 3.00903C1.10644 3.00903 0.980283 3.04394 0.870005 3.11004C0.757817 3.17001 0.664091 3.25942 0.598901 3.36865C0.533711 3.47789 0.499521 3.60283 0.500005 3.73004V10.29Z" stroke="#000001" stroke-linecap="round" stroke-linejoin="round"/>
<path d="M7.00001 10.29C6.99952 10.4172 7.03371 10.5422 7.0989 10.6514C7.16409 10.7607 7.25782 10.8501 7.37 10.91C7.48028 10.9761 7.60644 11.011 7.73501 11.011C7.86357 11.011 7.98973 10.9761 8.10001 10.91L13.18 7.61004C13.2791 7.54676 13.3607 7.45954 13.4172 7.35643C13.4737 7.25331 13.5033 7.13762 13.5033 7.02004C13.5033 6.90246 13.4737 6.78677 13.4172 6.68365C13.3607 6.58053 13.2791 6.49331 13.18 6.43004L8.10001 3.11004C7.98973 3.04394 7.86357 3.00903 7.73501 3.00903C7.60644 3.00903 7.48028 3.04394 7.37 3.11004C7.26077 3.16838 7.16897 3.25466 7.10397 3.36007C7.03897 3.46547 7.00309 3.58624 7.00001 3.71004V10.29Z" stroke="#000001" stroke-linecap="round" stroke-linejoin="round"/>
<path d="M13.5 2.5V11.5" stroke="#000001" stroke-linecap="round" stroke-linejoin="round"/>
</g>
<defs>
<clipPath id="clip0_6_6603">
<rect width="14" height="14" fill="white"/>
</clipPath>
</defs>
</svg>
