<svg width="14" height="14" viewBox="0 0 14 14" fill="none" xmlns="http://www.w3.org/2000/svg">
<g clip-path="url(#clip0_6_6551)">
<path d="M10.25 0.5H3.75C3.19772 0.5 2.75 0.947715 2.75 1.5V12.5C2.75 13.0523 3.19772 13.5 3.75 13.5H10.25C10.8023 13.5 11.25 13.0523 11.25 12.5V1.5C11.25 0.947715 10.8023 0.5 10.25 0.5Z" stroke="#000001" stroke-linecap="round" stroke-linejoin="round"/>
<path d="M5.26988 7.14005V3.82005C5.26722 3.76393 5.27986 3.70813 5.30645 3.65863C5.33305 3.60914 5.3726 3.5678 5.42087 3.53904C5.46914 3.51028 5.52433 3.49518 5.58052 3.49536C5.63671 3.49554 5.69179 3.51099 5.73988 3.54005L8.58988 5.21005C8.63773 5.23705 8.67755 5.27627 8.70526 5.32372C8.73296 5.37116 8.74756 5.42511 8.74756 5.48005C8.74756 5.53499 8.73296 5.58895 8.70526 5.63639C8.67755 5.68383 8.63773 5.72306 8.58988 5.75005L5.73988 7.41005C5.69252 7.4386 5.63839 7.45396 5.5831 7.45454C5.52781 7.45512 5.47337 7.4409 5.42543 7.41336C5.37748 7.38581 5.33778 7.34595 5.31043 7.29789C5.28308 7.24984 5.26908 7.19534 5.26988 7.14005Z" stroke="#000001" stroke-linecap="round" stroke-linejoin="round"/>
<path d="M2.75 10.5H11.25" stroke="#000001" stroke-linecap="round" stroke-linejoin="round"/>
</g>
<defs>
<clipPath id="clip0_6_6551">
<rect width="14" height="14" fill="white"/>
</clipPath>
</defs>
</svg>
