<svg width="14" height="14" viewBox="0 0 14 14" fill="none" xmlns="http://www.w3.org/2000/svg">
<g clip-path="url(#clip0_6_6527)">
<path d="M12.43 3.42999C12.6801 3.35705 12.9069 3.22023 13.088 3.03301C13.2691 2.84579 13.3984 2.61462 13.4631 2.36226C13.5277 2.1099 13.5255 1.84506 13.4567 1.5938C13.3879 1.34254 13.2549 1.11354 13.0707 0.92933C12.8864 0.745123 12.6574 0.612065 12.4062 0.543258C12.1549 0.474451 11.8901 0.472266 11.6377 0.53692C11.3854 0.601573 11.1542 0.730835 10.967 0.911978C10.7797 1.09312 10.6429 1.3199 10.57 1.56999C9.51021 0.871926 8.26902 0.49988 6.99999 0.49988C5.73096 0.49988 4.48977 0.871926 3.42999 1.56999C3.35705 1.3199 3.22023 1.09312 3.03301 0.911978C2.84579 0.730835 2.61462 0.601573 2.36226 0.53692C2.1099 0.472266 1.84506 0.474451 1.5938 0.543258C1.34254 0.612065 1.11354 0.745123 0.92933 0.92933C0.745123 1.11354 0.612065 1.34254 0.543258 1.5938C0.474451 1.84506 0.472266 2.1099 0.53692 2.36226C0.601573 2.61462 0.730835 2.84579 0.911978 3.03301C1.09312 3.22023 1.3199 3.35705 1.56999 3.42999C0.873568 4.49053 0.501707 5.73123 0.49999 6.99999C0.498246 8.11061 0.784199 9.20274 1.32999 10.17C1.02537 10.318 0.780271 10.5655 0.635097 10.8715C0.489924 11.1775 0.453337 11.5238 0.531365 11.8534C0.609394 12.183 0.797382 12.4761 1.06435 12.6846C1.33131 12.893 1.66132 13.0042 1.99999 13C2.25079 12.9987 2.49732 12.9349 2.7173 12.8144C2.93728 12.694 3.12379 12.5206 3.25999 12.31C4.35332 13.0845 5.66013 13.5005 6.99999 13.5005C8.33985 13.5005 9.64666 13.0845 10.74 12.31C10.9155 12.5817 11.1741 12.7894 11.4773 12.9021C11.7805 13.0148 12.112 13.0265 12.4224 12.9354C12.7328 12.8443 13.0054 12.6553 13.1996 12.3967C13.3938 12.138 13.4992 11.8235 13.5 11.5C13.4989 11.2231 13.4207 10.9519 13.2741 10.717C13.1274 10.4821 12.9183 10.2927 12.67 10.17C13.2158 9.20274 13.5017 8.11061 13.5 6.99999C13.4983 5.73123 13.1264 4.49053 12.43 3.42999V3.42999Z" stroke="#000001" stroke-linecap="round" stroke-linejoin="round"/>
<path d="M7 10.5C8.933 10.5 10.5 8.933 10.5 7C10.5 5.067 8.933 3.5 7 3.5C5.067 3.5 3.5 5.067 3.5 7C3.5 8.933 5.067 10.5 7 10.5Z" stroke="#000001" stroke-linecap="round" stroke-linejoin="round"/>
<path d="M7 7.5C7.27614 7.5 7.5 7.27614 7.5 7C7.5 6.72386 7.27614 6.5 7 6.5C6.72386 6.5 6.5 6.72386 6.5 7C6.5 7.27614 6.72386 7.5 7 7.5Z" stroke="#000001" stroke-linecap="round" stroke-linejoin="round"/>
</g>
<defs>
<clipPath id="clip0_6_6527">
<rect width="14" height="14" fill="white"/>
</clipPath>
</defs>
</svg>
