<svg width="14" height="14" viewBox="0 0 14 14" fill="none" xmlns="http://www.w3.org/2000/svg">
<g clip-path="url(#clip0_6_6538)">
<path d="M12.5 0.5H1.5C0.947715 0.5 0.5 0.947715 0.5 1.5V12.5C0.5 13.0523 0.947715 13.5 1.5 13.5H12.5C13.0523 13.5 13.5 13.0523 13.5 12.5V1.5C13.5 0.947715 13.0523 0.5 12.5 0.5Z" stroke="#000001" stroke-linecap="round" stroke-linejoin="round"/>
<path d="M5.48999 10.5599V6.72989C5.49279 6.67103 5.50998 6.61376 5.54008 6.5631C5.57017 6.51244 5.61224 6.46994 5.6626 6.43933C5.71295 6.40873 5.77004 6.39095 5.82887 6.38756C5.8877 6.38417 5.94646 6.39527 5.99999 6.41989L9.31999 8.32989C9.37376 8.36302 9.41815 8.40936 9.44894 8.46449C9.47973 8.51963 9.49589 8.58174 9.49589 8.64489C9.49589 8.70804 9.47973 8.77014 9.44894 8.82528C9.41815 8.88042 9.37376 8.92676 9.31999 8.95989L5.99999 10.8799C5.94553 10.9023 5.88651 10.9113 5.82784 10.9063C5.76917 10.9013 5.71255 10.8824 5.66267 10.8511C5.61279 10.8198 5.57111 10.777 5.54107 10.7264C5.51104 10.6757 5.49353 10.6187 5.48999 10.5599V10.5599Z" stroke="#000001" stroke-linecap="round" stroke-linejoin="round"/>
<path d="M0.5 4H13.5" stroke="#000001" stroke-linecap="round" stroke-linejoin="round"/>
<path d="M4 4L5.5 0.5" stroke="#000001" stroke-linecap="round" stroke-linejoin="round"/>
<path d="M8.5 4L10 0.5" stroke="#000001" stroke-linecap="round" stroke-linejoin="round"/>
</g>
<defs>
<clipPath id="clip0_6_6538">
<rect width="14" height="14" fill="white"/>
</clipPath>
</defs>
</svg>
