<svg width="14" height="14" viewBox="0 0 14 14" fill="none" xmlns="http://www.w3.org/2000/svg">
<g clip-path="url(#clip0_6_6058)">
<path d="M9.09 0.77L9 0.75L0.75 5.61C0.678195 5.64788 0.617426 5.70371 0.573613 5.77206C0.529801 5.84041 0.50444 5.91894 0.5 6V12.71C0.5 12.8426 0.552678 12.9698 0.646447 13.0636C0.740215 13.1573 0.867392 13.21 1 13.21H13C13.1326 13.21 13.2598 13.1573 13.3536 13.0636C13.4473 12.9698 13.5 12.8426 13.5 12.71V5.71C13.3461 4.53891 12.8431 3.4413 12.0565 2.56017C11.2699 1.67904 10.2362 1.05522 9.09 0.77V0.77Z" stroke="#000001" stroke-linecap="round" stroke-linejoin="round"/>
<path d="M0.590088 5.75H13.0001" stroke="#000001" stroke-linecap="round" stroke-linejoin="round"/>
<path d="M0.5 10.42L0.58 10.35C0.765229 10.161 0.986118 10.0107 1.22987 9.90769C1.47362 9.8047 1.73539 9.7511 2 9.75C2.53043 9.75 3.03914 9.96071 3.41421 10.3358C3.78929 10.7109 4 11.2196 4 11.75C3.99777 12.2796 3.78559 12.7866 3.41 13.16L3.33 13.25" stroke="#000001" stroke-linecap="round" stroke-linejoin="round"/>
<path d="M9 10.75C9.82843 10.75 10.5 10.0784 10.5 9.25C10.5 8.42157 9.82843 7.75 9 7.75C8.17157 7.75 7.5 8.42157 7.5 9.25C7.5 10.0784 8.17157 10.75 9 10.75Z" stroke="#000001" stroke-linecap="round" stroke-linejoin="round"/>
</g>
<defs>
<clipPath id="clip0_6_6058">
<rect width="14" height="14" fill="white"/>
</clipPath>
</defs>
</svg>
