<svg width="14" height="14" viewBox="0 0 14 14" fill="none" xmlns="http://www.w3.org/2000/svg">
<g clip-path="url(#clip0_6_6046)">
<path d="M5.5 5C5.5 4.60218 5.65804 4.22064 5.93934 3.93934C6.22064 3.65804 6.60218 3.5 7 3.5C7.39782 3.5 7.77936 3.65804 8.06066 3.93934C8.34196 4.22064 8.5 4.60218 8.5 5V12C8.5 12.3978 8.65804 12.7794 8.93934 13.0607C9.22064 13.342 9.60218 13.5 10 13.5C10.3978 13.5 10.7794 13.342 11.0607 13.0607C11.342 12.7794 11.5 12.3978 11.5 12V5C11.5 3.80653 11.0259 2.66193 10.182 1.81802C9.33807 0.974106 8.19347 0.5 7 0.5C5.80653 0.5 4.66193 0.974106 3.81802 1.81802C2.97411 2.66193 2.5 3.80653 2.5 5V6C2.5 6.39782 2.65804 6.77936 2.93934 7.06066C3.22064 7.34196 3.60218 7.5 4 7.5C4.39782 7.5 4.77936 7.34196 5.06066 7.06066C5.34196 6.77936 5.5 6.39782 5.5 6V5Z" stroke="#000001" stroke-linecap="round" stroke-linejoin="round"/>
<path d="M8.5 10L11.5 7" stroke="#000001" stroke-linecap="round" stroke-linejoin="round"/>
<path d="M8.41992 4.5101L9.94992 1.6001" stroke="#000001" stroke-linecap="round" stroke-linejoin="round"/>
<path d="M5.86003 4.01988L3.03003 2.87988" stroke="#000001" stroke-linecap="round" stroke-linejoin="round"/>
</g>
<defs>
<clipPath id="clip0_6_6046">
<rect width="14" height="14" fill="white"/>
</clipPath>
</defs>
</svg>
