<svg width="14" height="14" viewBox="0 0 14 14" fill="none" xmlns="http://www.w3.org/2000/svg">
<g clip-path="url(#clip0_6_6089)">
<path d="M10.3599 6.47998L7.48989 13.18C7.44937 13.2793 7.38016 13.3644 7.29111 13.4242C7.20205 13.4841 7.09719 13.516 6.98989 13.516C6.8826 13.516 6.77773 13.4841 6.68868 13.4242C6.59962 13.3644 6.53042 13.2793 6.48989 13.18L3.63989 6.47998" stroke="#000001" stroke-linecap="round" stroke-linejoin="round"/>
<path d="M4.88 6.88012C6.05637 6.88012 7.01 5.92648 7.01 4.75012C7.01 3.57375 6.05637 2.62012 4.88 2.62012C3.70363 2.62012 2.75 3.57375 2.75 4.75012C2.75 5.92648 3.70363 6.88012 4.88 6.88012Z" stroke="#000001" stroke-linecap="round" stroke-linejoin="round"/>
<path d="M4.87988 2.63001C4.87988 2.06775 5.10324 1.52852 5.50082 1.13094C5.89839 0.733366 6.43762 0.51001 6.99988 0.51001C7.56214 0.51001 8.10137 0.733366 8.49895 1.13094C8.89653 1.52852 9.11988 2.06775 9.11988 2.63001" stroke="#000001" stroke-linecap="round" stroke-linejoin="round"/>
<path d="M9.13 6.88012C10.3064 6.88012 11.26 5.92648 11.26 4.75012C11.26 3.57375 10.3064 2.62012 9.13 2.62012C7.95363 2.62012 7 3.57375 7 4.75012C7 5.92648 7.95363 6.88012 9.13 6.88012Z" stroke="#000001" stroke-linecap="round" stroke-linejoin="round"/>
</g>
<defs>
<clipPath id="clip0_6_6089">
<rect width="14" height="14" fill="white"/>
</clipPath>
</defs>
</svg>
