<svg width="14" height="14" viewBox="0 0 14 14" fill="none" xmlns="http://www.w3.org/2000/svg">
<g clip-path="url(#clip0_6_6072)">
<path d="M8.23 11.06C9.32916 10.6747 10.2593 9.91783 10.86 8.91995C11.1738 9.36471 11.6072 9.71144 12.11 9.91995C12.262 9.98432 12.4275 10.0101 12.5919 9.99491C12.7562 9.97974 12.9143 9.92413 13.0519 9.83303C13.1896 9.74193 13.3025 9.61818 13.3807 9.47282C13.4589 9.32746 13.4999 9.165 13.5 8.99995V6.38995C13.4999 6.2249 13.4589 6.06244 13.3807 5.91708C13.3025 5.77172 13.1896 5.64797 13.0519 5.55687C12.9143 5.46578 12.7562 5.41016 12.5919 5.395C12.4275 5.37983 12.262 5.40558 12.11 5.46995C11.6058 5.67604 11.1717 6.02327 10.86 6.46995C9.86 4.90995 7.14 3.69995 4.41 3.69995C3.36481 3.72347 2.37037 4.15526 1.63958 4.90287C0.908786 5.65049 0.499735 6.6545 0.5 7.69995C0.56453 8.74515 1.03636 9.72336 1.81417 10.4245C2.59198 11.1257 3.61373 11.4938 4.66 11.45C4.96 11.45 5.44 11.45 5.74 11.45" stroke="#000001" stroke-linecap="round" stroke-linejoin="round"/>
<path d="M4 7.18994C4.27614 7.18994 4.5 6.96608 4.5 6.68994C4.5 6.4138 4.27614 6.18994 4 6.18994C3.72386 6.18994 3.5 6.4138 3.5 6.68994C3.5 6.96608 3.72386 7.18994 4 7.18994Z" stroke="#000001" stroke-linecap="round" stroke-linejoin="round"/>
<path d="M3.22998 3.87C3.99998 2.68 5.80998 1.34 9.81998 1.8C9.39521 2.9521 9.39521 4.21791 9.81998 5.37" stroke="#000001" stroke-linecap="round" stroke-linejoin="round"/>
<path d="M4.63989 9.53C4.81946 10.4185 5.33672 11.2026 6.08279 11.7174C6.82885 12.2322 7.74554 12.4375 8.63989 12.29L7.62989 9" stroke="#000001" stroke-linecap="round" stroke-linejoin="round"/>
</g>
<defs>
<clipPath id="clip0_6_6072">
<rect width="14" height="14" fill="white"/>
</clipPath>
</defs>
</svg>
