<svg width="14" height="14" viewBox="0 0 14 14" fill="none" xmlns="http://www.w3.org/2000/svg">
<g clip-path="url(#clip0_6_5988)">
<path d="M11.5 6L10.61 12.62C10.5805 12.8639 10.4623 13.0884 10.2779 13.2507C10.0934 13.413 9.85568 13.5018 9.61 13.5H4.38C4.13432 13.5018 3.89659 13.413 3.71215 13.2507C3.52771 13.0884 3.40948 12.8639 3.38 12.62L2.5 6" stroke="#000001" stroke-linecap="round" stroke-linejoin="round"/>
<path d="M10.73 3.68002C10.6604 3.47304 10.525 3.29452 10.3444 3.17173C10.1639 3.04894 9.94807 2.98864 9.73 3.00002H4.22C4.01036 2.99948 3.80584 3.06484 3.63537 3.18686C3.4649 3.30888 3.33709 3.4814 3.27 3.68002L2.5 6.00002H11.5L10.73 3.68002Z" stroke="#000001" stroke-linecap="round" stroke-linejoin="round"/>
<path d="M8.5 3V1.5C8.5 1.23478 8.39464 0.98043 8.20711 0.792893C8.01957 0.605357 7.76522 0.5 7.5 0.5H6.5C6.23478 0.5 5.98043 0.605357 5.79289 0.792893C5.60536 0.98043 5.5 1.23478 5.5 1.5V3" stroke="#000001" stroke-linecap="round" stroke-linejoin="round"/>
</g>
<defs>
<clipPath id="clip0_6_5988">
<rect width="14" height="14" fill="white"/>
</clipPath>
</defs>
</svg>
