<svg width="14" height="14" viewBox="0 0 14 14" fill="none" xmlns="http://www.w3.org/2000/svg">
<g clip-path="url(#clip0_6_6189)">
<path d="M7 3C8.72391 3 10.3772 3.68482 11.5962 4.90381C12.8152 6.12279 13.5 7.77609 13.5 9.5V9.5C13.5 9.76522 13.3946 10.0196 13.2071 10.2071C13.0196 10.3946 12.7652 10.5 12.5 10.5H1.5C1.23478 10.5 0.98043 10.3946 0.792893 10.2071C0.605357 10.0196 0.5 9.76522 0.5 9.5C0.5 7.77609 1.18482 6.12279 2.40381 4.90381C3.62279 3.68482 5.27609 3 7 3V3Z" stroke="#000001" stroke-linecap="round" stroke-linejoin="round"/>
<path d="M7 3V1.5" stroke="#000001" stroke-linecap="round" stroke-linejoin="round"/>
<path d="M0.5 12.5H13.5" stroke="#000001" stroke-linecap="round" stroke-linejoin="round"/>
</g>
<defs>
<clipPath id="clip0_6_6189">
<rect width="14" height="14" fill="white"/>
</clipPath>
</defs>
</svg>
