<svg width="14" height="14" viewBox="0 0 14 14" fill="none" xmlns="http://www.w3.org/2000/svg">
<g clip-path="url(#clip0_6_6095)">
<path d="M2.5 5.44002V4.50002C2.5 3.96959 2.71071 3.46088 3.08579 3.08581C3.46086 2.71074 3.96957 2.50002 4.5 2.50002H10.55C10.7865 2.48893 11.018 2.57046 11.1954 2.7273C11.3728 2.88414 11.482 3.10393 11.5 3.34002V7.16002C11.482 7.39611 11.3728 7.61591 11.1954 7.77275C11.018 7.92958 10.7865 8.01111 10.55 8.00002H8.8" stroke="#000001" stroke-linecap="round" stroke-linejoin="round"/>
<path d="M13.5 9.24006V12.1201C13.5 12.4861 13.3546 12.8371 13.0958 13.0959C12.837 13.3547 12.486 13.5001 12.12 13.5001H6.79C6.4897 13.5008 6.19735 13.4035 5.95732 13.2231C5.7173 13.0426 5.54269 12.7888 5.46 12.5001C5.37925 12.2122 5.20653 11.9586 4.96819 11.778C4.72986 11.5975 4.439 11.4999 4.14 11.5001H3.58C2.76313 11.5001 1.97972 11.1756 1.40211 10.5979C0.824499 10.0203 0.5 9.23693 0.5 8.42006V4.56006" stroke="#000001" stroke-linecap="round" stroke-linejoin="round"/>
<path d="M11.5 0.5C12.0304 0.5 12.5391 0.710714 12.9142 1.08579C13.2893 1.46086 13.5 1.96957 13.5 2.5V9.24C13.5 9.606 13.3546 9.95701 13.0958 10.2158C12.837 10.4746 12.486 10.62 12.12 10.62H8C7.6997 10.6207 7.40735 10.5235 7.16732 10.343C6.9273 10.1625 6.75269 9.90869 6.67 9.62V9.62C6.58925 9.33211 6.41653 9.07854 6.17819 8.89798C5.93986 8.71743 5.649 8.6198 5.35 8.62H4.56C3.48322 8.62 2.45054 8.19225 1.68915 7.43085C0.927749 6.66946 0.5 5.63678 0.5 4.56C0.5 3.48322 0.927749 2.45054 1.68915 1.68915C2.45054 0.927749 3.48322 0.5 4.56 0.5H11.5Z" stroke="#000001" stroke-linecap="round" stroke-linejoin="round"/>
<path d="M5.33008 5.63989C5.60622 5.63989 5.83008 5.41603 5.83008 5.13989C5.83008 4.86375 5.60622 4.63989 5.33008 4.63989C5.05394 4.63989 4.83008 4.86375 4.83008 5.13989C4.83008 5.41603 5.05394 5.63989 5.33008 5.63989Z" stroke="#000001" stroke-linecap="round" stroke-linejoin="round"/>
</g>
<defs>
<clipPath id="clip0_6_6095">
<rect width="14" height="14" fill="white"/>
</clipPath>
</defs>
</svg>
