<svg width="14" height="14" viewBox="0 0 14 14" fill="none" xmlns="http://www.w3.org/2000/svg">
<g clip-path="url(#clip0_6_6083)">
<path d="M10 0.5H4C3.44772 0.5 3 0.947715 3 1.5V8.5C3 9.05229 3.44772 9.5 4 9.5H10C10.5523 9.5 11 9.05229 11 8.5V1.5C11 0.947715 10.5523 0.5 10 0.5Z" stroke="#000001" stroke-linecap="round" stroke-linejoin="round"/>
<path d="M5.5 3V6.5" stroke="#000001" stroke-linecap="round" stroke-linejoin="round"/>
<path d="M8.5 3V6.5" stroke="#000001" stroke-linecap="round" stroke-linejoin="round"/>
<path d="M8.5 9.5V12C8.5 12.3978 8.34196 12.7794 8.06066 13.0607C7.77936 13.342 7.39782 13.5 7 13.5C6.60218 13.5 6.22064 13.342 5.93934 13.0607C5.65804 12.7794 5.5 12.3978 5.5 12V9.5" stroke="#000001" stroke-linecap="round" stroke-linejoin="round"/>
</g>
<defs>
<clipPath id="clip0_6_6083">
<rect width="14" height="14" fill="white"/>
</clipPath>
</defs>
</svg>
