<svg width="14" height="14" viewBox="0 0 14 14" fill="none" xmlns="http://www.w3.org/2000/svg">
<g clip-path="url(#clip0_6_6039)">
<path d="M12.5 5.5H1.5C0.947715 5.5 0.5 5.94772 0.5 6.5V12.5C0.5 13.0523 0.947715 13.5 1.5 13.5H12.5C13.0523 13.5 13.5 13.0523 13.5 12.5V6.5C13.5 5.94772 13.0523 5.5 12.5 5.5Z" stroke="#000001" stroke-linecap="round" stroke-linejoin="round"/>
<path d="M3 3.5V1.5" stroke="#000001" stroke-linecap="round" stroke-linejoin="round"/>
<path d="M7 3.5V1.5" stroke="#000001" stroke-linecap="round" stroke-linejoin="round"/>
<path d="M11 3.5V1.5" stroke="#000001" stroke-linecap="round" stroke-linejoin="round"/>
<path d="M13.5 10H13C12.4696 10 11.9609 9.78929 11.5858 9.41421C11.2107 9.03914 11 8.53043 11 8C11 8.53043 10.7893 9.03914 10.4142 9.41421C10.0391 9.78929 9.53043 10 9 10C8.46957 10 7.96086 9.78929 7.58579 9.41421C7.21071 9.03914 7 8.53043 7 8C7 8.53043 6.78929 9.03914 6.41421 9.41421C6.03914 9.78929 5.53043 10 5 10C4.46957 10 3.96086 9.78929 3.58579 9.41421C3.21071 9.03914 3 8.53043 3 8C3 8.53043 2.78929 9.03914 2.41421 9.41421C2.03914 9.78929 1.53043 10 1 10H0.5" stroke="#000001" stroke-linecap="round" stroke-linejoin="round"/>
</g>
<defs>
<clipPath id="clip0_6_6039">
<rect width="14" height="14" fill="white"/>
</clipPath>
</defs>
</svg>
