<svg width="14" height="14" viewBox="0 0 14 14" fill="none" xmlns="http://www.w3.org/2000/svg">
<g clip-path="url(#clip0_6_6052)">
<path d="M0.590088 5.75H13.0001" stroke="#000001" stroke-linecap="round" stroke-linejoin="round"/>
<path d="M9.09 0.77L9 0.75L0.75 5.6C0.678633 5.64095 0.618476 5.69889 0.574866 5.76867C0.531256 5.83844 0.50554 5.9179 0.5 6V7.75C1.5 7.75 3 7.75 3 9.5C3 11.25 1.47 11.25 0.5 11.25V12.75C0.5 12.8826 0.552678 13.0098 0.646447 13.1036C0.740215 13.1973 0.867392 13.25 1 13.25H13C13.1326 13.25 13.2598 13.1973 13.3536 13.1036C13.4473 13.0098 13.5 12.8826 13.5 12.75V5.75C13.3537 4.57172 12.8541 3.46535 12.0669 2.57645C11.2797 1.68755 10.2419 1.05778 9.09 0.77V0.77Z" stroke="#000001" stroke-linecap="round" stroke-linejoin="round"/>
<path d="M10 8.75C10.2761 8.75 10.5 8.52614 10.5 8.25C10.5 7.97386 10.2761 7.75 10 7.75C9.72386 7.75 9.5 7.97386 9.5 8.25C9.5 8.52614 9.72386 8.75 10 8.75Z" stroke="#000001" stroke-linecap="round" stroke-linejoin="round"/>
<path d="M6.5 10.75C6.77614 10.75 7 10.5261 7 10.25C7 9.97386 6.77614 9.75 6.5 9.75C6.22386 9.75 6 9.97386 6 10.25C6 10.5261 6.22386 10.75 6.5 10.75Z" stroke="#000001" stroke-linecap="round" stroke-linejoin="round"/>
</g>
<defs>
<clipPath id="clip0_6_6052">
<rect width="14" height="14" fill="white"/>
</clipPath>
</defs>
</svg>
