<svg width="14" height="14" viewBox="0 0 14 14" fill="none" xmlns="http://www.w3.org/2000/svg">
<g clip-path="url(#clip0_6_6070)">
<path d="M13.4901 9.59992C13.4543 9.26544 13.3177 8.94974 13.0984 8.69464C12.8792 8.43953 12.5876 8.25706 12.2623 8.1714C11.937 8.08574 11.5933 8.10093 11.2768 8.21495C10.9604 8.32898 10.686 8.53646 10.4901 8.80992L9.4901 7.80992C9.4901 7.80992 9.4101 7.75992 9.3801 7.72992C9.73196 6.72313 9.78901 5.6368 9.54455 4.5987C9.30008 3.5606 8.76426 2.61389 8.0001 1.86992C7.61123 1.44392 7.13782 1.10367 6.61009 0.870862C6.08236 0.63806 5.5119 0.517822 4.9351 0.517822C4.3583 0.517822 3.78784 0.63806 3.26011 0.870862C2.73238 1.10367 2.25897 1.44392 1.8701 1.86992C1.44291 2.25682 1.10077 2.72828 0.865396 3.25439C0.630019 3.7805 0.506535 4.34978 0.502774 4.92613C0.499013 5.50247 0.615058 6.07332 0.843549 6.60245C1.07204 7.13159 1.40799 7.60747 1.8301 7.99992C2.58907 8.78632 3.56228 9.33252 4.62892 9.57074C5.69556 9.80896 6.80867 9.7287 7.8301 9.33992C7.82819 9.36655 7.82819 9.39328 7.8301 9.41992L9.0001 10.5799C8.79614 10.7519 8.6375 10.9713 8.53812 11.2189C8.43874 11.4665 8.40165 11.7347 8.4301 11.9999C8.47519 12.4389 8.69279 12.8419 9.03505 13.1204C9.3773 13.3989 9.81617 13.53 10.2551 13.4849C10.694 13.4398 11.0971 13.2222 11.3756 12.88C11.6541 12.5377 11.7852 12.0989 11.7401 11.6599C11.7282 11.5889 11.7115 11.5187 11.6901 11.4499H12.0001C12.2209 11.4302 12.4355 11.3661 12.6311 11.2616C12.8266 11.157 12.999 11.0141 13.1381 10.8415C13.2772 10.6688 13.38 10.4698 13.4405 10.2565C13.501 10.0432 13.5179 9.81989 13.4901 9.59992V9.59992Z" stroke="#000001" stroke-linecap="round" stroke-linejoin="round"/>
</g>
<defs>
<clipPath id="clip0_6_6070">
<rect width="14" height="14" fill="white"/>
</clipPath>
</defs>
</svg>
