<svg width="14" height="14" viewBox="0 0 14 14" fill="none" xmlns="http://www.w3.org/2000/svg">
<g clip-path="url(#clip0_6_6173)">
<path d="M3.5 0.5V10.5" stroke="#000001" stroke-linecap="round" stroke-linejoin="round"/>
<path d="M6 0.5V3C6 3.3283 5.93534 3.65339 5.8097 3.95671C5.68406 4.26002 5.49991 4.53562 5.26777 4.76777C5.03562 4.99991 4.76002 5.18406 4.45671 5.3097C4.15339 5.43534 3.8283 5.5 3.5 5.5V5.5C2.83696 5.5 2.20107 5.23661 1.73223 4.76777C1.26339 4.29893 1 3.66304 1 3V0.5" stroke="#000001" stroke-linecap="round" stroke-linejoin="round"/>
<path d="M0.5 13.5L13.5 0.5" stroke="#000001" stroke-linecap="round" stroke-linejoin="round"/>
<path d="M12.5 5.5C12.8995 6.9649 13.0682 8.48313 13 10H8.5" stroke="#000001" stroke-linecap="round" stroke-linejoin="round"/>
<path d="M8.5 5.5V0.5C9.56283 1.05345 10.4756 1.8564 11.16 2.84" stroke="#000001" stroke-linecap="round" stroke-linejoin="round"/>
<path d="M8.5 13.5V9" stroke="#000001" stroke-linecap="round" stroke-linejoin="round"/>
</g>
<defs>
<clipPath id="clip0_6_6173">
<rect width="14" height="14" fill="white"/>
</clipPath>
</defs>
</svg>
