<svg width="14" height="14" viewBox="0 0 14 14" fill="none" xmlns="http://www.w3.org/2000/svg">
<g clip-path="url(#clip0_6_6166)">
<path d="M13 2.5H1C0.723858 2.5 0.5 2.72386 0.5 3V11C0.5 11.2761 0.723858 11.5 1 11.5H13C13.2761 11.5 13.5 11.2761 13.5 11V3C13.5 2.72386 13.2761 2.5 13 2.5Z" stroke="#000001" stroke-linecap="round" stroke-linejoin="round"/>
<path d="M8.5 4.5H3C2.72386 4.5 2.5 4.72386 2.5 5V9C2.5 9.27614 2.72386 9.5 3 9.5H8.5C8.77614 9.5 9 9.27614 9 9V5C9 4.72386 8.77614 4.5 8.5 4.5Z" stroke="#000001" stroke-linecap="round" stroke-linejoin="round"/>
<path d="M11 5H11.5" stroke="#000001" stroke-linecap="round" stroke-linejoin="round"/>
<path d="M11 6.5H11.5" stroke="#000001" stroke-linecap="round" stroke-linejoin="round"/>
</g>
<defs>
<clipPath id="clip0_6_6166">
<rect width="14" height="14" fill="white"/>
</clipPath>
</defs>
</svg>
