<svg width="14" height="14" viewBox="0 0 14 14" fill="none" xmlns="http://www.w3.org/2000/svg">
<g clip-path="url(#clip0_6_6064)">
<path d="M3.36001 13.5C4.79595 13.5 5.96001 12.336 5.96001 10.9C5.96001 9.46411 4.79595 8.30005 3.36001 8.30005C1.92407 8.30005 0.76001 9.46411 0.76001 10.9C0.76001 12.336 1.92407 13.5 3.36001 13.5Z" stroke="#000001" stroke-linecap="round" stroke-linejoin="round"/>
<path d="M10.64 12.46C12.076 12.46 13.24 11.2959 13.24 9.86001C13.24 8.42407 12.076 7.26001 10.64 7.26001C9.2041 7.26001 8.04004 8.42407 8.04004 9.86001C8.04004 11.2959 9.2041 12.46 10.64 12.46Z" stroke="#000001" stroke-linecap="round" stroke-linejoin="round"/>
<path d="M9.4099 7.57C7.3899 5.75183 6.16523 3.21271 5.9999 0.5C4.3597 2.77485 3.45265 5.496 3.3999 8.3" stroke="#000001" stroke-linecap="round" stroke-linejoin="round"/>
<path d="M3.36011 0.5H8.56011" stroke="#000001" stroke-linecap="round" stroke-linejoin="round"/>
</g>
<defs>
<clipPath id="clip0_6_6064">
<rect width="14" height="14" fill="white"/>
</clipPath>
</defs>
</svg>
