<svg width="14" height="14" viewBox="0 0 14 14" fill="none" xmlns="http://www.w3.org/2000/svg">
<g clip-path="url(#clip0_6_6153)">
<path d="M1.63661 6.92924L8.10433 1.85608C8.73036 1.36503 9.52583 1.14278 10.3157 1.23823C11.1056 1.33367 11.8253 1.739 12.3163 2.36504L13.2915 3.60823C13.4551 3.81691 13.5292 4.08206 13.4974 4.34536C13.4656 4.60867 13.3305 4.84854 13.1218 5.01223L3.50678 12.5541C3.2981 12.7178 3.03294 12.7919 2.76964 12.76C2.50634 12.7282 2.26646 12.5931 2.10278 12.3844L1.12764 11.1412C0.636589 10.5152 0.414341 9.71974 0.50979 8.92983C0.605239 8.13993 1.01057 7.4203 1.63661 6.92924V6.92924Z" stroke="#000001" stroke-linecap="round" stroke-linejoin="round"/>
<path d="M2.87012 5.95996L4.43012 7.95996" stroke="#000001" stroke-linecap="round" stroke-linejoin="round"/>
<path d="M6.45996 3.13989L8.02996 5.13989" stroke="#000001" stroke-linecap="round" stroke-linejoin="round"/>
</g>
<defs>
<clipPath id="clip0_6_6153">
<rect width="14" height="14" fill="white"/>
</clipPath>
</defs>
</svg>
