<svg width="14" height="14" viewBox="0 0 14 14" fill="none" xmlns="http://www.w3.org/2000/svg">
<g clip-path="url(#clip0_6_6129)">
<path d="M5.53003 10.8499L6.37003 13.1999" stroke="#000001" stroke-linecap="round" stroke-linejoin="round"/>
<path d="M1.97998 0.969971L2.31998 1.90997" stroke="#000001" stroke-linecap="round" stroke-linejoin="round"/>
<path d="M5.53003 10.8499L3.78003 10.4199" stroke="#000001" stroke-linecap="round" stroke-linejoin="round"/>
<path d="M5.53003 10.8499L6.60003 9.3999" stroke="#000001" stroke-linecap="round" stroke-linejoin="round"/>
<path d="M4.67993 8.50006L2.92993 8.06006" stroke="#000001" stroke-linecap="round" stroke-linejoin="round"/>
<path d="M4.67993 8.50005L5.75993 7.05005" stroke="#000001" stroke-linecap="round" stroke-linejoin="round"/>
<path d="M3.84009 6.13996L2.09009 5.70996" stroke="#000001" stroke-linecap="round" stroke-linejoin="round"/>
<path d="M3.84009 6.13995L4.91009 4.69995" stroke="#000001" stroke-linecap="round" stroke-linejoin="round"/>
<path d="M2.98999 3.78986L1.23999 3.35986" stroke="#000001" stroke-linecap="round" stroke-linejoin="round"/>
<path d="M2.98999 3.79009L4.06999 2.34009" stroke="#000001" stroke-linecap="round" stroke-linejoin="round"/>
<path d="M9.50995 10.25L8.94995 12.5" stroke="#000001" stroke-linecap="round" stroke-linejoin="round"/>
<path d="M11.8499 0.800049L11.6299 1.70005" stroke="#000001" stroke-linecap="round" stroke-linejoin="round"/>
<path d="M9.50988 10.25L8.37988 9.01001" stroke="#000001" stroke-linecap="round" stroke-linejoin="round"/>
<path d="M9.50977 10.2499L11.0798 9.68994" stroke="#000001" stroke-linecap="round" stroke-linejoin="round"/>
<path d="M10.0599 8.00001L8.93994 6.76001" stroke="#000001" stroke-linecap="round" stroke-linejoin="round"/>
<path d="M10.0598 7.99993L11.6398 7.42993" stroke="#000001" stroke-linecap="round" stroke-linejoin="round"/>
<path d="M10.62 5.75001L9.5 4.51001" stroke="#000001" stroke-linecap="round" stroke-linejoin="round"/>
<path d="M10.6199 5.74993L12.1999 5.17993" stroke="#000001" stroke-linecap="round" stroke-linejoin="round"/>
<path d="M11.1798 3.50001L10.0598 2.26001" stroke="#000001" stroke-linecap="round" stroke-linejoin="round"/>
<path d="M11.1799 3.49993L12.7599 2.92993" stroke="#000001" stroke-linecap="round" stroke-linejoin="round"/>
</g>
<defs>
<clipPath id="clip0_6_6129">
<rect width="14" height="14" fill="white"/>
</clipPath>
</defs>
</svg>
