<svg width="14" height="14" viewBox="0 0 14 14" fill="none" xmlns="http://www.w3.org/2000/svg">
<g clip-path="url(#clip0_6_6112)">
<path d="M8.62 2.5C4.29 2.5 0.5 3.15 0.5 6C0.578212 6.71971 0.937068 7.37955 1.4987 7.83635C2.06034 8.29315 2.77945 8.51005 3.5 8.44C3.93782 8.43961 4.37178 8.35825 4.78 8.2C4.90617 8.14494 5.04234 8.11652 5.18 8.11652C5.31766 8.11652 5.45383 8.14494 5.58 8.2C6.51122 8.71486 7.55597 8.98979 8.62 9C11.32 9 13.5 7.54 13.5 5.75C13.5 3.96 11.32 2.5 8.62 2.5Z" stroke="#000001" stroke-linecap="round" stroke-linejoin="round"/>
<path d="M13.5 5.75V8.25C13.5 10.04 11.32 11.5 8.61998 11.5C7.55518 11.5146 6.50351 11.2637 5.55998 10.77C5.43381 10.7149 5.29764 10.6865 5.15998 10.6865C5.02232 10.6865 4.88615 10.7149 4.75998 10.77C4.35112 10.9248 3.91717 11.0028 3.47998 11C2.75943 11.0701 2.04032 10.8531 1.47868 10.3963C0.917048 9.93955 0.558192 9.27971 0.47998 8.56V6" stroke="#000001" stroke-linecap="round" stroke-linejoin="round"/>
<path d="M4 6C4.27614 6 4.5 5.77614 4.5 5.5C4.5 5.22386 4.27614 5 4 5C3.72386 5 3.5 5.22386 3.5 5.5C3.5 5.77614 3.72386 6 4 6Z" stroke="#000001" stroke-linecap="round" stroke-linejoin="round"/>
</g>
<defs>
<clipPath id="clip0_6_6112">
<rect width="14" height="14" fill="white"/>
</clipPath>
</defs>
</svg>
