<svg width="14" height="14" viewBox="0 0 14 14" fill="none" xmlns="http://www.w3.org/2000/svg">
<g clip-path="url(#clip0_6_6101)">
<path d="M9.75 0.5L8 6L13.5 4.25C13.5 3.25544 13.1049 2.30161 12.4017 1.59835C11.6984 0.895088 10.7446 0.5 9.75 0.5Z" stroke="#000001" stroke-linecap="round" stroke-linejoin="round"/>
<path d="M7.5 0.52L7 0.5C5.71442 0.5 4.45772 0.881218 3.3888 1.59545C2.31988 2.30968 1.48676 3.32484 0.994786 4.51256C0.502816 5.70028 0.374095 7.00721 0.624899 8.26809C0.875703 9.52896 1.49477 10.6872 2.40381 11.5962C3.31285 12.5052 4.47104 13.1243 5.73192 13.3751C6.99279 13.6259 8.29973 13.4972 9.48744 13.0052C10.6752 12.5132 11.6903 11.6801 12.4046 10.6112C13.1188 9.54229 13.5 8.28558 13.5 7C13.5 6.83 13.5 6.67 13.5 6.5" stroke="#000001" stroke-linecap="round" stroke-linejoin="round"/>
<path d="M5.5 10C5.77614 10 6 9.77614 6 9.5C6 9.22386 5.77614 9 5.5 9C5.22386 9 5 9.22386 5 9.5C5 9.77614 5.22386 10 5.5 10Z" stroke="#000001" stroke-linecap="round" stroke-linejoin="round"/>
<path d="M4 5.5C4.27614 5.5 4.5 5.27614 4.5 5C4.5 4.72386 4.27614 4.5 4 4.5C3.72386 4.5 3.5 4.72386 3.5 5C3.5 5.27614 3.72386 5.5 4 5.5Z" stroke="#000001" stroke-linecap="round" stroke-linejoin="round"/>
<path d="M10.5 8.5C10.7761 8.5 11 8.27614 11 8C11 7.72386 10.7761 7.5 10.5 7.5C10.2239 7.5 10 7.72386 10 8C10 8.27614 10.2239 8.5 10.5 8.5Z" stroke="#000001" stroke-linecap="round" stroke-linejoin="round"/>
</g>
<defs>
<clipPath id="clip0_6_6101">
<rect width="14" height="14" fill="white"/>
</clipPath>
</defs>
</svg>
