<svg width="14" height="14" viewBox="0 0 14 14" fill="none" xmlns="http://www.w3.org/2000/svg">
<g clip-path="url(#clip0_6_5999)">
<path d="M11 7.5L9.5 5.5H4.5L3 7.5V12.5C3 12.7652 3.10536 13.0196 3.29289 13.2071C3.48043 13.3946 3.73478 13.5 4 13.5H10C10.2652 13.5 10.5196 13.3946 10.7071 13.2071C10.8946 13.0196 11 12.7652 11 12.5V7.5Z" stroke="#000001" stroke-linecap="round" stroke-linejoin="round"/>
<path d="M11 7.5L13.5 5.5" stroke="#000001" stroke-linecap="round" stroke-linejoin="round"/>
<path d="M3 7.5L0.5 5.5" stroke="#000001" stroke-linecap="round" stroke-linejoin="round"/>
<path d="M4.5 0.5H9.5C9.76522 0.5 10.0196 0.605357 10.2071 0.792893C10.3946 0.98043 10.5 1.23478 10.5 1.5V3H3.5V1.5C3.5 1.23478 3.60536 0.98043 3.79289 0.792893C3.98043 0.605357 4.23478 0.5 4.5 0.5Z" stroke="#000001" stroke-linecap="round" stroke-linejoin="round"/>
<path d="M4.5 3V5.5" stroke="#000001" stroke-linecap="round" stroke-linejoin="round"/>
<path d="M9.5 3V5.5" stroke="#000001" stroke-linecap="round" stroke-linejoin="round"/>
</g>
<defs>
<clipPath id="clip0_6_5999">
<rect width="14" height="14" fill="white"/>
</clipPath>
</defs>
</svg>
