<svg width="14" height="14" viewBox="0 0 14 14" fill="none" xmlns="http://www.w3.org/2000/svg">
<g clip-path="url(#clip0_6_6205)">
<path d="M2.5 13.5H11.5" stroke="#000001" stroke-linecap="round" stroke-linejoin="round"/>
<path d="M13.4299 3.40005C13.3282 2.98067 13.1192 2.59492 12.8235 2.28062C12.5278 1.96633 12.1555 1.73428 11.7431 1.60723C11.3307 1.48018 10.8924 1.46249 10.471 1.5559C10.0497 1.6493 9.65995 1.8506 9.33988 2.14005C9.16517 1.65975 8.84691 1.24485 8.42828 0.951671C8.00966 0.658487 7.51096 0.501221 6.99988 0.501221C6.4888 0.501221 5.9901 0.658487 5.57148 0.951671C5.15285 1.24485 4.83459 1.65975 4.65988 2.14005C4.33981 1.8506 3.95002 1.6493 3.52871 1.5559C3.10741 1.46249 2.66906 1.48018 2.25665 1.60723C1.84424 1.73428 1.47193 1.96633 1.17623 2.28062C0.880526 2.59492 0.67158 2.98067 0.56988 3.40005C0.490424 3.72732 0.477641 4.06724 0.532295 4.39955C0.586948 4.73187 0.707919 5.04979 0.888004 5.33438C1.06809 5.61897 1.3036 5.86441 1.58052 6.05608C1.85744 6.24775 2.1701 6.38173 2.49988 6.45004V10C2.49988 10.2653 2.60524 10.5196 2.79277 10.7072C2.98031 10.8947 3.23466 11 3.49988 11H10.4999C10.7651 11 11.0195 10.8947 11.207 10.7072C11.3945 10.5196 11.4999 10.2653 11.4999 10V6.45004C11.8297 6.38173 12.1423 6.24775 12.4192 6.05608C12.6962 5.86441 12.9317 5.61897 13.1118 5.33438C13.2918 5.04979 13.4128 4.73187 13.4675 4.39955C13.5221 4.06724 13.5093 3.72732 13.4299 3.40005V3.40005Z" stroke="#000001" stroke-linecap="round" stroke-linejoin="round"/>
<path d="M2.5 8.5H11.5" stroke="#000001" stroke-linecap="round" stroke-linejoin="round"/>
</g>
<defs>
<clipPath id="clip0_6_6205">
<rect width="14" height="14" fill="white"/>
</clipPath>
</defs>
</svg>
