<svg width="14" height="14" viewBox="0 0 14 14" fill="none" xmlns="http://www.w3.org/2000/svg">
<g clip-path="url(#clip0_6_6079)">
<path d="M8 10V12.5C8 12.7652 7.89464 13.0196 7.70711 13.2071C7.51957 13.3946 7.26522 13.5 7 13.5C6.73478 13.5 6.48043 13.3946 6.29289 13.2071C6.10536 13.0196 6 12.7652 6 12.5V10" stroke="#000001" stroke-linecap="round" stroke-linejoin="round"/>
<path d="M9.75 3C9.28587 3 8.84075 2.81563 8.51256 2.48744C8.18437 2.15925 8 1.71413 8 1.25C8.00239 1.05911 8.03617 0.869917 8.1 0.69C7.74532 0.57033 7.37427 0.506239 7 0.5C6.07174 0.5 5.1815 0.868749 4.52513 1.52513C3.86875 2.1815 3.5 3.07174 3.5 4V9C3.5 9.26522 3.60536 9.51957 3.79289 9.70711C3.98043 9.89464 4.23478 10 4.5 10H9.5C9.76522 10 10.0196 9.89464 10.2071 9.70711C10.3946 9.51957 10.5 9.26522 10.5 9V4C10.4938 3.62573 10.4297 3.25468 10.31 2.9C10.1301 2.96383 9.94089 2.99761 9.75 3V3Z" stroke="#000001" stroke-linecap="round" stroke-linejoin="round"/>
</g>
<defs>
<clipPath id="clip0_6_6079">
<rect width="14" height="14" fill="white"/>
</clipPath>
</defs>
</svg>
