<svg width="14" height="14" viewBox="0 0 14 14" fill="none" xmlns="http://www.w3.org/2000/svg">
<g clip-path="url(#clip0_6_6015)">
<path d="M8 6C7.12932 6.00063 6.27119 6.20759 5.49594 6.6039C4.72069 7.00022 4.0504 7.57461 3.54 8.28L1.5 7L0.5 8L2.5 11.5V12.5C2.5 12.7652 2.60536 13.0196 2.79289 13.2071C2.98043 13.3946 3.23478 13.5 3.5 13.5H12.5C12.7652 13.5 13.0196 13.3946 13.2071 13.2071C13.3946 13.0196 13.5 12.7652 13.5 12.5V11.5C13.5 10.0413 12.9205 8.64236 11.8891 7.61091C10.8576 6.57946 9.45869 6 8 6Z" stroke="#000001" stroke-linecap="round" stroke-linejoin="round"/>
<path d="M8 6V4.5" stroke="#000001" stroke-linecap="round" stroke-linejoin="round"/>
<path d="M4 7.73V4.5C4 3.43913 4.42143 2.42172 5.17157 1.67157C5.92172 0.921427 6.93913 0.5 8 0.5C9.06087 0.5 10.0783 0.921427 10.8284 1.67157C11.5786 2.42172 12 3.43913 12 4.5V7.73" stroke="#000001" stroke-linecap="round" stroke-linejoin="round"/>
</g>
<defs>
<clipPath id="clip0_6_6015">
<rect width="14" height="14" fill="white"/>
</clipPath>
</defs>
</svg>
