<svg width="14" height="14" viewBox="0 0 14 14" fill="none" xmlns="http://www.w3.org/2000/svg">
<g clip-path="url(#clip0_6_6194)">
<path d="M0.5 0.5V2.75C0.5 3.41304 0.763392 4.04893 1.23223 4.51777C1.70107 4.98661 2.33696 5.25 3 5.25C3.66304 5.25 4.29893 4.98661 4.76777 4.51777C5.23661 4.04893 5.5 3.41304 5.5 2.75V0.5" stroke="#000001" stroke-linecap="round" stroke-linejoin="round"/>
<path d="M3 0.5V13.5" stroke="#000001" stroke-linecap="round" stroke-linejoin="round"/>
<path d="M13.5 13.5C11.7761 13.5 10.1228 12.8152 8.90381 11.5962C7.68482 10.3772 7 8.72391 7 7C7 5.27609 7.68482 3.62279 8.90381 2.40381C10.1228 1.18482 11.7761 0.5 13.5 0.5" stroke="#000001" stroke-linecap="round" stroke-linejoin="round"/>
<path d="M13.5 10.5C12.5717 10.5 11.6815 10.1313 11.0251 9.47487C10.3687 8.8185 10 7.92826 10 7C10 6.07174 10.3687 5.1815 11.0251 4.52513C11.6815 3.86875 12.5717 3.5 13.5 3.5" stroke="#000001" stroke-linecap="round" stroke-linejoin="round"/>
</g>
<defs>
<clipPath id="clip0_6_6194">
<rect width="14" height="14" fill="white"/>
</clipPath>
</defs>
</svg>
