<svg width="14" height="14" viewBox="0 0 14 14" fill="none" xmlns="http://www.w3.org/2000/svg">
<g clip-path="url(#clip0_6_6122)">
<path d="M6.12997 1.00011L0.999974 10.6501C0.928724 10.7832 0.884612 10.9291 0.870199 11.0794C0.855786 11.2296 0.871358 11.3812 0.916012 11.5254C0.960666 11.6696 1.03351 11.8035 1.13032 11.9193C1.22714 12.0352 1.34598 12.1306 1.47997 12.2001C3.18589 13.0599 5.06963 13.5078 6.97997 13.5078C8.89032 13.5078 10.7741 13.0599 12.48 12.2001C12.6174 12.1342 12.7402 12.0413 12.8411 11.9271C12.942 11.8128 13.019 11.6795 13.0674 11.535C13.1159 11.3905 13.1349 11.2377 13.1233 11.0857C13.1118 10.9337 13.0698 10.7856 13 10.6501L7.86997 1.00011C7.78276 0.846214 7.65628 0.718206 7.50344 0.629147C7.3506 0.540087 7.17687 0.493164 6.99997 0.493164C6.82308 0.493164 6.64935 0.540087 6.49651 0.629147C6.34367 0.718206 6.21719 0.846214 6.12997 1.00011Z" stroke="#000001" stroke-linecap="round" stroke-linejoin="round"/>
<path d="M12.24 9.29004C10.6069 10.0827 8.8153 10.4946 7.00001 10.4946C5.18472 10.4946 3.39309 10.0827 1.76001 9.29004" stroke="#000001" stroke-linecap="round" stroke-linejoin="round"/>
<path d="M5.5 7.5V8" stroke="#000001" stroke-linecap="round" stroke-linejoin="round"/>
<path d="M8.5 7.5V8" stroke="#000001" stroke-linecap="round" stroke-linejoin="round"/>
<path d="M7 4.5V5" stroke="#000001" stroke-linecap="round" stroke-linejoin="round"/>
</g>
<defs>
<clipPath id="clip0_6_6122">
<rect width="14" height="14" fill="white"/>
</clipPath>
</defs>
</svg>
