<svg width="14" height="14" viewBox="0 0 14 14" fill="none" xmlns="http://www.w3.org/2000/svg">
<g clip-path="url(#clip0_6_6117)">
<path d="M13.5 3C13.5 2.6717 13.4353 2.34661 13.3097 2.04329C13.1841 1.73998 12.9999 1.46438 12.7678 1.23223C12.5356 1.00009 12.26 0.815938 11.9567 0.690301C11.6534 0.564664 11.3283 0.5 11 0.5H3C2.47529 0.5 1.96389 0.665093 1.53822 0.971895C1.11256 1.2787 0.794218 1.71165 0.628292 2.20943C0.462365 2.70721 0.457266 3.24458 0.613716 3.74542C0.770167 4.24626 1.08024 4.68518 1.5 5V12.5C1.5 12.7652 1.60536 13.0196 1.79289 13.2071C1.98043 13.3946 2.23478 13.5 2.5 13.5H11.5C11.7652 13.5 12.0196 13.3946 12.2071 13.2071C12.3946 13.0196 12.5 12.7652 12.5 12.5V5C12.8111 4.76767 13.0635 4.46583 13.2371 4.11856C13.4108 3.7713 13.5008 3.38825 13.5 3V3Z" stroke="#000001" stroke-linecap="round" stroke-linejoin="round"/>
<path d="M8.5 3.5L4.5 7.5" stroke="#000001" stroke-linecap="round" stroke-linejoin="round"/>
<path d="M9.5 6.5L5.5 10.5" stroke="#000001" stroke-linecap="round" stroke-linejoin="round"/>
</g>
<defs>
<clipPath id="clip0_6_6117">
<rect width="14" height="14" fill="white"/>
</clipPath>
</defs>
</svg>
