<svg width="14" height="14" viewBox="0 0 14 14" fill="none" xmlns="http://www.w3.org/2000/svg">
<g clip-path="url(#clip0_6_6024)">
<path d="M8.25 4V1C8.25 0.867392 8.19732 0.740215 8.10355 0.646447C8.00979 0.552678 7.88261 0.5 7.75 0.5H6.25C6.11739 0.5 5.99022 0.552678 5.89645 0.646447C5.80268 0.740215 5.75 0.867392 5.75 1V4C5.28844 4.3068 4.90994 4.72301 4.64823 5.21155C4.38651 5.70009 4.24971 6.24578 4.25 6.8V12.5C4.25 12.7652 4.35536 13.0196 4.54289 13.2071C4.73043 13.3946 4.98478 13.5 5.25 13.5H8.75C9.01522 13.5 9.26957 13.3946 9.45711 13.2071C9.64464 13.0196 9.75 12.7652 9.75 12.5V6.8C9.7503 6.24578 9.61349 5.70009 9.35177 5.21155C9.09006 4.72301 8.71156 4.3068 8.25 4Z" stroke="#000001" stroke-linecap="round" stroke-linejoin="round"/>
<path d="M4.25 7.5H9.75" stroke="#000001" stroke-linecap="round" stroke-linejoin="round"/>
<path d="M9.75 11H4.25" stroke="#000001" stroke-linecap="round" stroke-linejoin="round"/>
</g>
<defs>
<clipPath id="clip0_6_6024">
<rect width="14" height="14" fill="white"/>
</clipPath>
</defs>
</svg>
