<svg width="14" height="14" viewBox="0 0 14 14" fill="none" xmlns="http://www.w3.org/2000/svg">
<g clip-path="url(#clip0_6_6707)">
<path d="M3.5 13.4999C3.5 13.4999 10 6.3899 10 3.4999C10.0233 3.09986 9.96158 2.69942 9.81904 2.32491C9.6765 1.95039 9.45632 1.61029 9.17297 1.32693C8.88962 1.04358 8.54951 0.823401 8.175 0.680861C7.80048 0.538322 7.40005 0.476651 7 0.499902C6.59995 0.476651 6.19952 0.538322 5.82501 0.680861C5.45049 0.823401 5.11038 1.04358 4.82703 1.32693C4.54368 1.61029 4.3235 1.95039 4.18096 2.32491C4.03842 2.69942 3.97675 3.09986 4 3.4999C4 6.3899 10.5 13.4999 10.5 13.4999" stroke="#000001" stroke-linecap="round" stroke-linejoin="round"/>
</g>
<defs>
<clipPath id="clip0_6_6707">
<rect width="14" height="14" fill="white"/>
</clipPath>
</defs>
</svg>
