<svg width="14" height="14" viewBox="0 0 14 14" fill="none" xmlns="http://www.w3.org/2000/svg">
<g clip-path="url(#clip0_6_6709)">
<path d="M7 3.13989V4.63989" stroke="#000001" stroke-linecap="round" stroke-linejoin="round"/>
<path d="M8.51005 7.14989C8.9817 6.80685 9.36349 6.35493 9.62292 5.8326C9.88234 5.31027 10.0117 4.73299 10.0001 4.14989C10.061 3.28812 9.78053 2.43695 9.21922 1.78022C8.65791 1.12349 7.8608 0.713892 7.00005 0.639893C6.14016 0.711404 5.34307 1.11888 4.78153 1.77401C4.21998 2.42915 3.93921 3.27917 4.00005 4.13989C3.98838 4.72298 4.11776 5.30027 4.37719 5.8226C4.63662 6.34493 5.0184 6.79685 5.49005 7.13989L2.28005 10.8199C2.20445 10.9113 2.16309 11.0263 2.16309 11.1449C2.16309 11.2635 2.20445 11.3785 2.28005 11.4699L3.65005 13.1699C3.69402 13.2292 3.75134 13.2773 3.81736 13.3103C3.88338 13.3433 3.95624 13.3603 4.03005 13.3599C4.10337 13.3607 4.17602 13.3459 4.24323 13.3166C4.31045 13.2873 4.37071 13.2441 4.42005 13.1899C5.39124 12.0915 6.25517 10.9028 7.00005 9.63989C7.75127 10.9036 8.62192 12.0924 9.60005 13.1899C9.6494 13.2441 9.70966 13.2873 9.77687 13.3166C9.84409 13.3459 9.91673 13.3607 9.99005 13.3599C10.0639 13.3603 10.1367 13.3433 10.2027 13.3103C10.2688 13.2773 10.3261 13.2292 10.3701 13.1699L11.7401 11.4699C11.8149 11.38 11.8559 11.2668 11.8559 11.1499C11.8559 11.033 11.8149 10.9197 11.7401 10.8299L8.51005 7.14989Z" stroke="#000001" stroke-linecap="round" stroke-linejoin="round"/>
</g>
<defs>
<clipPath id="clip0_6_6709">
<rect width="14" height="14" fill="white"/>
</clipPath>
</defs>
</svg>
