<svg width="14" height="14" viewBox="0 0 14 14" fill="none" xmlns="http://www.w3.org/2000/svg">
<g clip-path="url(#clip0_6_5234)">
<path d="M5 0.5H1C0.723858 0.5 0.5 0.723858 0.5 1V5C0.5 5.27614 0.723858 5.5 1 5.5H5C5.27614 5.5 5.5 5.27614 5.5 5V1C5.5 0.723858 5.27614 0.5 5 0.5Z" stroke="#000001" stroke-linecap="round" stroke-linejoin="round"/>
<path d="M13 0.5H9C8.72386 0.5 8.5 0.723858 8.5 1V5C8.5 5.27614 8.72386 5.5 9 5.5H13C13.2761 5.5 13.5 5.27614 13.5 5V1C13.5 0.723858 13.2761 0.5 13 0.5Z" stroke="#000001" stroke-linecap="round" stroke-linejoin="round"/>
<path d="M5 8.5H1C0.723858 8.5 0.5 8.72386 0.5 9V13C0.5 13.2761 0.723858 13.5 1 13.5H5C5.27614 13.5 5.5 13.2761 5.5 13V9C5.5 8.72386 5.27614 8.5 5 8.5Z" stroke="#000001" stroke-linecap="round" stroke-linejoin="round"/>
<path d="M13 8.5H9C8.72386 8.5 8.5 8.72386 8.5 9V13C8.5 13.2761 8.72386 13.5 9 13.5H13C13.2761 13.5 13.5 13.2761 13.5 13V9C13.5 8.72386 13.2761 8.5 13 8.5Z" stroke="#000001" stroke-linecap="round" stroke-linejoin="round"/>
</g>
<defs>
<clipPath id="clip0_6_5234">
<rect width="14" height="14" fill="white"/>
</clipPath>
</defs>
</svg>
