<svg width="14" height="14" viewBox="0 0 14 14" fill="none" xmlns="http://www.w3.org/2000/svg">
<g clip-path="url(#clip0_6_5198)">
<path d="M1.5 13.5L12.5 13.5C13.0523 13.5 13.5 13.0523 13.5 12.5L13.5 1.5C13.5 0.947715 13.0523 0.5 12.5 0.5L1.5 0.5C0.947715 0.5 0.5 0.947715 0.5 1.5L0.5 12.5C0.5 13.0523 0.947715 13.5 1.5 13.5Z" stroke="#000001" stroke-linecap="round" stroke-linejoin="round"/>
<path d="M10 6.50008C10 7.29573 9.68393 8.0588 9.12132 8.6214C8.55871 9.18401 7.79565 9.50008 7 9.50008C6.20435 9.50008 5.44129 9.18401 4.87868 8.6214C4.31607 8.0588 4 7.29573 4 6.50008V4.31008C3.99983 4.22511 4.02132 4.1415 4.06244 4.06714C4.10355 3.99277 4.16294 3.93012 4.235 3.88508C4.30706 3.84005 4.3894 3.81412 4.47426 3.80975C4.55912 3.80537 4.6437 3.8227 4.72 3.86008L7 5.00008L9.28 3.86008C9.35631 3.8227 9.44088 3.80537 9.52574 3.80975C9.6106 3.81412 9.69294 3.84005 9.765 3.88508C9.83706 3.93012 9.89645 3.99277 9.93757 4.06714C9.97868 4.1415 10.0002 4.22511 10 4.31008V6.50008Z" stroke="#000001" stroke-linecap="round" stroke-linejoin="round"/>
<path d="M7 9.5V13.5" stroke="#000001" stroke-linecap="round" stroke-linejoin="round"/>
<path d="M7 13.5L9.5 11" stroke="#000001" stroke-linecap="round" stroke-linejoin="round"/>
<path d="M7 13.5L4.5 11" stroke="#000001" stroke-linecap="round" stroke-linejoin="round"/>
</g>
<defs>
<clipPath id="clip0_6_5198">
<rect width="14" height="14" fill="white"/>
</clipPath>
</defs>
</svg>
