<svg width="14" height="14" viewBox="0 0 14 14" fill="none" xmlns="http://www.w3.org/2000/svg">
<g clip-path="url(#clip0_6_5225)">
<path d="M11.2 1.19006C11.2369 1.11722 11.2562 1.03672 11.2562 0.955061C11.2562 0.873407 11.2369 0.792901 11.2 0.720061C11.1509 0.644706 11.082 0.584318 11.0009 0.545513C10.9198 0.506708 10.8295 0.490983 10.74 0.500061H3.26003C3.17881 0.499879 3.09882 0.519889 3.02725 0.558291C2.95568 0.596694 2.89478 0.652284 2.85003 0.720061C2.80516 0.788883 2.77723 0.867356 2.76854 0.949052C2.75985 1.03075 2.77064 1.11334 2.80003 1.19006C3.59139 3.02482 3.99959 5.00191 3.99959 7.00006C3.99959 8.99821 3.59139 10.9753 2.80003 12.8101C2.77064 12.8868 2.75985 12.9694 2.76854 13.0511C2.77723 13.1328 2.80516 13.2112 2.85003 13.2801C2.89478 13.3478 2.95568 13.4034 3.02725 13.4418C3.09882 13.4802 3.17881 13.5002 3.26003 13.5001H10.74C10.8212 13.5002 10.9012 13.4802 10.9728 13.4418C11.0444 13.4034 11.1053 13.3478 11.15 13.2801C11.1869 13.2072 11.2062 13.1267 11.2062 13.0451C11.2062 12.9634 11.1869 12.8829 11.15 12.8101C10.3666 10.9719 9.96686 8.99305 9.97546 6.9949C9.98406 4.99675 10.4008 3.02142 11.2 1.19006V1.19006Z" stroke="#000001" stroke-linecap="round" stroke-linejoin="round"/>
</g>
<defs>
<clipPath id="clip0_6_5225">
<rect width="14" height="14" fill="white"/>
</clipPath>
</defs>
</svg>
