<svg width="14" height="14" viewBox="0 0 14 14" fill="none" xmlns="http://www.w3.org/2000/svg">
<g clip-path="url(#clip0_6_5264)">
<path d="M13.5 3.5C13.5 3.23478 13.3946 2.98043 13.2071 2.79289C13.0196 2.60536 12.7652 2.5 12.5 2.5H10.5L9 0.5H5L3.5 2.5H1.5C1.23478 2.5 0.98043 2.60536 0.792893 2.79289C0.605357 2.98043 0.5 3.23478 0.5 3.5V8.5C0.5 8.76522 0.605357 9.01957 0.792893 9.20711C0.98043 9.39464 1.23478 9.5 1.5 9.5H4.5L7 13.5L9.5 9.5H12.5C12.7652 9.5 13.0196 9.39464 13.2071 9.20711C13.3946 9.01957 13.5 8.76522 13.5 8.5V3.5Z" stroke="#000001" stroke-linecap="round" stroke-linejoin="round"/>
<path d="M7 7.5C8.10457 7.5 9 6.60457 9 5.5C9 4.39543 8.10457 3.5 7 3.5C5.89543 3.5 5 4.39543 5 5.5C5 6.60457 5.89543 7.5 7 7.5Z" stroke="#000001" stroke-linecap="round" stroke-linejoin="round"/>
</g>
<defs>
<clipPath id="clip0_6_5264">
<rect width="14" height="14" fill="white"/>
</clipPath>
</defs>
</svg>
