<svg width="14" height="14" viewBox="0 0 14 14" fill="none" xmlns="http://www.w3.org/2000/svg">
<g clip-path="url(#clip0_6_5211)">
<path d="M1.51001 13.5L12.51 13.5C13.0623 13.5 13.51 13.0523 13.51 12.5L13.51 1.5C13.51 0.947715 13.0623 0.5 12.51 0.5L1.51001 0.5C0.957725 0.5 0.51001 0.947715 0.51001 1.5L0.51001 12.5C0.51001 13.0523 0.957725 13.5 1.51001 13.5Z" stroke="#000001" stroke-linecap="round" stroke-linejoin="round"/>
<path d="M9.25 6.5C10.2165 6.5 11 5.7165 11 4.75C11 3.7835 10.2165 3 9.25 3C8.2835 3 7.5 3.7835 7.5 4.75C7.5 5.7165 8.2835 6.5 9.25 6.5Z" stroke="#000001" stroke-linecap="round" stroke-linejoin="round"/>
<path d="M9.4 13.4999C9.07801 11.7849 8.15715 10.2401 6.80173 9.14113C5.44632 8.04214 3.74452 7.46048 2 7.49993C1.49668 7.49858 0.994381 7.54546 0.5 7.63993" stroke="#000001" stroke-linecap="round" stroke-linejoin="round"/>
<path d="M13.5001 9.91002C12.6947 9.63803 11.8502 9.49954 11.0001 9.50002C9.92406 9.49768 8.85889 9.71548 7.87012 10.14" stroke="#000001" stroke-linecap="round" stroke-linejoin="round"/>
</g>
<defs>
<clipPath id="clip0_6_5211">
<rect width="14" height="14" fill="white"/>
</clipPath>
</defs>
</svg>
