<svg width="14" height="14" viewBox="0 0 14 14" fill="none" xmlns="http://www.w3.org/2000/svg">
<g clip-path="url(#clip0_6_5259)">
<path d="M12.5 3.75H1.5C0.947715 3.75 0.5 4.19772 0.5 4.75V11.75C0.5 12.3023 0.947715 12.75 1.5 12.75H12.5C13.0523 12.75 13.5 12.3023 13.5 11.75V4.75C13.5 4.19772 13.0523 3.75 12.5 3.75Z" stroke="#000001" stroke-linecap="round" stroke-linejoin="round"/>
<path d="M7 10.25C8.10457 10.25 9 9.35457 9 8.25C9 7.14543 8.10457 6.25 7 6.25C5.89543 6.25 5 7.14543 5 8.25C5 9.35457 5.89543 10.25 7 10.25Z" stroke="#000001" stroke-linecap="round" stroke-linejoin="round"/>
<path d="M9.5 3.75V2.25C9.5 1.98478 9.39464 1.73043 9.20711 1.54289C9.01957 1.35536 8.76522 1.25 8.5 1.25H5.5C5.23478 1.25 4.98043 1.35536 4.79289 1.54289C4.60536 1.73043 4.5 1.98478 4.5 2.25V3.75" stroke="#000001" stroke-linecap="round" stroke-linejoin="round"/>
</g>
<defs>
<clipPath id="clip0_6_5259">
<rect width="14" height="14" fill="white"/>
</clipPath>
</defs>
</svg>
