<svg width="14" height="14" viewBox="0 0 14 14" fill="none" xmlns="http://www.w3.org/2000/svg">
<g clip-path="url(#clip0_6_5227)">
<path d="M12.81 11.2C12.8828 11.2369 12.9633 11.2562 13.045 11.2562C13.1267 11.2562 13.2072 11.2369 13.28 11.2C13.3478 11.1553 13.4034 11.0944 13.4418 11.0228C13.4802 10.9512 13.5002 10.8712 13.5 10.79V3.26003C13.5002 3.17881 13.4802 3.09882 13.4418 3.02725C13.4034 2.95568 13.3478 2.89478 13.28 2.85003C13.2112 2.80516 13.1327 2.77723 13.051 2.76854C12.9693 2.75985 12.8867 2.77064 12.81 2.80003C10.9752 3.59139 8.99815 3.99959 7 3.99959C5.00185 3.99959 3.02476 3.59139 1.19 2.80003C1.11328 2.77064 1.03069 2.75985 0.948992 2.76854C0.867296 2.77723 0.788823 2.80516 0.720001 2.85003C0.652224 2.89478 0.596634 2.95568 0.558231 3.02725C0.519829 3.09882 0.499819 3.17881 0.500001 3.26003V10.74C0.499819 10.8212 0.519829 10.9012 0.558231 10.9728C0.596634 11.0444 0.652224 11.1053 0.720001 11.15C0.792841 11.1869 0.873347 11.2062 0.955001 11.2062C1.03666 11.2062 1.11716 11.1869 1.19 11.15C3.02817 10.3666 5.00701 9.96686 7.00516 9.97546C9.00331 9.98406 10.9786 10.4008 12.81 11.2V11.2Z" stroke="#000001" stroke-linecap="round" stroke-linejoin="round"/>
</g>
<defs>
<clipPath id="clip0_6_5227">
<rect width="14" height="14" fill="white"/>
</clipPath>
</defs>
</svg>
