<svg width="14" height="14" viewBox="0 0 14 14" fill="none" xmlns="http://www.w3.org/2000/svg">
<g clip-path="url(#clip0_6_5275)">
<path d="M4.24991 0.5L1.99991 5.81C1.96879 5.88575 1.95675 5.96798 1.96486 6.04947C1.97296 6.13096 2.00095 6.20922 2.04638 6.27736C2.0918 6.34549 2.15327 6.40143 2.22538 6.44025C2.29748 6.47908 2.37802 6.49959 2.45991 6.5H5.24991L3.24991 13.5L11.8399 5.36C11.9113 5.29124 11.9606 5.20284 11.9816 5.106C12.0026 5.00917 11.9944 4.90827 11.958 4.81612C11.9215 4.72397 11.8585 4.64473 11.777 4.58844C11.6954 4.53216 11.599 4.50137 11.4999 4.5H7.74991L9.74991 0.5H4.24991Z" stroke="#000001" stroke-linecap="round" stroke-linejoin="round"/>
</g>
<defs>
<clipPath id="clip0_6_5275">
<rect width="14" height="14" fill="white"/>
</clipPath>
</defs>
</svg>
