<svg width="14" height="14" viewBox="0 0 14 14" fill="none" xmlns="http://www.w3.org/2000/svg">
<g clip-path="url(#clip0_6_2592)">
<path d="M10.4999 10.0001C10.9035 10.0388 11.3106 9.98781 11.6922 9.85074C12.0737 9.71366 12.4203 9.49391 12.707 9.20722C12.9937 8.92053 13.2134 8.57399 13.3505 8.19243C13.4876 7.81086 13.5386 7.4037 13.4999 7.00011C13.5386 6.59652 13.4876 6.18937 13.3505 5.8078C13.2134 5.42623 12.9937 5.0797 12.707 4.79301C12.4203 4.50632 12.0737 4.28656 11.6922 4.14949C11.3106 4.01241 10.9035 3.9614 10.4999 4.00011C7.74987 4.00011 6.24987 10.0001 3.49987 10.0001C3.09628 10.0388 2.68912 9.98781 2.30756 9.85074C1.92599 9.71366 1.57945 9.49391 1.29276 9.20722C1.00607 8.92053 0.786319 8.57399 0.649243 8.19243C0.512167 7.81086 0.461158 7.4037 0.499868 7.00011C0.461158 6.59652 0.512167 6.18937 0.649243 5.8078C0.786319 5.42623 1.00607 5.0797 1.29276 4.79301C1.57945 4.50632 1.92599 4.28656 2.30756 4.14949C2.68912 4.01241 3.09628 3.9614 3.49987 4.00011C6.24987 4.00011 7.74987 10.0001 10.4999 10.0001Z" stroke="#000001" stroke-linecap="round" stroke-linejoin="round"/>
</g>
<defs>
<clipPath id="clip0_6_2592">
<rect width="14" height="14" fill="white"/>
</clipPath>
</defs>
</svg>
