<svg width="14" height="14" viewBox="0 0 14 14" fill="none" xmlns="http://www.w3.org/2000/svg">
<g clip-path="url(#clip0_6_2401)">
<path d="M12.5 4.5H1.5C0.947715 4.5 0.5 4.94772 0.5 5.5V12.5C0.5 13.0523 0.947715 13.5 1.5 13.5H12.5C13.0523 13.5 13.5 13.0523 13.5 12.5V5.5C13.5 4.94772 13.0523 4.5 12.5 4.5Z" stroke="#000001" stroke-linecap="round" stroke-linejoin="round"/>
<path d="M0.5 8.5H13.5" stroke="#000001" stroke-linecap="round" stroke-linejoin="round"/>
<path d="M7 7.5V9.5" stroke="#000001" stroke-linecap="round" stroke-linejoin="round"/>
<path d="M10 4.5C10 3.70435 9.68393 2.94129 9.12132 2.37868C8.55871 1.81607 7.79565 1.5 7 1.5V1.5C6.20435 1.5 5.44129 1.81607 4.87868 2.37868C4.31607 2.94129 4 3.70435 4 4.5" stroke="#000001" stroke-linecap="round" stroke-linejoin="round"/>
</g>
<defs>
<clipPath id="clip0_6_2401">
<rect width="14" height="14" fill="white"/>
</clipPath>
</defs>
</svg>
