<svg width="14" height="14" viewBox="0 0 14 14" fill="none" xmlns="http://www.w3.org/2000/svg">
<g clip-path="url(#clip0_6_3701)">
<path d="M7.36 13.43C7.12833 13.5194 6.87168 13.5194 6.64 13.43V13.43C4.83227 12.736 3.2776 11.5099 2.18135 9.91372C1.08509 8.31755 0.498829 6.42637 0.500002 4.48999V1.48999C0.500002 1.22477 0.605359 0.97042 0.792895 0.782883C0.980431 0.595347 1.23479 0.48999 1.5 0.48999H12.5C12.7652 0.48999 13.0196 0.595347 13.2071 0.782883C13.3946 0.97042 13.5 1.22477 13.5 1.48999V4.48999C13.5012 6.42637 12.9149 8.31755 11.8187 9.91372C10.7224 11.5099 9.16773 12.736 7.36 13.43V13.43Z" stroke="#000001" stroke-linecap="round" stroke-linejoin="round"/>
</g>
<defs>
<clipPath id="clip0_6_3701">
<rect width="14" height="14" fill="white"/>
</clipPath>
</defs>
</svg>
