<svg width="14" height="14" viewBox="0 0 14 14" fill="none" xmlns="http://www.w3.org/2000/svg">
<g clip-path="url(#clip0_6_3703)">
<path d="M7.92 13.21L7.33 13.44C7.11723 13.5198 6.88277 13.5198 6.67 13.44L6.08 13.21C4.58558 12.6241 3.30196 11.6022 2.396 10.2772C1.49003 8.95211 1.00363 7.38516 1 5.78V3C2.13249 3.1614 3.28755 3.01437 4.3435 2.57439C5.39944 2.13442 6.31717 1.41779 7 0.5C8.25 2.32 10.32 3.18 13 3V5.78C12.9964 7.38516 12.51 8.95211 11.604 10.2772C10.698 11.6022 9.41442 12.6241 7.92 13.21V13.21Z" stroke="#000001" stroke-linecap="round" stroke-linejoin="round"/>
</g>
<defs>
<clipPath id="clip0_6_3703">
<rect width="14" height="14" fill="white"/>
</clipPath>
</defs>
</svg>
