<svg width="14" height="14" viewBox="0 0 14 14" fill="none" xmlns="http://www.w3.org/2000/svg">
<g clip-path="url(#clip0_6_4610)">
<path d="M7 10.99C8.933 10.99 10.5 9.42299 10.5 7.48999C10.5 5.55699 8.933 3.98999 7 3.98999C5.067 3.98999 3.5 5.55699 3.5 7.48999C3.5 9.42299 5.067 10.99 7 10.99Z" stroke="#000001" stroke-linecap="round" stroke-linejoin="round"/>
<path d="M9.35018 1.31006C9.81381 1.77464 10.1293 2.36622 10.2569 3.01005C10.3844 3.65388 10.3183 4.32107 10.0668 4.92733C9.81532 5.53358 9.38979 6.05169 8.84396 6.4162C8.29814 6.7807 7.65652 6.97524 7.00018 6.97524C6.34383 6.97524 5.70222 6.7807 5.15639 6.4162C4.61057 6.05169 4.18503 5.53358 3.93355 4.92733C3.68207 4.32107 3.61592 3.65388 3.74347 3.01005C3.87102 2.36622 4.18655 1.77464 4.65018 1.31006" stroke="#000001" stroke-linecap="round" stroke-linejoin="round"/>
<path d="M0.5 8.49997C0.67047 7.86613 1.02499 7.29705 1.51877 6.86462C2.01254 6.43219 2.62342 6.15583 3.2742 6.07045C3.92499 5.98507 4.58648 6.0945 5.17509 6.38493C5.7637 6.67535 6.25302 7.13373 6.58122 7.70214C6.90942 8.27056 7.06177 8.9235 7.01902 9.57846C6.97627 10.2334 6.74035 10.861 6.34105 11.382C5.94175 11.9029 5.397 12.2938 4.77564 12.5052C4.15427 12.7167 3.48417 12.7392 2.85 12.57" stroke="#000001" stroke-linecap="round" stroke-linejoin="round"/>
<path d="M11.1502 12.57C10.516 12.7392 9.84593 12.7167 9.22456 12.5052C8.60319 12.2938 8.05844 11.9029 7.65914 11.382C7.25985 10.861 7.02392 10.2334 6.98117 9.57846C6.93842 8.9235 7.09077 8.27056 7.41897 7.70214C7.74717 7.13373 8.23649 6.67535 8.82511 6.38493C9.41372 6.0945 10.0752 5.98507 10.726 6.07045C11.3768 6.15583 11.9876 6.43219 12.4814 6.86462C12.9752 7.29705 13.3297 7.86613 13.5002 8.49997" stroke="#000001" stroke-linecap="round" stroke-linejoin="round"/>
</g>
<defs>
<clipPath id="clip0_6_4610">
<rect width="14" height="14" fill="white"/>
</clipPath>
</defs>
</svg>
