<svg width="14" height="14" viewBox="0 0 14 14" fill="none" xmlns="http://www.w3.org/2000/svg">
<g clip-path="url(#clip0_6_2572)">
<path d="M3.37012 8.15001L5.91012 12.21C6.00855 12.3705 6.14688 12.5027 6.31161 12.5938C6.47634 12.685 6.66187 12.7319 6.85012 12.73C6.99838 12.7354 7.14621 12.7109 7.28487 12.6582C7.42353 12.6054 7.5502 12.5254 7.65741 12.4229C7.76462 12.3203 7.85019 12.1973 7.90905 12.0611C7.96791 11.925 7.99888 11.7784 8.00012 11.63V8.72001H12.3901C12.5523 8.71475 12.7116 8.67521 12.8574 8.60399C13.0033 8.53278 13.1324 8.4315 13.2363 8.30682C13.3402 8.18214 13.4165 8.03688 13.4603 7.88058C13.504 7.72429 13.5142 7.56051 13.4901 7.40001L12.6901 2.24001C12.656 1.96424 12.5223 1.71044 12.3142 1.52629C12.1062 1.34215 11.838 1.24034 11.5601 1.24001H5.00012C4.68784 1.23878 4.37961 1.3107 4.10012 1.45001L3.38012 1.81001" stroke="#000001" stroke-linecap="round" stroke-linejoin="round"/>
<path d="M3.37012 8.15009V1.84009" stroke="#000001" stroke-linecap="round" stroke-linejoin="round"/>
<path d="M1 1.84009H3.37V8.15009H1C0.867392 8.15009 0.740215 8.09741 0.646447 8.00364C0.552678 7.90987 0.5 7.7827 0.5 7.65009V2.34009C0.5 2.20748 0.552678 2.0803 0.646447 1.98653C0.740215 1.89277 0.867392 1.84009 1 1.84009V1.84009Z" stroke="#000001" stroke-linecap="round" stroke-linejoin="round"/>
</g>
<defs>
<clipPath id="clip0_6_2572">
<rect width="14" height="14" fill="white"/>
</clipPath>
</defs>
</svg>
