<svg width="14" height="14" viewBox="0 0 14 14" fill="none" xmlns="http://www.w3.org/2000/svg">
<g clip-path="url(#clip0_6_2652)">
<path d="M3.5 13.5H13.5" stroke="#000001" stroke-linecap="round" stroke-linejoin="round"/>
<path d="M12.32 6.20997C12.4104 6.12234 12.4823 6.01743 12.5314 5.90148C12.5805 5.78552 12.6058 5.66089 12.6058 5.53497C12.6058 5.40905 12.5805 5.28442 12.5314 5.16847C12.4823 5.05251 12.4104 4.94761 12.32 4.85997L8.24997 0.779971C8.06506 0.608476 7.82217 0.513184 7.56997 0.513184C7.31777 0.513184 7.07489 0.608476 6.88997 0.779971L0.779971 6.88997C0.608476 7.07489 0.513184 7.31777 0.513184 7.56997C0.513184 7.82217 0.608476 8.06506 0.779971 8.24997L3.21997 10.68C3.30595 10.7715 3.40975 10.8444 3.52497 10.8943C3.6402 10.9441 3.76442 10.9699 3.88997 10.97H7.16997C7.29721 10.9713 7.42334 10.9462 7.54038 10.8963C7.65743 10.8464 7.76284 10.7727 7.84997 10.68L12.32 6.20997Z" stroke="#000001" stroke-linecap="round" stroke-linejoin="round"/>
</g>
<defs>
<clipPath id="clip0_6_2652">
<rect width="14" height="14" fill="white"/>
</clipPath>
</defs>
</svg>
