<svg width="14" height="14" viewBox="0 0 14 14" fill="none" xmlns="http://www.w3.org/2000/svg">
<g clip-path="url(#clip0_6_4605)">
<path d="M8.91981 1.25C9.4571 1.65297 9.85399 2.21479 10.0542 2.85586C10.2545 3.49694 10.248 4.18477 10.0356 4.82193C9.82321 5.45909 9.41573 6.01327 8.87088 6.40597C8.32603 6.79868 7.67143 7.01 6.9998 7.01C6.32818 7.01 5.67358 6.79868 5.12873 6.40597C4.58388 6.01327 4.1764 5.45909 3.96402 4.82193C3.75163 4.18477 3.7451 3.49694 3.94536 2.85586C4.14562 2.21479 4.54251 1.65297 5.0798 1.25" stroke="#000001" stroke-linecap="round" stroke-linejoin="round"/>
<path d="M0.5 9.16991C0.579261 8.50273 0.866515 7.87741 1.32104 7.38261C1.77557 6.88781 2.37431 6.54863 3.03239 6.41315C3.69047 6.27767 4.37449 6.35276 4.98751 6.62778C5.60052 6.9028 6.11142 7.36379 6.44778 7.94541C6.78414 8.52704 6.9289 9.19978 6.86153 9.86827C6.79416 10.5368 6.51809 11.1671 6.07244 11.6699C5.6268 12.1727 5.03419 12.5225 4.37863 12.6697C3.72307 12.8169 3.03781 12.754 2.42 12.4899" stroke="#000001" stroke-linecap="round" stroke-linejoin="round"/>
<path d="M11.5799 12.49C10.964 12.7516 10.2814 12.8128 9.6288 12.6651C8.97617 12.5173 8.38652 12.1681 7.94328 11.6668C7.50004 11.1655 7.22566 10.5376 7.15896 9.87176C7.09226 9.20595 7.23661 8.53603 7.5716 7.95678C7.90659 7.37753 8.41525 6.91828 9.0256 6.64403C9.63595 6.36977 10.3171 6.29439 10.9727 6.42855C11.6282 6.56271 12.225 6.89961 12.6785 7.3916C13.1321 7.88358 13.4194 8.50573 13.4999 9.17001" stroke="#000001" stroke-linecap="round" stroke-linejoin="round"/>
</g>
<defs>
<clipPath id="clip0_6_4605">
<rect width="14" height="14" fill="white"/>
</clipPath>
</defs>
</svg>
