<svg width="14" height="14" viewBox="0 0 14 14" fill="none" xmlns="http://www.w3.org/2000/svg">
<g clip-path="url(#clip0_6_2524)">
<path d="M6.75 8V2.5C7.47227 2.5 8.18747 2.64226 8.85476 2.91866C9.52205 3.19506 10.1284 3.60019 10.6391 4.11091C11.1498 4.62164 11.5549 5.22795 11.8313 5.89524C12.1077 6.56253 12.25 7.27773 12.25 8H6.75Z" stroke="#000001" stroke-linecap="round" stroke-linejoin="round"/>
<path d="M5.25 0.5H8.25" stroke="#000001" stroke-linecap="round" stroke-linejoin="round"/>
<path d="M6.75 0.5V2.5" stroke="#000001" stroke-linecap="round" stroke-linejoin="round"/>
<path d="M11.75 2L12.75 3" stroke="#000001" stroke-linecap="round" stroke-linejoin="round"/>
<path d="M2.85986 4.11011L3.91986 5.17011" stroke="#000001" stroke-linecap="round" stroke-linejoin="round"/>
<path d="M1.25 8H2.75" stroke="#000001" stroke-linecap="round" stroke-linejoin="round"/>
<path d="M2.85986 11.8901L3.91986 10.8301" stroke="#000001" stroke-linecap="round" stroke-linejoin="round"/>
<path d="M7 12V13.5" stroke="#000001" stroke-linecap="round" stroke-linejoin="round"/>
<path d="M10.54 10.54L11.6 11.6" stroke="#000001" stroke-linecap="round" stroke-linejoin="round"/>
</g>
<defs>
<clipPath id="clip0_6_2524">
<rect width="14" height="14" fill="white"/>
</clipPath>
</defs>
</svg>
