<svg width="14" height="14" viewBox="0 0 14 14" fill="none" xmlns="http://www.w3.org/2000/svg">
<path d="M9 1.93008C9.454 1.66793 9.96877 1.52933 10.493 1.52808C11.0173 1.52684 11.5327 1.663 11.9879 1.92299C12.4432 2.18298 12.8223 2.55773 13.0876 3.00989C13.3529 3.46206 13.4951 3.97585 13.5 4.50008C13.4979 4.87975 13.4267 5.25587 13.29 5.61008" stroke="#000001" stroke-linecap="round" stroke-linejoin="round"/>
<path d="M10.9733 7.17001C10.8202 7.15969 10.6665 7.15969 10.5133 7.17001C10.3499 6.40139 9.92753 5.71219 9.31683 5.21769C8.70613 4.72319 7.94415 4.45337 7.15834 4.45337C6.37254 4.45337 5.61056 4.72319 4.99986 5.21769C4.38916 5.71219 3.96677 6.40139 3.80334 7.17001C3.65352 7.15968 3.50317 7.15968 3.35334 7.17001C2.98964 7.14772 2.62522 7.20012 2.28253 7.32397C1.93984 7.44781 1.62612 7.6405 1.3607 7.89015C1.09528 8.13981 0.883764 8.44115 0.739185 8.77562C0.594605 9.1101 0.52002 9.47063 0.52002 9.83501C0.52002 10.1994 0.594605 10.5599 0.739185 10.8944C0.883764 11.2289 1.09528 11.5302 1.3607 11.7799C1.62612 12.0295 1.93984 12.2222 2.28253 12.3461C2.62522 12.4699 2.98964 12.5223 3.35334 12.5H10.9733C11.6519 12.4584 12.2891 12.1595 12.7549 11.6643C13.2207 11.1691 13.48 10.5149 13.48 9.83501C13.48 9.15516 13.2207 8.50091 12.7549 8.00569C12.2891 7.51048 11.6519 7.2116 10.9733 7.17001V7.17001Z" stroke="#000001" stroke-linecap="round" stroke-linejoin="round"/>
</svg>
