<svg width="14" height="14" viewBox="0 0 14 14" fill="none" xmlns="http://www.w3.org/2000/svg">
<g clip-path="url(#clip0_6_1570)">
<path d="M1.5 2.5C1.23478 2.5 0.98043 2.60536 0.792893 2.79289C0.605357 2.98043 0.5 3.23478 0.5 3.5V12.5C0.5 12.7652 0.605357 13.0196 0.792893 13.2071C0.98043 13.3946 1.23478 13.5 1.5 13.5H12.5C12.7652 13.5 13.0196 13.3946 13.2071 13.2071C13.3946 13.0196 13.5 12.7652 13.5 12.5V3.5C13.5 3.23478 13.3946 2.98043 13.2071 2.79289C13.0196 2.60536 12.7652 2.5 12.5 2.5H10.5" stroke="#000001" stroke-linecap="round" stroke-linejoin="round"/>
<path d="M3.5 0.5V4.5" stroke="#000001" stroke-linecap="round" stroke-linejoin="round"/>
<path d="M10.5 0.5V4.5" stroke="#000001" stroke-linecap="round" stroke-linejoin="round"/>
<path d="M3.5 2.5H8.5" stroke="#000001" stroke-linecap="round" stroke-linejoin="round"/>
<path d="M3.5 8C3.77614 8 4 7.77614 4 7.5C4 7.22386 3.77614 7 3.5 7C3.22386 7 3 7.22386 3 7.5C3 7.77614 3.22386 8 3.5 8Z" stroke="#000001" stroke-linecap="round" stroke-linejoin="round"/>
<path d="M7 8C7.27614 8 7.5 7.77614 7.5 7.5C7.5 7.22386 7.27614 7 7 7C6.72386 7 6.5 7.22386 6.5 7.5C6.5 7.77614 6.72386 8 7 8Z" stroke="#000001" stroke-linecap="round" stroke-linejoin="round"/>
<path d="M10.5 8C10.7761 8 11 7.77614 11 7.5C11 7.22386 10.7761 7 10.5 7C10.2239 7 10 7.22386 10 7.5C10 7.77614 10.2239 8 10.5 8Z" stroke="#000001" stroke-linecap="round" stroke-linejoin="round"/>
<path d="M3.5 11C3.77614 11 4 10.7761 4 10.5C4 10.2239 3.77614 10 3.5 10C3.22386 10 3 10.2239 3 10.5C3 10.7761 3.22386 11 3.5 11Z" stroke="#000001" stroke-linecap="round" stroke-linejoin="round"/>
</g>
<defs>
<clipPath id="clip0_6_1570">
<rect width="14" height="14" fill="white"/>
</clipPath>
</defs>
</svg>
