<svg width="14" height="14" viewBox="0 0 14 14" fill="none" xmlns="http://www.w3.org/2000/svg">
<g clip-path="url(#clip0_6_1806)">
<path d="M0.5 7C0.5 5.27609 1.18482 3.62279 2.40381 2.40381C3.62279 1.18482 5.27609 0.5 7 0.5C8.72391 0.5 10.3772 1.18482 11.5962 2.40381C12.8152 3.62279 13.5 5.27609 13.5 7" stroke="#000001" stroke-linecap="round" stroke-linejoin="round"/>
<path d="M1.0498 9.61011C1.24875 10.073 1.50401 10.5097 1.8098 10.9101C2.09947 11.3112 2.43508 11.677 2.8098 12.0001" stroke="#000001" stroke-linecap="round" stroke-linejoin="round"/>
<path d="M13.0002 9.61011C12.8013 10.073 12.546 10.5097 12.2402 10.9101C11.9506 11.3112 11.615 11.677 11.2402 12.0001" stroke="#000001" stroke-linecap="round" stroke-linejoin="round"/>
<path d="M5.5 13.3301C6.48715 13.5568 7.51285 13.5568 8.5 13.3301" stroke="#000001" stroke-linecap="round" stroke-linejoin="round"/>
</g>
<defs>
<clipPath id="clip0_6_1806">
<rect width="14" height="14" fill="white"/>
</clipPath>
</defs>
</svg>
