<svg width="14" height="14" viewBox="0 0 14 14" fill="none" xmlns="http://www.w3.org/2000/svg">
<g clip-path="url(#clip0_6_2288)">
<path d="M6.37813 0.789355L3.79011 3.37737C3.39959 3.76789 3.39959 4.40106 3.79011 4.79158L9.20655 10.208C9.59708 10.5985 10.2302 10.5985 10.6208 10.208L13.2088 7.62001C13.5993 7.22948 13.5993 6.59632 13.2088 6.20579L7.79234 0.789355C7.40181 0.398831 6.76865 0.398831 6.37813 0.789355Z" stroke="#000001" stroke-linecap="round" stroke-linejoin="round"/>
<path d="M0.909819 11.09C0.644603 11.3552 0.495605 11.7149 0.495605 12.09C0.495605 12.4651 0.644603 12.8248 0.909819 13.09C1.17504 13.3552 1.53475 13.5042 1.90982 13.5042C2.28489 13.5042 2.6446 13.3552 2.90982 13.09L7.49982 8.5L5.49982 6.5L0.909819 11.09Z" stroke="#000001" stroke-linecap="round" stroke-linejoin="round"/>
</g>
<defs>
<clipPath id="clip0_6_2288">
<rect width="14" height="14" fill="white"/>
</clipPath>
</defs>
</svg>
