<svg width="14" height="14" viewBox="0 0 14 14" fill="none" xmlns="http://www.w3.org/2000/svg">
<g clip-path="url(#clip0_6_1999)">
<path d="M2.18994 4.92993L13.4999 11.4499" stroke="#000001" stroke-linecap="round" stroke-linejoin="round"/>
<path d="M2.75 5C3.99264 5 5 3.99264 5 2.75C5 1.50736 3.99264 0.5 2.75 0.5C1.50736 0.5 0.5 1.50736 0.5 2.75C0.5 3.99264 1.50736 5 2.75 5Z" stroke="#000001" stroke-linecap="round" stroke-linejoin="round"/>
<path d="M2.18994 9.07005L13.4999 2.55005" stroke="#000001" stroke-linecap="round" stroke-linejoin="round"/>
<path d="M2.75 13.5C3.99264 13.5 5 12.4926 5 11.25C5 10.0074 3.99264 9 2.75 9C1.50736 9 0.5 10.0074 0.5 11.25C0.5 12.4926 1.50736 13.5 2.75 13.5Z" stroke="#000001" stroke-linecap="round" stroke-linejoin="round"/>
</g>
<defs>
<clipPath id="clip0_6_1999">
<rect width="14" height="14" fill="white"/>
</clipPath>
</defs>
</svg>
