<svg width="14" height="14" viewBox="0 0 14 14" fill="none" xmlns="http://www.w3.org/2000/svg">
<g clip-path="url(#clip0_6_3711)">
<path d="M7.36001 13.4299C7.12833 13.5193 6.87168 13.5193 6.64001 13.4299V13.4299C4.83228 12.7359 3.2776 11.5098 2.18135 9.91364C1.08509 8.31746 0.498834 6.42628 0.500006 4.48991V1.87991C0.499458 1.77041 0.534167 1.66364 0.599 1.57539C0.663834 1.48715 0.755348 1.42211 0.860006 1.38991C4.86688 0.200109 9.13313 0.200109 13.14 1.38991C13.2447 1.42211 13.3362 1.48715 13.401 1.57539C13.4658 1.66364 13.5006 1.77041 13.5 1.87991V4.48991C13.5012 6.42628 12.9149 8.31746 11.8187 9.91364C10.7224 11.5098 9.16774 12.7359 7.36001 13.4299V13.4299Z" stroke="#000001" stroke-linecap="round" stroke-linejoin="round"/>
</g>
<defs>
<clipPath id="clip0_6_3711">
<rect width="14" height="14" fill="white"/>
</clipPath>
</defs>
</svg>
