<svg width="14" height="14" viewBox="0 0 14 14" fill="none" xmlns="http://www.w3.org/2000/svg">
<g clip-path="url(#clip0_6_1640)">
<path d="M6.13 12.0601C4.6 13.6001 2 14.1101 0.5 12.5701C2.5 10.5001 0.5 9.50008 2 8.00008C2.26339 7.70668 2.58383 7.47008 2.94176 7.30472C3.29968 7.13936 3.68757 7.04873 4.0817 7.03836C4.47584 7.02798 4.86796 7.09809 5.23408 7.24439C5.60021 7.39069 5.93266 7.61012 6.21111 7.88925C6.48956 8.16838 6.70817 8.50137 6.85358 8.86785C6.99899 9.23433 7.06813 9.62662 7.0568 10.0207C7.04546 10.4148 6.95388 10.8025 6.78765 11.16C6.62142 11.5175 6.38404 11.8374 6.09 12.1001L6.13 12.0601Z" stroke="#000001" stroke-linecap="round" stroke-linejoin="round"/>
<path d="M12.9201 1.08002C12.7262 0.887314 12.4948 0.736424 12.2402 0.636665C11.9857 0.536907 11.7134 0.4904 11.4401 0.500017C11.1671 0.507439 10.8984 0.570717 10.6508 0.685948C10.4031 0.80118 10.1817 0.965922 10.0001 1.17002L4.62012 7.17002C5.19703 7.28426 5.72448 7.57418 6.13012 8.00002C6.49495 8.36337 6.76013 8.81451 6.90012 9.31002L12.8301 4.00002C13.033 3.81961 13.197 3.59979 13.3122 3.35394C13.4274 3.1081 13.4913 2.84137 13.5001 2.57002C13.5111 2.29512 13.4653 2.02091 13.3655 1.76454C13.2657 1.50816 13.1141 1.27513 12.9201 1.08002V1.08002Z" stroke="#000001" stroke-linecap="round" stroke-linejoin="round"/>
</g>
<defs>
<clipPath id="clip0_6_1640">
<rect width="14" height="14" fill="white"/>
</clipPath>
</defs>
</svg>
