<svg width="14" height="14" viewBox="0 0 14 14" fill="none" xmlns="http://www.w3.org/2000/svg">
<g clip-path="url(#clip0_6_3543)">
<path d="M11 6.5C10.4592 6.50072 9.93308 6.67609 9.5 7C9.5 6.10999 9.23608 5.23996 8.74162 4.49994C8.24715 3.75991 7.54434 3.18314 6.72208 2.84254C5.89981 2.50195 4.99501 2.41283 4.1221 2.58647C3.24918 2.7601 2.44736 3.18868 1.81802 3.81802C1.18869 4.44736 0.760102 5.24918 0.586468 6.1221C0.412835 6.99501 0.50195 7.89981 0.842544 8.72208C1.18314 9.54434 1.75991 10.2471 2.49994 10.7416C3.23996 11.2361 4.10999 11.5 5 11.5H11C11.663 11.5 12.2989 11.2366 12.7678 10.7678C13.2366 10.2989 13.5 9.66304 13.5 9C13.5 8.33696 13.2366 7.70108 12.7678 7.23223C12.2989 6.76339 11.663 6.5 11 6.5V6.5Z" stroke="#000001" stroke-linecap="round" stroke-linejoin="round"/>
</g>
<defs>
<clipPath id="clip0_6_3543">
<rect width="14" height="14" fill="white"/>
</clipPath>
</defs>
</svg>
