<svg width="14" height="14" viewBox="0 0 14 14" fill="none" xmlns="http://www.w3.org/2000/svg">
<g clip-path="url(#clip0_6_3547)">
<path d="M5.99979 7C5.992 5.78472 5.66795 4.59241 5.05953 3.54038C4.4511 2.48834 3.57926 1.61283 2.52979 1C3.31321 0.675752 4.15193 0.505972 4.99979 0.5C6.72369 0.5 8.37699 1.18482 9.59598 2.40381C10.815 3.62279 11.4998 5.27609 11.4998 7C11.4998 8.72391 10.815 10.3772 9.59598 11.5962C8.37699 12.8152 6.72369 13.5 4.99979 13.5C4.15193 13.494 3.31321 13.3242 2.52979 13C3.57926 12.3872 4.4511 11.5117 5.05953 10.4596C5.66795 9.40759 5.992 8.21528 5.99979 7V7Z" stroke="#000001" stroke-linecap="round" stroke-linejoin="round"/>
</g>
<defs>
<clipPath id="clip0_6_3547">
<rect width="14" height="14" fill="white"/>
</clipPath>
</defs>
</svg>
