<svg width="14" height="14" viewBox="0 0 14 14" fill="none" xmlns="http://www.w3.org/2000/svg">
<g clip-path="url(#clip0_6_1671)">
<path d="M8.5 3.5V2.5C8.5 2.23478 8.39464 1.98043 8.20711 1.79289C8.01957 1.60536 7.76522 1.5 7.5 1.5H6.5" stroke="#000001" stroke-linecap="round" stroke-linejoin="round"/>
<path d="M4 10.5H1.5C1.23478 10.5 0.98043 10.3946 0.792893 10.2071C0.605357 10.0196 0.5 9.76522 0.5 9.5V2.5C0.5 2.23478 0.605357 1.98043 0.792893 1.79289C0.98043 1.60536 1.23478 1.5 1.5 1.5H2.5" stroke="#000001" stroke-linecap="round" stroke-linejoin="round"/>
<path d="M12.5 5.5H7.5C6.94772 5.5 6.5 5.94772 6.5 6.5V12.5C6.5 13.0523 6.94772 13.5 7.5 13.5H12.5C13.0523 13.5 13.5 13.0523 13.5 12.5V6.5C13.5 5.94772 13.0523 5.5 12.5 5.5Z" stroke="#000001" stroke-linecap="round" stroke-linejoin="round"/>
<path d="M6.75 0.5H2.25L2.66 2.12C2.68498 2.22843 2.74611 2.32513 2.83335 2.39419C2.92059 2.46325 3.02873 2.50057 3.14 2.5H5.86C5.97127 2.50057 6.07941 2.46325 6.16665 2.39419C6.25389 2.32513 6.31502 2.22843 6.34 2.12L6.75 0.5Z" stroke="#000001" stroke-linecap="round" stroke-linejoin="round"/>
<path d="M8.5 8.5H11.5" stroke="#000001" stroke-linecap="round" stroke-linejoin="round"/>
<path d="M8.5 10.5H11.5" stroke="#000001" stroke-linecap="round" stroke-linejoin="round"/>
</g>
<defs>
<clipPath id="clip0_6_1671">
<rect width="14" height="14" fill="white"/>
</clipPath>
</defs>
</svg>
