<svg width="14" height="14" viewBox="0 0 14 14" fill="none" xmlns="http://www.w3.org/2000/svg">
<g clip-path="url(#clip0_6_1942)">
<path d="M5.5 12.4998C5.77635 12.2451 5.99691 11.9359 6.14777 11.5916C6.29864 11.2474 6.37652 10.8757 6.37652 10.4998C6.37652 10.124 6.29864 9.75222 6.14777 9.40799C5.99691 9.06377 5.77635 8.75454 5.5 8.49982C5.24528 8.22347 4.93605 8.0029 4.59182 7.85204C4.24759 7.70118 3.87584 7.62329 3.5 7.62329C3.12416 7.62329 2.75241 7.70118 2.40818 7.85204C2.06395 8.0029 1.75472 8.22347 1.5 8.49982C0.5 9.49982 0.5 13.4998 0.5 13.4998C0.5 13.4998 4.5 13.4998 5.5 12.4998Z" stroke="#000001" stroke-linecap="round" stroke-linejoin="round"/>
<path d="M12.92 1.07993C12.5736 0.737931 12.1144 0.534011 11.6284 0.506396C11.1424 0.478782 10.663 0.629371 10.28 0.929934L4.50004 4.99993L3.79004 7.63993C4.44166 7.72248 5.04524 8.02604 5.50004 8.49993C5.97393 8.95473 6.27749 9.55832 6.36004 10.2099L9.00004 9.49993L13.07 3.71993C13.3706 3.33701 13.5212 2.85762 13.4936 2.37161C13.466 1.8856 13.262 1.42635 12.92 1.07993V1.07993Z" stroke="#000001" stroke-linecap="round" stroke-linejoin="round"/>
<path d="M0.5 13.5L3.75 10.25" stroke="#000001" stroke-linecap="round" stroke-linejoin="round"/>
</g>
<defs>
<clipPath id="clip0_6_1942">
<rect width="14" height="14" fill="white"/>
</clipPath>
</defs>
</svg>
