<svg width="14" height="14" viewBox="0 0 14 14" fill="none" xmlns="http://www.w3.org/2000/svg">
<g clip-path="url(#clip0_6_3713)">
<path d="M5 5C6.24264 5 7.25 3.99264 7.25 2.75C7.25 1.50736 6.24264 0.5 5 0.5C3.75736 0.5 2.75 1.50736 2.75 2.75C2.75 3.99264 3.75736 5 5 5Z" stroke="#000001" stroke-linecap="round" stroke-linejoin="round"/>
<path d="M6.00003 6.60995C5.34062 6.45771 4.65533 6.45651 3.99539 6.60642C3.33545 6.75633 2.71793 7.05348 2.18901 7.47566C1.66009 7.89784 1.23344 8.43412 0.940965 9.04441C0.648489 9.65469 0.497753 10.3232 0.500025 11V12.5H6.00003" stroke="#000001" stroke-linecap="round" stroke-linejoin="round"/>
<path d="M10.67 13.47C10.5602 13.5098 10.4399 13.5098 10.33 13.47C9.49607 13.1397 8.78047 12.5665 8.27591 11.8248C7.77135 11.0832 7.50107 10.2071 7.50005 9.31005V8.00005C7.49563 7.93324 7.50553 7.86627 7.5291 7.8036C7.55266 7.74093 7.58934 7.68402 7.63668 7.63668C7.68402 7.58934 7.74093 7.55266 7.8036 7.5291C7.86627 7.50553 7.93324 7.49563 8.00005 7.50005H13C13.0669 7.49563 13.1338 7.50553 13.1965 7.5291C13.2592 7.55266 13.3161 7.58934 13.3634 7.63668C13.4108 7.68402 13.4474 7.74093 13.471 7.8036C13.4946 7.86627 13.5045 7.93324 13.5 8.00005V9.31005C13.499 10.2071 13.2287 11.0832 12.7242 11.8248C12.2196 12.5665 11.504 13.1397 10.67 13.47V13.47Z" stroke="#000001" stroke-linecap="round" stroke-linejoin="round"/>
</g>
<defs>
<clipPath id="clip0_6_3713">
<rect width="14" height="14" fill="white"/>
</clipPath>
</defs>
</svg>
