<svg width="14" height="14" viewBox="0 0 14 14" fill="none" xmlns="http://www.w3.org/2000/svg">
<g clip-path="url(#clip0_6_4440)">
<path d="M13.1899 3.05011C13.3859 2.8517 13.4958 2.58403 13.4958 2.30511C13.4958 2.0262 13.3859 1.75852 13.1899 1.56011L12.4399 0.810111C12.2439 0.628784 11.9868 0.528057 11.7199 0.528057C11.4529 0.528057 11.1958 0.628784 10.9999 0.810111L6.99987 4.76011L3.04987 0.810111C2.85146 0.614081 2.58378 0.50415 2.30487 0.50415C2.02595 0.50415 1.75828 0.614081 1.55987 0.810111L0.809867 1.56011C0.613837 1.75852 0.503906 2.0262 0.503906 2.30511C0.503906 2.58403 0.613837 2.8517 0.809867 3.05011L4.80987 7.05011L0.809867 11.0001C0.613837 11.1985 0.503906 11.4662 0.503906 11.7451C0.503906 12.024 0.613837 12.2917 0.809867 12.4901L1.55987 13.2401C1.75828 13.4361 2.02595 13.5461 2.30487 13.5461C2.58378 13.5461 2.85146 13.4361 3.04987 13.2401L6.99987 9.24011L10.9999 13.1901C11.1983 13.3861 11.466 13.4961 11.7449 13.4961C12.0238 13.4961 12.2915 13.3861 12.4899 13.1901L13.2399 12.4401C13.4359 12.2417 13.5458 11.974 13.5458 11.6951C13.5458 11.4162 13.4359 11.1485 13.2399 10.9501L9.23987 7.00011L13.1899 3.05011Z" stroke="#000001" stroke-linecap="round" stroke-linejoin="round"/>
</g>
<defs>
<clipPath id="clip0_6_4440">
<rect width="14" height="14" fill="white"/>
</clipPath>
</defs>
</svg>
