<svg width="14" height="14" viewBox="0 0 14 14" fill="none" xmlns="http://www.w3.org/2000/svg">
<g clip-path="url(#clip0_6_1885)">
<path d="M8.80978 12.07C8.35803 12.5217 7.82173 12.8801 7.23149 13.1246C6.64126 13.3691 6.00864 13.4949 5.36978 13.4949C4.07953 13.4949 2.84212 12.9823 1.92978 12.07C1.01743 11.1577 0.504883 9.92025 0.504883 8.63C0.504883 7.33975 1.01743 6.10234 1.92978 5.19L6.61978 0.5L8.80978 2.69L4.50978 7C4.23337 7.33984 4.09281 7.7701 4.11527 8.20758C4.13772 8.64506 4.32161 9.05867 4.63136 9.36842C4.94111 9.67817 5.35472 9.86205 5.7922 9.88451C6.22967 9.90697 6.65994 9.7664 6.99978 9.49L11.2998 5.19L13.4998 7.38L8.80978 12.07Z" stroke="#000001" stroke-linecap="round" stroke-linejoin="round"/>
<path d="M9.18994 7.31006L11.3799 9.50006" stroke="#000001" stroke-linecap="round" stroke-linejoin="round"/>
<path d="M4.5 2.62012L6.69 4.81012" stroke="#000001" stroke-linecap="round" stroke-linejoin="round"/>
</g>
<defs>
<clipPath id="clip0_6_1885">
<rect width="14" height="14" fill="white"/>
</clipPath>
</defs>
</svg>
