<svg width="14" height="14" viewBox="0 0 14 14" fill="none" xmlns="http://www.w3.org/2000/svg">
<g clip-path="url(#clip0_6_3577)">
<path d="M11.78 9.37998C12.1229 9.26551 12.4369 9.07802 12.7004 8.83045C12.9639 8.58288 13.1705 8.28112 13.306 7.94596C13.4416 7.61081 13.5029 7.25024 13.4856 6.88913C13.4683 6.52802 13.3729 6.17494 13.206 5.85426C13.039 5.53358 12.8045 5.25292 12.5187 5.03163C12.2328 4.81035 11.9023 4.6537 11.55 4.57249C11.1977 4.49128 10.832 4.48745 10.4781 4.56125C10.1242 4.63505 9.79047 4.78473 9.5 4.99998C9.50054 4.16371 9.26804 3.34383 8.82858 2.63234C8.38912 1.92084 7.7601 1.34588 7.01208 0.97196C6.26406 0.59804 5.42665 0.439955 4.59379 0.515444C3.76094 0.590932 2.9656 0.897007 2.297 1.39933C1.6284 1.90165 1.11301 2.58034 0.808637 3.35925C0.504268 4.13816 0.422968 4.98648 0.573859 5.80902C0.724751 6.63157 1.10186 7.39579 1.66289 8.01595C2.22391 8.63612 2.94664 9.08768 3.75 9.31998" stroke="#000001" stroke-linecap="round" stroke-linejoin="round"/>
<path d="M8 8L6 10.5H9L7 13.5" stroke="#000001" stroke-linecap="round" stroke-linejoin="round"/>
</g>
<defs>
<clipPath id="clip0_6_3577">
<rect width="14" height="14" fill="white"/>
</clipPath>
</defs>
</svg>
