<svg width="14" height="14" viewBox="0 0 14 14" fill="none" xmlns="http://www.w3.org/2000/svg">
<g clip-path="url(#clip0_6_4626)">
<path d="M7 5V8" stroke="#000001" stroke-linecap="round" stroke-linejoin="round"/>
<path d="M7 11.5C7.27614 11.5 7.5 11.2761 7.5 11C7.5 10.7239 7.27614 10.5 7 10.5C6.72386 10.5 6.5 10.7239 6.5 11C6.5 11.2761 6.72386 11.5 7 11.5Z" stroke="#000001" stroke-linecap="round" stroke-linejoin="round"/>
<path d="M7.8899 1.0499C7.80599 0.886097 7.67849 0.748632 7.52146 0.652642C7.36443 0.556651 7.18395 0.505859 6.9999 0.505859C6.81586 0.505859 6.63538 0.556651 6.47835 0.652642C6.32132 0.748632 6.19382 0.886097 6.1099 1.0499L0.609904 12.0499C0.533194 12.2021 0.496672 12.3714 0.503806 12.5418C0.51094 12.7121 0.561494 12.8777 0.650667 13.023C0.739839 13.1683 0.86467 13.2884 1.0133 13.3718C1.16194 13.4553 1.32944 13.4994 1.4999 13.4999H12.4999C12.6704 13.4994 12.8379 13.4553 12.9865 13.3718C13.1351 13.2884 13.26 13.1683 13.3491 13.023C13.4383 12.8777 13.4889 12.7121 13.496 12.5418C13.5031 12.3714 13.4666 12.2021 13.3899 12.0499L7.8899 1.0499Z" stroke="#000001" stroke-linecap="round" stroke-linejoin="round"/>
</g>
<defs>
<clipPath id="clip0_6_4626">
<rect width="14" height="14" fill="white"/>
</clipPath>
</defs>
</svg>
