<svg width="14" height="14" viewBox="0 0 14 14" fill="none" xmlns="http://www.w3.org/2000/svg">
<g clip-path="url(#clip0_6_2407)">
<path d="M13.4299 3.58996C13.4106 3.48517 13.3694 3.38561 13.3091 3.29774C13.2488 3.20988 13.1707 3.13568 13.0799 3.07996L11.0799 5.07996C10.9866 5.17674 10.8748 5.25373 10.7511 5.30631C10.6274 5.35889 10.4943 5.38599 10.3599 5.38599C10.2255 5.38599 10.0924 5.35889 9.96873 5.30631C9.84502 5.25373 9.73318 5.17674 9.6399 5.07996L8.8799 4.39996C8.69667 4.21303 8.59404 3.96171 8.59404 3.69996C8.59404 3.43821 8.69667 3.18689 8.8799 2.99996L10.8799 0.999961C10.8363 0.897498 10.7707 0.805872 10.6877 0.731567C10.6048 0.657261 10.5065 0.602091 10.3999 0.569961C9.70207 0.430801 8.97919 0.490369 8.31356 0.741884C7.64793 0.993399 7.06629 1.42675 6.63486 1.99261C6.20343 2.55847 5.93955 3.2341 5.87326 3.94257C5.80697 4.65104 5.94093 5.36389 6.2599 5.99996L0.799899 11.41C0.704653 11.5031 0.628974 11.6143 0.577306 11.7371C0.525639 11.8599 0.499023 11.9918 0.499023 12.125C0.499023 12.2582 0.525639 12.39 0.577306 12.5128C0.628974 12.6356 0.704653 12.7468 0.799899 12.84L1.1599 13.2C1.25303 13.2952 1.36425 13.3709 1.48704 13.4226C1.60982 13.4742 1.74169 13.5008 1.8749 13.5008C2.00811 13.5008 2.13998 13.4742 2.26276 13.4226C2.38555 13.3709 2.49677 13.2952 2.5899 13.2L8.0499 7.74996C8.68614 8.05309 9.39399 8.17381 10.0947 8.09868C10.7955 8.02356 11.4617 7.75555 12.0192 7.32445C12.5767 6.89334 13.0038 6.31605 13.2528 5.65675C13.5019 4.99746 13.5632 4.28201 13.4299 3.58996V3.58996Z" stroke="#000001" stroke-linecap="round" stroke-linejoin="round"/>
</g>
<defs>
<clipPath id="clip0_6_2407">
<rect width="14" height="14" fill="white"/>
</clipPath>
</defs>
</svg>
