<svg width="14" height="14" viewBox="0 0 14 14" fill="none" xmlns="http://www.w3.org/2000/svg">
<g clip-path="url(#clip0_6_3340)">
<path d="M9.25 0.5L11.75 3L9.25 5.5" stroke="#000001" stroke-linecap="round" stroke-linejoin="round"/>
<path d="M12.25 8.25C12.25 9.28835 11.9421 10.3034 11.3652 11.1667C10.7883 12.0301 9.9684 12.703 9.00909 13.1004C8.04978 13.4977 6.99418 13.6017 5.97578 13.3991C4.95738 13.1966 4.02192 12.6965 3.28769 11.9623C2.55347 11.2281 2.05345 10.2926 1.85088 9.27422C1.64831 8.25582 1.75227 7.20022 2.14963 6.24091C2.54699 5.2816 3.2199 4.46166 4.08326 3.88478C4.94662 3.30791 5.96165 3 7 3H11.75" stroke="#000001" stroke-linecap="round" stroke-linejoin="round"/>
</g>
<defs>
<clipPath id="clip0_6_3340">
<rect width="14" height="14" fill="white"/>
</clipPath>
</defs>
</svg>
