<svg width="14" height="14" viewBox="0 0 14 14" fill="none" xmlns="http://www.w3.org/2000/svg">
<g clip-path="url(#clip0_6_3529)">
<path d="M10.5 8.00016C10.5023 7.37609 10.3377 6.76274 10.0233 6.22366C9.70888 5.68458 9.25603 5.23937 8.71168 4.93417C8.16732 4.62896 7.55126 4.47486 6.92732 4.48782C6.30338 4.50078 5.69425 4.68033 5.16303 5.00788C4.63182 5.33542 4.19785 5.79905 3.90607 6.35072C3.6143 6.90239 3.47534 7.52204 3.50359 8.14548C3.53184 8.76892 3.72626 9.37347 4.06673 9.89649C4.4072 10.4195 4.88132 10.842 5.43998 11.1202V12.8402C5.44258 12.9419 5.48482 13.0385 5.55768 13.1095C5.63054 13.1805 5.72825 13.2202 5.82998 13.2202H8.16998C8.2717 13.2202 8.36941 13.1805 8.44227 13.1095C8.51513 13.0385 8.55737 12.9419 8.55998 12.8402V11.0902C9.13622 10.8033 9.62219 10.3631 9.96446 9.81794C10.3067 9.27279 10.492 8.64381 10.5 8.00016V8.00016Z" stroke="#000001" stroke-linecap="round" stroke-linejoin="round"/>
<path d="M7 0.810059V2.31006" stroke="#000001" stroke-linecap="round" stroke-linejoin="round"/>
<path d="M11.0004 2.23999L9.94043 3.30999" stroke="#000001" stroke-linecap="round" stroke-linejoin="round"/>
<path d="M13.2803 5.34009H11.7803" stroke="#000001" stroke-linecap="round" stroke-linejoin="round"/>
<path d="M3 2.23999L4.06 3.30999" stroke="#000001" stroke-linecap="round" stroke-linejoin="round"/>
<path d="M0.720215 5.34009H2.22021" stroke="#000001" stroke-linecap="round" stroke-linejoin="round"/>
</g>
<defs>
<clipPath id="clip0_6_3529">
<rect width="14" height="14" fill="white"/>
</clipPath>
</defs>
</svg>
