<svg width="14" height="14" viewBox="0 0 14 14" fill="none" xmlns="http://www.w3.org/2000/svg">
<g clip-path="url(#clip0_6_3581)">
<path d="M11.9999 10.48C10.8383 10.4729 9.6994 10.157 8.70008 9.56463C7.70077 8.97228 6.87697 8.12482 6.31315 7.10913C5.74933 6.09345 5.46579 4.94609 5.49158 3.78469C5.51737 2.6233 5.85158 1.48965 6.45993 0.5C4.85711 0.781382 3.41643 1.64934 2.41853 2.9348C1.42063 4.22026 0.936974 5.83116 1.06178 7.4537C1.1866 9.07624 1.91093 10.5942 3.09369 11.7119C4.27645 12.8297 5.83293 13.4671 7.45993 13.5C8.57306 13.5028 9.66803 13.218 10.6387 12.6731C11.6093 12.1282 12.4227 11.3418 12.9999 10.39C12.6693 10.4446 12.335 10.4747 11.9999 10.48V10.48Z" stroke="#000001" stroke-linecap="round" stroke-linejoin="round"/>
</g>
<defs>
<clipPath id="clip0_6_3581">
<rect width="14" height="14" fill="white"/>
</clipPath>
</defs>
</svg>
