<svg width="14" height="14" viewBox="0 0 14 14" fill="none" xmlns="http://www.w3.org/2000/svg">
<g clip-path="url(#clip0_6_3537)">
<path d="M2 3.5C2.82843 3.5 3.5 2.82843 3.5 2C3.5 1.17157 2.82843 0.5 2 0.5C1.17157 0.5 0.5 1.17157 0.5 2C0.5 2.82843 1.17157 3.5 2 3.5Z" stroke="#000001" stroke-linecap="round" stroke-linejoin="round"/>
<path d="M13.4999 1.83999C12.6763 1.55028 11.7994 1.44379 10.9305 1.52794C10.0615 1.61209 9.22136 1.88486 8.46869 2.32721C7.71602 2.76956 7.06895 3.37083 6.57265 4.08906C6.07634 4.8073 5.74274 5.62519 5.59515 6.48565C5.44756 7.34612 5.48952 8.22843 5.71811 9.071C5.9467 9.91358 6.35641 10.6961 6.91864 11.364C7.48087 12.0319 8.18209 12.569 8.97334 12.938C9.76459 13.3069 10.6268 13.4987 11.4999 13.5C12.181 13.501 12.8573 13.386 13.4999 13.16" stroke="#000001" stroke-linecap="round" stroke-linejoin="round"/>
</g>
<defs>
<clipPath id="clip0_6_3537">
<rect width="14" height="14" fill="white"/>
</clipPath>
</defs>
</svg>
