<svg width="14" height="14" viewBox="0 0 14 14" fill="none" xmlns="http://www.w3.org/2000/svg">
<g clip-path="url(#clip0_6_3264)">
<path d="M4.99987 10.43C4.58136 10.7886 4.05094 10.9902 3.49987 11C3.09628 11.0387 2.68912 10.9877 2.30756 10.8506C1.92599 10.7135 1.57945 10.4938 1.29276 10.2071C1.00607 9.92042 0.786319 9.57388 0.649243 9.19231C0.512167 8.81075 0.461158 8.40359 0.499868 8C0.461158 7.59641 0.512167 7.18925 0.649243 6.80769C0.786319 6.42612 1.00607 6.07958 1.29276 5.79289C1.57945 5.5062 1.92599 5.28645 2.30756 5.14937C2.68912 5.0123 3.09628 4.96129 3.49987 5C6.24987 5 7.74987 11 10.4999 11C10.9035 11.0387 11.3106 10.9877 11.6922 10.8506C12.0737 10.7135 12.4203 10.4938 12.707 10.2071C12.9937 9.92042 13.2134 9.57388 13.3505 9.19231C13.4876 8.81075 13.5386 8.40359 13.4999 8C13.5386 7.59641 13.4876 7.18925 13.3505 6.80769C13.2134 6.42612 12.9937 6.07958 12.707 5.79289C12.4203 5.5062 12.0737 5.28645 11.6922 5.14937C11.3106 5.0123 10.9035 4.96129 10.4999 5H8.49987L10.4999 3" stroke="#000001" stroke-linecap="round" stroke-linejoin="round"/>
</g>
<defs>
<clipPath id="clip0_6_3264">
<rect width="14" height="14" fill="white"/>
</clipPath>
</defs>
</svg>
