<svg width="14" height="14" viewBox="0 0 14 14" fill="none" xmlns="http://www.w3.org/2000/svg">
<g clip-path="url(#clip0_6_3401)">
<path d="M11 9L13 8.5L13.5 10.5" stroke="#000001" stroke-linecap="round" stroke-linejoin="round"/>
<path d="M12.9999 8.5C12.5746 9.77038 11.7729 10.8813 10.7012 11.6851C9.62944 12.4889 8.33849 12.9475 6.99986 13V13C5.76798 13.0002 4.56588 12.6213 3.55685 11.9146C2.54781 11.2079 1.78076 10.2078 1.35986 9.05" stroke="#000001" stroke-linecap="round" stroke-linejoin="round"/>
<path d="M3 5L1 5.5L0.5 3.5" stroke="#000001" stroke-linecap="round" stroke-linejoin="round"/>
<path d="M1 5.5C1.44757 4.24353 2.25528 3.14671 3.32232 2.34642C4.38936 1.54614 5.66847 1.07785 7 1V1C8.23789 1.00348 9.4444 1.38976 10.4541 2.10588C11.4639 2.822 12.2274 3.8329 12.64 5" stroke="#000001" stroke-linecap="round" stroke-linejoin="round"/>
<path d="M7 3.5V7.5" stroke="#000001" stroke-linecap="round" stroke-linejoin="round"/>
<path d="M7 10.5C7.27614 10.5 7.5 10.2761 7.5 10C7.5 9.72386 7.27614 9.5 7 9.5C6.72386 9.5 6.5 9.72386 6.5 10C6.5 10.2761 6.72386 10.5 7 10.5Z" stroke="#000001" stroke-linecap="round" stroke-linejoin="round"/>
</g>
<defs>
<clipPath id="clip0_6_3401">
<rect width="14" height="14" fill="white"/>
</clipPath>
</defs>
</svg>
