<svg width="14" height="14" viewBox="0 0 14 14" fill="none" xmlns="http://www.w3.org/2000/svg">
<g clip-path="url(#clip0_6_2658)">
<path d="M6.5 12.4999L9.64 5.16993C9.66961 5.09886 9.7196 5.03814 9.78367 4.99543C9.84773 4.95272 9.923 4.92993 10 4.92993C10.077 4.92993 10.1523 4.95272 10.2163 4.99543C10.2804 5.03814 10.3304 5.09886 10.36 5.16993L13.5 12.4999" stroke="#000001" stroke-linecap="round" stroke-linejoin="round"/>
<path d="M7.91016 9.20996H12.0902" stroke="#000001" stroke-linecap="round" stroke-linejoin="round"/>
<path d="M0.5 12.5L5.07 1.84002C5.1191 1.75032 5.19142 1.67548 5.27939 1.62335C5.36737 1.57121 5.46774 1.5437 5.57 1.5437C5.67226 1.5437 5.77264 1.57121 5.86061 1.62335C5.94858 1.67548 6.0209 1.75032 6.07 1.84002L7 3.94002" stroke="#000001" stroke-linecap="round" stroke-linejoin="round"/>
<path d="M2.5498 7.71997H4.9998" stroke="#000001" stroke-linecap="round" stroke-linejoin="round"/>
</g>
<defs>
<clipPath id="clip0_6_2658">
<rect width="14" height="14" fill="white"/>
</clipPath>
</defs>
</svg>
