<svg width="14" height="14" viewBox="0 0 14 14" fill="none" xmlns="http://www.w3.org/2000/svg">
<g clip-path="url(#clip0_6_4551)">
<path d="M6.1498 0.53004C6.08934 0.493924 6.02023 0.474854 5.9498 0.474854C5.87938 0.474854 5.81026 0.493924 5.7498 0.53004C5.69993 0.569554 5.66628 0.625984 5.65522 0.688644C5.64417 0.751303 5.65647 0.815843 5.6898 0.87004C6.9198 3.00004 7.1798 5.90004 5.4998 7.50004C4.85343 6.95686 4.34027 6.27265 3.9998 5.50004C3.37853 5.84509 2.86366 6.35374 2.51107 6.97076C2.15848 7.58779 1.98166 8.28961 1.9998 9.00004C2.02516 9.62632 2.17554 10.2412 2.44207 10.8085C2.70861 11.3758 3.08593 11.8841 3.55182 12.3034C4.01771 12.7227 4.56277 13.0445 5.15491 13.25C5.74705 13.4556 6.37432 13.5406 6.9998 13.5C10.2198 13.5 11.8898 11.5 11.9998 9.00004C12.1298 6.00004 9.9998 2.31004 6.1498 0.53004Z" stroke="#000001" stroke-linecap="round" stroke-linejoin="round"/>
<path d="M9.5 9C9.5 9.53043 9.28929 10.0391 8.91421 10.4142C8.53914 10.7893 8.03043 11 7.5 11" stroke="#000001" stroke-linecap="round" stroke-linejoin="round"/>
</g>
<defs>
<clipPath id="clip0_6_4551">
<rect width="14" height="14" fill="white"/>
</clipPath>
</defs>
</svg>
