<svg width="14" height="14" viewBox="0 0 14 14" fill="none" xmlns="http://www.w3.org/2000/svg">
<g clip-path="url(#clip0_6_3655)">
<path d="M11 8.5C10.4592 8.50072 9.93308 8.67609 9.5 9C9.5 8.10999 9.23608 7.23996 8.74162 6.49994C8.24715 5.75991 7.54434 5.18314 6.72208 4.84254C5.89981 4.50195 4.99501 4.41283 4.1221 4.58647C3.24918 4.7601 2.44736 5.18868 1.81802 5.81802C1.18869 6.44736 0.760102 7.24918 0.586468 8.1221C0.412835 8.99501 0.50195 9.89981 0.842544 10.7221C1.18314 11.5443 1.75991 12.2471 2.49994 12.7416C3.23996 13.2361 4.10999 13.5 5 13.5H11C11.663 13.5 12.2989 13.2366 12.7678 12.7678C13.2366 12.2989 13.5 11.663 13.5 11C13.5 10.337 13.2366 9.70108 12.7678 9.23223C12.2989 8.76339 11.663 8.5 11 8.5Z" stroke="#000001" stroke-linecap="round" stroke-linejoin="round"/>
<path d="M11.25 5C12.4926 5 13.5 3.99264 13.5 2.75C13.5 1.50736 12.4926 0.5 11.25 0.5C10.0074 0.5 9 1.50736 9 2.75C9 3.99264 10.0074 5 11.25 5Z" stroke="#000001" stroke-linecap="round" stroke-linejoin="round"/>
</g>
<defs>
<clipPath id="clip0_6_3655">
<rect width="14" height="14" fill="white"/>
</clipPath>
</defs>
</svg>
