<svg width="14" height="14" viewBox="0 0 14 14" fill="none" xmlns="http://www.w3.org/2000/svg">
<g clip-path="url(#clip0_6_2275)">
<path d="M7.46013 1.99997C7.4101 1.92363 7.34185 1.86094 7.26155 1.81756C7.18124 1.77418 7.09141 1.75146 7.00013 1.75146C6.90886 1.75146 6.81902 1.77418 6.73872 1.81756C6.65841 1.86094 6.59017 1.92363 6.54013 1.99997L0.540132 11.5C0.496248 11.576 0.473145 11.6622 0.473145 11.75C0.473145 11.8377 0.496248 11.924 0.540132 12C0.589314 12.0772 0.657338 12.1407 0.737808 12.1844C0.818278 12.2282 0.908549 12.2507 1.00013 12.25H13.0001C13.0917 12.2507 13.182 12.2282 13.2625 12.1844C13.3429 12.1407 13.4109 12.0772 13.4601 12C13.504 11.924 13.5271 11.8377 13.5271 11.75C13.5271 11.6622 13.504 11.576 13.4601 11.5L7.46013 1.99997Z" stroke="#000001" stroke-linecap="round" stroke-linejoin="round"/>
</g>
<defs>
<clipPath id="clip0_6_2275">
<rect width="14" height="14" fill="white"/>
</clipPath>
</defs>
</svg>
