<svg width="14" height="14" viewBox="0 0 14 14" fill="none" xmlns="http://www.w3.org/2000/svg">
<g clip-path="url(#clip0_6_2585)">
<path d="M3.37012 5.85001L5.91012 1.79001C6.00855 1.62954 6.14688 1.4973 6.31161 1.40617C6.47634 1.31504 6.66187 1.26813 6.85012 1.27001V1.27001C6.99838 1.26466 7.14621 1.28908 7.28487 1.34184C7.42353 1.39459 7.5502 1.47461 7.65741 1.57715C7.76462 1.6797 7.85019 1.8027 7.90905 1.93888C7.96791 2.07506 7.99888 2.22166 8.00012 2.37001V5.28001H12.3901C12.5523 5.28527 12.7116 5.32481 12.8574 5.39602C13.0033 5.46723 13.1324 5.56851 13.2363 5.69319C13.3402 5.81788 13.4165 5.96314 13.4603 6.11943C13.504 6.27572 13.5142 6.43951 13.4901 6.60001L12.6901 11.76C12.656 12.0358 12.5223 12.2896 12.3142 12.4737C12.1062 12.6579 11.838 12.7597 11.5601 12.76H5.00012C4.68784 12.7612 4.37961 12.6893 4.10012 12.55L3.38012 12.19" stroke="#000001" stroke-linecap="round" stroke-linejoin="round"/>
<path d="M3.37012 5.8501V12.1601" stroke="#000001" stroke-linecap="round" stroke-linejoin="round"/>
<path d="M1 5.8501H3.37V12.1601H1C0.867392 12.1601 0.740215 12.1074 0.646447 12.0137C0.552678 11.9199 0.5 11.7927 0.5 11.6601V6.3501C0.5 6.21749 0.552678 6.09031 0.646447 5.99654C0.740215 5.90278 0.867392 5.8501 1 5.8501V5.8501Z" stroke="#000001" stroke-linecap="round" stroke-linejoin="round"/>
</g>
<defs>
<clipPath id="clip0_6_2585">
<rect width="14" height="14" fill="white"/>
</clipPath>
</defs>
</svg>
