<svg width="14" height="14" viewBox="0 0 14 14" fill="none" xmlns="http://www.w3.org/2000/svg">
<g clip-path="url(#clip0_6_3665)">
<path d="M11.5 9V2C11.5 1.60218 11.342 1.22064 11.0607 0.93934C10.7794 0.658035 10.3978 0.5 10 0.5V0.5C9.60218 0.5 9.22064 0.658035 8.93934 0.93934C8.65804 1.22064 8.5 1.60218 8.5 2V9C8.08024 9.31482 7.77017 9.75374 7.61372 10.2546C7.45727 10.7554 7.46237 11.2928 7.62829 11.7906C7.79422 12.2883 8.11256 12.7213 8.53822 13.0281C8.96389 13.3349 9.47529 13.5 10 13.5C10.5247 13.5 11.0361 13.3349 11.4618 13.0281C11.8874 12.7213 12.2058 12.2883 12.3717 11.7906C12.5376 11.2928 12.5427 10.7554 12.3863 10.2546C12.2298 9.75374 11.9198 9.31482 11.5 9Z" stroke="#000001" stroke-linecap="round" stroke-linejoin="round"/>
<path d="M1.5 2.5H5.48" stroke="#000001" stroke-linecap="round" stroke-linejoin="round"/>
<path d="M3.49023 0.51001V4.49001" stroke="#000001" stroke-linecap="round" stroke-linejoin="round"/>
</g>
<defs>
<clipPath id="clip0_6_3665">
<rect width="14" height="14" fill="white"/>
</clipPath>
</defs>
</svg>
