<svg width="14" height="14" viewBox="0 0 14 14" fill="none" xmlns="http://www.w3.org/2000/svg">
<g clip-path="url(#clip0_6_1635)">
<path d="M11.5001 8.5H2.50006L1.74006 12.3C1.71143 12.4453 1.71542 12.5951 1.75174 12.7386C1.78806 12.8821 1.85579 13.0158 1.95006 13.13C2.04311 13.2447 2.16042 13.3374 2.29356 13.4014C2.4267 13.4653 2.57235 13.499 2.72006 13.5H11.2801C11.4278 13.499 11.5734 13.4653 11.7066 13.4014C11.8397 13.3374 11.957 13.2447 12.0501 13.13C12.1443 13.0158 12.2121 12.8821 12.2484 12.7386C12.2847 12.5951 12.2887 12.4453 12.2601 12.3L11.5001 8.5Z" stroke="#000001" stroke-linecap="round" stroke-linejoin="round"/>
<path d="M11.5 5.5C11.7652 5.5 12.0196 5.60536 12.2071 5.79289C12.3946 5.98043 12.5 6.23478 12.5 6.5V8.5H1.5V6.5C1.5 6.23478 1.60536 5.98043 1.79289 5.79289C1.98043 5.60536 2.23478 5.5 2.5 5.5H4C4.26522 5.5 4.51957 5.39464 4.70711 5.20711C4.89464 5.01957 5 4.76522 5 4.5V2.5C5 1.96957 5.21071 1.46086 5.58579 1.08579C5.96086 0.710714 6.46957 0.5 7 0.5C7.53043 0.5 8.03914 0.710714 8.41421 1.08579C8.78929 1.46086 9 1.96957 9 2.5V4.5C9 4.76522 9.10536 5.01957 9.29289 5.20711C9.48043 5.39464 9.73478 5.5 10 5.5H11.5Z" stroke="#000001" stroke-linecap="round" stroke-linejoin="round"/>
<path d="M8.5 13.5V11" stroke="#000001" stroke-linecap="round" stroke-linejoin="round"/>
</g>
<defs>
<clipPath id="clip0_6_1635">
<rect width="14" height="14" fill="white"/>
</clipPath>
</defs>
</svg>
