<svg width="14" height="14" viewBox="0 0 14 14" fill="none" xmlns="http://www.w3.org/2000/svg">
<g clip-path="url(#clip0_6_2795)">
<path d="M2.17977 5.44C2.30901 5.53202 2.41451 5.65346 2.48754 5.79431C2.56057 5.93515 2.59904 6.09135 2.59977 6.25C2.62004 6.39508 2.60459 6.54291 2.55476 6.68067C2.50493 6.81842 2.42223 6.94193 2.31383 7.04047C2.20544 7.13901 2.07463 7.2096 1.93277 7.24611C1.7909 7.28263 1.64227 7.28396 1.49977 7.25C0.539773 7 0.0897725 5.57 0.999773 3.25" stroke="#000001" stroke-linecap="round" stroke-linejoin="round"/>
<path d="M5.69987 5.44C5.83096 5.53092 5.93839 5.65189 6.0132 5.7928C6.088 5.93371 6.12801 6.09048 6.12987 6.25C6.15014 6.39508 6.13469 6.54291 6.08486 6.68067C6.03503 6.81842 5.95233 6.94193 5.84393 7.04047C5.73554 7.13901 5.60473 7.2096 5.46287 7.24611C5.321 7.28263 5.17237 7.28396 5.02987 7.25C4.02987 7.06 3.61987 5.59 4.49987 3.25" stroke="#000001" stroke-linecap="round" stroke-linejoin="round"/>
<path d="M11.8198 8.56011C11.6905 8.46809 11.585 8.34664 11.512 8.2058C11.439 8.06496 11.4005 7.90876 11.3998 7.75011C11.3795 7.60503 11.395 7.45719 11.4448 7.31944C11.4946 7.18169 11.5773 7.05818 11.6857 6.95964C11.7941 6.8611 11.9249 6.79051 12.0668 6.75399C12.2086 6.71748 12.3573 6.71615 12.4998 6.75011C13.4998 6.94011 13.9098 8.41011 13.0198 10.7501" stroke="#000001" stroke-linecap="round" stroke-linejoin="round"/>
<path d="M8.29998 8.56011C8.1689 8.46918 8.06146 8.34822 7.98666 8.2073C7.91185 8.06639 7.87185 7.90963 7.86998 7.75011C7.84972 7.60503 7.86517 7.45719 7.915 7.31944C7.96483 7.18169 8.04753 7.05818 8.15592 6.95964C8.26432 6.8611 8.39512 6.79051 8.53699 6.75399C8.67885 6.71748 8.82749 6.71615 8.96998 6.75011C9.96998 6.94011 10.38 8.41011 9.49998 10.7501" stroke="#000001" stroke-linecap="round" stroke-linejoin="round"/>
</g>
<defs>
<clipPath id="clip0_6_2795">
<rect width="14" height="14" fill="white"/>
</clipPath>
</defs>
</svg>
