<svg width="14" height="14" viewBox="0 0 14 14" fill="none" xmlns="http://www.w3.org/2000/svg">
<g clip-path="url(#clip0_6_3460)">
<path d="M2.25 5.10003L6.74 0.610025C6.7736 0.574936 6.81396 0.547012 6.85865 0.527935C6.90333 0.508858 6.95141 0.499023 7 0.499023C7.04859 0.499023 7.09667 0.508858 7.14135 0.527935C7.18604 0.547012 7.2264 0.574936 7.26 0.610025L11.75 5.10003" stroke="#000001" stroke-linecap="round" stroke-linejoin="round"/>
<path d="M2.25 8.90015L6.74 13.3901C6.7736 13.4252 6.81396 13.4532 6.85865 13.4722C6.90333 13.4913 6.95141 13.5011 7 13.5011C7.04859 13.5011 7.09667 13.4913 7.14135 13.4722C7.18604 13.4532 7.2264 13.4252 7.26 13.3901L11.75 8.90015" stroke="#000001" stroke-linecap="round" stroke-linejoin="round"/>
</g>
<defs>
<clipPath id="clip0_6_3460">
<rect width="14" height="14" fill="white"/>
</clipPath>
</defs>
</svg>
