<svg width="14" height="14" viewBox="0 0 14 14" fill="none" xmlns="http://www.w3.org/2000/svg">
<g clip-path="url(#clip0_6_1960)">
<path d="M9 9.5C11.4853 9.5 13.5 7.48528 13.5 5C13.5 2.51472 11.4853 0.5 9 0.5C6.51472 0.5 4.5 2.51472 4.5 5C4.5 7.48528 6.51472 9.5 9 9.5Z" stroke="#000001" stroke-linecap="round" stroke-linejoin="round"/>
<path d="M0.5 13.4999L6.08 8.42993" stroke="#000001" stroke-linecap="round" stroke-linejoin="round"/>
<path d="M8.5 4C8.77614 4 9 3.77614 9 3.5C9 3.22386 8.77614 3 8.5 3C8.22386 3 8 3.22386 8 3.5C8 3.77614 8.22386 4 8.5 4Z" stroke="#000001" stroke-linecap="round" stroke-linejoin="round"/>
</g>
<defs>
<clipPath id="clip0_6_1960">
<rect width="14" height="14" fill="white"/>
</clipPath>
</defs>
</svg>
