<svg width="14" height="14" viewBox="0 0 14 14" fill="none" xmlns="http://www.w3.org/2000/svg">
<g clip-path="url(#clip0_6_1965)">
<path d="M9.73008 7.64998L13.0001 5.53998C13.1274 5.46273 13.2359 5.358 13.3177 5.23345C13.3994 5.10889 13.4522 4.96766 13.4723 4.82006C13.4925 4.67246 13.4794 4.52224 13.434 4.38035C13.3886 4.23847 13.3121 4.10851 13.2101 3.99998L10.0001 0.789981C9.89155 0.687946 9.76159 0.611447 9.61971 0.566074C9.47782 0.5207 9.3276 0.507598 9.18 0.527725C9.0324 0.547851 8.89117 0.600699 8.76661 0.682405C8.64205 0.764111 8.53733 0.872613 8.46008 0.999981L6.30008 4.22998L1.81008 5.22998C1.7074 5.2549 1.61312 5.30648 1.53678 5.37952C1.46044 5.45256 1.40473 5.54447 1.37531 5.64595C1.34588 5.74742 1.34377 5.85487 1.36919 5.95742C1.39461 6.05998 1.44666 6.154 1.52008 6.22998L7.67008 12.39C7.74793 12.4604 7.84264 12.5096 7.94505 12.5327C8.04746 12.5558 8.15411 12.5521 8.25468 12.522C8.35524 12.4918 8.44631 12.4362 8.51909 12.3605C8.59186 12.2848 8.64387 12.1916 8.67008 12.09L9.73008 7.64998Z" stroke="#000001" stroke-linecap="round" stroke-linejoin="round"/>
<path d="M4.59 9.37988L0.5 13.4999" stroke="#000001" stroke-linecap="round" stroke-linejoin="round"/>
</g>
<defs>
<clipPath id="clip0_6_1965">
<rect width="14" height="14" fill="white"/>
</clipPath>
</defs>
</svg>
