<svg width="14" height="14" viewBox="0 0 14 14" fill="none" xmlns="http://www.w3.org/2000/svg">
<g clip-path="url(#clip0_6_3705)">
<path d="M13 6.94C12.9906 7.98112 12.6932 8.99932 12.1408 9.88182C11.5883 10.7643 10.8024 11.4767 9.87001 11.94L7.00001 13.5L4.13001 12C3.18853 11.5321 2.39656 10.8104 1.84349 9.91631C1.29043 9.02221 0.998274 7.99133 1.00001 6.94V1.5C1.00001 1.23478 1.10536 0.98043 1.2929 0.792893C1.48044 0.605357 1.73479 0.5 2.00001 0.5H12C12.2652 0.5 12.5196 0.605357 12.7071 0.792893C12.8947 0.98043 13 1.23478 13 1.5V6.94Z" stroke="#000001" stroke-linecap="round" stroke-linejoin="round"/>
<path d="M5.49995 7.99995C5.49995 8.39778 5.65799 8.77931 5.93929 9.06061C6.2206 9.34192 6.60213 9.49995 6.99995 9.49995C7.20076 9.51489 7.40242 9.48633 7.59119 9.41623C7.77995 9.34614 7.95138 9.23614 8.09376 9.09376C8.23614 8.95138 8.34614 8.77995 8.41624 8.59119C8.48633 8.40242 8.51489 8.20076 8.49995 7.99995C8.49995 6.49995 5.49995 6.49995 5.49995 4.99995C5.48501 4.79915 5.51357 4.59748 5.58367 4.40872C5.65377 4.21995 5.76376 4.04853 5.90614 3.90614C6.04853 3.76376 6.21995 3.65377 6.40872 3.58367C6.59748 3.51357 6.79915 3.48501 6.99995 3.49995C7.39778 3.49995 7.77931 3.65799 8.06061 3.93929C8.34192 4.2206 8.49995 4.60213 8.49995 4.99995" stroke="#000001" stroke-linecap="round" stroke-linejoin="round"/>
<path d="M7 3.5V2.5" stroke="#000001" stroke-linecap="round" stroke-linejoin="round"/>
<path d="M7 10.5V9.5" stroke="#000001" stroke-linecap="round" stroke-linejoin="round"/>
</g>
<defs>
<clipPath id="clip0_6_3705">
<rect width="14" height="14" fill="white"/>
</clipPath>
</defs>
</svg>
