<svg width="14" height="14" viewBox="0 0 14 14" fill="none" xmlns="http://www.w3.org/2000/svg">
<g clip-path="url(#clip0_6_1540)">
<path d="M1.5 2.5C1.23478 2.5 0.98043 2.60536 0.792893 2.79289C0.605357 2.98043 0.5 3.23478 0.5 3.5V12.5C0.5 12.7652 0.605357 13.0196 0.792893 13.2071C0.98043 13.3946 1.23478 13.5 1.5 13.5H12.5C12.7652 13.5 13.0196 13.3946 13.2071 13.2071C13.3946 13.0196 13.5 12.7652 13.5 12.5V3.5C13.5 3.23478 13.3946 2.98043 13.2071 2.79289C13.0196 2.60536 12.7652 2.5 12.5 2.5H10.5" stroke="#000001" stroke-linecap="round" stroke-linejoin="round"/>
<path d="M3.5 0.5V4.5" stroke="#000001" stroke-linecap="round" stroke-linejoin="round"/>
<path d="M10.5 0.5V4.5" stroke="#000001" stroke-linecap="round" stroke-linejoin="round"/>
<path d="M3.5 2.5H8.5" stroke="#000001" stroke-linecap="round" stroke-linejoin="round"/>
<path d="M6.44976 5.37011C6.49281 5.25924 6.56836 5.16396 6.66651 5.09678C6.76466 5.0296 6.88082 4.99365 6.99976 4.99365C7.1187 4.99365 7.23486 5.0296 7.33301 5.09678C7.43116 5.16396 7.50671 5.25924 7.54976 5.37011L8.18976 7.00011H9.89976C10.0116 7.00864 10.1188 7.04834 10.2092 7.1147C10.2996 7.18106 10.3695 7.27142 10.4112 7.37554C10.4528 7.47966 10.4645 7.59336 10.4448 7.70376C10.4251 7.81415 10.3748 7.91682 10.2998 8.00011L8.78976 9.36011L9.42976 10.6401C9.48769 10.7525 9.50732 10.8807 9.48566 11.0053C9.464 11.1298 9.40223 11.2439 9.30976 11.3301C9.21792 11.4174 9.10117 11.474 8.97573 11.4919C8.85028 11.5098 8.72237 11.4882 8.60976 11.4301L6.99976 10.5501L5.38976 11.4301C5.27715 11.4882 5.14923 11.5098 5.02379 11.4919C4.89835 11.474 4.7816 11.4174 4.68976 11.3301C4.59729 11.2439 4.53552 11.1298 4.51386 11.0053C4.49219 10.8807 4.51182 10.7525 4.56976 10.6401L5.20976 9.36011L3.69976 8.00011C3.62467 7.91682 3.57443 7.81415 3.55474 7.70376C3.53504 7.59336 3.54668 7.47966 3.58832 7.37554C3.62997 7.27142 3.69996 7.18106 3.79036 7.1147C3.88076 7.04834 3.98794 7.00864 4.09976 7.00011H5.80976L6.44976 5.37011Z" stroke="#000001" stroke-linecap="round" stroke-linejoin="round"/>
</g>
<defs>
<clipPath id="clip0_6_1540">
<rect width="14" height="14" fill="white"/>
</clipPath>
</defs>
</svg>
