<svg width="14" height="14" viewBox="0 0 14 14" fill="none" xmlns="http://www.w3.org/2000/svg">
<g clip-path="url(#clip0_6_3583)">
<path d="M4.25 11.5L4.75 10.5" stroke="#000001" stroke-linecap="round" stroke-linejoin="round"/>
<path d="M8.75 11.5L9.25 10.5" stroke="#000001" stroke-linecap="round" stroke-linejoin="round"/>
<path d="M6 13.5L6.5 12.5" stroke="#000001" stroke-linecap="round" stroke-linejoin="round"/>
<path d="M1.5 13.5L2 12.5" stroke="#000001" stroke-linecap="round" stroke-linejoin="round"/>
<path d="M10.5 13.5L11 12.5" stroke="#000001" stroke-linecap="round" stroke-linejoin="round"/>
<path d="M11 7.9999C11.3553 8.00094 11.7068 7.92623 12.0309 7.78076C12.3551 7.63528 12.6445 7.42237 12.8799 7.15623C13.1153 6.89008 13.2913 6.57682 13.3961 6.23732C13.5009 5.89781 13.5322 5.53987 13.4877 5.18734C13.4433 4.83482 13.3242 4.49581 13.1385 4.19292C12.9527 3.89003 12.7045 3.63022 12.4105 3.4308C12.1164 3.23138 11.7832 3.09693 11.4331 3.03643C11.083 2.97592 10.724 2.99074 10.38 3.0799C10.1801 2.33632 9.7406 1.6794 9.12954 1.21092C8.51848 0.742434 7.76999 0.488525 7.00001 0.488525C6.23003 0.488525 5.48154 0.742434 4.87048 1.21092C4.25942 1.6794 3.8199 2.33632 3.62001 3.0799C3.27607 2.99074 2.91707 2.97592 2.56694 3.03643C2.21682 3.09693 1.88362 3.23138 1.58955 3.4308C1.29547 3.63022 1.04729 3.89003 0.86153 4.19292C0.675775 4.49581 0.556717 4.83482 0.512293 5.18734C0.467869 5.53987 0.4991 5.89781 0.603904 6.23732C0.708707 6.57682 0.884676 6.89008 1.12008 7.15623C1.35548 7.42237 1.64492 7.63528 1.96908 7.78076C2.29325 7.92623 2.6447 8.00094 3.00001 7.9999H11Z" stroke="#000001" stroke-linecap="round" stroke-linejoin="round"/>
</g>
<defs>
<clipPath id="clip0_6_3583">
<rect width="14" height="14" fill="white"/>
</clipPath>
</defs>
</svg>
