<svg width="14" height="14" viewBox="0 0 14 14" fill="none" xmlns="http://www.w3.org/2000/svg">
<g clip-path="url(#clip0_6_1649)">
<path d="M1.5 10.5H12.5V12.5C12.5 12.7652 12.3946 13.0196 12.2071 13.2071C12.0196 13.3946 11.7652 13.5 11.5 13.5H2.5C2.23478 13.5 1.98043 13.3946 1.79289 13.2071C1.60536 13.0196 1.5 12.7652 1.5 12.5V10.5Z" stroke="#000001" stroke-linecap="round" stroke-linejoin="round"/>
<path d="M10.5 6.5C10.2348 6.5 9.98043 6.39464 9.79289 6.20711C9.60536 6.01957 9.5 5.76522 9.5 5.5V3C9.5 2.33696 9.23661 1.70107 8.76777 1.23223C8.29893 0.763392 7.66304 0.5 7 0.5C6.33696 0.5 5.70107 0.763392 5.23223 1.23223C4.76339 1.70107 4.5 2.33696 4.5 3V5.5C4.5 5.76522 4.39464 6.01957 4.20711 6.20711C4.01957 6.39464 3.76522 6.5 3.5 6.5H2.5C1.96957 6.5 1.46086 6.71071 1.08579 7.08579C0.710714 7.46086 0.5 7.96957 0.5 8.5V9.5C0.5 9.76522 0.605357 10.0196 0.792893 10.2071C0.98043 10.3946 1.23478 10.5 1.5 10.5H12.5C12.7652 10.5 13.0196 10.3946 13.2071 10.2071C13.3946 10.0196 13.5 9.76522 13.5 9.5V8.5C13.5 7.96957 13.2893 7.46086 12.9142 7.08579C12.5391 6.71071 12.0304 6.5 11.5 6.5H10.5Z" stroke="#000001" stroke-linecap="round" stroke-linejoin="round"/>
</g>
<defs>
<clipPath id="clip0_6_1649">
<rect width="14" height="14" fill="white"/>
</clipPath>
</defs>
</svg>
