<svg width="14" height="14" viewBox="0 0 14 14" fill="none" xmlns="http://www.w3.org/2000/svg">
<g clip-path="url(#clip0_6_2500)">
<path d="M13.4998 6.92017C13.4901 8.03132 13.2375 9.12692 12.7598 10.1302" stroke="#000001" stroke-linecap="round" stroke-linejoin="round"/>
<path d="M7 13.4202C6.14641 13.4202 5.30117 13.252 4.51256 12.9254C3.72394 12.5987 3.00739 12.1199 2.40381 11.5164C1.18482 10.2974 0.5 8.64407 0.5 6.92017" stroke="#000001" stroke-linecap="round" stroke-linejoin="round"/>
<path d="M9 8.92017L7 6.42017H4" stroke="#000001" stroke-linecap="round" stroke-linejoin="round"/>
<path d="M12 12.9202C12.8284 12.9202 13.5 12.2486 13.5 11.4202C13.5 10.5917 12.8284 9.92017 12 9.92017C11.1716 9.92017 10.5 10.5917 10.5 11.4202C10.5 12.2486 11.1716 12.9202 12 12.9202Z" stroke="#000001" stroke-linecap="round" stroke-linejoin="round"/>
<path d="M0.919922 4.52C1.13786 3.97536 1.43068 3.46376 1.78992 3" stroke="#000001" stroke-linecap="round" stroke-linejoin="round"/>
<path d="M3.72021 1.28008C4.28377 0.954662 4.89435 0.718528 5.53022 0.580078" stroke="#000001" stroke-linecap="round" stroke-linejoin="round"/>
<path d="M13.08 4.52C12.862 3.97536 12.5692 3.46376 12.21 3" stroke="#000001" stroke-linecap="round" stroke-linejoin="round"/>
<path d="M10.2802 1.28008C9.71666 0.954662 9.10608 0.718528 8.47021 0.580078" stroke="#000001" stroke-linecap="round" stroke-linejoin="round"/>
</g>
<defs>
<clipPath id="clip0_6_2500">
<rect width="14" height="14" fill="white"/>
</clipPath>
</defs>
</svg>
