<svg width="14" height="14" viewBox="0 0 14 14" fill="none" xmlns="http://www.w3.org/2000/svg">
<g clip-path="url(#clip0_6_1794)">
<path d="M7 0.5C8.72391 0.5 10.3772 1.18482 11.5962 2.40381C12.8152 3.62279 13.5 5.27609 13.5 7C13.5 8.72391 12.8152 10.3772 11.5962 11.5962C10.3772 12.8152 8.72391 13.5 7 13.5" stroke="#000001" stroke-linecap="round" stroke-linejoin="round"/>
<path d="M4.39 1.05005C3.92708 1.24899 3.49045 1.50425 3.09 1.81005C2.68662 2.11216 2.32071 2.46129 2 2.85005" stroke="#000001" stroke-linecap="round" stroke-linejoin="round"/>
<path d="M4.39 13C3.92708 12.801 3.49045 12.5458 3.09 12.24C2.68889 11.9503 2.32307 11.6147 2 11.24" stroke="#000001" stroke-linecap="round" stroke-linejoin="round"/>
<path d="M0.670069 5.5C0.44331 6.48715 0.44331 7.51285 0.670069 8.5" stroke="#000001" stroke-linecap="round" stroke-linejoin="round"/>
</g>
<defs>
<clipPath id="clip0_6_1794">
<rect width="14" height="14" fill="white"/>
</clipPath>
</defs>
</svg>
