<svg width="14" height="14" viewBox="0 0 14 14" fill="none" xmlns="http://www.w3.org/2000/svg">
<g clip-path="url(#clip0_6_2432)">
<path d="M4.27979 5.25C4.35777 4.55281 4.59768 3.88351 4.98037 3.29554C5.36305 2.70757 5.8779 2.21721 6.48381 1.86363C7.08973 1.51004 7.76992 1.30301 8.47008 1.25908C9.17024 1.21514 9.87097 1.33552 10.5163 1.61059C11.1617 1.88566 11.7338 2.30781 12.187 2.84333C12.6402 3.37886 12.9619 4.01292 13.1264 4.69489C13.2909 5.37686 13.2937 6.08785 13.1346 6.7711C12.9754 7.45435 12.6587 8.09092 12.2098 8.63" stroke="#000001" stroke-linecap="round" stroke-linejoin="round"/>
<path d="M8.75 3.75V5.75H10.25" stroke="#000001" stroke-linecap="round" stroke-linejoin="round"/>
<path d="M0.75 7.75H4.75C5.0783 7.75 5.40339 7.81466 5.70671 7.9403C6.01002 8.06594 6.28562 8.25009 6.51777 8.48223C6.74991 8.71438 6.93406 8.98998 7.0597 9.29329C7.18534 9.59661 7.25 9.9217 7.25 10.25V10.25" stroke="#000001" stroke-linecap="round" stroke-linejoin="round"/>
<path d="M4.25 10.25H9.25C9.78043 10.25 10.2891 10.4607 10.6642 10.8358C11.0393 11.2109 11.25 11.7196 11.25 12.25C11.25 12.3826 11.1973 12.5098 11.1036 12.6036C11.0098 12.6973 10.8826 12.75 10.75 12.75H0.75" stroke="#000001" stroke-linecap="round" stroke-linejoin="round"/>
</g>
<defs>
<clipPath id="clip0_6_2432">
<rect width="14" height="14" fill="white"/>
</clipPath>
</defs>
</svg>
