<svg width="14" height="14" viewBox="0 0 14 14" fill="none" xmlns="http://www.w3.org/2000/svg">
<g clip-path="url(#clip0_6_1937)">
<path d="M0.5 13.5L2.5 11.5" stroke="#000001" stroke-linecap="round" stroke-linejoin="round"/>
<path d="M4.70986 12.2901C4.6169 12.3838 4.5063 12.4582 4.38444 12.509C4.26258 12.5598 4.13187 12.5859 3.99986 12.5859C3.86785 12.5859 3.73714 12.5598 3.61528 12.509C3.49343 12.4582 3.38282 12.3838 3.28986 12.2901L1.70986 10.7101C1.61613 10.6171 1.54174 10.5065 1.49097 10.3847C1.4402 10.2628 1.41406 10.1321 1.41406 10.0001C1.41406 9.86809 1.4402 9.73738 1.49097 9.61552C1.54174 9.49366 1.61613 9.38306 1.70986 9.2901L9.87986 1.1201C10.2777 0.722275 10.8173 0.498779 11.3799 0.498779C11.9425 0.498779 12.482 0.722275 12.8799 1.1201C13.2777 1.51792 13.5012 2.05749 13.5012 2.6201C13.5012 3.18271 13.2777 3.72227 12.8799 4.1201L4.70986 12.2901Z" stroke="#000001" stroke-linecap="round" stroke-linejoin="round"/>
<path d="M11.5 5.5001L7.21 1.21011C7.11704 1.11638 7.00644 1.04198 6.88458 0.991214C6.76272 0.940445 6.63201 0.914307 6.5 0.914307C6.36799 0.914307 6.23728 0.940445 6.11542 0.991214C5.99356 1.04198 5.88296 1.11638 5.79 1.21011L2.5 4.5001" stroke="#000001" stroke-linecap="round" stroke-linejoin="round"/>
</g>
<defs>
<clipPath id="clip0_6_1937">
<rect width="14" height="14" fill="white"/>
</clipPath>
</defs>
</svg>
