<svg width="14" height="14" viewBox="0 0 14 14" fill="none" xmlns="http://www.w3.org/2000/svg">
<g clip-path="url(#clip0_6_4681)">
<path d="M10.2498 0.5C10.146 0.500607 10.0446 0.531112 9.9577 0.587865C9.8708 0.644617 9.80209 0.725211 9.75981 0.82L8.16981 4.18C8.13419 4.26277 8.07767 4.33486 8.00579 4.3892C7.93392 4.44354 7.84915 4.47828 7.75981 4.49L4.21981 5C4.11223 5.01731 4.0117 5.06457 3.92974 5.13637C3.84778 5.20817 3.7877 5.30161 3.75639 5.40598C3.72508 5.51034 3.72381 5.62142 3.75271 5.72648C3.78161 5.83154 3.83952 5.92633 3.91981 6L6.47981 8.63C6.54392 8.69489 6.59182 8.77398 6.61962 8.86086C6.64742 8.94774 6.65434 9.03995 6.63981 9.13L5.99981 12.83C5.98162 12.9321 5.99212 13.0372 6.03014 13.1336C6.06815 13.23 6.13219 13.314 6.21512 13.3762C6.29806 13.4384 6.39663 13.4764 6.49986 13.4859C6.60309 13.4954 6.70693 13.476 6.79981 13.43L9.99981 11.69C10.0799 11.6469 10.1689 11.623 10.2598 11.62L10.2498 0.5Z" stroke="#000001" stroke-linecap="round" stroke-linejoin="round"/>
</g>
<defs>
<clipPath id="clip0_6_4681">
<rect width="14" height="14" fill="white"/>
</clipPath>
</defs>
</svg>
