<svg width="16" height="16" viewBox="0 0 16 16" fill="none" xmlns="http://www.w3.org/2000/svg">
<path d="M7.25 8.27441H14.25" stroke="#000001" stroke-linecap="round" stroke-linejoin="round"/>
<path d="M12.25 6.27441L14.25 8.27441L12.25 10.2744" stroke="#000001" stroke-linecap="round" stroke-linejoin="round"/>
<path d="M12.4502 12.7644C11.5522 13.7004 10.3948 14.3463 9.12675 14.619C7.8587 14.8918 6.53805 14.779 5.33466 14.2951C4.13126 13.8111 3.10017 12.9783 2.37399 11.9036C1.64781 10.8288 1.25977 9.56146 1.25977 8.26441C1.25977 6.96736 1.64781 5.69997 2.37399 4.62526C3.10017 3.55055 4.13126 2.71767 5.33466 2.23375C6.53805 1.74983 7.8587 1.637 9.12675 1.90977C10.3948 2.18255 11.5522 2.82845 12.4502 3.76441" stroke="#000001" stroke-linecap="round" stroke-linejoin="round"/>
</svg>
