<svg width="14" height="14" viewBox="0 0 14 14" fill="none" xmlns="http://www.w3.org/2000/svg">
<g clip-path="url(#clip0_6_3991)">
<path d="M8.53996 9.70001L10.54 7.70001L12.66 5.58001C13.2218 5.01751 13.5373 4.25501 13.5373 3.46001C13.5373 2.665 13.2218 1.90251 12.66 1.34001V1.34001C12.0975 0.778205 11.335 0.462646 10.54 0.462646C9.74496 0.462646 8.98246 0.778205 8.41996 1.34001L6.99996 2.76001L5.45996 4.30001" stroke="#000001" stroke-linecap="round" stroke-linejoin="round"/>
<path d="M3.4998 6.26001L1.3798 8.38001C0.818 8.94251 0.502441 9.70501 0.502441 10.5C0.502441 11.295 0.818 12.0575 1.3798 12.62V12.62C1.9423 13.1818 2.7048 13.4974 3.4998 13.4974C4.2948 13.4974 5.0573 13.1818 5.6198 12.62L6.6198 11.62" stroke="#000001" stroke-linecap="round" stroke-linejoin="round"/>
<path d="M4.16992 2.05005L9.82992 11.95" stroke="#000001" stroke-linecap="round" stroke-linejoin="round"/>
</g>
<defs>
<clipPath id="clip0_6_3991">
<rect width="14" height="14" fill="white"/>
</clipPath>
</defs>
</svg>
