<svg width="14" height="14" viewBox="0 0 14 14" fill="none" xmlns="http://www.w3.org/2000/svg">
<g clip-path="url(#clip0_6_2801)">
<path d="M4.07956 7.25C3.70987 6.6484 3.51416 5.95611 3.51416 5.25C3.51416 4.54389 3.70987 3.8516 4.07956 3.25" stroke="#000001" stroke-linecap="round" stroke-linejoin="round"/>
<path d="M4.44971 7.41992C4.72585 7.41992 4.94971 7.19606 4.94971 6.91992C4.94971 6.64378 4.72585 6.41992 4.44971 6.41992C4.17356 6.41992 3.94971 6.64378 3.94971 6.91992C3.94971 7.19606 4.17356 7.41992 4.44971 7.41992Z" stroke="#000001" stroke-linecap="round" stroke-linejoin="round"/>
<path d="M1.0698 7.25C0.700107 6.6484 0.504395 5.95611 0.504395 5.25C0.504395 4.54389 0.700107 3.8516 1.0698 3.25" stroke="#000001" stroke-linecap="round" stroke-linejoin="round"/>
<path d="M1.43994 7.41992C1.71608 7.41992 1.93994 7.19606 1.93994 6.91992C1.93994 6.64378 1.71608 6.41992 1.43994 6.41992C1.1638 6.41992 0.939941 6.64378 0.939941 6.91992C0.939941 7.19606 1.1638 7.41992 1.43994 7.41992Z" stroke="#000001" stroke-linecap="round" stroke-linejoin="round"/>
<path d="M9.91992 6.75C10.2896 7.3516 10.4853 8.04389 10.4853 8.75C10.4853 9.45611 10.2896 10.1484 9.91992 10.75" stroke="#000001" stroke-linecap="round" stroke-linejoin="round"/>
<path d="M9.5498 7.58008C9.82595 7.58008 10.0498 7.35622 10.0498 7.08008C10.0498 6.80394 9.82595 6.58008 9.5498 6.58008C9.27366 6.58008 9.0498 6.80394 9.0498 7.08008C9.0498 7.35622 9.27366 7.58008 9.5498 7.58008Z" stroke="#000001" stroke-linecap="round" stroke-linejoin="round"/>
<path d="M12.9297 6.75C13.2994 7.3516 13.4951 8.04389 13.4951 8.75C13.4951 9.45611 13.2994 10.1484 12.9297 10.75" stroke="#000001" stroke-linecap="round" stroke-linejoin="round"/>
<path d="M12.5596 7.58008C12.8357 7.58008 13.0596 7.35622 13.0596 7.08008C13.0596 6.80394 12.8357 6.58008 12.5596 6.58008C12.2834 6.58008 12.0596 6.80394 12.0596 7.08008C12.0596 7.35622 12.2834 7.58008 12.5596 7.58008Z" stroke="#000001" stroke-linecap="round" stroke-linejoin="round"/>
</g>
<defs>
<clipPath id="clip0_6_2801">
<rect width="14" height="14" fill="white"/>
</clipPath>
</defs>
</svg>
