<svg width="14" height="14" viewBox="0 0 14 14" fill="none" xmlns="http://www.w3.org/2000/svg">
<g clip-path="url(#clip0_6_1653)">
<path d="M11.5 6.00004H12.5C12.643 5.99882 12.7846 6.0283 12.9152 6.08648C13.0459 6.14465 13.1625 6.23018 13.2573 6.33728C13.3521 6.44439 13.4228 6.57057 13.4647 6.70733C13.5065 6.84409 13.5185 6.98823 13.5 7.13004L12.77 12.63C12.7382 12.8721 12.619 13.0943 12.4348 13.2545C12.2506 13.4148 12.0141 13.5021 11.77 13.5H2.22995C1.98579 13.5021 1.74931 13.4148 1.5651 13.2545C1.38089 13.0943 1.26168 12.8721 1.22995 12.63L0.509951 7.13004C0.491468 6.98907 0.503257 6.84578 0.54453 6.70973C0.585803 6.57368 0.655612 6.448 0.749301 6.34106C0.842989 6.23412 0.958403 6.14839 1.08784 6.08959C1.21729 6.03078 1.35778 6.00025 1.49995 6.00004H2.49995" stroke="#000001" stroke-linecap="round" stroke-linejoin="round"/>
<path d="M10.46 13.5L8.33 4H8.75C9.21413 4 9.65925 3.81563 9.98744 3.48744C10.3156 3.15925 10.5 2.71413 10.5 2.25C10.5 1.78587 10.3156 1.34075 9.98744 1.01256C9.65925 0.684374 9.21413 0.5 8.75 0.5H5.25C4.78587 0.5 4.34075 0.684374 4.01256 1.01256C3.68437 1.34075 3.5 1.78587 3.5 2.25C3.5 2.71413 3.68437 3.15925 4.01256 3.48744C4.34075 3.81563 4.78587 4 5.25 4H5.66L3.54 13.5" stroke="#000001" stroke-linecap="round" stroke-linejoin="round"/>
</g>
<defs>
<clipPath id="clip0_6_1653">
<rect width="14" height="14" fill="white"/>
</clipPath>
</defs>
</svg>
