<svg width="14" height="14" viewBox="0 0 14 14" fill="none" xmlns="http://www.w3.org/2000/svg">
<g clip-path="url(#clip0_6_2005)">
<path d="M8.5 0.670069C7.51285 0.44331 6.48715 0.44331 5.5 0.670069" stroke="#000001" stroke-linecap="round" stroke-linejoin="round"/>
<path d="M3.59021 1.46997C3.16117 1.73615 2.76218 2.04796 2.40021 2.39997C2.04821 2.76194 1.73639 3.16092 1.47021 3.58997" stroke="#000001" stroke-linecap="round" stroke-linejoin="round"/>
<path d="M0.670069 5.5C0.44331 6.48715 0.44331 7.51285 0.670069 8.5" stroke="#000001" stroke-linecap="round" stroke-linejoin="round"/>
<path d="M1.47021 10.4102C1.73639 10.8392 2.04821 11.2382 2.40021 11.6002C2.76218 11.9522 3.16117 12.264 3.59021 12.5302" stroke="#000001" stroke-linecap="round" stroke-linejoin="round"/>
<path d="M5.5 13.3301C6.48715 13.5568 7.51285 13.5568 8.5 13.3301" stroke="#000001" stroke-linecap="round" stroke-linejoin="round"/>
<path d="M10.4102 12.5302C10.8392 12.264 11.2382 11.9522 11.6002 11.6002C11.9522 11.2382 12.264 10.8392 12.5302 10.4102" stroke="#000001" stroke-linecap="round" stroke-linejoin="round"/>
<path d="M13.3301 8.5C13.5568 7.51285 13.5568 6.48715 13.3301 5.5" stroke="#000001" stroke-linecap="round" stroke-linejoin="round"/>
<path d="M12.5302 3.58997C12.264 3.16092 11.9522 2.76194 11.6002 2.39997C11.2382 2.04796 10.8392 1.73615 10.4102 1.46997" stroke="#000001" stroke-linecap="round" stroke-linejoin="round"/>
</g>
<defs>
<clipPath id="clip0_6_2005">
<rect width="14" height="14" fill="white"/>
</clipPath>
</defs>
</svg>
