<svg width="14" height="14" viewBox="0 0 14 14" fill="none" xmlns="http://www.w3.org/2000/svg">
<g clip-path="url(#clip0_6_4019)">
<path d="M7 9C8.24264 9 9.25 7.99264 9.25 6.75C9.25 5.50736 8.24264 4.5 7 4.5C5.75736 4.5 4.75 5.50736 4.75 6.75C4.75 7.99264 5.75736 9 7 9Z" stroke="#000001" stroke-linecap="round" stroke-linejoin="round"/>
<path d="M11 13.5C10.6214 12.7654 10.0479 12.1493 9.34233 11.7192C8.63675 11.2891 7.82635 11.0615 7 11.0615C6.17365 11.0615 5.36325 11.2891 4.65767 11.7192C3.95209 12.1493 3.37857 12.7654 3 13.5" stroke="#000001" stroke-linecap="round" stroke-linejoin="round"/>
<path d="M12 10.5601C12.7097 9.63448 13.1462 8.52878 13.2601 7.36804C13.3741 6.2073 13.161 5.03782 12.6449 3.99188C12.1289 2.94594 11.3304 2.06527 10.3399 1.44948C9.34942 0.833678 8.20637 0.507324 7.04004 0.507324C5.87372 0.507324 4.73066 0.833678 3.74016 1.44948C2.74965 2.06527 1.95121 2.94594 1.43515 3.99188C0.919084 5.03782 0.705985 6.2073 0.819952 7.36804C0.933919 8.52878 1.3704 9.63448 2.08004 10.5601" stroke="#000001" stroke-linecap="round" stroke-linejoin="round"/>
</g>
<defs>
<clipPath id="clip0_6_4019">
<rect width="14" height="14" fill="white"/>
</clipPath>
</defs>
</svg>
