<svg width="14" height="14" viewBox="0 0 14 14" fill="none" xmlns="http://www.w3.org/2000/svg">
<g clip-path="url(#clip0_6_1644)">
<path d="M12.5 0.5H3.5C2.94772 0.5 2.5 0.947715 2.5 1.5V3.5C2.5 4.05228 2.94772 4.5 3.5 4.5H12.5C13.0523 4.5 13.5 4.05228 13.5 3.5V1.5C13.5 0.947715 13.0523 0.5 12.5 0.5Z" stroke="#000001" stroke-linecap="round" stroke-linejoin="round"/>
<path d="M8 9.5V8.5C8 7.96957 7.78929 7.46086 7.41421 7.08579C7.03914 6.71071 6.53043 6.5 6 6.5H2.5C1.96957 6.5 1.46086 6.28929 1.08579 5.91421C0.710714 5.53914 0.5 5.03043 0.5 4.5V3.5C0.5 3.23478 0.605357 2.98043 0.792893 2.79289C0.98043 2.60536 1.23478 2.5 1.5 2.5H2.5" stroke="#000001" stroke-linecap="round" stroke-linejoin="round"/>
<path d="M6.5 13.5V10.5C6.5 10.2348 6.60536 9.98043 6.79289 9.79289C6.98043 9.60536 7.23478 9.5 7.5 9.5H8.5C8.76522 9.5 9.01957 9.60536 9.20711 9.79289C9.39464 9.98043 9.5 10.2348 9.5 10.5V13.5" stroke="#000001" stroke-linecap="round" stroke-linejoin="round"/>
</g>
<defs>
<clipPath id="clip0_6_1644">
<rect width="14" height="14" fill="white"/>
</clipPath>
</defs>
</svg>
