<svg width="14" height="14" viewBox="0 0 14 14" fill="none" xmlns="http://www.w3.org/2000/svg">
<g clip-path="url(#clip0_6_4631)">
<path d="M0.5 7.0799H2.69C2.78221 7.07884 2.87248 7.05328 2.95156 7.00583C3.03063 6.95839 3.09567 6.89077 3.14 6.8099L4.94 3.2099C4.98436 3.12027 5.05509 3.04636 5.14268 2.9981C5.23027 2.94983 5.33053 2.92952 5.43 2.9399C5.52907 2.9466 5.62363 2.98385 5.70064 3.04654C5.77766 3.10922 5.83333 3.19425 5.86 3.2899L8.09 10.7099C8.11926 10.8106 8.17942 10.8995 8.26196 10.9641C8.34451 11.0287 8.44527 11.0657 8.55 11.0699C8.64814 11.0666 8.74315 11.0346 8.82318 10.9777C8.90321 10.9207 8.9647 10.8415 9 10.7499L10.37 7.3999C10.4077 7.30593 10.4726 7.22531 10.5563 7.16832C10.64 7.11134 10.7387 7.08055 10.84 7.0799H13.5" stroke="#000001" stroke-linecap="round" stroke-linejoin="round"/>
</g>
<defs>
<clipPath id="clip0_6_4631">
<rect width="14" height="14" fill="white"/>
</clipPath>
</defs>
</svg>
