<svg width="14" height="14" viewBox="0 0 14 14" fill="none" xmlns="http://www.w3.org/2000/svg">
<g clip-path="url(#clip0_6_2185)">
<path d="M0.910197 12.56L0.500197 5.56001C0.491671 5.4895 0.498268 5.41797 0.519549 5.3502C0.54083 5.28243 0.576305 5.21998 0.623613 5.16699C0.670921 5.11401 0.728975 5.07171 0.79391 5.04292C0.858844 5.01413 0.929167 4.9995 1.0002 5.00001H5.6102C5.72228 5.00071 5.83101 5.0383 5.91958 5.10699C6.00815 5.17568 6.07163 5.27163 6.1002 5.38001L6.5002 7.00001H13.0002C13.0694 6.99979 13.1378 7.01392 13.2012 7.04151C13.2647 7.0691 13.3217 7.10955 13.3687 7.16031C13.4157 7.21106 13.4516 7.27101 13.4743 7.33637C13.4969 7.40172 13.5057 7.47107 13.5002 7.54001L13.1102 12.54C13.09 12.7911 12.9759 13.0254 12.7905 13.1959C12.6051 13.3665 12.3621 13.4608 12.1102 13.46H1.9102C1.66143 13.4613 1.42113 13.3697 1.23622 13.2033C1.05131 13.0369 0.935071 12.8075 0.910197 12.56Z" stroke="#000001" stroke-linecap="round" stroke-linejoin="round"/>
<path d="M3.5 3V1C3.5 0.867392 3.55268 0.740215 3.64645 0.646447C3.74021 0.552678 3.86739 0.5 4 0.5H12.5C12.6326 0.5 12.7598 0.552678 12.8536 0.646447C12.9473 0.740215 13 0.867392 13 1V5" stroke="#000001" stroke-linecap="round" stroke-linejoin="round"/>
<path d="M7.5 3H10.5" stroke="#000001" stroke-linecap="round" stroke-linejoin="round"/>
</g>
<defs>
<clipPath id="clip0_6_2185">
<rect width="14" height="14" fill="white"/>
</clipPath>
</defs>
</svg>
