<svg width="14" height="14" viewBox="0 0 14 14" fill="none" xmlns="http://www.w3.org/2000/svg">
<g clip-path="url(#clip0_6_2590)">
<path d="M7.49016 1.08992L9.08016 4.29992C9.11632 4.38139 9.1732 4.45197 9.24514 4.5046C9.31708 4.55724 9.40156 4.59011 9.49016 4.59992L13.0002 5.11992C13.1018 5.13298 13.1976 5.17469 13.2764 5.24017C13.3552 5.30566 13.4138 5.39221 13.4452 5.48973C13.4767 5.58725 13.4798 5.69171 13.4541 5.7909C13.4284 5.89009 13.375 5.97993 13.3002 6.04992L10.7702 8.55992C10.7056 8.62025 10.6571 8.69576 10.6292 8.77959C10.6012 8.86343 10.5947 8.95291 10.6102 9.03992L11.2202 12.5699C11.2378 12.6714 11.2267 12.7757 11.1879 12.8711C11.1492 12.9665 11.0845 13.0491 11.0011 13.1096C10.9178 13.17 10.8191 13.2058 10.7164 13.2129C10.6137 13.2201 10.5111 13.1982 10.4202 13.1499L7.26016 11.4799C7.17924 11.4402 7.0903 11.4195 7.00016 11.4195C6.91001 11.4195 6.82107 11.4402 6.74016 11.4799L3.58016 13.1499C3.48924 13.1982 3.38659 13.2201 3.28388 13.2129C3.18117 13.2058 3.08253 13.17 2.99917 13.1096C2.91581 13.0491 2.85109 12.9665 2.81238 12.8711C2.77366 12.7757 2.76249 12.6714 2.78016 12.5699L3.39016 8.99992C3.40562 8.91291 3.39908 8.82343 3.37113 8.73959C3.34319 8.65576 3.29473 8.58025 3.23016 8.51992L0.670155 6.04992C0.594418 5.97802 0.541155 5.88569 0.516819 5.78413C0.492483 5.68258 0.498119 5.57614 0.533042 5.47772C0.567966 5.3793 0.630679 5.29311 0.713586 5.22961C0.796493 5.1661 0.896035 5.128 1.00016 5.11992L4.51016 4.59992C4.59875 4.59011 4.68323 4.55724 4.75517 4.5046C4.82711 4.45197 4.88399 4.38139 4.92016 4.29992L6.51016 1.08992C6.55345 0.996428 6.6226 0.917275 6.70942 0.861803C6.79624 0.806331 6.89712 0.776855 7.00016 0.776855C7.10319 0.776855 7.20407 0.806331 7.29089 0.861803C7.37771 0.917275 7.44686 0.996428 7.49016 1.08992V1.08992Z" stroke="#000001" stroke-linecap="round" stroke-linejoin="round"/>
</g>
<defs>
<clipPath id="clip0_6_2590">
<rect width="14" height="14" fill="white"/>
</clipPath>
</defs>
</svg>
