<svg width="14" height="14" viewBox="0 0 14 14" fill="none" xmlns="http://www.w3.org/2000/svg">
<g clip-path="url(#clip0_6_2566)">
<path d="M6.87012 9.5C9.3554 9.5 11.3701 7.48528 11.3701 5C11.3701 2.51472 9.3554 0.5 6.87012 0.5C4.38484 0.5 2.37012 2.51472 2.37012 5C2.37012 7.48528 4.38484 9.5 6.87012 9.5Z" stroke="#000001" stroke-linecap="round" stroke-linejoin="round"/>
<path d="M6.87012 7C7.97469 7 8.87012 6.10457 8.87012 5C8.87012 3.89543 7.97469 3 6.87012 3C5.76555 3 4.87012 3.89543 4.87012 5C4.87012 6.10457 5.76555 7 6.87012 7Z" stroke="#000001" stroke-linecap="round" stroke-linejoin="round"/>
<path d="M5.9999 9.42L5.1199 13.12C5.10248 13.1903 5.07029 13.2561 5.02545 13.313C4.98062 13.3699 4.92418 13.4166 4.8599 13.45C4.79204 13.4795 4.71886 13.4946 4.6449 13.4946C4.57093 13.4946 4.49775 13.4795 4.4299 13.45L1.1099 12C1.04026 11.9671 0.97898 11.9188 0.930665 11.8588C0.88235 11.7988 0.848252 11.7287 0.830932 11.6536C0.813611 11.5786 0.813517 11.5005 0.830657 11.4254C0.847797 11.3503 0.881725 11.2801 0.929896 11.22L3.4999 8" stroke="#000001" stroke-linecap="round" stroke-linejoin="round"/>
<path d="M8 9.37006L8.9 13.1201C8.9179 13.1916 8.95138 13.2582 8.99806 13.3153C9.04474 13.3723 9.10345 13.4184 9.17 13.4501C9.23599 13.4799 9.30758 13.4953 9.38 13.4953C9.45242 13.4953 9.52401 13.4799 9.59 13.4501L12.89 12.0001C12.9607 11.9675 13.0228 11.919 13.0714 11.8582C13.12 11.7974 13.1538 11.7262 13.17 11.6501C13.189 11.5756 13.1898 11.4977 13.1724 11.4229C13.155 11.3481 13.1199 11.2785 13.07 11.2201L10.39 7.81006" stroke="#000001" stroke-linecap="round" stroke-linejoin="round"/>
</g>
<defs>
<clipPath id="clip0_6_2566">
<rect width="14" height="14" fill="white"/>
</clipPath>
</defs>
</svg>
