<svg width="14" height="14" viewBox="0 0 14 14" fill="none" xmlns="http://www.w3.org/2000/svg">
<g clip-path="url(#clip0_6_2830)">
<path d="M10.0801 8.67017C10.3223 8.95256 10.5041 9.28145 10.6145 9.63665C10.725 9.99186 10.7617 10.3659 10.7223 10.7358C10.683 11.1057 10.5685 11.4636 10.3858 11.7877C10.2032 12.1117 9.95622 12.395 9.66014 12.6202C8.87511 13.156 7.95505 13.4599 7.00532 13.497C6.05559 13.5341 5.11461 13.303 4.29014 12.8302L3.39014 12.3202" stroke="#000001" stroke-linecap="round" stroke-linejoin="round"/>
<path d="M10.0001 1.32007C8.00008 0.330073 4.23008 -0.259927 3.38008 2.54007C3.25757 2.95042 3.24386 3.38557 3.34028 3.80282C3.4367 4.22007 3.63995 4.60508 3.93008 4.92007C4.72717 5.54272 5.601 6.06029 6.53008 6.46007" stroke="#000001" stroke-linecap="round" stroke-linejoin="round"/>
<path d="M0.5 6.5H13.5" stroke="#000001" stroke-linecap="round" stroke-linejoin="round"/>
</g>
<defs>
<clipPath id="clip0_6_2830">
<rect width="14" height="14" fill="white"/>
</clipPath>
</defs>
</svg>
