<svg width="14" height="14" viewBox="0 0 14 14" fill="none" xmlns="http://www.w3.org/2000/svg">
<g clip-path="url(#clip0_6_2789)">
<path d="M1.0698 7C0.700107 6.3984 0.504395 5.70611 0.504395 5C0.504395 4.29389 0.700107 3.6016 1.0698 3" stroke="#000001" stroke-linecap="round" stroke-linejoin="round"/>
<path d="M4.07956 7C3.70987 6.3984 3.51416 5.70611 3.51416 5C3.51416 4.29389 3.70987 3.6016 4.07956 3" stroke="#000001" stroke-linecap="round" stroke-linejoin="round"/>
<path d="M12.9297 11C13.2994 10.3984 13.4951 9.70611 13.4951 9C13.4951 8.29389 13.2994 7.6016 12.9297 7" stroke="#000001" stroke-linecap="round" stroke-linejoin="round"/>
<path d="M9.91992 11C10.2896 10.3984 10.4853 9.70611 10.4853 9C10.4853 8.29389 10.2896 7.6016 9.91992 7" stroke="#000001" stroke-linecap="round" stroke-linejoin="round"/>
</g>
<defs>
<clipPath id="clip0_6_2789">
<rect width="14" height="14" fill="white"/>
</clipPath>
</defs>
</svg>
