<svg width="14" height="14" viewBox="0 0 14 14" fill="none" xmlns="http://www.w3.org/2000/svg">
<g clip-path="url(#clip0_6_2562)">
<path d="M13.2798 9.39001L9.38977 13.28C9.24914 13.4205 9.05852 13.4994 8.85977 13.4994C8.66102 13.4994 8.47039 13.4205 8.32977 13.28L0.609769 5.56001C0.570978 5.52293 0.540969 5.47764 0.521936 5.42747C0.502904 5.37729 0.49533 5.32349 0.499769 5.27001L1.08977 1.44001C1.09458 1.34875 1.133 1.26249 1.19763 1.19787C1.26225 1.13325 1.3485 1.09483 1.43977 1.09001L5.26977 0.500013C5.32325 0.495574 5.37705 0.503148 5.42722 0.52218C5.4774 0.541213 5.52269 0.571222 5.55977 0.610013L13.2798 8.33001C13.4202 8.47064 13.4991 8.66126 13.4991 8.86001C13.4991 9.05876 13.4202 9.24939 13.2798 9.39001V9.39001Z" stroke="#000001" stroke-linecap="round" stroke-linejoin="round"/>
<path d="M4.10986 4.61011C4.38601 4.61011 4.60986 4.38625 4.60986 4.11011C4.60986 3.83397 4.38601 3.61011 4.10986 3.61011C3.83372 3.61011 3.60986 3.83397 3.60986 4.11011C3.60986 4.38625 3.83372 4.61011 4.10986 4.61011Z" stroke="#000001" stroke-linecap="round" stroke-linejoin="round"/>
</g>
<defs>
<clipPath id="clip0_6_2562">
<rect width="14" height="14" fill="white"/>
</clipPath>
</defs>
</svg>
