<svg width="14" height="14" viewBox="0 0 14 14" fill="none" xmlns="http://www.w3.org/2000/svg">
<g clip-path="url(#clip0_6_1956)">
<path d="M12.4598 1.54006C12.1326 1.2099 11.7431 0.947826 11.314 0.768978C10.885 0.590129 10.4247 0.498047 9.95982 0.498047C9.49494 0.498047 9.03467 0.590129 8.60558 0.768978C8.17649 0.947826 7.78707 1.2099 7.45982 1.54006L2.86982 6.13006C2.41505 6.5841 2.11809 7.17216 2.02268 7.80766C1.92726 8.44316 2.03843 9.0925 2.33982 9.66006L0.789816 11.2101C0.603565 11.3974 0.499023 11.6509 0.499023 11.9151C0.499023 12.1792 0.603565 12.4327 0.789816 12.6201L1.37982 13.2101C1.56718 13.3963 1.82063 13.5009 2.08482 13.5009C2.349 13.5009 2.60245 13.3963 2.78982 13.2101L4.33982 11.6601C4.90738 11.9614 5.55672 12.0726 6.19222 11.9772C6.82772 11.8818 7.41578 11.5848 7.86982 11.1301L12.4598 6.54006C12.79 6.21281 13.0521 5.82339 13.2309 5.3943C13.4098 4.96521 13.5018 4.50494 13.5018 4.04006C13.5018 3.57519 13.4098 3.11492 13.2309 2.68583C13.0521 2.25674 12.79 1.86732 12.4598 1.54006V1.54006Z" stroke="#000001" stroke-linecap="round" stroke-linejoin="round"/>
<path d="M4.5 1.5L12.5 9.5" stroke="#000001" stroke-linecap="round" stroke-linejoin="round"/>
</g>
<defs>
<clipPath id="clip0_6_1956">
<rect width="14" height="14" fill="white"/>
</clipPath>
</defs>
</svg>
