<svg width="14" height="14" viewBox="0 0 14 14" fill="none" xmlns="http://www.w3.org/2000/svg">
<g clip-path="url(#clip0_6_1969)">
<path d="M9 9.5C11.4853 9.5 13.5 7.48528 13.5 5C13.5 2.51472 11.4853 0.5 9 0.5C6.51472 0.5 4.5 2.51472 4.5 5C4.5 7.48528 6.51472 9.5 9 9.5Z" stroke="#000001" stroke-linecap="round" stroke-linejoin="round"/>
<path d="M10.2499 3.67003C10.127 3.48506 9.96446 3.32972 9.77414 3.2152C9.58382 3.10069 9.37044 3.02988 9.14942 3.00787C8.9284 2.98586 8.70525 3.01322 8.49609 3.08795C8.28692 3.16269 8.09697 3.28294 7.93994 3.44003" stroke="#000001" stroke-linecap="round" stroke-linejoin="round"/>
<path d="M0.5 13.4999L6.08 8.42993" stroke="#000001" stroke-linecap="round" stroke-linejoin="round"/>
</g>
<defs>
<clipPath id="clip0_6_1969">
<rect width="14" height="14" fill="white"/>
</clipPath>
</defs>
</svg>
