<svg width="14" height="14" viewBox="0 0 14 14" fill="none" xmlns="http://www.w3.org/2000/svg">
<g clip-path="url(#clip0_6_3246)">
<path d="M10.1301 3.48003L7.26012 0.610025C7.22651 0.574936 7.18615 0.547012 7.14147 0.527935C7.09679 0.508858 7.0487 0.499023 7.00012 0.499023C6.95153 0.499023 6.90345 0.508858 6.85877 0.527935C6.81408 0.547012 6.77372 0.574936 6.74012 0.610025L3.87012 3.48003" stroke="#000001" stroke-linecap="round" stroke-linejoin="round"/>
<path d="M10.1301 10.52L7.26012 13.39C7.22651 13.4251 7.18615 13.453 7.14147 13.4721C7.09679 13.4912 7.0487 13.501 7.00012 13.501C6.95153 13.501 6.90345 13.4912 6.85877 13.4721C6.81408 13.453 6.77372 13.4251 6.74012 13.39L3.87012 10.52" stroke="#000001" stroke-linecap="round" stroke-linejoin="round"/>
<path d="M0.5 7H13.5" stroke="#000001" stroke-linecap="round" stroke-linejoin="round"/>
</g>
<defs>
<clipPath id="clip0_6_3246">
<rect width="14" height="14" fill="white"/>
</clipPath>
</defs>
</svg>
