<svg width="14" height="14" viewBox="0 0 14 14" fill="none" xmlns="http://www.w3.org/2000/svg">
<g clip-path="url(#clip0_6_3659)">
<path d="M8.5 9V2C8.5 1.60218 8.34196 1.22064 8.06066 0.93934C7.77936 0.658035 7.39782 0.5 7 0.5V0.5C6.60218 0.5 6.22064 0.658035 5.93934 0.93934C5.65804 1.22064 5.5 1.60218 5.5 2V9C5.08024 9.31482 4.77017 9.75374 4.61372 10.2546C4.45727 10.7554 4.46237 11.2928 4.62829 11.7906C4.79422 12.2883 5.11256 12.7213 5.53822 13.0281C5.96389 13.3349 6.47529 13.5 7 13.5C7.52471 13.5 8.03611 13.3349 8.46178 13.0281C8.88744 12.7213 9.20578 12.2883 9.37171 11.7906C9.53763 11.2928 9.54273 10.7554 9.38628 10.2546C9.22983 9.75374 8.91976 9.31482 8.5 9Z" stroke="#000001" stroke-linecap="round" stroke-linejoin="round"/>
</g>
<defs>
<clipPath id="clip0_6_3659">
<rect width="14" height="14" fill="white"/>
</clipPath>
</defs>
</svg>
