<svg width="14" height="14" viewBox="0 0 14 14" fill="none" xmlns="http://www.w3.org/2000/svg">
<g clip-path="url(#clip0_6_2084)">
<path d="M7.5 8.99994L4.5 9.53994L5 6.49994L10.73 0.789939C10.823 0.696211 10.9336 0.621816 11.0554 0.571048C11.1773 0.520279 11.308 0.494141 11.44 0.494141C11.572 0.494141 11.7027 0.520279 11.8246 0.571048C11.9464 0.621816 12.057 0.696211 12.15 0.789939L13.21 1.84994C13.3037 1.9429 13.3781 2.0535 13.4289 2.17536C13.4797 2.29722 13.5058 2.42793 13.5058 2.55994C13.5058 2.69195 13.4797 2.82266 13.4289 2.94452C13.3781 3.06637 13.3037 3.17698 13.21 3.26994L7.5 8.99994Z" stroke="#000001" stroke-linecap="round" stroke-linejoin="round"/>
<path d="M12 9.5V12.5C12 12.7652 11.8946 13.0196 11.7071 13.2071C11.5196 13.3946 11.2652 13.5 11 13.5H1.5C1.23478 13.5 0.98043 13.3946 0.792893 13.2071C0.605357 13.0196 0.5 12.7652 0.5 12.5V3C0.5 2.73478 0.605357 2.48043 0.792893 2.29289C0.98043 2.10536 1.23478 2 1.5 2H4.5" stroke="#000001" stroke-linecap="round" stroke-linejoin="round"/>
</g>
<defs>
<clipPath id="clip0_6_2084">
<rect width="14" height="14" fill="white"/>
</clipPath>
</defs>
</svg>
