<svg width="14" height="14" viewBox="0 0 14 14" fill="none" xmlns="http://www.w3.org/2000/svg">
<g clip-path="url(#clip0_6_1890)">
<path d="M8.5 5C9.05228 5 9.5 4.55228 9.5 4C9.5 3.44772 9.05228 3 8.5 3C7.94772 3 7.5 3.44772 7.5 4C7.5 4.55228 7.94772 5 8.5 5Z" stroke="#000001" stroke-linecap="round" stroke-linejoin="round"/>
<path d="M4.5 10C4.77614 10 5 9.77614 5 9.5C5 9.22386 4.77614 9 4.5 9C4.22386 9 4 9.22386 4 9.5C4 9.77614 4.22386 10 4.5 10Z" stroke="#000001" stroke-linecap="round" stroke-linejoin="round"/>
<path d="M4.5 6.5C5.05228 6.5 5.5 6.05228 5.5 5.5C5.5 4.94772 5.05228 4.5 4.5 4.5C3.94772 4.5 3.5 4.94772 3.5 5.5C3.5 6.05228 3.94772 6.5 4.5 6.5Z" stroke="#000001" stroke-linecap="round" stroke-linejoin="round"/>
<path d="M9.51989 12.28C9.50875 12.086 9.44134 11.8995 9.32591 11.7432C9.21047 11.587 9.05201 11.4677 8.86989 11.4C8.4176 11.2513 8.03317 10.9462 7.78572 10.5395C7.53827 10.1327 7.44404 9.65106 7.51997 9.18105C7.59589 8.71105 7.83699 8.28354 8.19992 7.9754C8.56285 7.66726 9.0238 7.49869 9.49989 7.5H11.3699C11.6906 7.5009 12.0069 7.42464 12.2919 7.27767C12.577 7.1307 12.8226 6.91732 13.0079 6.65554C13.1932 6.39375 13.3128 6.09124 13.3567 5.77353C13.4005 5.45581 13.3673 5.1322 13.2599 4.83C12.8622 3.70697 12.1634 2.71485 11.24 1.96205C10.3166 1.20924 9.20405 0.724704 8.02392 0.561374C6.84378 0.398044 5.64146 0.562205 4.5483 1.03592C3.45514 1.50964 2.51321 2.27468 1.82541 3.24748C1.13761 4.22027 0.730402 5.36339 0.648276 6.55194C0.566151 7.74049 0.812267 8.92875 1.35973 9.9869C1.9072 11.045 2.73496 11.9324 3.75257 12.5519C4.77019 13.1715 5.93851 13.4995 7.12989 13.5C7.71826 13.5016 8.30395 13.4209 8.86989 13.26C9.07776 13.2018 9.25776 13.0707 9.37708 12.8908C9.4964 12.7109 9.54709 12.4942 9.51989 12.28V12.28Z" stroke="#000001" stroke-linecap="round" stroke-linejoin="round"/>
</g>
<defs>
<clipPath id="clip0_6_1890">
<rect width="14" height="14" fill="white"/>
</clipPath>
</defs>
</svg>
