<svg width="14" height="14" viewBox="0 0 14 14" fill="none" xmlns="http://www.w3.org/2000/svg">
<g clip-path="url(#clip0_6_4600)">
<path d="M6 4.82994L3.75 0.939941C2.76254 1.50888 1.9423 2.32781 1.37179 3.31436C0.801271 4.30092 0.500595 5.4203 0.5 6.55994H5C5.00036 6.20922 5.09294 5.86475 5.26846 5.5611C5.44398 5.25746 5.69626 5.0053 6 4.82994Z" stroke="#000001" stroke-linecap="round" stroke-linejoin="round"/>
<path d="M9 6.55994H13.5C13.4994 5.4203 13.1987 4.30092 12.6282 3.31436C12.0577 2.32781 11.2375 1.50888 10.25 0.939941L8 4.82994C8.30374 5.0053 8.55602 5.25746 8.73154 5.5611C8.90706 5.86475 8.99964 6.20922 9 6.55994Z" stroke="#000001" stroke-linecap="round" stroke-linejoin="round"/>
<path d="M7 8.56005C6.64965 8.56247 6.30481 8.47281 6 8.30005L3.75 12.19C4.73846 12.7596 5.85921 13.0593 7 13.0593C8.14079 13.0593 9.26154 12.7596 10.25 12.19L8 8.30005C7.69519 8.47281 7.35035 8.56247 7 8.56005V8.56005Z" stroke="#000001" stroke-linecap="round" stroke-linejoin="round"/>
</g>
<defs>
<clipPath id="clip0_6_4600">
<rect width="14" height="14" fill="white"/>
</clipPath>
</defs>
</svg>
