<svg width="14" height="14" viewBox="0 0 14 14" fill="none" xmlns="http://www.w3.org/2000/svg">
<g clip-path="url(#clip0_6_3525)">
<path d="M11.4999 5.00007C11.5054 4.19683 11.2959 3.40675 10.893 2.71185C10.4901 2.01695 9.90851 1.44255 9.20866 1.0483C8.50881 0.654055 7.71619 0.454319 6.91309 0.469834C6.10998 0.485348 5.32566 0.715547 4.64156 1.13653C3.95746 1.55752 3.39852 2.15394 3.02275 2.86389C2.64699 3.57383 2.4681 4.37142 2.50467 5.17384C2.54123 5.97627 2.79191 6.75428 3.23069 7.4271C3.66947 8.09993 4.28034 8.64305 4.99989 9.00007V10.5001C4.99989 10.6327 5.05257 10.7599 5.14634 10.8536C5.24011 10.9474 5.36729 11.0001 5.49989 11.0001H8.49989C8.6325 11.0001 8.75968 10.9474 8.85345 10.8536C8.94722 10.7599 8.99989 10.6327 8.99989 10.5001V9.00007C9.74737 8.6318 10.3773 8.06236 10.819 7.35574C11.2606 6.64912 11.4964 5.83334 11.4999 5.00007V5.00007Z" stroke="#000001" stroke-linecap="round" stroke-linejoin="round"/>
<path d="M5 13.5H9" stroke="#000001" stroke-linecap="round" stroke-linejoin="round"/>
</g>
<defs>
<clipPath id="clip0_6_3525">
<rect width="14" height="14" fill="white"/>
</clipPath>
</defs>
</svg>
