<svg width="14" height="14" viewBox="0 0 14 14" fill="none" xmlns="http://www.w3.org/2000/svg">
<g clip-path="url(#clip0_6_3562)">
<path d="M0.5 13.5L13.5 0.5" stroke="#000001" stroke-linecap="round" stroke-linejoin="round"/>
<path d="M4.8501 13.0001C5.53898 13.3748 6.31383 13.563 7.09785 13.546C7.88187 13.529 8.64783 13.3074 9.31984 12.9032C9.99184 12.499 10.5465 11.9262 10.929 11.2415C11.3114 10.5569 11.5083 9.78422 11.5001 9.00006C11.4541 8.32816 11.2846 7.67051 11.0001 7.06006" stroke="#000001" stroke-linecap="round" stroke-linejoin="round"/>
<path d="M9.6 4.4C8.37 2.34 7 0.5 7 0.5C7 0.5 2.5 6.51 2.5 9C2.50669 9.69676 2.67802 10.3821 3 11" stroke="#000001" stroke-linecap="round" stroke-linejoin="round"/>
</g>
<defs>
<clipPath id="clip0_6_3562">
<rect width="14" height="14" fill="white"/>
</clipPath>
</defs>
</svg>
