<svg width="14" height="14" viewBox="0 0 14 14" fill="none" xmlns="http://www.w3.org/2000/svg">
<g clip-path="url(#clip0_6_5056)">
<path d="M5.5 9.5L3 4L0.5 9.5C0.5 10.163 0.763392 10.7989 1.23223 11.2678C1.70107 11.7366 2.33696 12 3 12C3.66304 12 4.29893 11.7366 4.76777 11.2678C5.23661 10.7989 5.5 10.163 5.5 9.5Z" stroke="#000001" stroke-linecap="round" stroke-linejoin="round"/>
<path d="M13.5 9.5L11 4L8.5 9.5C8.5 10.163 8.76339 10.7989 9.23223 11.2678C9.70107 11.7366 10.337 12 11 12C11.663 12 12.2989 11.7366 12.7678 11.2678C13.2366 10.7989 13.5 10.163 13.5 9.5Z" stroke="#000001" stroke-linecap="round" stroke-linejoin="round"/>
<path d="M1.5 4H12.5" stroke="#000001" stroke-linecap="round" stroke-linejoin="round"/>
<path d="M7 4V2" stroke="#000001" stroke-linecap="round" stroke-linejoin="round"/>
</g>
<defs>
<clipPath id="clip0_6_5056">
<rect width="14" height="14" fill="white"/>
</clipPath>
</defs>
</svg>
