<svg width="70" height="70" viewBox="0 0 70 70" fill="none" xmlns="http://www.w3.org/2000/svg">
<path d="M16.3422 58.2604C13.9544 58.2604 11.922 57.4237 10.2449 55.7506C8.56779 54.0779 7.72925 52.0464 7.72925 49.6562H2.91675V11.6666H49.5105V23.8437H57.1668L67.0834 37.0416V49.6562H61.9063C61.9063 52.0464 61.0707 54.0779 59.3995 55.7506C57.7282 57.4237 55.6987 58.2604 53.3109 58.2604C50.9232 58.2604 48.8907 57.4237 47.2136 55.7506C45.5365 54.0779 44.698 52.0464 44.698 49.6562H24.9376C24.9376 52.0381 24.102 54.0677 22.4307 55.7447C20.7595 57.4218 18.7299 58.2604 16.3422 58.2604ZM16.3334 53.8854C17.5001 53.8854 18.4966 53.4722 19.323 52.6458C20.1494 51.8194 20.5626 50.8229 20.5626 49.6562C20.5626 48.4895 20.1494 47.4931 19.323 46.6666C18.4966 45.8402 17.5001 45.427 16.3334 45.427C15.1667 45.427 14.1702 45.8402 13.3438 46.6666C12.5174 47.4931 12.1042 48.4895 12.1042 49.6562C12.1042 50.8229 12.5174 51.8194 13.3438 52.6458C14.1702 53.4722 15.1667 53.8854 16.3334 53.8854ZM53.3022 53.8854C54.4688 53.8854 55.4653 53.4722 56.2918 52.6458C57.1182 51.8194 57.5313 50.8229 57.5313 49.6562C57.5313 48.4895 57.1182 47.4931 56.2918 46.6666C55.4653 45.8402 54.4688 45.427 53.3022 45.427C52.1355 45.427 51.139 45.8402 50.3126 46.6666C49.4861 47.4931 49.073 48.4895 49.073 49.6562C49.073 50.8229 49.4861 51.8194 50.3126 52.6458C51.139 53.4722 52.1355 53.8854 53.3022 53.8854ZM49.5105 39.0104H63.073L54.9793 28.2187H49.5105V39.0104Z" fill="#1F2024"/>
</svg>
