<svg width="14" height="14" viewBox="0 0 14 14" fill="none" xmlns="http://www.w3.org/2000/svg">
<g clip-path="url(#clip0_6_5145)">
<path d="M13.5 7C13.5 8.72391 12.8152 10.3772 11.5962 11.5962C10.3772 12.8152 8.72391 13.5 7 13.5C5.27609 13.5 3.62279 12.8152 2.40381 11.5962C1.18482 10.3772 0.5 8.72391 0.5 7V0.5H13.5V7Z" stroke="#000001" stroke-linecap="round" stroke-linejoin="round"/>
<path d="M4 9.5C4 9.5 4.5 8 7 8C9.5 8 10 9.5 10 9.5" stroke="#000001" stroke-linecap="round" stroke-linejoin="round"/>
<path d="M5 4.5C5 4.76522 4.89464 5.01957 4.70711 5.20711C4.51957 5.39464 4.26522 5.5 4 5.5C3.73478 5.5 3.48043 5.39464 3.29289 5.20711C3.10536 5.01957 3 4.76522 3 4.5" stroke="#000001" stroke-linecap="round" stroke-linejoin="round"/>
<path d="M11 4.5C11 4.76522 10.8946 5.01957 10.7071 5.20711C10.5196 5.39464 10.2652 5.5 10 5.5C9.73478 5.5 9.48043 5.39464 9.29289 5.20711C9.10536 5.01957 9 4.76522 9 4.5" stroke="#000001" stroke-linecap="round" stroke-linejoin="round"/>
</g>
<defs>
<clipPath id="clip0_6_5145">
<rect width="14" height="14" fill="white"/>
</clipPath>
</defs>
</svg>
