<svg width="14" height="14" viewBox="0 0 14 14" fill="none" xmlns="http://www.w3.org/2000/svg">
<g clip-path="url(#clip0_6_5180)">
<path d="M10.05 6.99993C10.05 7.59113 9.87521 8.16912 9.54772 8.66133C9.22024 9.15353 8.75462 9.538 8.20935 9.76646C7.66408 9.99492 7.06346 10.0572 6.48293 9.94542C5.90239 9.83366 5.36781 9.55286 4.94633 9.13829C4.52485 8.72372 4.23526 8.19386 4.11392 7.61525C3.99258 7.03664 4.0449 6.43507 4.26432 5.8861C4.48373 5.33713 4.86046 4.86522 5.34718 4.52964C5.83391 4.19407 6.40893 4.00978 7.00005 3.99993C7.3982 3.99329 7.79369 4.06599 8.16346 4.21378C8.53323 4.36157 8.86987 4.58149 9.15377 4.86073C9.43766 5.13997 9.66312 5.47294 9.817 5.84021C9.97088 6.20749 10.0501 6.60172 10.05 6.99993V6.99993Z" stroke="#000001" stroke-linecap="round" stroke-linejoin="round"/>
<path d="M10.0499 7V8.3C10.0499 11.79 15.5199 8.5 12.6499 3.76C12.072 2.77305 11.2472 1.95349 10.2566 1.3819C9.26596 0.810318 8.14363 0.50639 6.99995 0.5C6.03911 0.502967 5.09088 0.718914 4.22352 1.1323C3.35615 1.54568 2.59122 2.14622 1.98378 2.89068C1.37634 3.63514 0.941497 4.50502 0.710559 5.43769C0.479621 6.37036 0.458328 7.34264 0.648213 8.28452C0.838098 9.22641 1.23444 10.1145 1.8087 10.8848C2.38297 11.6552 3.12088 12.2886 3.96932 12.7396C4.81775 13.1905 5.75562 13.4478 6.7154 13.4928C7.67518 13.5379 8.63301 13.3695 9.51995 13" stroke="#000001" stroke-linecap="round" stroke-linejoin="round"/>
</g>
<defs>
<clipPath id="clip0_6_5180">
<rect width="14" height="14" fill="white"/>
</clipPath>
</defs>
</svg>
