<svg width="14" height="14" viewBox="0 0 14 14" fill="none" xmlns="http://www.w3.org/2000/svg">
<g clip-path="url(#clip0_6_5117)">
<path d="M4.25 7C4.52614 7 4.75 6.77614 4.75 6.5C4.75 6.22386 4.52614 6 4.25 6C3.97386 6 3.75 6.22386 3.75 6.5C3.75 6.77614 3.97386 7 4.25 7Z" stroke="#000001" stroke-linecap="round" stroke-linejoin="round"/>
<path d="M7.5 7C7.77614 7 8 6.77614 8 6.5C8 6.22386 7.77614 6 7.5 6C7.22386 6 7 6.22386 7 6.5C7 6.77614 7.22386 7 7.5 7Z" stroke="#000001" stroke-linecap="round" stroke-linejoin="round"/>
<path d="M10.75 7C11.0261 7 11.25 6.77614 11.25 6.5C11.25 6.22386 11.0261 6 10.75 6C10.4739 6 10.25 6.22386 10.25 6.5C10.25 6.77614 10.4739 7 10.75 7Z" stroke="#000001" stroke-linecap="round" stroke-linejoin="round"/>
<path d="M4.5 12.5L0.5 13.5L1.5 10.5V1.5C1.5 1.23478 1.60536 0.98043 1.79289 0.792893C1.98043 0.605357 2.23478 0.5 2.5 0.5H12.5C12.7652 0.5 13.0196 0.605357 13.2071 0.792893C13.3946 0.98043 13.5 1.23478 13.5 1.5V11.5C13.5 11.7652 13.3946 12.0196 13.2071 12.2071C13.0196 12.3946 12.7652 12.5 12.5 12.5H4.5Z" stroke="#000001" stroke-linecap="round" stroke-linejoin="round"/>
</g>
<defs>
<clipPath id="clip0_6_5117">
<rect width="14" height="14" fill="white"/>
</clipPath>
</defs>
</svg>
