<svg width="14" height="14" viewBox="0 0 14 14" fill="none" xmlns="http://www.w3.org/2000/svg">
<g clip-path="url(#clip0_6_5137)">
<path d="M7 13.5C10.5899 13.5 13.5 10.5899 13.5 7C13.5 3.41015 10.5899 0.5 7 0.5C3.41015 0.5 0.5 3.41015 0.5 7C0.5 10.5899 3.41015 13.5 7 13.5Z" stroke="#000001" stroke-linecap="round" stroke-linejoin="round"/>
<path d="M3.69995 10.5001C4.19995 8.70012 6.09995 7.60012 7.99995 8.10012C9.09995 8.40012 9.99995 9.30012 10.4 10.5001" stroke="#000001" stroke-linecap="round" stroke-linejoin="round"/>
<path d="M4.8001 5.5001C4.68964 5.5001 4.6001 5.41055 4.6001 5.3001C4.6001 5.18964 4.68964 5.1001 4.8001 5.1001" stroke="#000001" stroke-linecap="round" stroke-linejoin="round"/>
<path d="M4.80005 5.5001C4.91051 5.5001 5.00005 5.41055 5.00005 5.3001C5.00005 5.18964 4.91051 5.1001 4.80005 5.1001" stroke="#000001" stroke-linecap="round" stroke-linejoin="round"/>
<path d="M9.2 5.5001C9.08954 5.5001 9 5.41055 9 5.3001C9 5.18964 9.08954 5.1001 9.2 5.1001" stroke="#000001" stroke-linecap="round" stroke-linejoin="round"/>
<path d="M9.19995 5.5001C9.31041 5.5001 9.39995 5.41055 9.39995 5.3001C9.39995 5.18964 9.31041 5.1001 9.19995 5.1001" stroke="#000001" stroke-linecap="round" stroke-linejoin="round"/>
</g>
<defs>
<clipPath id="clip0_6_5137">
<rect width="14" height="14" fill="white"/>
</clipPath>
</defs>
</svg>
