<svg width="14" height="14" viewBox="0 0 14 14" fill="none" xmlns="http://www.w3.org/2000/svg">
<g clip-path="url(#clip0_6_5151)">
<path d="M3.5 9.5H10.5" stroke="#000001" stroke-linecap="round" stroke-linejoin="round"/>
<path d="M7 13.5C10.5899 13.5 13.5 10.5899 13.5 7C13.5 3.41015 10.5899 0.5 7 0.5C3.41015 0.5 0.5 3.41015 0.5 7C0.5 10.5899 3.41015 13.5 7 13.5Z" stroke="#000001" stroke-linecap="round" stroke-linejoin="round"/>
<path d="M4.8001 5.4C4.68964 5.4 4.6001 5.31046 4.6001 5.2C4.6001 5.08954 4.68964 5 4.8001 5" stroke="#000001" stroke-linecap="round" stroke-linejoin="round"/>
<path d="M4.80005 5.4C4.91051 5.4 5.00005 5.31046 5.00005 5.2C5.00005 5.08954 4.91051 5 4.80005 5" stroke="#000001" stroke-linecap="round" stroke-linejoin="round"/>
<path d="M9.2 5.4C9.08954 5.4 9 5.31046 9 5.2C9 5.08954 9.08954 5 9.2 5" stroke="#000001" stroke-linecap="round" stroke-linejoin="round"/>
<path d="M9.19995 5.4C9.31041 5.4 9.39995 5.31046 9.39995 5.2C9.39995 5.08954 9.31041 5 9.19995 5" stroke="#000001" stroke-linecap="round" stroke-linejoin="round"/>
</g>
<defs>
<clipPath id="clip0_6_5151">
<rect width="14" height="14" fill="white"/>
</clipPath>
</defs>
</svg>
