<svg width="14" height="14" viewBox="0 0 14 14" fill="none" xmlns="http://www.w3.org/2000/svg">
<g clip-path="url(#clip0_6_5111)">
<path d="M3.5 7.5C3.77614 7.5 4 7.27614 4 7C4 6.72386 3.77614 6.5 3.5 6.5C3.22386 6.5 3 6.72386 3 7C3 7.27614 3.22386 7.5 3.5 7.5Z" stroke="#000001" stroke-linecap="round" stroke-linejoin="round"/>
<path d="M6.75 7.5C7.02614 7.5 7.25 7.27614 7.25 7C7.25 6.72386 7.02614 6.5 6.75 6.5C6.47386 6.5 6.25 6.72386 6.25 7C6.25 7.27614 6.47386 7.5 6.75 7.5Z" stroke="#000001" stroke-linecap="round" stroke-linejoin="round"/>
<path d="M10 7.5C10.2761 7.5 10.5 7.27614 10.5 7C10.5 6.72386 10.2761 6.5 10 6.5C9.72386 6.5 9.5 6.72386 9.5 7C9.5 7.27614 9.72386 7.5 10 7.5Z" stroke="#000001" stroke-linecap="round" stroke-linejoin="round"/>
<path d="M7 0.500001C5.82424 0.500367 4.6706 0.81964 3.66194 1.42381C2.65329 2.02799 1.8274 2.89444 1.27223 3.93088C0.717073 4.96732 0.453431 6.13493 0.509389 7.30936C0.565347 8.48378 0.93881 9.62104 1.59 10.6L0.5 13.5L4.15 12.84C5.02891 13.2695 5.99342 13.4951 6.97165 13.4999C7.94987 13.5048 8.91657 13.2888 9.79969 12.868C10.6828 12.4472 11.4596 11.8325 12.0721 11.0698C12.6846 10.307 13.117 9.41586 13.3371 8.46271C13.5573 7.50957 13.5594 6.51903 13.3434 5.56493C13.1275 4.61083 12.6989 3.71779 12.0898 2.95237C11.4806 2.18694 10.7065 1.56889 9.82526 1.14427C8.94399 0.719652 7.97824 0.499424 7 0.500001V0.500001Z" stroke="#000001" stroke-linecap="round" stroke-linejoin="round"/>
</g>
<defs>
<clipPath id="clip0_6_5111">
<rect width="14" height="14" fill="white"/>
</clipPath>
</defs>
</svg>
