<svg width="14" height="14" viewBox="0 0 14 14" fill="none" xmlns="http://www.w3.org/2000/svg">
<g clip-path="url(#clip0_6_5176)">
<path d="M12.5 0.5H1.5C0.947715 0.5 0.5 0.947715 0.5 1.5V12.5C0.5 13.0523 0.947715 13.5 1.5 13.5H12.5C13.0523 13.5 13.5 13.0523 13.5 12.5V1.5C13.5 0.947715 13.0523 0.5 12.5 0.5Z" stroke="#000001" stroke-linecap="round" stroke-linejoin="round"/>
<path d="M0.5 8H4C4.26522 8 4.51957 8.10536 4.70711 8.29289C4.89464 8.48043 5 8.73478 5 9C5 9.53043 5.21071 10.0391 5.58579 10.4142C5.96086 10.7893 6.46957 11 7 11C7.53043 11 8.03914 10.7893 8.41421 10.4142C8.78929 10.0391 9 9.53043 9 9C9 8.73478 9.10536 8.48043 9.29289 8.29289C9.48043 8.10536 9.73478 8 10 8H13.5" stroke="#000001" stroke-linecap="round" stroke-linejoin="round"/>
</g>
<defs>
<clipPath id="clip0_6_5176">
<rect width="14" height="14" fill="white"/>
</clipPath>
</defs>
</svg>
