<svg width="14" height="14" viewBox="0 0 14 14" fill="none" xmlns="http://www.w3.org/2000/svg">
<g clip-path="url(#clip0_6_5159)">
<path d="M5.81991 10.9999L7.99991 13.1699C8.13367 13.307 8.3009 13.4068 8.48506 13.4594C8.66922 13.512 8.86392 13.5156 9.04991 13.4699C9.23706 13.4264 9.40987 13.3355 9.55173 13.2059C9.69358 13.0763 9.79971 12.9124 9.85991 12.7299L13.4399 1.9999C13.5146 1.79885 13.53 1.58058 13.4843 1.37102C13.4386 1.16147 13.3337 0.969449 13.182 0.817787C13.0304 0.666125 12.8383 0.5612 12.6288 0.515484C12.4192 0.469768 12.201 0.485183 11.9999 0.559898L1.26991 4.1399C1.08116 4.20437 0.913055 4.31807 0.782961 4.46926C0.652867 4.62046 0.565508 4.80364 0.529913 4.9999C0.493172 5.17839 0.501351 5.36321 0.553715 5.53776C0.606079 5.7123 0.700988 5.87111 0.829913 5.9999L3.56991 8.7399L3.47991 12.2099L5.81991 10.9999Z" stroke="#000001" stroke-linecap="round" stroke-linejoin="round"/>
<path d="M13.1198 0.779785L3.56982 8.73979" stroke="#000001" stroke-linecap="round" stroke-linejoin="round"/>
</g>
<defs>
<clipPath id="clip0_6_5159">
<rect width="14" height="14" fill="white"/>
</clipPath>
</defs>
</svg>
