<svg width="24" height="24" viewBox="0 0 24 24" fill="none" xmlns="http://www.w3.org/2000/svg">
<path d="M7.9211 12.677C7.7971 12.5903 7.70376 12.491 7.6411 12.379C7.5791 12.2677 7.5481 12.1413 7.5481 12C7.5481 11.8587 7.5791 11.7323 7.6411 11.621C7.7031 11.5097 7.79643 11.4103 7.9211 11.323L13.7641 7.59C13.8314 7.55334 13.9024 7.52567 13.9771 7.507C14.0518 7.48834 14.1228 7.479 14.1901 7.479C14.4074 7.479 14.5968 7.55234 14.7581 7.699C14.9194 7.84567 15.0001 8.04167 15.0001 8.287V15.713C15.0001 15.9583 14.9191 16.1543 14.7571 16.301C14.5944 16.4477 14.4048 16.521 14.1881 16.521C14.1208 16.521 14.0501 16.5117 13.9761 16.493C13.9021 16.475 13.8314 16.4473 13.7641 16.41L7.9211 12.677Z" fill="black"/>
</svg>
