<svg width="14" height="14" viewBox="0 0 14 14" fill="none" xmlns="http://www.w3.org/2000/svg">
<g clip-path="url(#clip0_6_4699)">
<path d="M12 7.5V5.5C12 5.23478 11.8946 4.98043 11.7071 4.79289C11.5196 4.60536 11.2652 4.5 11 4.5H1.5C1.23478 4.5 0.98043 4.60536 0.792893 4.79289C0.605357 4.98043 0.5 5.23478 0.5 5.5V12.5C0.5 12.7652 0.605357 13.0196 0.792893 13.2071C0.98043 13.3946 1.23478 13.5 1.5 13.5H11C11.2652 13.5 11.5196 13.3946 11.7071 13.2071C11.8946 13.0196 12 12.7652 12 12.5V10" stroke="#000001" stroke-linecap="round" stroke-linejoin="round"/>
<path d="M3.83984 2.00007L9.50984 0.520072C9.57356 0.50212 9.64025 0.497264 9.70589 0.505797C9.77153 0.514329 9.83477 0.536074 9.89177 0.569717C9.94878 0.603361 9.99838 0.648207 10.0376 0.701548C10.0768 0.754888 10.1048 0.815618 10.1198 0.880072L10.3998 2.00007" stroke="#000001" stroke-linecap="round" stroke-linejoin="round"/>
<path d="M13 7.5H10.5C10.2239 7.5 10 7.72386 10 8V9.5C10 9.77614 10.2239 10 10.5 10H13C13.2761 10 13.5 9.77614 13.5 9.5V8C13.5 7.72386 13.2761 7.5 13 7.5Z" stroke="#000001" stroke-linecap="round" stroke-linejoin="round"/>
</g>
<defs>
<clipPath id="clip0_6_4699">
<rect width="14" height="14" fill="white"/>
</clipPath>
</defs>
</svg>
