<svg width="14" height="14" viewBox="0 0 14 14" fill="none" xmlns="http://www.w3.org/2000/svg">
<g clip-path="url(#clip0_6_4784)">
<path d="M7.79008 6.45C8.35498 6.41755 8.88642 6.17157 9.27672 5.7619C9.66703 5.35224 9.88701 4.80952 9.89209 4.24371C9.89718 3.67791 9.68699 3.13132 9.30411 2.71471C8.92123 2.29809 8.3943 2.0426 7.83008 2H4.39008C4.17525 2 3.96923 2.08534 3.81732 2.23724C3.66542 2.38915 3.58008 2.59517 3.58008 2.81V10.9C3.58008 11.1148 3.66542 11.3209 3.81732 11.4728C3.96923 11.6247 4.17525 11.71 4.39008 11.71H7.79008C8.4876 11.71 9.15655 11.4329 9.64977 10.9397C10.143 10.4465 10.4201 9.77752 10.4201 9.08C10.4201 8.38248 10.143 7.71353 9.64977 7.22031C9.15655 6.72709 8.4876 6.45 7.79008 6.45V6.45Z" stroke="#000001" stroke-linecap="round" stroke-linejoin="round"/>
<path d="M5.13013 2V0.5" stroke="#000001" stroke-linecap="round" stroke-linejoin="round"/>
<path d="M7.63013 2V0.5" stroke="#000001" stroke-linecap="round" stroke-linejoin="round"/>
<path d="M5.13013 13.5V12" stroke="#000001" stroke-linecap="round" stroke-linejoin="round"/>
<path d="M7.63013 13.5V12" stroke="#000001" stroke-linecap="round" stroke-linejoin="round"/>
<path d="M7.83008 6.44995H3.58008" stroke="#000001" stroke-linecap="round" stroke-linejoin="round"/>
</g>
<defs>
<clipPath id="clip0_6_4784">
<rect width="14" height="14" fill="white"/>
</clipPath>
</defs>
</svg>
