<svg width="14" height="14" viewBox="0 0 14 14" fill="none" xmlns="http://www.w3.org/2000/svg">
<g clip-path="url(#clip0_6_4704)">
<path d="M8 3.02L13.5 0.5" stroke="#000001" stroke-linecap="round" stroke-linejoin="round"/>
<path d="M8 3.02002L13.5 4.50002" stroke="#000001" stroke-linecap="round" stroke-linejoin="round"/>
<path d="M6.5 13.4999C10 13.4999 12.5 12.2599 12.5 9.49989C12.5 6.49989 11 4.49989 8 2.99989L9.18 1.46989C9.23094 1.37206 9.25615 1.26287 9.25326 1.15261C9.25036 1.04234 9.21945 0.934627 9.16343 0.839605C9.10742 0.744582 9.02815 0.665377 8.93308 0.609446C8.83801 0.553514 8.73027 0.522696 8.62 0.519893H4.38C4.26238 0.517657 4.14636 0.547384 4.04431 0.605903C3.94226 0.664423 3.858 0.749542 3.80052 0.852183C3.74304 0.954825 3.71449 1.07114 3.71792 1.18873C3.72135 1.30632 3.75663 1.42078 3.82 1.51989L5 2.99989C2 4.51989 0.5 6.51989 0.5 9.51989C0.5 12.2599 3 13.4999 6.5 13.4999Z" stroke="#000001" stroke-linecap="round" stroke-linejoin="round"/>
</g>
<defs>
<clipPath id="clip0_6_4704">
<rect width="14" height="14" fill="white"/>
</clipPath>
</defs>
</svg>
