<svg width="14" height="14" viewBox="0 0 14 14" fill="none" xmlns="http://www.w3.org/2000/svg">
<g clip-path="url(#clip0_6_4921)">
<path d="M13.2499 9.35994L9.35994 13.2499C9.21932 13.3904 9.0287 13.4693 8.82994 13.4693C8.63119 13.4693 8.44057 13.3904 8.29994 13.2499L1.78994 6.73994C1.75115 6.70286 1.72114 6.65757 1.70211 6.6074C1.68308 6.55722 1.67551 6.50343 1.67994 6.44994L2.26994 2.60994C2.27682 2.52206 2.31485 2.43952 2.37719 2.37719C2.43952 2.31485 2.52206 2.27682 2.60994 2.26994L6.44994 1.67994C6.50343 1.67551 6.55722 1.68308 6.6074 1.70211C6.65757 1.72114 6.70286 1.75115 6.73994 1.78994L13.2499 8.29994C13.3904 8.44057 13.4693 8.63119 13.4693 8.82994C13.4693 9.0287 13.3904 9.21932 13.2499 9.35994V9.35994Z" stroke="#000001" stroke-linecap="round" stroke-linejoin="round"/>
<path d="M4.03003 4.03003L0.530029 0.530029" stroke="#000001" stroke-linecap="round" stroke-linejoin="round"/>
</g>
<defs>
<clipPath id="clip0_6_4921">
<rect width="14" height="14" fill="white"/>
</clipPath>
</defs>
</svg>
