<svg width="14" height="14" viewBox="0 0 14 14" fill="none" xmlns="http://www.w3.org/2000/svg">
<g clip-path="url(#clip0_6_4925)">
<path d="M12.9101 5.50012H1.09007C0.530065 5.50012 0.290065 4.89012 0.730065 4.60012L6.64007 0.730116C6.74918 0.665928 6.87347 0.63208 7.00007 0.63208C7.12666 0.63208 7.25095 0.665928 7.36007 0.730116L13.2701 4.60012C13.7101 4.89012 13.4701 5.50012 12.9101 5.50012Z" stroke="#000001" stroke-linecap="round" stroke-linejoin="round"/>
<path d="M13 11H1C0.723858 11 0.5 11.2239 0.5 11.5V13C0.5 13.2761 0.723858 13.5 1 13.5H13C13.2761 13.5 13.5 13.2761 13.5 13V11.5C13.5 11.2239 13.2761 11 13 11Z" stroke="#000001" stroke-linecap="round" stroke-linejoin="round"/>
<path d="M2 5.5V11" stroke="#000001" stroke-linecap="round" stroke-linejoin="round"/>
<path d="M4.5 5.5V11" stroke="#000001" stroke-linecap="round" stroke-linejoin="round"/>
<path d="M7 5.5V11" stroke="#000001" stroke-linecap="round" stroke-linejoin="round"/>
<path d="M9.5 5.5V11" stroke="#000001" stroke-linecap="round" stroke-linejoin="round"/>
<path d="M12 5.5V11" stroke="#000001" stroke-linecap="round" stroke-linejoin="round"/>
</g>
<defs>
<clipPath id="clip0_6_4925">
<rect width="14" height="14" fill="white"/>
</clipPath>
</defs>
</svg>
