<svg width="14" height="14" viewBox="0 0 14 14" fill="none" xmlns="http://www.w3.org/2000/svg">
<g clip-path="url(#clip0_6_4750)">
<path d="M8.5 0.5H1.5C1.23478 0.5 0.98043 0.605357 0.792893 0.792893C0.605357 0.98043 0.5 1.23478 0.5 1.5V12.5C0.5 12.7652 0.605357 13.0196 0.792893 13.2071C0.98043 13.3946 1.23478 13.5 1.5 13.5H12.5C12.7652 13.5 13.0196 13.3946 13.2071 13.2071C13.3946 13.0196 13.5 12.7652 13.5 12.5V5.5L8.5 0.5Z" stroke="#000001" stroke-linecap="round" stroke-linejoin="round"/>
<path d="M8.5 5V0.5L13.5 5.5H9C8.86739 5.5 8.74021 5.44732 8.64645 5.35355C8.55268 5.25979 8.5 5.13261 8.5 5Z" stroke="#000001" stroke-linecap="round" stroke-linejoin="round"/>
<path d="M4.5 4.5V3" stroke="#000001" stroke-linecap="round" stroke-linejoin="round"/>
<path d="M3 8.5C3 9.25 3.67 9.5 4.5 9.5C5.33 9.5 6 9.5 6 8.5C6 7 3 7 3 5.5C3 4.5 3.67 4.5 4.5 4.5C5.33 4.5 6 4.88 6 5.5" stroke="#000001" stroke-linecap="round" stroke-linejoin="round"/>
<path d="M4.5 9.5V11" stroke="#000001" stroke-linecap="round" stroke-linejoin="round"/>
<path d="M8.5 9.5H11.5" stroke="#000001" stroke-linecap="round" stroke-linejoin="round"/>
</g>
<defs>
<clipPath id="clip0_6_4750">
<rect width="14" height="14" fill="white"/>
</clipPath>
</defs>
</svg>
