<svg width="14" height="14" viewBox="0 0 14 14" fill="none" xmlns="http://www.w3.org/2000/svg">
<g clip-path="url(#clip0_6_4716)">
<path d="M12.5 0.5H1.5C0.947715 0.5 0.5 0.947715 0.5 1.5V7.5C0.5 8.05228 0.947715 8.5 1.5 8.5H12.5C13.0523 8.5 13.5 8.05228 13.5 7.5V1.5C13.5 0.947715 13.0523 0.5 12.5 0.5Z" stroke="#000001" stroke-linecap="round" stroke-linejoin="round"/>
<path d="M7 6C7.82843 6 8.5 5.32843 8.5 4.5C8.5 3.67157 7.82843 3 7 3C6.17157 3 5.5 3.67157 5.5 4.5C5.5 5.32843 6.17157 6 7 6Z" stroke="#000001" stroke-linecap="round" stroke-linejoin="round"/>
<path d="M1.5 11H12.5" stroke="#000001" stroke-linecap="round" stroke-linejoin="round"/>
<path d="M2.5 13.5H11.5" stroke="#000001" stroke-linecap="round" stroke-linejoin="round"/>
</g>
<defs>
<clipPath id="clip0_6_4716">
<rect width="14" height="14" fill="white"/>
</clipPath>
</defs>
</svg>
