<svg width="14" height="14" viewBox="0 0 14 14" fill="none" xmlns="http://www.w3.org/2000/svg">
<g clip-path="url(#clip0_6_4722)">
<path d="M12.5 2.5H1.5C0.947715 2.5 0.5 2.94772 0.5 3.5V10.5C0.5 11.0523 0.947715 11.5 1.5 11.5H12.5C13.0523 11.5 13.5 11.0523 13.5 10.5V3.5C13.5 2.94772 13.0523 2.5 12.5 2.5Z" stroke="#000001" stroke-linecap="round" stroke-linejoin="round"/>
<path d="M7 8.5C7.82843 8.5 8.5 7.82843 8.5 7C8.5 6.17157 7.82843 5.5 7 5.5C6.17157 5.5 5.5 6.17157 5.5 7C5.5 7.82843 6.17157 8.5 7 8.5Z" stroke="#000001" stroke-linecap="round" stroke-linejoin="round"/>
<path d="M3 5H3.5" stroke="#000001" stroke-linecap="round" stroke-linejoin="round"/>
<path d="M10.5 9H11" stroke="#000001" stroke-linecap="round" stroke-linejoin="round"/>
</g>
<defs>
<clipPath id="clip0_6_4722">
<rect width="14" height="14" fill="white"/>
</clipPath>
</defs>
</svg>
