<svg width="14" height="14" viewBox="0 0 14 14" fill="none" xmlns="http://www.w3.org/2000/svg">
<g clip-path="url(#clip0_6_4802)">
<path d="M4.50003 10.5H8.35003C8.761 10.5017 9.15781 10.35 9.46281 10.0746C9.7678 9.7991 9.95903 9.41974 9.99905 9.01073C10.0391 8.60171 9.92503 8.19248 9.67922 7.86313C9.43341 7.53377 9.07353 7.30801 8.67003 7.23001L5.33003 6.77001C4.92653 6.69202 4.56666 6.46625 4.32085 6.1369C4.07504 5.80755 3.96099 5.39832 4.00101 4.9893C4.04104 4.58028 4.23226 4.20093 4.53726 3.92547C4.84225 3.65002 5.23907 3.4983 5.65003 3.50001H9.50003" stroke="#000001" stroke-linecap="round" stroke-linejoin="round"/>
<path d="M7 13.5V0.5" stroke="#000001" stroke-linecap="round" stroke-linejoin="round"/>
</g>
<defs>
<clipPath id="clip0_6_4802">
<rect width="14" height="14" fill="white"/>
</clipPath>
</defs>
</svg>
