<svg width="71" height="71" viewBox="0 0 71 71" fill="none" xmlns="http://www.w3.org/2000/svg">
<path d="M30.3229 12.5729C14.8014 12.5729 2.21875 25.1556 2.21875 40.6771C2.21875 56.1986 14.8014 68.7813 30.3229 68.7813C41.9861 68.7813 51.985 61.677 56.2381 51.5685C56.8747 50.0553 56.3771 48.5584 55.4473 47.6326C54.5509 46.7403 53.1827 46.2799 51.7947 46.6131C50.4193 46.9434 48.9817 47.1189 47.5 47.1189C37.383 47.1189 29.1814 38.9173 29.1814 28.8001C29.1814 24.6725 30.5441 20.8694 32.8447 17.8075C33.6076 16.7924 33.6811 15.5209 33.2422 14.502C32.7903 13.4528 31.7367 12.5729 30.3229 12.5729Z" fill="#9EB2F8"/>
<path d="M58.7952 16.4599C57.7393 13.2495 53.198 13.2495 52.1422 16.4599L49.9005 23.2756L43.0848 25.5173C39.8744 26.5731 39.8744 31.1144 43.0848 32.1703L49.9005 34.4119L52.1422 41.2276C53.198 44.438 57.7393 44.438 58.7952 41.2276L61.0368 34.4119L67.8525 32.1703C71.0629 31.1144 71.0629 26.5731 67.8525 25.5173L61.0368 23.2756L58.7952 16.4599Z" fill="#6B64F3"/>
<path d="M45.1145 5.91667C45.1145 4.69129 44.1211 3.69792 42.8958 3.69792C41.6704 3.69792 40.677 4.69129 40.677 5.91667V8.13542H38.4583C37.2329 8.13542 36.2395 9.12879 36.2395 10.3542C36.2395 11.5796 37.2329 12.5729 38.4583 12.5729H40.677V14.7917C40.677 16.017 41.6704 17.0104 42.8958 17.0104C44.1211 17.0104 45.1145 16.017 45.1145 14.7917V12.5729H47.3333C48.5586 12.5729 49.552 11.5796 49.552 10.3542C49.552 9.12879 48.5586 8.13542 47.3333 8.13542H45.1145V5.91667Z" fill="#5E7FF3"/>
</svg>
