<svg width="14" height="14" viewBox="0 0 14 14" fill="none" xmlns="http://www.w3.org/2000/svg">
<g clip-path="url(#clip0_6_6218)">
<path d="M5.99998 10.0801V12.0801C5.99739 12.1552 5.96569 12.2265 5.91159 12.2787C5.85748 12.3309 5.78519 12.3601 5.70998 12.3601H3.60998C3.26469 12.3019 2.95211 12.1208 2.72998 11.8501" stroke="#000001" stroke-linecap="round" stroke-linejoin="round"/>
<path d="M2.73 11.8601C2.73 11.8601 1.64 10.9101 4.17 8.38009H5.3L3.61 5.59009H0.5L1.35 6.68009C1.35 6.68009 0.78 6.78009 0.78 7.57009C1.07897 9.13501 1.74753 10.6058 2.73 11.8601V11.8601Z" stroke="#000001" stroke-linecap="round" stroke-linejoin="round"/>
<path d="M10.3501 6.37005L11.8301 5.37005C11.8632 5.35544 11.8989 5.3479 11.9351 5.3479C11.9713 5.3479 12.007 5.35544 12.0401 5.37005C12.0787 5.37456 12.1158 5.38769 12.1487 5.40846C12.1816 5.42923 12.2094 5.45711 12.2301 5.49005L13.3801 7.21005C13.4488 7.34832 13.4846 7.50064 13.4846 7.65505C13.4846 7.80946 13.4488 7.96177 13.3801 8.10005" stroke="#000001" stroke-linecap="round" stroke-linejoin="round"/>
<path d="M13.4201 8C13.4201 8 13.1001 9.3 9.7901 9V8.13L7.8501 10.67L9.6901 13.5L9.7901 12.17C9.7901 12.17 10.1601 12.62 10.7901 12.17C11.8467 10.902 12.731 9.49981 13.4201 8V8Z" stroke="#000001" stroke-linecap="round" stroke-linejoin="round"/>
<path d="M4.34994 4.28L2.99994 3.66C2.93335 3.6256 2.88205 3.56751 2.85614 3.49719C2.83023 3.42686 2.83159 3.34938 2.85994 3.28L3.99994 1C4.0761 0.865012 4.18259 0.749575 4.31102 0.662801C4.43944 0.576028 4.58628 0.520295 4.73994 0.5" stroke="#000001" stroke-linecap="round" stroke-linejoin="round"/>
<path d="M4.73999 0.500103C4.73999 0.500103 5.96999 0.500103 7.52999 3.5001L6.71999 4.5001H10.08L11.27 1.3601L9.86999 1.7901C9.84964 1.57313 9.77107 1.36568 9.64258 1.18966C9.51409 1.01365 9.34044 0.875601 9.13999 0.790103C8.45073 0.561922 7.72512 0.463592 6.99999 0.500103H4.73999Z" stroke="#000001" stroke-linecap="round" stroke-linejoin="round"/>
</g>
<defs>
<clipPath id="clip0_6_6218">
<rect width="14" height="14" fill="white"/>
</clipPath>
</defs>
</svg>
