<svg width="14" height="14" viewBox="0 0 14 14" fill="none" xmlns="http://www.w3.org/2000/svg">
<g clip-path="url(#clip0_6_6296)">
<path d="M9.25 13.5H5.25L4.75 9.5H9.75L9.25 13.5Z" stroke="#000001" stroke-linecap="round" stroke-linejoin="round"/>
<path d="M12.13 6.06983C11.9256 6.24777 11.6871 6.3823 11.4291 6.46526C11.1711 6.54822 10.899 6.57788 10.6291 6.55244C10.3593 6.527 10.0975 6.44699 9.85956 6.31726C9.62161 6.18754 9.41251 6.01081 9.24495 5.7978C9.0774 5.58479 8.95488 5.33995 8.88484 5.07815C8.8148 4.81634 8.7987 4.54304 8.83751 4.27482C8.87633 4.0066 8.96925 3.74907 9.11064 3.51787C9.25203 3.28666 9.43893 3.0866 9.66 2.92983C10.52 2.24983 13.25 2.64983 13.25 2.64983C13.25 2.64983 13 5.38983 12.13 6.06983Z" stroke="#000001" stroke-linecap="round" stroke-linejoin="round"/>
<path d="M9.25 5.64C8.67184 6.11373 8.1963 6.70034 7.85243 7.36401C7.50857 8.02767 7.30358 8.75446 7.25 9.5C7.25 6.5 5.75 4.5 3.25 3" stroke="#000001" stroke-linecap="round" stroke-linejoin="round"/>
<path d="M1.67006 4.9999C2.15967 5.42041 2.79005 5.64048 3.43499 5.61604C4.07994 5.59159 4.69185 5.32444 5.14823 4.86807C5.6046 4.41169 5.87175 3.79978 5.8962 3.15483C5.92064 2.50988 5.70058 1.8795 5.28006 1.38989C4.28006 0.399895 0.750057 0.499895 0.750057 0.499895C0.750057 0.499895 0.670057 3.9999 1.67006 4.9999Z" stroke="#000001" stroke-linecap="round" stroke-linejoin="round"/>
</g>
<defs>
<clipPath id="clip0_6_6296">
<rect width="14" height="14" fill="white"/>
</clipPath>
</defs>
</svg>
