<svg width="14" height="14" viewBox="0 0 14 14" fill="none" xmlns="http://www.w3.org/2000/svg">
<g clip-path="url(#clip0_6_6285)">
<path d="M11.5 7.5L10.64 12.66C10.6017 12.8966 10.4796 13.1116 10.2961 13.2658C10.1125 13.42 9.87969 13.5031 9.64 13.5H4.35C4.11031 13.5031 3.87749 13.42 3.69394 13.2658C3.51039 13.1116 3.38833 12.8966 3.35 12.66L2.5 7.5H11.5Z" stroke="#000001" stroke-linecap="round" stroke-linejoin="round"/>
<path d="M4.00011 0.689941C3.53143 1.05014 3.15224 1.51367 2.89206 2.04443C2.63189 2.57519 2.49775 3.15885 2.50011 3.74994C2.46772 4.71115 2.8181 5.64592 3.47432 6.34901C4.13054 7.0521 5.03896 7.46604 6.00011 7.49994C6.31862 7.49973 6.63536 7.45256 6.94011 7.35994L4.00011 0.689941Z" stroke="#000001" stroke-linecap="round" stroke-linejoin="round"/>
<path d="M10.0001 0.689941C10.4687 1.05014 10.8479 1.51367 11.1081 2.04443C11.3683 2.57519 11.5024 3.15885 11.5001 3.74994C11.5324 4.71115 11.1821 5.64592 10.5258 6.34901C9.86963 7.0521 8.96121 7.46604 8.00006 7.49994C7.68155 7.49973 7.36481 7.45256 7.06006 7.35994L10.0001 0.689941Z" stroke="#000001" stroke-linecap="round" stroke-linejoin="round"/>
<path d="M5 3L7 0.5L9 3" stroke="#000001" stroke-linecap="round" stroke-linejoin="round"/>
</g>
<defs>
<clipPath id="clip0_6_6285">
<rect width="14" height="14" fill="white"/>
</clipPath>
</defs>
</svg>
