<svg width="14" height="14" viewBox="0 0 14 14" fill="none" xmlns="http://www.w3.org/2000/svg">
<g clip-path="url(#clip0_6_6257)">
<path d="M11.51 5.38009C13.51 8.20009 11.98 11.4301 11.24 12.6901C11.1315 12.8663 10.9858 13.0167 10.813 13.1307C10.6403 13.2447 10.4447 13.3196 10.24 13.3501C8.79001 13.6001 5.18001 13.8801 3.24001 11.0601C1.33001 8.40009 1.41001 3.72009 1.58001 1.49009C1.58672 1.32395 1.63278 1.16178 1.71442 1.01692C1.79605 0.87206 1.91092 0.74866 2.04957 0.656877C2.18822 0.565094 2.34669 0.507551 2.51193 0.488987C2.67717 0.470422 2.84445 0.491366 3.00001 0.550094C5.15001 1.17009 9.63001 2.72009 11.51 5.38009Z" stroke="#000001" stroke-linecap="round" stroke-linejoin="round"/>
<path d="M4.77002 4.4502C7.06055 7.14946 9.07087 10.0745 10.77 13.1802" stroke="#000001" stroke-linecap="round" stroke-linejoin="round"/>
</g>
<defs>
<clipPath id="clip0_6_6257">
<rect width="14" height="14" fill="white"/>
</clipPath>
</defs>
</svg>
