<svg width="14" height="14" viewBox="0 0 14 14" fill="none" xmlns="http://www.w3.org/2000/svg">
<g clip-path="url(#clip0_6_6307)">
<path d="M0.5 11.5C0.5 11.5 2.5 9.5 7 9.5C11.5 9.5 13.5 11.5 13.5 11.5" stroke="#000001" stroke-linecap="round" stroke-linejoin="round"/>
<path d="M7 9.5V13.5" stroke="#000001" stroke-linecap="round" stroke-linejoin="round"/>
<path d="M2.5 13.5L6 9.53003" stroke="#000001" stroke-linecap="round" stroke-linejoin="round"/>
<path d="M11.5 13.5L8 9.53003" stroke="#000001" stroke-linecap="round" stroke-linejoin="round"/>
<path d="M3.53999 7.5C3.52475 7.33368 3.52475 7.16632 3.53999 7C3.53999 6.07174 3.90874 5.1815 4.56512 4.52513C5.2215 3.86875 6.11174 3.5 7.03999 3.5C7.96825 3.5 8.85849 3.86875 9.51487 4.52513C10.1712 5.1815 10.54 6.07174 10.54 7C10.5552 7.16632 10.5552 7.33368 10.54 7.5" stroke="#000001" stroke-linecap="round" stroke-linejoin="round"/>
<path d="M0.5 7H1.5" stroke="#000001" stroke-linecap="round" stroke-linejoin="round"/>
<path d="M2.5 2.5L3 3" stroke="#000001" stroke-linecap="round" stroke-linejoin="round"/>
<path d="M7 0.5V1.5" stroke="#000001" stroke-linecap="round" stroke-linejoin="round"/>
<path d="M11.5 2.5L11 3" stroke="#000001" stroke-linecap="round" stroke-linejoin="round"/>
<path d="M13.5 7H12.5" stroke="#000001" stroke-linecap="round" stroke-linejoin="round"/>
</g>
<defs>
<clipPath id="clip0_6_6307">
<rect width="14" height="14" fill="white"/>
</clipPath>
</defs>
</svg>
