<svg width="14" height="14" viewBox="0 0 14 14" fill="none" xmlns="http://www.w3.org/2000/svg">
<g clip-path="url(#clip0_6_6339)">
<path d="M13.5 13.5C13.5 13.5 9.5 11.5 9.5 8.5H4.5C4.5 11.5 0.5 13.5 0.5 13.5" stroke="#000001" stroke-linecap="round" stroke-linejoin="round"/>
<path d="M10.5 5.49995C11.0304 5.49995 11.5391 5.28923 11.9142 4.91416C12.2893 4.53909 12.5 4.03038 12.5 3.49995C12.5 2.96952 12.2893 2.46081 11.9142 2.08573C11.5391 1.71066 11.0304 1.49995 10.5 1.49995C10.0501 1.49972 9.6132 1.65122 9.26 1.92995C9.05753 1.50183 8.73762 1.14003 8.33752 0.886662C7.93742 0.633293 7.47358 0.498779 7 0.498779C6.52642 0.498779 6.06258 0.633293 5.66248 0.886662C5.26238 1.14003 4.94247 1.50183 4.74 1.92995C4.3868 1.65122 3.94993 1.49972 3.5 1.49995C2.96957 1.49995 2.46086 1.71066 2.08579 2.08573C1.71071 2.46081 1.5 2.96952 1.5 3.49995C1.5 4.03038 1.71071 4.53909 2.08579 4.91416C2.46086 5.28923 2.96957 5.49995 3.5 5.49995" stroke="#000001" stroke-linecap="round" stroke-linejoin="round"/>
<path d="M5.5 4.5V8.5" stroke="#000001" stroke-linecap="round" stroke-linejoin="round"/>
<path d="M8.5 4.5V8.5" stroke="#000001" stroke-linecap="round" stroke-linejoin="round"/>
</g>
<defs>
<clipPath id="clip0_6_6339">
<rect width="14" height="14" fill="white"/>
</clipPath>
</defs>
</svg>
