<svg width="14" height="14" viewBox="0 0 14 14" fill="none" xmlns="http://www.w3.org/2000/svg">
<g clip-path="url(#clip0_6_6244)">
<path d="M7 8.75002C7.82843 8.75002 8.5 8.08292 8.5 7.26002C8.5 6.43712 7.82843 5.77002 7 5.77002C6.17157 5.77002 5.5 6.43712 5.5 7.26002C5.5 8.08292 6.17157 8.75002 7 8.75002Z" stroke="#000001" stroke-linecap="round" stroke-linejoin="round"/>
<path d="M13.3699 5.33996C13.1573 4.69318 12.6966 4.15723 12.0892 3.84975C11.4817 3.54227 10.7771 3.4884 10.1299 3.69996C9.89893 3.76542 9.6796 3.86665 9.47992 3.99996C9.54455 3.76877 9.57818 3.53001 9.57992 3.28996C9.57992 2.6057 9.3081 1.94947 8.82426 1.46563C8.34041 0.981782 7.68418 0.709961 6.99992 0.709961C6.31566 0.709961 5.65943 0.981782 5.17559 1.46563C4.69174 1.94947 4.41992 2.6057 4.41992 3.28996C4.42166 3.53001 4.45529 3.76877 4.51992 3.99996C4.32088 3.86314 4.10152 3.75852 3.86992 3.68996C3.55015 3.58556 3.21295 3.54516 2.87757 3.57108C2.54219 3.597 2.2152 3.68872 1.91527 3.84101C1.61533 3.99329 1.34833 4.20317 1.12951 4.45864C0.910684 4.71412 0.744323 5.01019 0.639922 5.32996C0.535521 5.64973 0.495125 5.98693 0.521042 6.32231C0.546958 6.65769 0.638679 6.98468 0.790967 7.28462C0.943255 7.58455 1.15313 7.85155 1.4086 8.07037C1.66408 8.2892 1.96015 8.45556 2.27992 8.55996C2.51414 8.62912 2.75593 8.66942 2.99992 8.67996C2.81354 8.82944 2.64569 9.00066 2.49992 9.18996C2.30082 9.46101 2.15754 9.76891 2.07838 10.0958C1.99922 10.4226 1.98576 10.762 2.03879 11.0941C2.09182 11.4262 2.21027 11.7445 2.38728 12.0304C2.56428 12.3164 2.79632 12.5644 3.06992 12.76C3.62281 13.1595 4.31099 13.3248 4.98503 13.2199C5.65907 13.1151 6.26453 12.7486 6.66992 12.2C6.81059 12.0039 6.92178 11.7883 6.99992 11.56C7.08117 11.7889 7.19574 12.0045 7.33992 12.2C7.74532 12.7486 8.35078 13.1151 9.02481 13.2199C9.69885 13.3248 10.387 13.1595 10.9399 12.76C11.2135 12.5644 11.4456 12.3164 11.6226 12.0304C11.7996 11.7445 11.918 11.4262 11.9711 11.0941C12.0241 10.762 12.0106 10.4226 11.9315 10.0958C11.8523 9.76891 11.709 9.46101 11.5099 9.18996C11.3642 9.00066 11.1963 8.82944 11.0099 8.67996C11.2505 8.66861 11.4889 8.62832 11.7199 8.55996C12.0403 8.45784 12.3374 8.29334 12.5939 8.07595C12.8505 7.85856 13.0616 7.59257 13.2149 7.29328C13.3683 6.994 13.4609 6.66734 13.4875 6.3321C13.5141 5.99687 13.4742 5.65969 13.3699 5.33996V5.33996Z" stroke="#000001" stroke-linecap="round" stroke-linejoin="round"/>
</g>
<defs>
<clipPath id="clip0_6_6244">
<rect width="14" height="14" fill="white"/>
</clipPath>
</defs>
</svg>
