<svg width="14" height="14" viewBox="0 0 14 14" fill="none" xmlns="http://www.w3.org/2000/svg">
<g clip-path="url(#clip0_6_6261)">
<path d="M11.3101 4.15007C11.3101 3.15007 11.3101 2.15007 11.2401 1.49007C11.2406 1.32831 11.2019 1.16885 11.1272 1.02534C11.0526 0.881842 10.9443 0.75859 10.8115 0.666159C10.6788 0.573729 10.5256 0.51488 10.3651 0.49466C10.2046 0.47444 10.0416 0.493454 9.89009 0.550069C7.73009 1.17007 3.32009 2.72007 1.47009 5.38007C-0.529915 8.20007 1.01009 11.4301 1.74009 12.6901C1.84645 12.8682 1.99159 13.02 2.16472 13.1343C2.33785 13.2485 2.53451 13.3223 2.74009 13.3501C3.66086 13.516 4.60131 13.543 5.53009 13.4301" stroke="#000001" stroke-linecap="round" stroke-linejoin="round"/>
<path d="M4.99997 8.58008C3.99328 10.0636 3.06533 11.5991 2.21997 13.1801" stroke="#000001" stroke-linecap="round" stroke-linejoin="round"/>
<path d="M10.67 13.47C10.5601 13.5097 10.4399 13.5097 10.33 13.47C9.49602 13.1396 8.78042 12.5665 8.27586 11.8248C7.7713 11.0831 7.50102 10.207 7.5 9.30999V7.45999C7.50122 7.3965 7.51529 7.33393 7.54136 7.27603C7.56744 7.21814 7.60497 7.16613 7.6517 7.12314C7.69842 7.08015 7.75338 7.04707 7.81324 7.0259C7.8731 7.00474 7.93664 6.99592 8 6.99999H13C13.1212 7.00254 13.2367 7.05182 13.3224 7.13754C13.4082 7.22326 13.4574 7.33879 13.46 7.45999V9.30999C13.4622 10.2024 13.1978 11.0752 12.7007 11.8163C12.2036 12.5575 11.4965 13.1333 10.67 13.47Z" stroke="#000001" stroke-linecap="round" stroke-linejoin="round"/>
</g>
<defs>
<clipPath id="clip0_6_6261">
<rect width="14" height="14" fill="white"/>
</clipPath>
</defs>
</svg>
