<svg width="14" height="14" viewBox="0 0 14 14" fill="none" xmlns="http://www.w3.org/2000/svg">
<g clip-path="url(#clip0_6_6324)">
<path d="M11.57 7.83997C11.6754 8.14202 11.7067 8.46493 11.6615 8.78162C11.6163 9.0983 11.4957 9.39951 11.31 9.65997C11.125 9.91983 10.8805 10.1317 10.5969 10.2778C10.3134 10.4239 9.99897 10.5001 9.67998 10.5H4.31998C4.00099 10.5001 3.68659 10.4239 3.40304 10.2778C3.11948 10.1317 2.875 9.91983 2.68998 9.65997C2.50425 9.39951 2.3837 9.0983 2.33846 8.78162C2.29322 8.46493 2.3246 8.14202 2.42998 7.83997L4.33998 2.38997C4.53384 1.83928 4.89383 1.36233 5.37028 1.02494C5.84674 0.687546 6.41616 0.506348 6.99998 0.506348C7.5838 0.506348 8.15322 0.687546 8.62968 1.02494C9.10613 1.36233 9.46612 1.83928 9.65998 2.38997L11.57 7.83997Z" stroke="#000001" stroke-linecap="round" stroke-linejoin="round"/>
<path d="M5.5 6.5L7 8V13.5" stroke="#000001" stroke-linecap="round" stroke-linejoin="round"/>
<path d="M7 8L8.5 6.5" stroke="#000001" stroke-linecap="round" stroke-linejoin="round"/>
</g>
<defs>
<clipPath id="clip0_6_6324">
<rect width="14" height="14" fill="white"/>
</clipPath>
</defs>
</svg>
