<svg width="14" height="14" viewBox="0 0 14 14" fill="none" xmlns="http://www.w3.org/2000/svg">
<g clip-path="url(#clip0_6_6302)">
<path d="M0.5 10.25C0.5 8.52609 1.18482 6.87279 2.40381 5.65381C3.62279 4.43482 5.27609 3.75 7 3.75C8.72391 3.75 10.3772 4.43482 11.5962 5.65381C12.8152 6.87279 13.5 8.52609 13.5 10.25" stroke="#000001" stroke-linecap="round" stroke-linejoin="round"/>
<path d="M3 10.25C3 9.18913 3.42143 8.17172 4.17157 7.42157C4.92172 6.67143 5.93913 6.25 7 6.25C8.06087 6.25 9.07828 6.67143 9.82843 7.42157C10.5786 8.17172 11 9.18913 11 10.25" stroke="#000001" stroke-linecap="round" stroke-linejoin="round"/>
<path d="M5.5 10.25C5.5 9.85218 5.65804 9.47064 5.93934 9.18934C6.22064 8.90804 6.60218 8.75 7 8.75C7.39782 8.75 7.77936 8.90804 8.06066 9.18934C8.34196 9.47064 8.5 9.85218 8.5 10.25" stroke="#000001" stroke-linecap="round" stroke-linejoin="round"/>
</g>
<defs>
<clipPath id="clip0_6_6302">
<rect width="14" height="14" fill="white"/>
</clipPath>
</defs>
</svg>
