<svg width="14" height="14" viewBox="0 0 14 14" fill="none" xmlns="http://www.w3.org/2000/svg">
<g clip-path="url(#clip0_6_6280)">
<path d="M9 13.5H5L4 9.5H10L9 13.5Z" stroke="#000001" stroke-linecap="round" stroke-linejoin="round"/>
<path d="M10.3099 2.88996C10.2585 2.72089 10.1742 2.56365 10.0619 2.42729C9.94948 2.29093 9.81123 2.17814 9.65509 2.09542C9.49894 2.0127 9.32798 1.96168 9.15204 1.9453C8.9761 1.92892 8.79865 1.94749 8.62992 1.99996C8.50827 2.0382 8.3935 2.09559 8.28992 2.16996C8.32193 2.04919 8.33873 1.9249 8.33992 1.79996C8.33992 1.44457 8.19874 1.10374 7.94744 0.852438C7.69614 0.601139 7.35531 0.459961 6.99992 0.459961C6.64453 0.459961 6.30369 0.601139 6.05239 0.852438C5.8011 1.10374 5.65992 1.44457 5.65992 1.79996C5.64465 1.92282 5.64465 2.0471 5.65992 2.16996C5.57171 2.09997 5.47408 2.04274 5.36992 1.99996C5.03307 1.89273 4.6675 1.92294 4.35283 2.08402C4.03816 2.2451 3.79989 2.524 3.68992 2.85996C3.6356 3.02604 3.61479 3.20125 3.6287 3.37544C3.64262 3.54962 3.69098 3.71931 3.77098 3.87465C3.85098 4.03 3.96103 4.16792 4.09474 4.28041C4.22845 4.3929 4.38317 4.47773 4.54992 4.52996C4.66914 4.57006 4.79413 4.59033 4.91992 4.58996C4.75486 4.72061 4.62291 4.88831 4.53475 5.07947C4.44659 5.27063 4.40471 5.47987 4.41251 5.69024C4.4203 5.9006 4.47754 6.10617 4.5796 6.29028C4.68165 6.4744 4.82565 6.63188 4.99992 6.74996C5.28775 6.95795 5.64637 7.04317 5.997 6.98692C6.34763 6.93067 6.66159 6.73754 6.86992 6.44996C6.93148 6.34804 6.97543 6.23648 6.99992 6.11996C7.03978 6.23981 7.10074 6.35156 7.17992 6.44996C7.38825 6.73754 7.70221 6.93067 8.05284 6.98692C8.40347 7.04317 8.76209 6.95795 9.04992 6.74996C9.2137 6.6249 9.34642 6.46375 9.43778 6.27903C9.52914 6.09432 9.57667 5.89103 9.57667 5.68496C9.57667 5.47889 9.52914 5.2756 9.43778 5.09089C9.34642 4.90618 9.2137 4.74502 9.04992 4.61996C9.1757 4.62033 9.3007 4.60006 9.41992 4.55996C9.58936 4.51088 9.74725 4.42833 9.88425 4.31719C10.0213 4.20605 10.1346 4.06858 10.2176 3.91289C10.3005 3.75721 10.3514 3.58648 10.3673 3.41078C10.3832 3.23508 10.3637 3.05799 10.3099 2.88996V2.88996Z" stroke="#000001" stroke-linecap="round" stroke-linejoin="round"/>
<path d="M7 6.11987V9.49987" stroke="#000001" stroke-linecap="round" stroke-linejoin="round"/>
</g>
<defs>
<clipPath id="clip0_6_6280">
<rect width="14" height="14" fill="white"/>
</clipPath>
</defs>
</svg>
