<svg width="14" height="14" viewBox="0 0 14 14" fill="none" xmlns="http://www.w3.org/2000/svg">
<g clip-path="url(#clip0_6_6334)">
<path d="M10.5001 3.49995C10.3739 2.67269 9.95555 1.91801 9.32079 1.37271C8.68603 0.827413 7.8769 0.527588 7.04008 0.527588C6.20326 0.527588 5.39413 0.827413 4.75937 1.37271C4.12461 1.91801 3.70623 2.67269 3.58008 3.49995C2.78443 3.49995 2.02137 3.81602 1.45876 4.37863C0.896149 4.94124 0.580078 5.7043 0.580078 6.49995C0.580078 7.2956 0.896149 8.05866 1.45876 8.62127C2.02137 9.18388 2.78443 9.49995 3.58008 9.49995C3.95381 9.50367 4.32448 9.43225 4.67008 9.28995C4.94912 9.66636 5.31245 9.97218 5.73096 10.1829C6.14947 10.3936 6.61152 10.5034 7.08008 10.5034C7.54864 10.5034 8.01069 10.3936 8.4292 10.1829C8.8477 9.97218 9.21104 9.66636 9.49008 9.28995C9.83568 9.43225 10.2063 9.50367 10.5801 9.49995C11.3757 9.49995 12.1388 9.18388 12.7014 8.62127C13.264 8.05866 13.5801 7.2956 13.5801 6.49995C13.5801 5.7043 13.264 4.94124 12.7014 4.37863C12.1388 3.81602 11.3757 3.49995 10.5801 3.49995H10.5001Z" stroke="#000001" stroke-linecap="round" stroke-linejoin="round"/>
<path d="M5.5 6.5L7 8V13.5" stroke="#000001" stroke-linecap="round" stroke-linejoin="round"/>
<path d="M7 8L8.5 6.5" stroke="#000001" stroke-linecap="round" stroke-linejoin="round"/>
</g>
<defs>
<clipPath id="clip0_6_6334">
<rect width="14" height="14" fill="white"/>
</clipPath>
</defs>
</svg>
