<svg width="17" height="17" viewBox="0 0 17 17" fill="none" xmlns="http://www.w3.org/2000/svg">
<path fill-rule="evenodd" clip-rule="evenodd" d="M6.23222 0.198969C7.33447 -0.0512433 8.47722 -0.0650457 9.58519 0.158472C10.6932 0.381989 11.7412 0.837752 12.6602 1.49573C13.5793 2.15371 14.3484 2.99896 14.9171 3.9758C15.4857 4.95264 15.8409 6.03889 15.9592 7.16297C15.98 7.36082 15.9214 7.55884 15.7962 7.71346C15.671 7.86809 15.4896 7.96665 15.2917 7.98747C15.0939 8.00829 14.8958 7.94966 14.7412 7.82448C14.5866 7.6993 14.488 7.51782 14.4672 7.31997C14.3387 6.09859 13.8667 4.93863 13.1061 3.97443C12.3454 3.01023 11.3271 2.28127 10.1692 1.87196C9.0113 1.46266 7.76113 1.38977 6.5635 1.66174C5.36587 1.93371 4.26979 2.5394 3.40223 3.40867C2.53466 4.27794 1.93112 5.3752 1.6615 6.57336C1.39188 7.77152 1.46722 9.02155 1.87879 10.1787C2.29037 11.3358 3.02133 12.3526 3.98702 13.1114C4.9527 13.8701 6.11359 14.3398 7.33522 14.466C7.4339 14.4752 7.52979 14.5038 7.61733 14.5503C7.70487 14.5968 7.78233 14.6602 7.84523 14.7368C7.90812 14.8134 7.95522 14.9017 7.98378 14.9966C8.01234 15.0915 8.02181 15.1911 8.01163 15.2897C8.00145 15.3883 7.97184 15.4839 7.92449 15.571C7.87714 15.6581 7.81301 15.7349 7.73579 15.797C7.65857 15.8592 7.5698 15.9054 7.47461 15.933C7.37942 15.9606 7.2797 15.9691 7.18122 15.958C5.29413 15.7638 3.53745 14.9054 2.22472 13.5359C0.911995 12.1664 0.128648 10.3749 0.0145027 8.48134C-0.0996424 6.58773 0.462843 4.71518 1.60156 3.19791C2.74028 1.68064 4.38112 0.617404 6.23122 0.197969L6.23222 0.198969ZM11.2832 10.219C11.214 10.1474 11.1312 10.0903 11.0397 10.051C10.9482 10.0117 10.8497 9.9911 10.7502 9.99029C10.6506 9.98947 10.5518 10.0085 10.4597 10.0462C10.3675 10.084 10.2838 10.1397 10.2134 10.2102C10.143 10.2806 10.0874 10.3644 10.0497 10.4566C10.012 10.5488 9.99312 10.6475 9.99403 10.7471C9.99494 10.8467 10.0157 10.9451 10.055 11.0366C10.0944 11.1281 10.1516 11.2108 10.2232 11.28L11.9432 13L10.2232 14.72C10.1495 14.7886 10.0904 14.8714 10.0494 14.9634C10.0084 15.0554 9.9864 15.1547 9.98463 15.2554C9.98285 15.3562 10.0014 15.4562 10.0391 15.5496C10.0768 15.643 10.133 15.7278 10.2042 15.799C10.2754 15.8702 10.3602 15.9264 10.4536 15.9641C10.547 16.0018 10.647 16.0203 10.7477 16.0186C10.8484 16.0168 10.9478 15.9947 11.0398 15.9538C11.1318 15.9128 11.2146 15.8537 11.2832 15.78L13.0032 14.06L14.7232 15.78C14.7919 15.8537 14.8747 15.9128 14.9667 15.9538C15.0587 15.9947 15.158 16.0168 15.2587 16.0186C15.3594 16.0203 15.4594 16.0018 15.5528 15.9641C15.6462 15.9264 15.731 15.8702 15.8023 15.799C15.8735 15.7278 15.9296 15.643 15.9673 15.5496C16.0051 15.4562 16.0236 15.3562 16.0218 15.2554C16.02 15.1547 15.998 15.0554 15.957 14.9634C15.916 14.8714 15.8569 14.7886 15.7832 14.72L14.0632 13L15.7832 11.28C15.8569 11.2113 15.916 11.1285 15.957 11.0365C15.998 10.9445 16.02 10.8452 16.0218 10.7445C16.0236 10.6438 16.0051 10.5438 15.9673 10.4504C15.9296 10.357 15.8735 10.2722 15.8023 10.2009C15.731 10.1297 15.6462 10.0736 15.5528 10.0358C15.4594 9.99813 15.3594 9.9796 15.2587 9.98138C15.158 9.98315 15.0587 10.0052 14.9667 10.0462C14.8747 10.0872 14.7919 10.1463 14.7232 10.22L13.0032 11.94L11.2832 10.219ZM11.5332 6.27997C11.6657 6.13779 11.7378 5.94975 11.7344 5.75545C11.731 5.56115 11.6523 5.37576 11.5148 5.23835C11.3774 5.10093 11.192 5.02222 10.9977 5.01879C10.8034 5.01537 10.6154 5.08749 10.4732 5.21997L6.50322 9.18997L5.28322 7.96997C5.14104 7.83749 4.953 7.76537 4.7587 7.76879C4.56439 7.77222 4.37901 7.85093 4.2416 7.98835C4.10418 8.12576 4.02547 8.31115 4.02204 8.50545C4.01861 8.69975 4.09074 8.88779 4.22322 9.02997L5.97322 10.78C6.11384 10.9204 6.30447 10.9993 6.50322 10.9993C6.70197 10.9993 6.89259 10.9204 7.03322 10.78L11.5332 6.27997Z" fill="black"/>
</svg>
