<svg width="14" height="14" viewBox="0 0 14 14" fill="none" xmlns="http://www.w3.org/2000/svg">
<g clip-path="url(#clip0_6_6401)">
<path d="M3.39004 10.61H1.94004C1.57756 10.5799 1.23966 10.4145 0.993358 10.1469C0.747058 9.87923 0.610352 9.52878 0.610352 9.16504C0.610352 8.8013 0.747058 8.45085 0.993358 8.18319C1.23966 7.91553 1.57756 7.75022 1.94004 7.72004H4.24004L5.72004 6.24004L1.66004 3.74004C1.34748 3.54682 1.11993 3.24214 1.02341 2.88758C0.926878 2.53302 0.968564 2.15504 1.14004 1.83004C1.21574 1.64404 1.32874 1.47553 1.47207 1.33489C1.61541 1.19425 1.78604 1.08447 1.97344 1.01232C2.16084 0.94017 2.36104 0.907182 2.56168 0.915389C2.76232 0.923597 2.95916 0.972826 3.14004 1.06004L8.44004 3.51004L11 0.92004C11.2759 0.644215 11.65 0.489258 12.04 0.489258C12.4301 0.489258 12.8042 0.644215 13.08 0.92004C13.3559 1.19587 13.5108 1.56996 13.5108 1.96004C13.5108 2.35012 13.3559 2.72421 13.08 3.00004L10.49 5.56004L12.94 10.91C13.0206 11.0882 13.0646 11.2807 13.0694 11.4762C13.0742 11.6717 13.0396 11.8661 12.9678 12.048C12.896 12.2299 12.7883 12.3955 12.6513 12.535C12.5143 12.6745 12.3506 12.785 12.17 12.86C11.845 13.0315 11.4671 13.0732 11.1125 12.9767C10.7579 12.8801 10.4533 12.6526 10.26 12.34L7.76004 8.28004L6.28004 9.76004V12.06C6.24986 12.4225 6.08455 12.7604 5.81689 13.0067C5.54923 13.253 5.19878 13.3897 4.83504 13.3897C4.4713 13.3897 4.12085 13.253 3.85319 13.0067C3.58553 12.7604 3.42022 12.4225 3.39004 12.06V10.61Z" stroke="#000001" stroke-linecap="round" stroke-linejoin="round"/>
</g>
<defs>
<clipPath id="clip0_6_6401">
<rect width="14" height="14" fill="white"/>
</clipPath>
</defs>
</svg>
