<svg width="14" height="14" viewBox="0 0 14 14" fill="none" xmlns="http://www.w3.org/2000/svg">
<g clip-path="url(#clip0_6_6379)">
<path d="M8.75991 12.9999C9.37573 13.3972 10.1096 13.5704 10.838 13.4902C11.5665 13.4101 12.2452 13.0816 12.7599 12.5599L13.2099 12.1199C13.4072 11.9182 13.5177 11.6472 13.5177 11.3649C13.5177 11.0827 13.4072 10.8117 13.2099 10.6099L11.2999 8.71994C11.0998 8.52329 10.8305 8.4131 10.5499 8.4131C10.2693 8.4131 10 8.52329 9.79991 8.71994V8.71994C9.59811 8.91723 9.32712 9.02769 9.04491 9.02769C8.7627 9.02769 8.4917 8.91723 8.28991 8.71994L5.28991 5.71994C5.18983 5.62132 5.11036 5.50378 5.05611 5.37417C5.00187 5.24456 4.97393 5.10545 4.97393 4.96494C4.97393 4.82444 5.00187 4.68533 5.05611 4.55572C5.11036 4.4261 5.18983 4.30857 5.28991 4.20994V4.20994C5.48656 4.00984 5.59676 3.7405 5.59676 3.45994C5.59676 3.17938 5.48656 2.91005 5.28991 2.70994L3.38991 0.809944C3.18811 0.612659 2.91711 0.502197 2.63491 0.502197C2.3527 0.502197 2.0817 0.612659 1.87991 0.809944L1.43991 1.25994C0.918252 1.77469 0.589741 2.45335 0.50961 3.18181C0.429479 3.91028 0.602615 4.64412 0.999906 5.25994C3.06995 8.31068 5.70384 10.9378 8.75991 12.9999V12.9999Z" stroke="#000001" stroke-linecap="round" stroke-linejoin="round"/>
</g>
<defs>
<clipPath id="clip0_6_6379">
<rect width="14" height="14" fill="white"/>
</clipPath>
</defs>
</svg>
