<svg width="14" height="14" viewBox="0 0 14 14" fill="none" xmlns="http://www.w3.org/2000/svg">
<g clip-path="url(#clip0_6_5490)">
<path d="M7 12.5C9.48528 12.5 11.5 10.4853 11.5 8C11.5 5.51472 9.48528 3.5 7 3.5C4.51472 3.5 2.5 5.51472 2.5 8C2.5 10.4853 4.51472 12.5 7 12.5Z" stroke="#000001" stroke-linecap="round" stroke-linejoin="round"/>
<path d="M2.5 8H0.5" stroke="#000001" stroke-linecap="round" stroke-linejoin="round"/>
<path d="M0.5 11.5C0.998979 11.5015 1.49237 11.395 1.94633 11.1879C2.40029 10.9807 2.80408 10.6779 3.13 10.3" stroke="#000001" stroke-linecap="round" stroke-linejoin="round"/>
<path d="M3.13 5.70001C2.80408 5.32218 2.40029 5.01931 1.94633 4.81218C1.49237 4.60505 0.998979 4.49856 0.5 4.50001" stroke="#000001" stroke-linecap="round" stroke-linejoin="round"/>
<path d="M11.5 8H13.5" stroke="#000001" stroke-linecap="round" stroke-linejoin="round"/>
<path d="M13.5001 11.5C13.0011 11.5015 12.5077 11.395 12.0538 11.1879C11.5998 10.9807 11.196 10.6779 10.8701 10.3" stroke="#000001" stroke-linecap="round" stroke-linejoin="round"/>
<path d="M10.8701 5.70001C11.196 5.32218 11.5998 5.01931 12.0538 4.81218C12.5077 4.60505 13.0011 4.49856 13.5001 4.50001" stroke="#000001" stroke-linecap="round" stroke-linejoin="round"/>
<path d="M8.23999 3.67C8.62263 3.45143 8.94069 3.13561 9.16196 2.75453C9.38323 2.37345 9.49985 1.94066 9.49999 1.5" stroke="#000001" stroke-linecap="round" stroke-linejoin="round"/>
<path d="M4.5 1.5C4.50014 1.94066 4.61676 2.37345 4.83803 2.75453C5.0593 3.13561 5.37736 3.45143 5.76 3.67" stroke="#000001" stroke-linecap="round" stroke-linejoin="round"/>
<path d="M2.61011 7H11.3901" stroke="#000001" stroke-linecap="round" stroke-linejoin="round"/>
</g>
<defs>
<clipPath id="clip0_6_5490">
<rect width="14" height="14" fill="white"/>
</clipPath>
</defs>
</svg>
