<svg width="14" height="14" viewBox="0 0 14 14" fill="none" xmlns="http://www.w3.org/2000/svg">
<g clip-path="url(#clip0_6_5361)">
<path d="M6.44002 13.4999C7.63848 13.4999 8.61002 12.5284 8.61002 11.3299C8.61002 10.1315 7.63848 9.15991 6.44002 9.15991C5.24156 9.15991 4.27002 10.1315 4.27002 11.3299C4.27002 12.5284 5.24156 13.4999 6.44002 13.4999Z" stroke="#000001" stroke-linecap="round" stroke-linejoin="round"/>
<path d="M8 9.80011L11.86 5.94011C11.8934 5.90655 11.9332 5.87992 11.9769 5.86175C12.0207 5.84358 12.0676 5.83423 12.115 5.83423C12.1624 5.83423 12.2093 5.84358 12.2531 5.86175C12.2968 5.87992 12.3366 5.90655 12.37 5.94011L13.5 7.09011" stroke="#000001" stroke-linecap="round" stroke-linejoin="round"/>
<path d="M10.45 7.37012L11.47 8.39012" stroke="#000001" stroke-linecap="round" stroke-linejoin="round"/>
<path d="M2 12.5H1.5C1.23478 12.5 0.98043 12.3946 0.792893 12.2071C0.605357 12.0196 0.5 11.7652 0.5 11.5V1.5C0.5 1.23478 0.605357 0.98043 0.792893 0.792893C0.98043 0.605357 1.23478 0.5 1.5 0.5H12.5C12.7652 0.5 13.0196 0.605357 13.2071 0.792893C13.3946 0.98043 13.5 1.23478 13.5 1.5V4" stroke="#000001" stroke-linecap="round" stroke-linejoin="round"/>
<path d="M0.5 3.5H13.5" stroke="#000001" stroke-linecap="round" stroke-linejoin="round"/>
</g>
<defs>
<clipPath id="clip0_6_5361">
<rect width="14" height="14" fill="white"/>
</clipPath>
</defs>
</svg>
