<svg width="14" height="14" viewBox="0 0 14 14" fill="none" xmlns="http://www.w3.org/2000/svg">
<g clip-path="url(#clip0_6_5348)">
<path d="M1.5 13.5C1.23478 13.5 0.98043 13.3946 0.792893 13.2071C0.605357 13.0196 0.5 12.7652 0.5 12.5V1.5C0.5 1.23478 0.605357 0.98043 0.792893 0.792893C0.98043 0.605357 1.23478 0.5 1.5 0.5H12.5C12.7652 0.5 13.0196 0.605357 13.2071 0.792893C13.3946 0.98043 13.5 1.23478 13.5 1.5V12.5C13.5 12.7652 13.3946 13.0196 13.2071 13.2071C13.0196 13.3946 12.7652 13.5 12.5 13.5" stroke="#000001" stroke-linecap="round" stroke-linejoin="round"/>
<path d="M0.5 3.5H13.5" stroke="#000001" stroke-linecap="round" stroke-linejoin="round"/>
<path d="M6.45 7.37011C6.49305 7.25924 6.5686 7.16396 6.66675 7.09678C6.7649 7.0296 6.88106 6.99365 7 6.99365C7.11894 6.99365 7.2351 7.0296 7.33325 7.09678C7.4314 7.16396 7.50695 7.25924 7.55 7.37011L8.19 9.00011H9.9C10.0118 9.00864 10.119 9.04834 10.2094 9.1147C10.2998 9.18106 10.3698 9.27142 10.4114 9.37554C10.4531 9.47966 10.4647 9.59336 10.445 9.70376C10.4253 9.81415 10.3751 9.91682 10.3 10.0001L8.79 11.3601L9.43 12.6401C9.48794 12.7525 9.50757 12.8807 9.4859 13.0053C9.46424 13.1298 9.40247 13.2439 9.31 13.3301C9.21816 13.4174 9.10141 13.474 8.97597 13.4919C8.85053 13.5098 8.72261 13.4882 8.61 13.4301L7 12.5501L5.39 13.4301C5.27739 13.4882 5.14948 13.5098 5.02403 13.4919C4.89859 13.474 4.78184 13.4174 4.69 13.3301C4.59753 13.2439 4.53576 13.1298 4.5141 13.0053C4.49244 12.8807 4.51207 12.7525 4.57 12.6401L5.21 11.3601L3.7 10.0001C3.62492 9.91682 3.57468 9.81415 3.55498 9.70376C3.53529 9.59336 3.54692 9.47966 3.58857 9.37554C3.63022 9.27142 3.70021 9.18106 3.79061 9.1147C3.881 9.04834 3.98819 9.00864 4.1 9.00011H5.81L6.45 7.37011Z" stroke="#000001" stroke-linecap="round" stroke-linejoin="round"/>
</g>
<defs>
<clipPath id="clip0_6_5348">
<rect width="14" height="14" fill="white"/>
</clipPath>
</defs>
</svg>
