<svg width="14" height="14" viewBox="0 0 14 14" fill="none" xmlns="http://www.w3.org/2000/svg">
<g clip-path="url(#clip0_6_5461)">
<path d="M12.0002 8.09997C12.3717 7.88565 12.6928 7.5942 12.9421 7.24524C13.1914 6.89629 13.3629 6.49796 13.4452 6.07709C13.5275 5.65622 13.5186 5.22261 13.4191 4.80547C13.3196 4.38834 13.1318 3.99738 12.8684 3.65896C12.6051 3.32053 12.2722 3.04251 11.8923 2.84362C11.5123 2.64474 11.0942 2.52962 10.666 2.50602C10.2378 2.48243 9.80955 2.5509 9.41007 2.70684C9.01059 2.86277 8.64918 3.10253 8.35021 3.40997C8.18901 2.83956 7.90304 2.3121 7.513 1.86575C7.12296 1.4194 6.6386 1.06532 6.09494 0.829114C5.55128 0.592907 4.96192 0.48048 4.36949 0.499965C3.77706 0.51945 3.19636 0.670359 2.66939 0.941779C2.14243 1.2132 1.68238 1.59834 1.32251 2.06935C0.962643 2.54037 0.711956 3.08547 0.58858 3.66525C0.465204 4.24502 0.472225 4.84496 0.609135 5.42169C0.746044 5.99842 1.00942 6.53751 1.38021 6.99997" stroke="#000001" stroke-linecap="round" stroke-linejoin="round"/>
<path d="M3.5 9.5L5.5 7.5V13.5" stroke="#000001" stroke-linecap="round" stroke-linejoin="round"/>
<path d="M10.5 11.5L8.5 13.5V7.5" stroke="#000001" stroke-linecap="round" stroke-linejoin="round"/>
</g>
<defs>
<clipPath id="clip0_6_5461">
<rect width="14" height="14" fill="white"/>
</clipPath>
</defs>
</svg>
