<svg width="14" height="14" viewBox="0 0 14 14" fill="none" xmlns="http://www.w3.org/2000/svg">
<g clip-path="url(#clip0_6_5456)">
<path d="M10.5001 8.5C10.9954 8.50036 11.4831 8.37808 11.9196 8.14407C12.3562 7.91007 12.728 7.57161 13.0019 7.15893C13.2758 6.74624 13.4432 6.27216 13.4893 5.779C13.5353 5.28584 13.4586 4.78895 13.2658 4.33268C13.0731 3.8764 12.7704 3.47495 12.3848 3.16415C11.9991 2.85334 11.5425 2.64286 11.0557 2.55149C10.5689 2.46012 10.067 2.4907 9.59493 2.6405C9.12283 2.79031 8.69515 3.05467 8.35009 3.41C8.14732 2.69405 7.74886 2.04885 7.1995 1.54693C6.65015 1.04502 5.97168 0.706297 5.24037 0.56884C4.50906 0.431384 3.7539 0.500644 3.0598 0.768836C2.3657 1.03703 1.76016 1.49352 1.31127 2.08698C0.86238 2.68045 0.587931 3.38737 0.518778 4.12827C0.449624 4.86916 0.588508 5.61466 0.919815 6.28095C1.25112 6.94724 1.76172 7.5079 2.3942 7.89992C3.02668 8.29193 3.75597 8.49974 4.50009 8.5" stroke="#000001" stroke-linecap="round" stroke-linejoin="round"/>
<path d="M10 11H5" stroke="#000001" stroke-linecap="round" stroke-linejoin="round"/>
<path d="M7.5 8.5V13.5" stroke="#000001" stroke-linecap="round" stroke-linejoin="round"/>
</g>
<defs>
<clipPath id="clip0_6_5456">
<rect width="14" height="14" fill="white"/>
</clipPath>
</defs>
</svg>
