<svg width="14" height="14" viewBox="0 0 14 14" fill="none" xmlns="http://www.w3.org/2000/svg">
<g clip-path="url(#clip0_6_5454)">
<path d="M10.5001 11C10.9954 11.0004 11.4831 10.8781 11.9196 10.6441C12.3562 10.4101 12.728 10.0716 13.0019 9.65893C13.2758 9.24624 13.4432 8.77216 13.4893 8.279C13.5353 7.78584 13.4586 7.28895 13.2658 6.83268C13.0731 6.3764 12.7704 5.97495 12.3848 5.66415C11.9991 5.35334 11.5425 5.14286 11.0557 5.05149C10.5689 4.96012 10.067 4.9907 9.59493 5.1405C9.12283 5.29031 8.69515 5.55467 8.35009 5.91C8.14732 5.19405 7.74886 4.54885 7.1995 4.04693C6.65015 3.54502 5.97168 3.2063 5.24037 3.06884C4.50906 2.93138 3.7539 3.00064 3.0598 3.26884C2.3657 3.53703 1.76016 3.99352 1.31127 4.58698C0.86238 5.18045 0.587931 5.88737 0.518778 6.62827C0.449624 7.36916 0.588508 8.11466 0.919815 8.78095C1.25112 9.44724 1.76172 10.0079 2.3942 10.3999C3.02668 10.7919 3.75597 10.9997 4.50009 11H10.5001Z" stroke="#000001" stroke-linecap="round" stroke-linejoin="round"/>
</g>
<defs>
<clipPath id="clip0_6_5454">
<rect width="14" height="14" fill="white"/>
</clipPath>
</defs>
</svg>
