<svg width="14" height="14" viewBox="0 0 14 14" fill="none" xmlns="http://www.w3.org/2000/svg">
<g clip-path="url(#clip0_6_5471)">
<path d="M2.16992 3.16994C2.70198 2.81454 3.31016 2.58926 3.94535 2.51229C4.58054 2.43533 5.22493 2.50883 5.82647 2.72686C6.42801 2.9449 6.96984 3.30135 7.4082 3.76744C7.84656 4.23352 8.16915 4.79617 8.34992 5.40994C8.69246 5.05764 9.11628 4.79488 9.58415 4.64474C10.052 4.4946 10.5496 4.46168 11.0332 4.54887C11.5167 4.63606 11.9715 4.8407 12.3574 5.14479C12.7434 5.44888 13.0488 5.84312 13.2467 6.29286C13.4446 6.74261 13.529 7.23408 13.4925 7.72409C13.456 8.21409 13.2997 8.68764 13.0374 9.1031C12.775 9.51855 12.4146 9.86321 11.9879 10.1068C11.5611 10.3503 11.0811 10.4853 10.5899 10.4999L9.58992 10.5499" stroke="#000001" stroke-linecap="round" stroke-linejoin="round"/>
<path d="M0.750008 5.1001C0.583719 5.54809 0.499048 6.02224 0.500008 6.5001C0.500008 7.56096 0.921436 8.57838 1.67158 9.32853C2.42173 10.0787 3.43914 10.5001 4.50001 10.5001H6.00001" stroke="#000001" stroke-linecap="round" stroke-linejoin="round"/>
<path d="M0.5 1.5L11.5 12.5" stroke="#000001" stroke-linecap="round" stroke-linejoin="round"/>
</g>
<defs>
<clipPath id="clip0_6_5471">
<rect width="14" height="14" fill="white"/>
</clipPath>
</defs>
</svg>
