<svg width="14" height="14" viewBox="0 0 14 14" fill="none" xmlns="http://www.w3.org/2000/svg">
<g clip-path="url(#clip0_6_5402)">
<path d="M3.5 10.5V2.5C3.5 1.96957 3.71071 1.46086 4.08579 1.08579C4.46086 0.710714 4.96957 0.5 5.5 0.5H11.75" stroke="#000001" stroke-linecap="round" stroke-linejoin="round"/>
<path d="M10 3.5V11.5C10 12.0304 9.78929 12.5391 9.41421 12.9142C9.03914 13.2893 8.53043 13.5 8 13.5" stroke="#000001" stroke-linecap="round" stroke-linejoin="round"/>
<path d="M6 11.5V11C6 10.8674 5.94732 10.7402 5.85355 10.6464C5.75979 10.5527 5.63261 10.5 5.5 10.5H1C0.867392 10.5 0.740215 10.5527 0.646447 10.6464C0.552678 10.7402 0.5 10.8674 0.5 11V11.5C0.5 12.0304 0.710714 12.5391 1.08579 12.9142C1.46086 13.2893 1.96957 13.5 2.5 13.5H8C7.46957 13.5 6.96086 13.2893 6.58579 12.9142C6.21071 12.5391 6 12.0304 6 11.5Z" stroke="#000001" stroke-linecap="round" stroke-linejoin="round"/>
<path d="M11.75 0.5C12.2141 0.5 12.6592 0.684374 12.9874 1.01256C13.3156 1.34075 13.5 1.78587 13.5 2.25V3C13.5 3.13261 13.4473 3.25979 13.3536 3.35355C13.2598 3.44732 13.1326 3.5 13 3.5H10V2.25C10 1.78587 10.1844 1.34075 10.5126 1.01256C10.8408 0.684374 11.2859 0.5 11.75 0.5V0.5Z" stroke="#000001" stroke-linecap="round" stroke-linejoin="round"/>
<path d="M6 4H7.5" stroke="#000001" stroke-linecap="round" stroke-linejoin="round"/>
<path d="M6 7H7.5" stroke="#000001" stroke-linecap="round" stroke-linejoin="round"/>
</g>
<defs>
<clipPath id="clip0_6_5402">
<rect width="14" height="14" fill="white"/>
</clipPath>
</defs>
</svg>
