<svg width="14" height="14" viewBox="0 0 14 14" fill="none" xmlns="http://www.w3.org/2000/svg">
<g clip-path="url(#clip0_6_5343)">
<path d="M12.5 0.5H1.5C0.947715 0.5 0.5 0.947715 0.5 1.5V12.5C0.5 13.0523 0.947715 13.5 1.5 13.5H12.5C13.0523 13.5 13.5 13.0523 13.5 12.5V1.5C13.5 0.947715 13.0523 0.5 12.5 0.5Z" stroke="#000001" stroke-linecap="round" stroke-linejoin="round"/>
<path d="M0.5 3.5H13.5" stroke="#000001" stroke-linecap="round" stroke-linejoin="round"/>
<path d="M7 7.49988C8 5.49988 10 6.49988 10 7.99988C10 9.99988 7 10.9999 7 10.9999C7 10.9999 4 9.99988 4 7.99988C4 6.49988 6 5.49988 7 7.49988Z" stroke="#000001" stroke-linecap="round" stroke-linejoin="round"/>
</g>
<defs>
<clipPath id="clip0_6_5343">
<rect width="14" height="14" fill="white"/>
</clipPath>
</defs>
</svg>
