<svg width="14" height="14" viewBox="0 0 14 14" fill="none" xmlns="http://www.w3.org/2000/svg">
<g clip-path="url(#clip0_6_5480)">
<path d="M6.5 7.5V13.5" stroke="#000001" stroke-linecap="round" stroke-linejoin="round"/>
<path d="M4.5 9.5L6.5 7.5L8.5 9.5" stroke="#000001" stroke-linecap="round" stroke-linejoin="round"/>
<path d="M12 8.10001C12.3714 7.8857 12.6926 7.59424 12.9419 7.24529C13.1911 6.89633 13.3627 6.498 13.445 6.07713C13.5273 5.65626 13.5184 5.22265 13.4189 4.80551C13.3194 4.38838 13.1316 3.99742 12.8682 3.659C12.6049 3.32058 12.272 3.04255 11.8921 2.84367C11.5121 2.64478 11.094 2.52966 10.6658 2.50606C10.2376 2.48247 9.80934 2.55095 9.40986 2.70688C9.01038 2.86281 8.64897 3.10258 8.35 3.41001C8.08784 2.47985 7.49778 1.67604 6.68892 1.1472C5.88006 0.618353 4.90708 0.400225 3.94986 0.533139C2.99264 0.666052 2.11591 1.14102 1.48173 1.87024C0.847555 2.59945 0.498823 3.53361 0.500003 4.50001C0.500712 5.40913 0.811092 6.29089 1.38 7.00001" stroke="#000001" stroke-linecap="round" stroke-linejoin="round"/>
</g>
<defs>
<clipPath id="clip0_6_5480">
<rect width="14" height="14" fill="white"/>
</clipPath>
</defs>
</svg>
