<svg width="14" height="14" viewBox="0 0 14 14" fill="none" xmlns="http://www.w3.org/2000/svg">
<g clip-path="url(#clip0_6_5444)">
<path d="M2.12988 13.3801C2.95831 13.3801 3.62988 12.7086 3.62988 11.8801C3.62988 11.0517 2.95831 10.3801 2.12988 10.3801C1.30146 10.3801 0.629883 11.0517 0.629883 11.8801C0.629883 12.7086 1.30146 13.3801 2.12988 13.3801Z" stroke="#000001" stroke-linecap="round" stroke-linejoin="round"/>
<path d="M13.3799 12.1201C13.3799 10.6099 13.0824 9.1145 12.5045 7.71926C11.9266 6.32401 11.0795 5.05626 10.0116 3.98839C8.94374 2.92052 7.67599 2.07343 6.28074 1.4955C4.8855 0.917574 3.39008 0.620117 1.87988 0.620117" stroke="#000001" stroke-linecap="round" stroke-linejoin="round"/>
<path d="M2.11987 5.38013C2.97347 5.38013 3.8187 5.54825 4.60732 5.87491C5.39593 6.20157 6.11249 6.68035 6.71607 7.28393C7.31965 7.88751 7.79844 8.60407 8.12509 9.39268C8.45175 10.1813 8.61987 11.0265 8.61987 11.8801" stroke="#000001" stroke-linecap="round" stroke-linejoin="round"/>
</g>
<defs>
<clipPath id="clip0_6_5444">
<rect width="14" height="14" fill="white"/>
</clipPath>
</defs>
</svg>
