<svg width="16" height="16" viewBox="0 0 16 16" fill="none" xmlns="http://www.w3.org/2000/svg">
<path d="M5.09009 2.18997C5.45044 2.54193 5.66471 3.0169 5.69009 3.51997L7.52009 1.69997C7.58294 1.62951 7.65998 1.57312 7.74615 1.53452C7.83231 1.49591 7.92567 1.47595 8.02009 1.47595C8.11451 1.47595 8.20787 1.49591 8.29404 1.53452C8.38021 1.57312 8.45724 1.62951 8.52009 1.69997L10.0001 3.23997C9.78989 3.3419 9.59743 3.47696 9.43009 3.63997C9.07391 4.03167 8.88221 4.54547 8.89477 5.07474C8.90733 5.60402 9.12319 6.10815 9.49755 6.48251C9.87192 6.85687 10.376 7.07273 10.9053 7.08529C11.4346 7.09785 11.9484 6.90615 12.3401 6.54997C12.5031 6.38263 12.6382 6.19018 12.7401 5.97997L14.3001 7.51997C14.3706 7.58282 14.4269 7.65986 14.4655 7.74602C14.5042 7.83219 14.5241 7.92555 14.5241 8.01997C14.5241 8.11439 14.5042 8.20775 14.4655 8.29392C14.4269 8.38008 14.3706 8.45712 14.3001 8.51997L12.4801 10.31C12.8743 10.3338 13.2532 10.471 13.5713 10.705C13.8894 10.9391 14.1331 11.26 14.2731 11.6293C14.4132 11.9985 14.4436 12.4004 14.3607 12.7865C14.2778 13.1726 14.0852 13.5266 13.8059 13.8058C13.5267 14.085 13.1727 14.2777 12.7866 14.3606C12.4005 14.4435 11.9986 14.4131 11.6294 14.273C11.2601 14.133 10.9392 13.8893 10.7052 13.5712C10.4711 13.2531 10.3339 12.8742 10.3101 12.48L8.48009 14.3C8.41724 14.3704 8.34021 14.4268 8.25404 14.4654C8.16787 14.504 8.07451 14.524 7.98009 14.524C7.88567 14.524 7.79232 14.504 7.70615 14.4654C7.61998 14.4268 7.54294 14.3704 7.48009 14.3L6.00009 12.76C6.2103 12.658 6.40275 12.523 6.57009 12.36C6.95598 11.9714 7.17172 11.4455 7.16984 10.8979C7.16797 10.3503 6.94863 9.82586 6.56009 9.43997C6.17155 9.05408 5.64563 8.83834 5.09802 8.84022C4.55041 8.84209 4.02598 9.06143 3.64009 9.44997C3.47708 9.61731 3.34202 9.80977 3.24009 10.02L1.70009 8.47997C1.62963 8.41712 1.57324 8.34008 1.53464 8.25392C1.49603 8.16775 1.47607 8.07439 1.47607 7.97997C1.47607 7.88555 1.49603 7.79219 1.53464 7.70602C1.57324 7.61986 1.62963 7.54282 1.70009 7.47997L3.52009 5.68997C3.01702 5.66459 2.54205 5.45032 2.19009 5.08997C1.80553 4.70541 1.58948 4.18383 1.58948 3.63997C1.58948 3.09611 1.80553 2.57453 2.19009 2.18997C2.57466 1.80541 3.09624 1.58936 3.64009 1.58936C4.18395 1.58936 4.70553 1.80541 5.09009 2.18997V2.18997Z" stroke="#000001" stroke-linecap="round" stroke-linejoin="round"/>
</svg>
