<svg width="14" height="14" viewBox="0 0 14 14" fill="none" xmlns="http://www.w3.org/2000/svg">
<g clip-path="url(#clip0_6_5485)">
<path d="M10.5001 13.5C10.9954 13.5004 11.4831 13.3781 11.9196 13.1441C12.3562 12.9101 12.728 12.5716 13.0019 12.1589C13.2758 11.7462 13.4432 11.2722 13.4893 10.779C13.5353 10.2858 13.4586 9.78895 13.2658 9.33268C13.0731 8.8764 12.7704 8.47495 12.3848 8.16415C11.9991 7.85334 11.5425 7.64286 11.0557 7.55149C10.5689 7.46012 10.067 7.4907 9.59493 7.6405C9.12283 7.79031 8.69515 8.05467 8.35009 8.41C8.14732 7.69405 7.74886 7.04885 7.1995 6.54693C6.65015 6.04502 5.97168 5.7063 5.24037 5.56884C4.50906 5.43138 3.7539 5.50064 3.0598 5.76884C2.3657 6.03703 1.76016 6.49352 1.31127 7.08698C0.86238 7.68045 0.587931 8.38737 0.518778 9.12827C0.449624 9.86916 0.588508 10.6147 0.919815 11.2809C1.25112 11.9472 1.76172 12.5079 2.3942 12.8999C3.02668 13.2919 3.75597 13.4997 4.50009 13.5H10.5001Z" stroke="#000001" stroke-linecap="round" stroke-linejoin="round"/>
<path d="M10.48 1.19989C9.37234 0.732342 8.18225 0.491455 6.97998 0.491455C5.77771 0.491455 4.58762 0.732342 3.47998 1.19989" stroke="#000001" stroke-linecap="round" stroke-linejoin="round"/>
<path d="M9.18007 3.35979C7.76638 2.87975 6.23376 2.87975 4.82007 3.35979" stroke="#000001" stroke-linecap="round" stroke-linejoin="round"/>
</g>
<defs>
<clipPath id="clip0_6_5485">
<rect width="14" height="14" fill="white"/>
</clipPath>
</defs>
</svg>
