<svg width="14" height="14" viewBox="0 0 14 14" fill="none" xmlns="http://www.w3.org/2000/svg">
<g clip-path="url(#clip0_6_6454)">
<path d="M7 13.5C10.5899 13.5 13.5 10.5899 13.5 7C13.5 3.41015 10.5899 0.5 7 0.5C3.41015 0.5 0.5 3.41015 0.5 7C0.5 10.5899 3.41015 13.5 7 13.5Z" stroke="#000001" stroke-linecap="round" stroke-linejoin="round"/>
<path d="M7.00005 0.5C7.00005 0.5 2.93005 4.09 7.00005 7C10.5001 9.5 7.00005 13.5 7.00005 13.5" stroke="#000001" stroke-linecap="round" stroke-linejoin="round"/>
<path d="M9 5.5C9.55228 5.5 10 5.05228 10 4.5C10 3.94772 9.55228 3.5 9 3.5C8.44772 3.5 8 3.94772 8 4.5C8 5.05228 8.44772 5.5 9 5.5Z" stroke="#000001" stroke-linecap="round" stroke-linejoin="round"/>
<path d="M5 10.5C5.55228 10.5 6 10.0523 6 9.5C6 8.94772 5.55228 8.5 5 8.5C4.44772 8.5 4 8.94772 4 9.5C4 10.0523 4.44772 10.5 5 10.5Z" stroke="#000001" stroke-linecap="round" stroke-linejoin="round"/>
</g>
<defs>
<clipPath id="clip0_6_6454">
<rect width="14" height="14" fill="white"/>
</clipPath>
</defs>
</svg>
