<svg width="14" height="14" viewBox="0 0 14 14" fill="none" xmlns="http://www.w3.org/2000/svg">
<g clip-path="url(#clip0_6_6472)">
<path d="M5.20992 7C5.2099 5.54649 5.78524 4.15207 6.81021 3.12148C7.83518 2.09089 9.22644 1.50793 10.6799 1.5C9.69653 0.880622 8.56505 0.536235 7.40334 0.502706C6.24163 0.469178 5.09218 0.747735 4.07469 1.30937C3.05721 1.871 2.20892 2.69516 1.61817 3.69601C1.02742 4.69687 0.71582 5.83781 0.71582 7C0.71582 8.1622 1.02742 9.30313 1.61817 10.304C2.20892 11.3048 3.05721 12.129 4.07469 12.6906C5.09218 13.2523 6.24163 13.5308 7.40334 13.4973C8.56505 13.4638 9.69653 13.1194 10.6799 12.5C9.22644 12.4921 7.83518 11.9091 6.81021 10.8785C5.78524 9.84793 5.2099 8.45351 5.20992 7V7Z" stroke="#000001" stroke-linecap="round" stroke-linejoin="round"/>
<path d="M10.5699 4.04004L11.4799 5.85004H13.2899L11.9299 7.25004L12.3599 9.25004L10.5699 8.25004L8.85986 9.25004L9.21986 7.25004L7.85986 5.85004H9.66986L10.5699 4.04004Z" stroke="#000001" stroke-linecap="round" stroke-linejoin="round"/>
</g>
<defs>
<clipPath id="clip0_6_6472">
<rect width="14" height="14" fill="white"/>
</clipPath>
</defs>
</svg>
