<svg width="14" height="14" viewBox="0 0 14 14" fill="none" xmlns="http://www.w3.org/2000/svg">
<g clip-path="url(#clip0_6_6434)">
<path d="M6 13.49C6.55228 13.49 7 13.0423 7 12.49C7 11.9377 6.55228 11.49 6 11.49C5.44772 11.49 5 11.9377 5 12.49C5 13.0423 5.44772 13.49 6 13.49Z" stroke="#000001" stroke-linecap="round" stroke-linejoin="round"/>
<path d="M10.5 13.49C11.0523 13.49 11.5 13.0423 11.5 12.49C11.5 11.9377 11.0523 11.49 10.5 11.49C9.94772 11.49 9.5 11.9377 9.5 12.49C9.5 13.0423 9.94772 13.49 10.5 13.49Z" stroke="#000001" stroke-linecap="round" stroke-linejoin="round"/>
<path d="M8.38007 3.53007C8.22661 2.91361 7.92853 2.34256 7.51049 1.86421C7.09246 1.38586 6.56651 1.01395 5.97617 0.779271C5.38583 0.544595 4.74809 0.453902 4.11573 0.514698C3.48337 0.575495 2.87459 0.786033 2.33978 1.12888C1.80496 1.47173 1.3595 1.93704 1.04026 2.48627C0.721029 3.03551 0.537202 3.65289 0.504002 4.28729C0.470802 4.9217 0.589182 5.55489 0.849344 6.13445C1.10951 6.71401 1.50397 7.22326 2.00007 7.62007" stroke="#000001" stroke-linecap="round" stroke-linejoin="round"/>
<path d="M4.5 4.51001L6 3.01001" stroke="#000001" stroke-linecap="round" stroke-linejoin="round"/>
<path d="M6.5 9.5V8.5H5C4.46957 8.5 3.96086 8.71071 3.58579 9.08579C3.21071 9.46086 3 9.96957 3 10.5V12.5" stroke="#000001" stroke-linecap="round" stroke-linejoin="round"/>
<path d="M13.5 12.49V7.48999C13.5 7.22477 13.3946 6.97042 13.2071 6.78288C13.0196 6.59535 12.7652 6.48999 12.5 6.48999H7.5C7.23478 6.48999 6.98043 6.59535 6.79289 6.78288C6.60536 6.97042 6.5 7.22477 6.5 7.48999V9.48999" stroke="#000001" stroke-linecap="round" stroke-linejoin="round"/>
</g>
<defs>
<clipPath id="clip0_6_6434">
<rect width="14" height="14" fill="white"/>
</clipPath>
</defs>
</svg>
