<svg width="14" height="14" viewBox="0 0 14 14" fill="none" xmlns="http://www.w3.org/2000/svg">
<g clip-path="url(#clip0_6_4990)">
<path d="M1.82012 7.5H10.0001L11.0001 2.5H1.00012C0.926991 2.50027 0.854811 2.51657 0.788668 2.54777C0.722526 2.57896 0.664031 2.62429 0.617309 2.68055C0.570586 2.7368 0.536773 2.80263 0.518253 2.87337C0.499733 2.94412 0.496957 3.01806 0.51012 3.09L1.33012 7.09C1.34925 7.20565 1.40921 7.31062 1.49911 7.38584C1.58901 7.46107 1.70291 7.50157 1.82012 7.5V7.5Z" stroke="#000001" stroke-linecap="round" stroke-linejoin="round"/>
<path d="M11 2.5L11.42 0.9C11.4431 0.787064 11.5044 0.68556 11.5937 0.612669C11.683 0.539778 11.7947 0.499976 11.91 0.5H13.5" stroke="#000001" stroke-linecap="round" stroke-linejoin="round"/>
<path d="M10 7.5L9.58 9.6C9.55695 9.71294 9.49558 9.81444 9.40629 9.88733C9.317 9.96022 9.20527 10 9.09 10H3" stroke="#000001" stroke-linecap="round" stroke-linejoin="round"/>
<path d="M3.5 13.5C3.77614 13.5 4 13.2761 4 13C4 12.7239 3.77614 12.5 3.5 12.5C3.22386 12.5 3 12.7239 3 13C3 13.2761 3.22386 13.5 3.5 13.5Z" stroke="#000001" stroke-linecap="round" stroke-linejoin="round"/>
<path d="M8.5 13.5C8.77614 13.5 9 13.2761 9 13C9 12.7239 8.77614 12.5 8.5 12.5C8.22386 12.5 8 12.7239 8 13C8 13.2761 8.22386 13.5 8.5 13.5Z" stroke="#000001" stroke-linecap="round" stroke-linejoin="round"/>
</g>
<defs>
<clipPath id="clip0_6_4990">
<rect width="14" height="14" fill="white"/>
</clipPath>
</defs>
</svg>
