<svg width="14" height="14" viewBox="0 0 14 14" fill="none" xmlns="http://www.w3.org/2000/svg">
<g clip-path="url(#clip0_6_5015)">
<path d="M12.28 5.99996H1.71995C1.56997 5.99692 1.42123 6.02767 1.28474 6.08992C1.14825 6.15217 1.02752 6.24433 0.931486 6.35957C0.83545 6.47481 0.766573 6.61019 0.729956 6.75566C0.693338 6.90114 0.68992 7.05299 0.719953 7.19996L1.81995 12.7C1.8667 12.9292 1.99238 13.1349 2.1751 13.281C2.35781 13.4272 2.58601 13.5047 2.81995 13.5H11.18C11.4139 13.5047 11.6421 13.4272 11.8248 13.281C12.0075 13.1349 12.1332 12.9292 12.18 12.7L13.28 7.19996C13.31 7.05299 13.3066 6.90114 13.27 6.75566C13.2333 6.61019 13.1645 6.47481 13.0684 6.35957C12.9724 6.24433 12.8517 6.15217 12.7152 6.08992C12.5787 6.02767 12.4299 5.99692 12.28 5.99996Z" stroke="#000001" stroke-linecap="round" stroke-linejoin="round"/>
<path d="M9 2.5L11 6" stroke="#000001" stroke-linecap="round" stroke-linejoin="round"/>
<path d="M3 6L5 2.5" stroke="#000001" stroke-linecap="round" stroke-linejoin="round"/>
</g>
<defs>
<clipPath id="clip0_6_5015">
<rect width="14" height="14" fill="white"/>
</clipPath>
</defs>
</svg>
