<svg width="14" height="14" viewBox="0 0 14 14" fill="none" xmlns="http://www.w3.org/2000/svg">
<g clip-path="url(#clip0_6_5038)">
<path d="M5.66 9.29996C5.61325 9.07068 5.48758 8.86506 5.30486 8.71889C5.12214 8.57271 4.89395 8.49524 4.66 8.49996H2.32C2.08605 8.49524 1.85786 8.57271 1.67514 8.71889C1.49242 8.86506 1.36675 9.07068 1.32 9.29996L0.5 13.5H6.5L5.66 9.29996Z" stroke="#000001" stroke-linecap="round" stroke-linejoin="round"/>
<path d="M12.66 9.29996C12.6132 9.07068 12.4876 8.86506 12.3049 8.71889C12.1221 8.57271 11.8939 8.49524 11.66 8.49996H9.32C9.08605 8.49524 8.85786 8.57271 8.67514 8.71889C8.49242 8.86506 8.36675 9.07068 8.32 9.29996L7.5 13.5H13.5L12.66 9.29996Z" stroke="#000001" stroke-linecap="round" stroke-linejoin="round"/>
<path d="M10 8.49996L9.16 4.29996C9.11325 4.07068 8.98758 3.86506 8.80486 3.71889C8.62214 3.57271 8.39395 3.49524 8.16 3.49996H5.82C5.58605 3.49524 5.35786 3.57271 5.17514 3.71889C4.99242 3.86506 4.86675 4.07068 4.82 4.29996L4 8.49996" stroke="#000001" stroke-linecap="round" stroke-linejoin="round"/>
<path d="M4.67993 8.5H9.31993" stroke="#000001" stroke-linecap="round" stroke-linejoin="round"/>
</g>
<defs>
<clipPath id="clip0_6_5038">
<rect width="14" height="14" fill="white"/>
</clipPath>
</defs>
</svg>
