<svg width="14" height="14" viewBox="0 0 14 14" fill="none" xmlns="http://www.w3.org/2000/svg">
<g clip-path="url(#clip0_6_5098)">
<path d="M10 1.5H4C3.44772 1.5 3 1.94772 3 2.5V7.5C3 8.05228 3.44772 8.5 4 8.5H10C10.5523 8.5 11 8.05228 11 7.5V2.5C11 1.94772 10.5523 1.5 10 1.5Z" stroke="#000001" stroke-linecap="round" stroke-linejoin="round"/>
<path d="M3 4.5H1.5C1.23478 4.5 0.98043 4.60536 0.792893 4.79289C0.605357 4.98043 0.5 5.23478 0.5 5.5V10C0.5 10.2652 0.605357 10.5196 0.792893 10.7071C0.98043 10.8946 1.23478 11 1.5 11H12.5C12.7652 11 13.0196 10.8946 13.2071 10.7071C13.3946 10.5196 13.5 10.2652 13.5 10V5.5C13.5 5.23478 13.3946 4.98043 13.2071 4.79289C13.0196 4.60536 12.7652 4.5 12.5 4.5H11" stroke="#000001" stroke-linecap="round" stroke-linejoin="round"/>
<path d="M4 11L3.5 13.5" stroke="#000001" stroke-linecap="round" stroke-linejoin="round"/>
<path d="M10 11L10.5 13.5" stroke="#000001" stroke-linecap="round" stroke-linejoin="round"/>
</g>
<defs>
<clipPath id="clip0_6_5098">
<rect width="14" height="14" fill="white"/>
</clipPath>
</defs>
</svg>
