<svg width="14" height="14" viewBox="0 0 14 14" fill="none" xmlns="http://www.w3.org/2000/svg">
<g clip-path="url(#clip0_6_5087)">
<path d="M11 0.5H3C2.44772 0.5 2 0.947715 2 1.5V12.5C2 13.0523 2.44772 13.5 3 13.5H11C11.5523 13.5 12 13.0523 12 12.5V1.5C12 0.947715 11.5523 0.5 11 0.5Z" stroke="#000001" stroke-linecap="round" stroke-linejoin="round"/>
<path d="M9.5 3H4.5V8H9.5V3Z" stroke="#000001" stroke-linecap="round" stroke-linejoin="round"/>
<path d="M7 11.25C7.27614 11.25 7.5 11.0261 7.5 10.75C7.5 10.4739 7.27614 10.25 7 10.25C6.72386 10.25 6.5 10.4739 6.5 10.75C6.5 11.0261 6.72386 11.25 7 11.25Z" stroke="#000001" stroke-linecap="round" stroke-linejoin="round"/>
</g>
<defs>
<clipPath id="clip0_6_5087">
<rect width="14" height="14" fill="white"/>
</clipPath>
</defs>
</svg>
