<svg width="14" height="14" viewBox="0 0 14 14" fill="none" xmlns="http://www.w3.org/2000/svg">
<g clip-path="url(#clip0_6_4985)">
<path d="M13.5 0.5H11L10.13 9.15C10.0938 9.38845 9.97272 9.6058 9.78896 9.762C9.60519 9.9182 9.37117 10.0027 9.13001 10H2.83001C2.61194 10.0114 2.39614 9.95107 2.21557 9.82829C2.035 9.7055 1.89959 9.52698 1.83001 9.32L0.500006 5.32C0.450418 5.16962 0.437251 5.0096 0.461591 4.85314C0.48593 4.69667 0.54708 4.54822 0.640006 4.42C0.736814 4.28368 0.866258 4.17381 1.0165 4.10043C1.16674 4.02706 1.33297 3.99253 1.50001 4H10.65" stroke="#000001" stroke-linecap="round" stroke-linejoin="round"/>
<path d="M3 13.5C3.27614 13.5 3.5 13.2761 3.5 13C3.5 12.7239 3.27614 12.5 3 12.5C2.72386 12.5 2.5 12.7239 2.5 13C2.5 13.2761 2.72386 13.5 3 13.5Z" stroke="#000001" stroke-linecap="round" stroke-linejoin="round"/>
<path d="M9.5 13.5C9.77614 13.5 10 13.2761 10 13C10 12.7239 9.77614 12.5 9.5 12.5C9.22386 12.5 9 12.7239 9 13C9 13.2761 9.22386 13.5 9.5 13.5Z" stroke="#000001" stroke-linecap="round" stroke-linejoin="round"/>
</g>
<defs>
<clipPath id="clip0_6_4985">
<rect width="14" height="14" fill="white"/>
</clipPath>
</defs>
</svg>
