<svg width="14" height="14" viewBox="0 0 14 14" fill="none" xmlns="http://www.w3.org/2000/svg">
<g clip-path="url(#clip0_6_7152)">
<path d="M9.5 3.5L11 5L13 3L10.5 0.5H3.5L1 3L3 5L4.5 3.5V7C4.5 8.35 2.88 9.3 2.56 12.4C2.54569 12.5387 2.56054 12.6788 2.6036 12.8114C2.64665 12.944 2.71695 13.0662 2.81 13.17C2.90349 13.2736 3.01763 13.3565 3.14508 13.4133C3.27253 13.4701 3.41046 13.4997 3.55 13.5H10.45C10.5895 13.4997 10.7275 13.4701 10.8549 13.4133C10.9824 13.3565 11.0965 13.2736 11.19 13.17C11.283 13.0662 11.3534 12.944 11.3964 12.8114C11.4395 12.6788 11.4543 12.5387 11.44 12.4C11.12 9.3 9.5 8.35 9.5 7V3.5Z" stroke="#000001" stroke-linecap="round" stroke-linejoin="round"/>
<path d="M4.5 6.25C5.29175 6.58169 6.14158 6.75251 7 6.75251C7.85842 6.75251 8.70825 6.58169 9.5 6.25" stroke="#000001" stroke-linecap="round" stroke-linejoin="round"/>
</g>
<defs>
<clipPath id="clip0_6_7152">
<rect width="14" height="14" fill="white"/>
</clipPath>
</defs>
</svg>
