<svg width="14" height="14" viewBox="0 0 14 14" fill="none" xmlns="http://www.w3.org/2000/svg">
<g clip-path="url(#clip0_6_4878)">
<path d="M11.2699 13.5H2.72991C2.44769 13.5017 2.16829 13.4437 1.9101 13.3297C1.65191 13.2157 1.42076 13.0484 1.23185 12.8387C1.04294 12.629 0.900555 12.3817 0.814046 12.1131C0.727536 11.8445 0.698864 11.5605 0.729915 11.28L1.39991 5.39002C1.4271 5.1443 1.54435 4.91736 1.72902 4.753C1.91369 4.58864 2.1527 4.49852 2.39991 4.50002H11.5999C11.8471 4.49852 12.0861 4.58864 12.2708 4.753C12.4555 4.91736 12.5727 5.1443 12.5999 5.39002L13.2499 11.28C13.2808 11.5589 13.2526 11.8411 13.1673 12.1083C13.082 12.3756 12.9414 12.6219 12.7546 12.8313C12.5679 13.0406 12.3392 13.2084 12.0834 13.3236C11.8276 13.4388 11.5505 13.4989 11.2699 13.5Z" stroke="#000001" stroke-linecap="round" stroke-linejoin="round"/>
<path d="M3 4.5C3 3.43913 3.42143 2.42172 4.17157 1.67157C4.92172 0.921427 5.93913 0.5 7 0.5C8.06087 0.5 9.07828 0.921427 9.82843 1.67157C10.5786 2.42172 11 3.43913 11 4.5" stroke="#000001" stroke-linecap="round" stroke-linejoin="round"/>
<path d="M4.5 7.5H9.5" stroke="#000001" stroke-linecap="round" stroke-linejoin="round"/>
</g>
<defs>
<clipPath id="clip0_6_4878">
<rect width="14" height="14" fill="white"/>
</clipPath>
</defs>
</svg>
