<svg width="14" height="14" viewBox="0 0 14 14" fill="none" xmlns="http://www.w3.org/2000/svg">
<g clip-path="url(#clip0_6_4965)">
<path d="M1.5 8.5V13C1.5 13.1326 1.55268 13.2598 1.64645 13.3536C1.74021 13.4473 1.86739 13.5 2 13.5H12C12.1326 13.5 12.2598 13.4473 12.3536 13.3536C12.4473 13.2598 12.5 13.1326 12.5 13V8.5" stroke="#000001" stroke-linecap="round" stroke-linejoin="round"/>
<path d="M13 6.00002H1C0.867392 6.00002 0.740215 5.94735 0.646447 5.85358C0.552678 5.75981 0.5 5.63263 0.5 5.50002V3.50002L1.72 1.05002C1.80386 0.883589 1.93257 0.7439 2.09159 0.646718C2.25062 0.549536 2.43364 0.498727 2.62 0.500024H11.38C11.5664 0.498727 11.7494 0.549536 11.9084 0.646718C12.0674 0.7439 12.1961 0.883589 12.28 1.05002L13.5 3.50002V5.50002C13.5 5.63263 13.4473 5.75981 13.3536 5.85358C13.2598 5.94735 13.1326 6.00002 13 6.00002Z" stroke="#000001" stroke-linecap="round" stroke-linejoin="round"/>
<path d="M8 8.5V13.5" stroke="#000001" stroke-linecap="round" stroke-linejoin="round"/>
<path d="M1.5 10H8" stroke="#000001" stroke-linecap="round" stroke-linejoin="round"/>
<path d="M0.5 3.5H13.5" stroke="#000001" stroke-linecap="round" stroke-linejoin="round"/>
</g>
<defs>
<clipPath id="clip0_6_4965">
<rect width="14" height="14" fill="white"/>
</clipPath>
</defs>
</svg>
