<svg width="14" height="14" viewBox="0 0 14 14" fill="none" xmlns="http://www.w3.org/2000/svg">
<g clip-path="url(#clip0_6_5068)">
<path d="M3.5 6.5V12.5C3.5 12.7652 3.60536 13.0196 3.79289 13.2071C3.98043 13.3946 4.23478 13.5 4.5 13.5H9.5C9.76522 13.5 10.0196 13.3946 10.2071 13.2071C10.3946 13.0196 10.5 12.7652 10.5 12.5V6.5" stroke="#000001" stroke-linecap="round" stroke-linejoin="round"/>
<path d="M10.5 6.5V4.5C10.5 4.23478 10.3946 3.98043 10.2071 3.79289C10.0196 3.60536 9.76522 3.5 9.5 3.5C9.23478 3.5 8.98043 3.39464 8.79289 3.20711C8.60536 3.01957 8.5 2.76522 8.5 2.5V2C8.5 1.60218 8.34196 1.22064 8.06066 0.93934C7.77936 0.658035 7.39782 0.5 7 0.5C6.60218 0.5 6.22064 0.658035 5.93934 0.93934C5.65804 1.22064 5.5 1.60218 5.5 2V2.5C5.5 2.76522 5.39464 3.01957 5.20711 3.20711C5.01957 3.39464 4.76522 3.5 4.5 3.5C4.23478 3.5 3.98043 3.60536 3.79289 3.79289C3.60536 3.98043 3.5 4.23478 3.5 4.5V6.5" stroke="#000001" stroke-linecap="round" stroke-linejoin="round"/>
<path d="M2.5 6.5H11.5" stroke="#000001" stroke-linecap="round" stroke-linejoin="round"/>
<path d="M7.5 9.5H10.5" stroke="#000001" stroke-linecap="round" stroke-linejoin="round"/>
</g>
<defs>
<clipPath id="clip0_6_5068">
<rect width="14" height="14" fill="white"/>
</clipPath>
</defs>
</svg>
