<svg width="14" height="14" viewBox="0 0 14 14" fill="none" xmlns="http://www.w3.org/2000/svg">
<g clip-path="url(#clip0_6_5020)">
<path d="M13.36 6.62C13.3771 6.48042 13.3645 6.33881 13.3232 6.2044C13.2818 6.07 13.2126 5.94583 13.12 5.84C13.0263 5.73333 12.9109 5.64784 12.7816 5.58922C12.6523 5.53059 12.512 5.50018 12.37 5.5H1.62998C1.48799 5.50018 1.34767 5.53059 1.21836 5.58922C1.08904 5.64784 0.973688 5.73333 0.879978 5.84C0.787381 5.94583 0.718144 6.07 0.676789 6.2044C0.635435 6.33881 0.622891 6.48042 0.639978 6.62L1.38998 12.62C1.41945 12.8639 1.53769 13.0884 1.72213 13.2507C1.90657 13.413 2.1443 13.5018 2.38998 13.5H11.63C11.8757 13.5018 12.1134 13.413 12.2978 13.2507C12.4823 13.0884 12.6005 12.8639 12.63 12.62L13.36 6.62Z" stroke="#000001" stroke-linecap="round" stroke-linejoin="round"/>
<path d="M2.5 5.5V5C2.5 3.80653 2.97411 2.66193 3.81802 1.81802C4.66193 0.974106 5.80653 0.5 7 0.5C8.19347 0.5 9.33807 0.974106 10.182 1.81802C11.0259 2.66193 11.5 3.80653 11.5 5V5.5" stroke="#000001" stroke-linecap="round" stroke-linejoin="round"/>
<path d="M5 8.5V10.5" stroke="#000001" stroke-linecap="round" stroke-linejoin="round"/>
<path d="M9 8.5V10.5" stroke="#000001" stroke-linecap="round" stroke-linejoin="round"/>
</g>
<defs>
<clipPath id="clip0_6_5020">
<rect width="14" height="14" fill="white"/>
</clipPath>
</defs>
</svg>
