<svg width="14" height="14" viewBox="0 0 14 14" fill="none" xmlns="http://www.w3.org/2000/svg">
<g clip-path="url(#clip0_6_5032)">
<path d="M10.64 1.54004H3.35997C3.19213 1.54465 3.02774 1.58869 2.88007 1.6686C2.73241 1.74851 2.60563 1.86205 2.50997 2.00004L0.68997 4.52004C0.554827 4.71101 0.487335 4.94165 0.498205 5.17535C0.509075 5.40906 0.597684 5.63243 0.74997 5.81004L6.20997 12.1C6.30345 12.2205 6.42322 12.318 6.56014 12.385C6.69707 12.4521 6.84751 12.4869 6.99997 12.4869C7.15243 12.4869 7.30287 12.4521 7.4398 12.385C7.57672 12.318 7.6965 12.2205 7.78997 12.1L13.25 5.81004C13.4023 5.63243 13.4909 5.40906 13.5017 5.17535C13.5126 4.94165 13.4451 4.71101 13.31 4.52004L11.49 2.00004C11.3943 1.86205 11.2675 1.74851 11.1199 1.6686C10.9722 1.58869 10.8078 1.54465 10.64 1.54004V1.54004Z" stroke="#000001" stroke-linecap="round" stroke-linejoin="round"/>
<path d="M6.48004 1.53003L4.04004 5.31003L7.00004 12.46" stroke="#000001" stroke-linecap="round" stroke-linejoin="round"/>
<path d="M7.55 1.53003L9.98 5.31003L7 12.46" stroke="#000001" stroke-linecap="round" stroke-linejoin="round"/>
<path d="M0.52002 5.31006H13.48" stroke="#000001" stroke-linecap="round" stroke-linejoin="round"/>
</g>
<defs>
<clipPath id="clip0_6_5032">
<rect width="14" height="14" fill="white"/>
</clipPath>
</defs>
</svg>
