<svg width="14" height="14" viewBox="0 0 14 14" fill="none" xmlns="http://www.w3.org/2000/svg">
<g clip-path="url(#clip0_6_6911)">
<path d="M13 4.23999H1C0.723858 4.23999 0.5 4.46385 0.5 4.73999V12.74C0.5 13.0161 0.723858 13.24 1 13.24H13C13.2761 13.24 13.5 13.0161 13.5 12.74V4.73999C13.5 4.46385 13.2761 4.23999 13 4.23999Z" stroke="#000001" stroke-linecap="round" stroke-linejoin="round"/>
<path d="M4.25 9.23999C4.94036 9.23999 5.5 8.68035 5.5 7.98999C5.5 7.29963 4.94036 6.73999 4.25 6.73999C3.55964 6.73999 3 7.29963 3 7.98999C3 8.68035 3.55964 9.23999 4.25 9.23999Z" stroke="#000001" stroke-linecap="round" stroke-linejoin="round"/>
<path d="M3.75 13.2401L8.45 9.24014C8.58226 9.12638 8.73575 9.03997 8.90161 8.9859C9.06747 8.93183 9.2424 8.91118 9.41628 8.92512C9.59017 8.93907 9.75957 8.98735 9.91469 9.06717C10.0698 9.14698 10.2076 9.25676 10.32 9.39014L13.39 13.0701" stroke="#000001" stroke-linecap="round" stroke-linejoin="round"/>
<path d="M3.5 4.24004L6.25 1.10004C6.34384 0.99363 6.45925 0.90841 6.58856 0.850037C6.71787 0.791664 6.85812 0.761475 7 0.761475C7.14188 0.761475 7.28213 0.791664 7.41144 0.850037C7.54075 0.90841 7.65616 0.99363 7.75 1.10004L10.5 4.24004" stroke="#000001" stroke-linecap="round" stroke-linejoin="round"/>
</g>
<defs>
<clipPath id="clip0_6_6911">
<rect width="14" height="14" fill="white"/>
</clipPath>
</defs>
</svg>
