<svg width="14" height="14" viewBox="0 0 14 14" fill="none" xmlns="http://www.w3.org/2000/svg">
<g clip-path="url(#clip0_6_7069)">
<path d="M8 4.5C9.10457 4.5 10 3.60457 10 2.5C10 1.39543 9.10457 0.5 8 0.5C6.89543 0.5 6 1.39543 6 2.5C6 3.60457 6.89543 4.5 8 4.5Z" stroke="#000001" stroke-linecap="round" stroke-linejoin="round"/>
<path d="M8 4.5V8.5H11C11.2652 8.5 11.5196 8.60536 11.7071 8.79289C11.8946 8.98043 12 9.23478 12 9.5V13.5" stroke="#000001" stroke-linecap="round" stroke-linejoin="round"/>
<path d="M5.50012 6.5C4.86833 6.50064 4.2485 6.67228 3.70637 6.99671C3.16424 7.32114 2.72004 7.78627 2.42089 8.34274C2.12173 8.89922 1.97879 9.52629 2.00721 10.1574C2.03563 10.7886 2.23435 11.4003 2.58231 11.9276C2.93027 12.4549 3.41447 12.8783 3.98356 13.1527C4.55265 13.4271 5.18541 13.5423 5.8147 13.4862C6.44398 13.43 7.04634 13.2046 7.55787 12.8338C8.0694 12.463 8.47101 11.9606 8.72012 11.38" stroke="#000001" stroke-linecap="round" stroke-linejoin="round"/>
</g>
<defs>
<clipPath id="clip0_6_7069">
<rect width="14" height="14" fill="white"/>
</clipPath>
</defs>
</svg>
