<svg width="14" height="14" viewBox="0 0 14 14" fill="none" xmlns="http://www.w3.org/2000/svg">
<g clip-path="url(#clip0_6_6998)">
<path d="M5.99998 1.04992C6.10612 0.880487 6.25356 0.740799 6.42848 0.643968C6.6034 0.547137 6.80005 0.496338 6.99998 0.496338C7.19991 0.496338 7.39656 0.547137 7.57148 0.643968C7.7464 0.740799 7.89384 0.880487 7.99998 1.04992L9.93998 4.11992L12.47 4.42992C12.6798 4.45336 12.8793 4.53363 13.0468 4.66207C13.2144 4.7905 13.3438 4.96224 13.4209 5.15876C13.4981 5.35529 13.5202 5.56915 13.4847 5.77729C13.4493 5.98544 13.3578 6.17997 13.22 6.33992L11.11 8.75992L11.79 12.1099C11.8326 12.3285 11.812 12.5547 11.7305 12.762C11.649 12.9692 11.5101 13.1489 11.33 13.2799C11.1476 13.4085 10.9328 13.4833 10.71 13.4957C10.4872 13.5081 10.2654 13.4576 10.07 13.3499L6.99998 11.6699L3.92998 13.3499C3.73452 13.4576 3.51273 13.5081 3.28994 13.4957C3.06714 13.4833 2.85231 13.4085 2.66998 13.2799C2.48991 13.1489 2.35097 12.9692 2.26948 12.762C2.188 12.5547 2.16736 12.3285 2.20998 12.1099L2.88998 8.75992L0.77998 6.33992C0.642165 6.17997 0.55062 5.98544 0.51521 5.77729C0.4798 5.56915 0.50187 5.35529 0.579039 5.15876C0.656209 4.96224 0.785552 4.7905 0.953127 4.66207C1.1207 4.53363 1.32015 4.45336 1.52998 4.42992L4.05998 4.11992L5.99998 1.04992Z" stroke="#000001" stroke-linecap="round" stroke-linejoin="round"/>
<path d="M7 9.52002V5.52002H6" stroke="#000001" stroke-linecap="round" stroke-linejoin="round"/>
<path d="M5.5 9.52002H8.5" stroke="#000001" stroke-linecap="round" stroke-linejoin="round"/>
</g>
<defs>
<clipPath id="clip0_6_6998">
<rect width="14" height="14" fill="white"/>
</clipPath>
</defs>
</svg>
