<svg width="14" height="14" viewBox="0 0 14 14" fill="none" xmlns="http://www.w3.org/2000/svg">
<g clip-path="url(#clip0_6_6857)">
<path d="M13.5 13.48H13C12.4696 13.48 11.9609 13.2693 11.5858 12.8942C11.2107 12.5191 11 12.0104 11 11.48C11 12.0104 10.7893 12.5191 10.4142 12.8942C10.0391 13.2693 9.53043 13.48 9 13.48C8.46957 13.48 7.96086 13.2693 7.58579 12.8942C7.21071 12.5191 7 12.0104 7 11.48C7 12.0104 6.78929 12.5191 6.41421 12.8942C6.03914 13.2693 5.53043 13.48 5 13.48C4.46957 13.48 3.96086 13.2693 3.58579 12.8942C3.21071 12.5191 3 12.0104 3 11.48C3 12.0104 2.78929 12.5191 2.41421 12.8942C2.03914 13.2693 1.53043 13.48 1 13.48H0.5" stroke="#000001" stroke-linecap="round" stroke-linejoin="round"/>
<path d="M10 9.48006C9.48499 8.8539 8.83768 8.34959 8.10457 8.00335C7.37147 7.65711 6.57078 7.47754 5.76002 7.47754C4.94926 7.47754 4.14857 7.65711 3.41547 8.00335C2.68236 8.34959 2.03505 8.8539 1.52002 9.48006" stroke="#000001" stroke-linecap="round" stroke-linejoin="round"/>
<path d="M6.5 7.53022C6.56 5.27022 7.25 3.21021 8.75 2.47021" stroke="#000001" stroke-linecap="round" stroke-linejoin="round"/>
<path d="M5.76001 0.570101C6.40824 0.442458 7.08074 0.568361 7.6389 0.92186C8.19705 1.27536 8.59832 1.82951 8.76001 2.4701" stroke="#000001" stroke-linecap="round" stroke-linejoin="round"/>
<path d="M12.41 2.84002C11.9497 2.34304 11.3239 2.03121 10.65 1.96308C9.97602 1.89495 9.30041 2.07522 8.75 2.47002" stroke="#000001" stroke-linecap="round" stroke-linejoin="round"/>
<path d="M5.08008 3.54002C5.47193 2.96272 6.05275 2.54006 6.72258 2.34477C7.39242 2.14947 8.10937 2.19376 8.75008 2.47002C9.39274 2.62719 9.94916 3.02799 10.3018 3.58777C10.6545 4.14755 10.7758 4.82248 10.6401 5.47002" stroke="#000001" stroke-linecap="round" stroke-linejoin="round"/>
</g>
<defs>
<clipPath id="clip0_6_6857">
<rect width="14" height="14" fill="white"/>
</clipPath>
</defs>
</svg>
