<svg width="14" height="14" viewBox="0 0 14 14" fill="none" xmlns="http://www.w3.org/2000/svg">
<g clip-path="url(#clip0_6_6792)">
<path d="M12.75 2.75001H11.14C11.0287 2.74944 10.9206 2.78675 10.8334 2.85582C10.7461 2.92488 10.685 3.02158 10.66 3.13001L10.15 5.13001L5.15 4.13001C4.61797 4.02567 4.06949 4.03985 3.54356 4.17154C3.01764 4.30323 2.52719 4.5492 2.10712 4.89195C1.68704 5.23469 1.34765 5.66579 1.11309 6.15459C0.878527 6.64339 0.754558 7.17786 0.75 7.72001C0.75 7.98522 0.855357 8.23958 1.04289 8.42711C1.23043 8.61465 1.48478 8.72001 1.75 8.72001H6.15L7.15 10.3C7.3307 10.5817 7.57919 10.8135 7.8727 10.9742C8.16621 11.1349 8.49536 11.2194 8.83 11.22H9.93C10.0155 11.2193 10.0994 11.1967 10.1737 11.1544C10.248 11.112 10.3101 11.0514 10.3543 10.9781C10.3984 10.9049 10.423 10.8216 10.4258 10.7361C10.4285 10.6507 10.4093 10.5659 10.37 10.49L9.49 8.75001H12.25C12.5152 8.75001 12.7696 8.64465 12.9571 8.45711C13.1446 8.26958 13.25 8.01522 13.25 7.75001V3.25001C13.25 3.1174 13.1973 2.99022 13.1036 2.89645C13.0098 2.80268 12.8826 2.75001 12.75 2.75001Z" stroke="#000001" stroke-linecap="round" stroke-linejoin="round"/>
</g>
<defs>
<clipPath id="clip0_6_6792">
<rect width="14" height="14" fill="white"/>
</clipPath>
</defs>
</svg>
