<svg width="14" height="14" viewBox="0 0 14 14" fill="none" xmlns="http://www.w3.org/2000/svg">
<g clip-path="url(#clip0_6_6826)">
<path d="M5.81998 6.08008C5.58773 5.53486 5.47952 4.94486 5.50319 4.35271C5.52686 3.76056 5.68181 3.18107 5.95683 2.65613C6.23185 2.13119 6.62009 1.67392 7.09345 1.31737C7.56682 0.960829 8.1135 0.713923 8.69396 0.594505C9.27443 0.475086 9.87418 0.486139 10.4498 0.626864C11.0255 0.767589 11.5627 1.03447 12.0226 1.40821C12.4825 1.78195 12.8537 2.25322 13.1092 2.78794C13.3647 3.32265 13.4981 3.90746 13.5 4.50008C13.5004 5.02552 13.3973 5.5459 13.1965 6.03148C12.9958 6.51706 12.7013 6.95833 12.33 7.33008" stroke="#000001" stroke-linecap="round" stroke-linejoin="round"/>
<path d="M9.5 4.5L11 3" stroke="#000001" stroke-linecap="round" stroke-linejoin="round"/>
<path d="M10.2601 9.1601L9.26009 8.8201C9.17777 8.78666 9.08564 8.78678 9.0034 8.82042C8.92117 8.85406 8.85537 8.91856 8.82009 9.0001L8.09009 10.1301L4.09009 8.1301C3.779 7.95176 3.43306 7.84271 3.07594 7.81041C2.71881 7.77812 2.35892 7.82334 2.02089 7.94298C1.68285 8.06262 1.37464 8.25386 1.11734 8.50362C0.860046 8.75338 0.659728 9.05577 0.530092 9.3901C0.503818 9.47546 0.494616 9.56516 0.503011 9.65408C0.511407 9.74299 0.537237 9.82938 0.579024 9.90831C0.620812 9.98725 0.677739 10.0572 0.746555 10.1141C0.815371 10.171 0.894727 10.2138 0.980092 10.2401L3.59009 11.0801L3.85009 11.1601L4.34009 12.8501C4.35583 12.9086 4.38608 12.9622 4.42803 13.0059C4.46998 13.0496 4.52228 13.082 4.58009 13.1001L5.76009 13.4801C5.82125 13.5004 5.88665 13.5043 5.94981 13.4916C6.01297 13.4788 6.0717 13.4498 6.12019 13.4074C6.16868 13.3649 6.20526 13.3106 6.22629 13.2497C6.24732 13.1888 6.25207 13.1234 6.24009 13.0601L6.00009 11.8701L6.17009 11.9201L8.72009 12.7501C8.88721 12.8077 9.07031 12.7969 9.22952 12.7201C9.38874 12.6433 9.51115 12.5067 9.57009 12.3401L10.4701 9.5701C10.4929 9.48788 10.484 9.40007 10.4451 9.32412C10.4062 9.24816 10.3402 9.18962 10.2601 9.1601Z" stroke="#000001" stroke-linecap="round" stroke-linejoin="round"/>
</g>
<defs>
<clipPath id="clip0_6_6826">
<rect width="14" height="14" fill="white"/>
</clipPath>
</defs>
</svg>
