<svg width="14" height="14" viewBox="0 0 14 14" fill="none" xmlns="http://www.w3.org/2000/svg">
<g clip-path="url(#clip0_6_6975)">
<path d="M12.5901 5.5H8.91009C7.06937 5.50173 5.27574 6.08195 3.78275 7.15862C2.28976 8.2353 1.17291 9.75398 0.590088 11.5H12.4101C12.5545 11.5 12.6973 11.4687 12.8285 11.4083C12.9597 11.3479 13.0762 11.2598 13.1701 11.15C13.265 11.0398 13.3348 10.9103 13.3745 10.7704C13.4142 10.6305 13.423 10.4836 13.4001 10.34L12.5901 5.5Z" stroke="#000001" stroke-linecap="round" stroke-linejoin="round"/>
<path d="M12.5901 5.49994L12.3701 4.16994C12.2913 3.69852 12.0462 3.27092 11.6793 2.96457C11.3125 2.65823 10.848 2.4934 10.3701 2.49994H4.59009" stroke="#000001" stroke-linecap="round" stroke-linejoin="round"/>
</g>
<defs>
<clipPath id="clip0_6_6975">
<rect width="14" height="14" fill="white"/>
</clipPath>
</defs>
</svg>
