<svg width="14" height="14" viewBox="0 0 14 14" fill="none" xmlns="http://www.w3.org/2000/svg">
<g clip-path="url(#clip0_6_7054)">
<path d="M13.5 10C13.5 9.20435 13.1839 8.44129 12.6213 7.87868C12.0587 7.31607 11.2956 7 10.5 7H1.5C1.23478 7 0.98043 7.10536 0.792893 7.29289C0.605357 7.48043 0.5 7.73478 0.5 8V12C0.5 12.2652 0.605357 12.5196 0.792893 12.7071C0.98043 12.8946 1.23478 13 1.5 13H10.5C11.2956 13 12.0587 12.6839 12.6213 12.1213C13.1839 11.5587 13.5 10.7956 13.5 10Z" stroke="#000001" stroke-linecap="round" stroke-linejoin="round"/>
<path d="M0.5 10H9.5" stroke="#000001" stroke-linecap="round" stroke-linejoin="round"/>
<path d="M3.5 7C2.70435 7 1.94129 6.68393 1.37868 6.12132C0.81607 5.55871 0.5 4.79565 0.5 4C0.5 3.20435 0.81607 2.44129 1.37868 1.87868C1.94129 1.31607 2.70435 1 3.5 1H12.5C12.7652 1 13.0196 1.10536 13.2071 1.29289C13.3946 1.48043 13.5 1.73478 13.5 2V6C13.5 6.26522 13.3946 6.51957 13.2071 6.70711C13.0196 6.89464 12.7652 7 12.5 7H10.64" stroke="#000001" stroke-linecap="round" stroke-linejoin="round"/>
<path d="M13.5 4H4.5" stroke="#000001" stroke-linecap="round" stroke-linejoin="round"/>
</g>
<defs>
<clipPath id="clip0_6_7054">
<rect width="14" height="14" fill="white"/>
</clipPath>
</defs>
</svg>
