<svg width="14" height="14" viewBox="0 0 14 14" fill="none" xmlns="http://www.w3.org/2000/svg">
<g clip-path="url(#clip0_6_6831)">
<path d="M10.5 8.5002C10.4999 9.3389 10.2889 10.1641 9.88634 10.8999C9.48376 11.6356 8.90256 12.2583 8.19625 12.7106C7.48994 13.1629 6.68121 13.4302 5.8445 13.488C5.00779 13.5458 4.16998 13.3922 3.4082 13.0413C2.64642 12.6904 1.98515 12.1535 1.48524 11.4801C0.985338 10.8066 0.662869 10.0183 0.547517 9.18754C0.432166 8.35681 0.527638 7.51041 0.825147 6.72624C1.12266 5.94208 1.61264 5.24535 2.25 4.7002" stroke="#000001" stroke-linecap="round" stroke-linejoin="round"/>
<path d="M5.27991 6.65015C5.17423 6.86834 5.11952 7.1077 5.11991 7.35015C5.11858 7.55144 5.15725 7.75099 5.23366 7.93722C5.31008 8.12345 5.42273 8.29264 5.56507 8.43498C5.70741 8.57732 5.8766 8.68997 6.06283 8.76639C6.24906 8.84281 6.44861 8.88148 6.64991 8.88015C6.85412 8.88015 7.04998 8.96127 7.19438 9.10567C7.33878 9.25008 7.41991 9.44593 7.41991 9.65015V13.1201" stroke="#000001" stroke-linecap="round" stroke-linejoin="round"/>
<path d="M0.570068 9.27005H2.42007C2.62565 9.26471 2.83021 9.3006 3.02169 9.37559C3.21318 9.45059 3.3877 9.56318 3.53496 9.70672C3.68223 9.85025 3.79926 10.0218 3.87914 10.2113C3.95902 10.4008 4.00014 10.6044 4.00007 10.8101V13.2601" stroke="#000001" stroke-linecap="round" stroke-linejoin="round"/>
<path d="M13.2601 1.96999L12.2601 1.62999C12.1898 1.60611 12.1136 1.6059 12.0432 1.62937C11.9728 1.65284 11.912 1.69872 11.8701 1.75999L11.1401 2.88999L7.14006 0.889988C6.82393 0.703676 6.47052 0.58954 6.10513 0.555747C5.73973 0.521954 5.37139 0.56934 5.02644 0.694513C4.6815 0.819687 4.36849 1.01955 4.1098 1.27981C3.85111 1.54007 3.65314 1.85429 3.53006 2.19999C3.49614 2.28967 3.48157 2.38551 3.4873 2.48122C3.49303 2.57693 3.51894 2.67035 3.56333 2.75534C3.60771 2.84033 3.66957 2.91497 3.74483 2.97437C3.8201 3.03377 3.90708 3.07658 4.00006 3.09999L6.61006 3.93999L6.87006 4.02999L7.36006 5.70999C7.3758 5.76849 7.40605 5.82207 7.448 5.86577C7.48995 5.90947 7.54226 5.94188 7.60006 5.95999L8.78006 6.33999C8.84031 6.35961 8.90458 6.36344 8.96672 6.3511C9.02887 6.33876 9.0868 6.31067 9.13498 6.26952C9.18315 6.22837 9.21996 6.17554 9.24186 6.11609C9.26376 6.05664 9.27003 5.99256 9.26006 5.92999L9.00006 4.67999H9.17006L11.7201 5.50999C11.8872 5.56759 12.0703 5.55683 12.2295 5.48003C12.3887 5.40324 12.5111 5.26663 12.5701 5.09999L13.4701 2.32999C13.48 2.25519 13.4647 2.17922 13.4267 2.11404C13.3887 2.04886 13.3301 1.99819 13.2601 1.96999Z" stroke="#000001" stroke-linecap="round" stroke-linejoin="round"/>
</g>
<defs>
<clipPath id="clip0_6_6831">
<rect width="14" height="14" fill="white"/>
</clipPath>
</defs>
</svg>
