<svg width="14" height="14" viewBox="0 0 14 14" fill="none" xmlns="http://www.w3.org/2000/svg">
<g clip-path="url(#clip0_6_6847)">
<path d="M13.1899 3.78L11.8199 3.34C11.7278 3.31128 11.629 3.31224 11.5375 3.34275C11.4459 3.37326 11.3663 3.43177 11.3099 3.51L10.3699 5L5.20988 2.43C4.80301 2.1914 4.34896 2.04451 3.87943 1.99959C3.40991 1.95467 2.93623 2.01281 2.49151 2.16994C2.04678 2.32707 1.64172 2.5794 1.30463 2.90932C0.967541 3.23923 0.706546 3.63876 0.539881 4.08C0.471113 4.30279 0.493568 4.54375 0.602313 4.74999C0.711058 4.95624 0.897205 5.11089 1.11988 5.18L4.50988 6.28L4.84988 6.39L5.48988 8.58C5.50933 8.65566 5.54814 8.72495 5.6025 8.78106C5.65685 8.83717 5.72488 8.87816 5.79988 8.9L7.33988 9.4C7.4207 9.43492 7.50956 9.44695 7.59675 9.43476C7.68394 9.42257 7.7661 9.38663 7.83424 9.33088C7.90237 9.27513 7.95387 9.20172 7.98308 9.11867C8.0123 9.03562 8.01811 8.94613 7.99988 8.86L7.67988 7.3L7.89988 7.37L11.2099 8.44C11.3168 8.47967 11.4306 8.49767 11.5446 8.49294C11.6586 8.48821 11.7705 8.46085 11.8738 8.41246C11.9771 8.36406 12.0697 8.2956 12.1463 8.21105C12.2229 8.12651 12.2819 8.02757 12.3199 7.92L13.4799 4.32C13.5113 4.20996 13.4985 4.09201 13.4444 3.9912C13.3902 3.89039 13.2989 3.81463 13.1899 3.78V3.78Z" stroke="#000001" stroke-linecap="round" stroke-linejoin="round"/>
<path d="M0.5 13.5H13.5" stroke="#000001" stroke-linecap="round" stroke-linejoin="round"/>
</g>
<defs>
<clipPath id="clip0_6_6847">
<rect width="14" height="14" fill="white"/>
</clipPath>
</defs>
</svg>
