<svg width="14" height="14" viewBox="0 0 14 14" fill="none" xmlns="http://www.w3.org/2000/svg">
<g clip-path="url(#clip0_6_6815)">
<path d="M8.17999 6.0799C8.48039 5.36952 8.56901 4.58745 8.43517 3.82787C8.30133 3.06829 7.95075 2.36361 7.42565 1.79868C6.90054 1.23376 6.22331 0.832698 5.47552 0.643798C4.72774 0.454898 3.94128 0.486218 3.21088 0.733985C2.48048 0.981753 1.83729 1.4354 1.35877 2.04029C0.880256 2.64518 0.586822 3.37552 0.513813 4.14333C0.440804 4.91115 0.591334 5.6837 0.947272 6.36794C1.30321 7.05217 1.84938 7.61891 2.51999 7.9999" stroke="#000001" stroke-linecap="round" stroke-linejoin="round"/>
<path d="M4.5 4.5L6 3" stroke="#000001" stroke-linecap="round" stroke-linejoin="round"/>
<path d="M12.3001 7.09001L11.2401 7.38001C11.1714 7.40114 11.1112 7.44349 11.068 7.50098C11.0249 7.55848 11.0011 7.62815 11.0001 7.70001V9.00001L6.60007 9.52001C6.24005 9.53662 5.88798 9.6315 5.56837 9.79804C5.24875 9.96459 4.96928 10.1988 4.7494 10.4843C4.52952 10.7699 4.37452 11.0999 4.29519 11.4515C4.21587 11.8031 4.21412 12.1677 4.29007 12.52C4.31195 12.6064 4.3511 12.6875 4.40517 12.7584C4.45924 12.8292 4.5271 12.8884 4.60467 12.9323C4.68223 12.9762 4.76788 13.004 4.85646 13.0139C4.94505 13.0238 5.03472 13.0157 5.12007 12.99L7.77007 12.28L8.00007 12.26L9.33007 13.41C9.37662 13.4489 9.43159 13.4763 9.49061 13.4902C9.54963 13.5041 9.61108 13.504 9.67007 13.49L10.8701 13.16C10.9333 13.1456 10.9915 13.1143 11.0385 13.0696C11.0854 13.0248 11.1194 12.9682 11.1368 12.9057C11.1542 12.8432 11.1544 12.7771 11.1374 12.7145C11.1204 12.6519 11.0867 12.5951 11.0401 12.55L10.2101 11.67L10.3801 11.62L12.9701 10.92C13.1402 10.8773 13.2868 10.7697 13.3785 10.6201C13.4701 10.4705 13.4994 10.291 13.4601 10.12L12.7001 7.31001C12.6726 7.23025 12.6164 7.16356 12.5425 7.1229C12.4686 7.08224 12.3822 7.07052 12.3001 7.09001Z" stroke="#000001" stroke-linecap="round" stroke-linejoin="round"/>
</g>
<defs>
<clipPath id="clip0_6_6815">
<rect width="14" height="14" fill="white"/>
</clipPath>
</defs>
</svg>
