<svg width="14" height="14" viewBox="0 0 14 14" fill="none" xmlns="http://www.w3.org/2000/svg">
<g clip-path="url(#clip0_6_6927)">
<path d="M1.77 8.5C0.94747 7.45734 0.500089 6.16804 0.5 4.84V1.58C1.87074 0.870681 3.39161 0.500488 4.935 0.500488C6.47839 0.500488 7.99926 0.870681 9.37 1.58" stroke="#000001" stroke-linecap="round" stroke-linejoin="round"/>
<path d="M7.78996 13.4401C7.44001 13.5192 7.0763 13.5142 6.72865 13.4255C6.38099 13.3369 6.05931 13.1671 5.78996 12.9301V12.9301C4.85421 12.1234 4.16129 11.0723 3.78866 9.89442C3.41604 8.7165 3.3784 7.45815 3.67996 6.26006L4.40996 3.34006C5.99545 2.93796 7.65596 2.93578 9.24249 3.33372C10.829 3.73166 12.2919 4.51728 13.5 5.62006L12.77 8.53006C12.4757 9.72923 11.8543 10.8232 10.9751 11.6901C10.0958 12.557 8.99317 13.1628 7.78996 13.4401V13.4401Z" stroke="#000001" stroke-linecap="round" stroke-linejoin="round"/>
<path d="M5.61011 6.51006C5.73626 6.37805 5.89614 6.2831 6.07242 6.2355C6.24871 6.1879 6.43466 6.18948 6.61011 6.24006C6.78184 6.28046 6.93982 6.36557 7.06803 6.48675C7.19624 6.60794 7.29011 6.76088 7.34011 6.93006" stroke="#000001" stroke-linecap="round" stroke-linejoin="round"/>
<path d="M9.57007 7.49992C9.69218 7.3687 9.84732 7.27271 10.0192 7.222C10.1912 7.17129 10.3736 7.16773 10.5474 7.21168C10.7211 7.25564 10.8799 7.3455 11.0071 7.47186C11.1342 7.59821 11.225 7.75642 11.2701 7.92992" stroke="#000001" stroke-linecap="round" stroke-linejoin="round"/>
</g>
<defs>
<clipPath id="clip0_6_6927">
<rect width="14" height="14" fill="white"/>
</clipPath>
</defs>
</svg>
