<svg width="14" height="14" viewBox="0 0 14 14" fill="none" xmlns="http://www.w3.org/2000/svg">
<g clip-path="url(#clip0_6_6945)">
<path d="M6.5 4.5H1.5C1.23478 4.5 0.98043 4.60536 0.792893 4.79289C0.605357 4.98043 0.5 5.23478 0.5 5.5V6.5C0.5 7.56087 0.921427 8.57828 1.67157 9.32843C2.42172 10.0786 3.43913 10.5 4.5 10.5H9.5C10.5609 10.5 11.5783 10.0786 12.3284 9.32843C13.0786 8.57828 13.5 7.56087 13.5 6.5V5.5C13.5 5.23478 13.3946 4.98043 13.2071 4.79289C13.0196 4.60536 12.7652 4.5 12.5 4.5H10.5" stroke="#000001" stroke-linecap="round" stroke-linejoin="round"/>
<path d="M10.5 3.5H6.5V7.5H10.5V3.5Z" stroke="#000001" stroke-linecap="round" stroke-linejoin="round"/>
</g>
<defs>
<clipPath id="clip0_6_6945">
<rect width="14" height="14" fill="white"/>
</clipPath>
</defs>
</svg>
