<svg width="14" height="14" viewBox="0 0 14 14" fill="none" xmlns="http://www.w3.org/2000/svg">
<g clip-path="url(#clip0_6_6837)">
<path d="M3.00012 1.93004L4.38012 2.47004C4.47469 2.50473 4.55525 2.5695 4.60945 2.6544C4.66364 2.73931 4.68847 2.83965 4.68012 2.94004L4.50012 4.74004L10.3401 6.09004C10.8244 6.16738 11.2859 6.34948 11.6925 6.62363C12.0991 6.89777 12.441 7.25735 12.6943 7.67727C12.9476 8.0972 13.1062 8.56734 13.159 9.05488C13.2118 9.54242 13.1576 10.0356 13.0001 10.5C12.9551 10.6112 12.8886 10.7124 12.8043 10.7978C12.72 10.8832 12.6197 10.9511 12.5091 10.9975C12.3985 11.044 12.2798 11.0681 12.1599 11.0686C12.0399 11.069 11.921 11.0457 11.8101 11L8.36012 9.65004L8.00012 9.52004L6.00012 10.86C5.9313 10.9049 5.85283 10.9328 5.77113 10.9415C5.68943 10.9502 5.60684 10.9394 5.53012 10.91L4.00012 10.3C3.91899 10.2686 3.84746 10.2166 3.7926 10.1491C3.73774 10.0815 3.70145 10.0009 3.68731 9.91503C3.67317 9.82919 3.68168 9.74114 3.71198 9.65959C3.74229 9.57804 3.79335 9.50581 3.86012 9.45004L5.14012 8.39004L4.91012 8.30004L1.54012 7.00004C1.42693 6.95993 1.32291 6.89759 1.23419 6.81667C1.14546 6.73575 1.07383 6.63789 1.02351 6.52886C0.973189 6.41983 0.945195 6.30183 0.941178 6.18181C0.937161 6.06179 0.957202 5.94219 1.00012 5.83004L2.44012 2.17004C2.48446 2.0655 2.5675 1.98216 2.67186 1.93743C2.77623 1.8927 2.89385 1.89005 3.00012 1.93004Z" stroke="#000001" stroke-linecap="round" stroke-linejoin="round"/>
<path d="M0.5 13.5H13.5" stroke="#000001" stroke-linecap="round" stroke-linejoin="round"/>
</g>
<defs>
<clipPath id="clip0_6_6837">
<rect width="14" height="14" fill="white"/>
</clipPath>
</defs>
</svg>
