<svg width="14" height="14" viewBox="0 0 14 14" fill="none" xmlns="http://www.w3.org/2000/svg">
<g clip-path="url(#clip0_6_7095)">
<path d="M2.5 4.5C3.60457 4.5 4.5 3.60457 4.5 2.5C4.5 1.39543 3.60457 0.5 2.5 0.5C1.39543 0.5 0.5 1.39543 0.5 2.5C0.5 3.60457 1.39543 4.5 2.5 4.5Z" stroke="#000001" stroke-linecap="round" stroke-linejoin="round"/>
<path d="M1.5 6.5H3.5C3.76522 6.5 4.01957 6.60536 4.20711 6.79289C4.39464 6.98043 4.5 7.23478 4.5 7.5V10.5H0.5V7.5C0.5 7.23478 0.605357 6.98043 0.792893 6.79289C0.98043 6.60536 1.23478 6.5 1.5 6.5V6.5Z" stroke="#000001" stroke-linecap="round" stroke-linejoin="round"/>
<path d="M0.5 10.5V13.5" stroke="#000001" stroke-linecap="round" stroke-linejoin="round"/>
<path d="M4.5 10.5V13.5" stroke="#000001" stroke-linecap="round" stroke-linejoin="round"/>
<path d="M8.5 5.5L11 3L13.5 5.5" stroke="#000001" stroke-linecap="round" stroke-linejoin="round"/>
<path d="M8.5 9.5L11 12L13.5 9.5" stroke="#000001" stroke-linecap="round" stroke-linejoin="round"/>
</g>
<defs>
<clipPath id="clip0_6_7095">
<rect width="14" height="14" fill="white"/>
</clipPath>
</defs>
</svg>
