<svg width="14" height="14" viewBox="0 0 14 14" fill="none" xmlns="http://www.w3.org/2000/svg">
<g clip-path="url(#clip0_6_7043)">
<path d="M13.5 10.5C13.5 12.16 10.59 13.5 7 13.5C3.41 13.5 0.5 12.16 0.5 10.5" stroke="#000001" stroke-linecap="round" stroke-linejoin="round"/>
<path d="M9.5 5.5C9.5 6.88 7.5 9 7 9C6.5 9 4.5 6.88 4.5 5.5C4.5 3.5 7 0.5 7 0.5C7 0.5 9.5 3.5 9.5 5.5Z" stroke="#000001" stroke-linecap="round" stroke-linejoin="round"/>
<path d="M4.88 3.89C3.62967 3.42991 2.32586 3.13084 1 3C1 3 1.35 6.89 2.77 8.3C3.77 9.3 6.66 9.36 7.01 9.01" stroke="#000001" stroke-linecap="round" stroke-linejoin="round"/>
<path d="M9.11999 3.89C10.3703 3.42991 11.6741 3.13084 13 3C13 3 12.65 6.89 11.23 8.3C10.23 9.3 7.33999 9.36 6.98999 9.01" stroke="#000001" stroke-linecap="round" stroke-linejoin="round"/>
</g>
<defs>
<clipPath id="clip0_6_7043">
<rect width="14" height="14" fill="white"/>
</clipPath>
</defs>
</svg>
