<svg width="14" height="14" viewBox="0 0 14 14" fill="none" xmlns="http://www.w3.org/2000/svg">
<g clip-path="url(#clip0_6_6768)">
<path d="M7 2.4V0.5" stroke="#000001" stroke-linecap="round" stroke-linejoin="round"/>
<path d="M7 13.5V11.5" stroke="#000001" stroke-linecap="round" stroke-linejoin="round"/>
<path d="M11.6001 7H13.5001" stroke="#000001" stroke-linecap="round" stroke-linejoin="round"/>
<path d="M1.5 1.5L12.5 12.5" stroke="#000001" stroke-linecap="round" stroke-linejoin="round"/>
<path d="M0.5 7H2.5" stroke="#000001" stroke-linecap="round" stroke-linejoin="round"/>
<path d="M3.80005 3.79992C5.50005 1.99992 8.40005 1.89992 10.2 3.59992C12 5.29992 12.1 8.09992 10.4 9.99992C10.3 10.0999 10.3 10.1999 10.2 10.1999" stroke="#000001" stroke-linecap="round" stroke-linejoin="round"/>
<path d="M8 11.4001C5.6 11.9001 3.2 10.4001 2.6 8.0001C2.5 7.7001 2.5 7.3001 2.5 7.0001C2.5 6.5001 2.6 6.0001 2.7 5.6001" stroke="#000001" stroke-linecap="round" stroke-linejoin="round"/>
</g>
<defs>
<clipPath id="clip0_6_6768">
<rect width="14" height="14" fill="white"/>
</clipPath>
</defs>
</svg>
