<svg width="14" height="14" viewBox="0 0 14 14" fill="none" xmlns="http://www.w3.org/2000/svg">
<g clip-path="url(#clip0_6_6906)">
<path d="M13.5 9.25991L9.71 4.25991C9.61704 4.16618 9.50644 4.09179 9.38458 4.04102C9.26272 3.99025 9.13201 3.96411 9 3.96411C8.86799 3.96411 8.73728 3.99025 8.61542 4.04102C8.49356 4.09179 8.38296 4.16618 8.29 4.25991L0.5 13.4999H13.5" stroke="#000001" stroke-linecap="round" stroke-linejoin="round"/>
<path d="M4.68994 8.5L6.15994 9.5C6.3293 9.62058 6.53204 9.68538 6.73994 9.68538C6.94784 9.68538 7.15058 9.62058 7.31994 9.5L8.20994 8.83C8.38304 8.70018 8.59357 8.63 8.80994 8.63C9.02631 8.63 9.23685 8.70018 9.40994 8.83L10.2999 9.5C10.4683 9.61834 10.6691 9.68185 10.8749 9.68185C11.0808 9.68185 11.2816 9.61834 11.4499 9.5L12.9299 8.5" stroke="#000001" stroke-linecap="round" stroke-linejoin="round"/>
<path d="M3 5.5C4.38071 5.5 5.5 4.38071 5.5 3C5.5 1.61929 4.38071 0.5 3 0.5C1.61929 0.5 0.5 1.61929 0.5 3C0.5 4.38071 1.61929 5.5 3 5.5Z" stroke="#000001" stroke-linecap="round" stroke-linejoin="round"/>
</g>
<defs>
<clipPath id="clip0_6_6906">
<rect width="14" height="14" fill="white"/>
</clipPath>
</defs>
</svg>
