<svg width="14" height="14" viewBox="0 0 14 14" fill="none" xmlns="http://www.w3.org/2000/svg">
<g clip-path="url(#clip0_6_6753)">
<path d="M7 11.5C9.48528 11.5 11.5 9.48528 11.5 7C11.5 4.51472 9.48528 2.5 7 2.5C4.51472 2.5 2.5 4.51472 2.5 7C2.5 9.48528 4.51472 11.5 7 11.5Z" stroke="#000001" stroke-linecap="round" stroke-linejoin="round"/>
<path d="M7 7.5C7.27614 7.5 7.5 7.27614 7.5 7C7.5 6.72386 7.27614 6.5 7 6.5C6.72386 6.5 6.5 6.72386 6.5 7C6.5 7.27614 6.72386 7.5 7 7.5Z" stroke="#000001" stroke-linecap="round" stroke-linejoin="round"/>
<path d="M7 2.5V0.5" stroke="#000001" stroke-linecap="round" stroke-linejoin="round"/>
<path d="M7 13.5V11.5" stroke="#000001" stroke-linecap="round" stroke-linejoin="round"/>
<path d="M11.5 7H13.5" stroke="#000001" stroke-linecap="round" stroke-linejoin="round"/>
<path d="M0.5 7H2.5" stroke="#000001" stroke-linecap="round" stroke-linejoin="round"/>
</g>
<defs>
<clipPath id="clip0_6_6753">
<rect width="14" height="14" fill="white"/>
</clipPath>
</defs>
</svg>
