<svg width="14" height="14" viewBox="0 0 14 14" fill="none" xmlns="http://www.w3.org/2000/svg">
<g clip-path="url(#clip0_6_6938)">
<path d="M12.5 0.5H1.5C0.947715 0.5 0.5 0.947715 0.5 1.5V6.5C0.5 7.05228 0.947715 7.5 1.5 7.5H12.5C13.0523 7.5 13.5 7.05228 13.5 6.5V1.5C13.5 0.947715 13.0523 0.5 12.5 0.5Z" stroke="#000001" stroke-linecap="round" stroke-linejoin="round"/>
<path d="M11 7.5V5.5C11 5.23478 10.8946 4.98043 10.7071 4.79289C10.5196 4.60536 10.2652 4.5 10 4.5H4C3.73478 4.5 3.48043 4.60536 3.29289 4.79289C3.10536 4.98043 3 5.23478 3 5.5V7.5" stroke="#000001" stroke-linecap="round" stroke-linejoin="round"/>
<path d="M3 10.5L2.5 13.5" stroke="#000001" stroke-linecap="round" stroke-linejoin="round"/>
<path d="M7 10.5V13.5" stroke="#000001" stroke-linecap="round" stroke-linejoin="round"/>
<path d="M11 10.5L11.5 13.5" stroke="#000001" stroke-linecap="round" stroke-linejoin="round"/>
</g>
<defs>
<clipPath id="clip0_6_6938">
<rect width="14" height="14" fill="white"/>
</clipPath>
</defs>
</svg>
