<svg width="14" height="14" viewBox="0 0 14 14" fill="none" xmlns="http://www.w3.org/2000/svg">
<g clip-path="url(#clip0_6_6802)">
<path d="M12.5 10.4999C12.7652 10.4999 13.0196 10.3945 13.2071 10.207C13.3946 10.0195 13.5 9.76511 13.5 9.4999V7.4999C13.5 7.23468 13.3946 6.98032 13.2071 6.79279C13.0196 6.60525 12.7652 6.4999 12.5 6.4999H11L10.23 4.17989C10.1604 3.97291 10.025 3.7944 9.84443 3.67161C9.66386 3.54882 9.44807 3.48851 9.23 3.4999H5.22C5.00193 3.48851 4.78614 3.54882 4.60557 3.67161C4.425 3.7944 4.28958 3.97291 4.22 4.17989L3.5 6.4999H1.5C1.23478 6.4999 0.98043 6.60525 0.792893 6.79279C0.605357 6.98032 0.5 7.23468 0.5 7.4999V9.4999C0.5 9.76511 0.605357 10.0195 0.792893 10.207C0.98043 10.3945 1.23478 10.4999 1.5 10.4999" stroke="#000001" stroke-linecap="round" stroke-linejoin="round"/>
<path d="M3.5 12.5C4.60457 12.5 5.5 11.6046 5.5 10.5C5.5 9.39543 4.60457 8.5 3.5 8.5C2.39543 8.5 1.5 9.39543 1.5 10.5C1.5 11.6046 2.39543 12.5 3.5 12.5Z" stroke="#000001" stroke-linecap="round" stroke-linejoin="round"/>
<path d="M10.5 12.5C11.6046 12.5 12.5 11.6046 12.5 10.5C12.5 9.39543 11.6046 8.5 10.5 8.5C9.39543 8.5 8.5 9.39543 8.5 10.5C8.5 11.6046 9.39543 12.5 10.5 12.5Z" stroke="#000001" stroke-linecap="round" stroke-linejoin="round"/>
<path d="M5.5 10.5H8.5" stroke="#000001" stroke-linecap="round" stroke-linejoin="round"/>
<path d="M7 3.5V1.5" stroke="#000001" stroke-linecap="round" stroke-linejoin="round"/>
</g>
<defs>
<clipPath id="clip0_6_6802">
<rect width="14" height="14" fill="white"/>
</clipPath>
</defs>
</svg>
