<svg width="14" height="14" viewBox="0 0 14 14" fill="none" xmlns="http://www.w3.org/2000/svg">
<g clip-path="url(#clip0_6_6971)">
<path d="M9 3C9 2.60444 8.8827 2.21776 8.66294 1.88886C8.44318 1.55996 8.13082 1.30362 7.76537 1.15224C7.39992 1.00087 6.99778 0.96126 6.60982 1.03843C6.22186 1.1156 5.86549 1.30608 5.58579 1.58579C5.30608 1.86549 5.1156 2.22186 5.03843 2.60982C4.96126 2.99778 5.00087 3.39992 5.15224 3.76537C5.30362 4.13082 5.55996 4.44318 5.88886 4.66294C6.21776 4.8827 6.60444 5 7 5V6" stroke="#000001" stroke-linecap="round" stroke-linejoin="round"/>
<path d="M7 6L1 10.6C0.840661 10.7263 0.712635 10.8876 0.625906 11.0715C0.539177 11.2553 0.496089 11.4567 0.5 11.66C0.5 12.0154 0.641178 12.3562 0.892477 12.6075C1.14378 12.8588 1.48461 13 1.84 13H12.16C12.5154 13 12.8562 12.8588 13.1075 12.6075C13.3588 12.3562 13.5 12.0154 13.5 11.66C13.5039 11.4567 13.4608 11.2553 13.3741 11.0715C13.2874 10.8876 13.1593 10.7263 13 10.6L7 6Z" stroke="#000001" stroke-linecap="round" stroke-linejoin="round"/>
</g>
<defs>
<clipPath id="clip0_6_6971">
<rect width="14" height="14" fill="white"/>
</clipPath>
</defs>
</svg>
