<svg width="14" height="14" viewBox="0 0 14 14" fill="none" xmlns="http://www.w3.org/2000/svg">
<g clip-path="url(#clip0_6_6893)">
<path d="M10.89 0.93C10.7981 0.797534 10.6755 0.689251 10.5327 0.614379C10.39 0.539506 10.2312 0.500265 10.07 0.5H3.92998C3.76876 0.500265 3.60999 0.539506 3.46721 0.614379C3.32443 0.689251 3.20187 0.797534 3.10998 0.93L1.50998 3.24C1.38004 3.43679 1.32383 3.67317 1.35128 3.90739C1.37873 4.1416 1.48806 4.35858 1.65998 4.52L6.32998 9.24C6.51373 9.40584 6.75245 9.49764 6.99998 9.49764C7.2475 9.49764 7.48622 9.40584 7.66998 9.24L12.34 4.52C12.5119 4.35858 12.6212 4.1416 12.6487 3.90739C12.6761 3.67317 12.6199 3.43679 12.49 3.24L10.89 0.93Z" stroke="#000001" stroke-linecap="round" stroke-linejoin="round"/>
<path d="M6.99993 0.5L4.67993 3.94L6.85993 9.49" stroke="#000001" stroke-linecap="round" stroke-linejoin="round"/>
<path d="M7 0.5L9.32 3.94L7.14 9.49" stroke="#000001" stroke-linecap="round" stroke-linejoin="round"/>
<path d="M1.3501 3.93994H12.6501" stroke="#000001" stroke-linecap="round" stroke-linejoin="round"/>
<path d="M13 13.5C13 12.9696 12.7893 12.4609 12.4142 12.0858C12.0391 11.7107 11.5304 11.5 11 11.5H3C2.46957 11.5 1.96086 11.7107 1.58579 12.0858C1.21071 12.4609 1 12.9696 1 13.5V13.5" stroke="#000001" stroke-linecap="round" stroke-linejoin="round"/>
</g>
<defs>
<clipPath id="clip0_6_6893">
<rect width="14" height="14" fill="white"/>
</clipPath>
</defs>
</svg>
