<svg width="14" height="14" viewBox="0 0 14 14" fill="none" xmlns="http://www.w3.org/2000/svg">
<g clip-path="url(#clip0_6_7008)">
<path d="M1.5 9.5C2.05228 9.5 2.5 8.82843 2.5 8C2.5 7.17157 2.05228 6.5 1.5 6.5C0.947715 6.5 0.5 7.17157 0.5 8C0.5 8.82843 0.947715 9.5 1.5 9.5Z" stroke="#000001" stroke-linecap="round" stroke-linejoin="round"/>
<path d="M4.5 5C5.05228 5 5.5 4.32843 5.5 3.5C5.5 2.67157 5.05228 2 4.5 2C3.94772 2 3.5 2.67157 3.5 3.5C3.5 4.32843 3.94772 5 4.5 5Z" stroke="#000001" stroke-linecap="round" stroke-linejoin="round"/>
<path d="M9.5 5C10.0523 5 10.5 4.32843 10.5 3.5C10.5 2.67157 10.0523 2 9.5 2C8.94772 2 8.5 2.67157 8.5 3.5C8.5 4.32843 8.94772 5 9.5 5Z" stroke="#000001" stroke-linecap="round" stroke-linejoin="round"/>
<path d="M12.5 9.5C13.0523 9.5 13.5 8.82843 13.5 8C13.5 7.17157 13.0523 6.5 12.5 6.5C11.9477 6.5 11.5 7.17157 11.5 8C11.5 8.82843 11.9477 9.5 12.5 9.5Z" stroke="#000001" stroke-linecap="round" stroke-linejoin="round"/>
<path d="M10 10C10 11.38 8.38 12 7 12C5.62 12 4 11.38 4 10C4 8.62 5 6.5 7 6.5C9 6.5 10 8.62 10 10Z" stroke="#000001" stroke-linecap="round" stroke-linejoin="round"/>
</g>
<defs>
<clipPath id="clip0_6_7008">
<rect width="14" height="14" fill="white"/>
</clipPath>
</defs>
</svg>
