<svg width="14" height="14" viewBox="0 0 14 14" fill="none" xmlns="http://www.w3.org/2000/svg">
<g clip-path="url(#clip0_6_6841)">
<path d="M11.5 0.5H2.5C1.94772 0.5 1.5 0.947715 1.5 1.5V12.5C1.5 13.0523 1.94772 13.5 2.5 13.5H11.5C12.0523 13.5 12.5 13.0523 12.5 12.5V1.5C12.5 0.947715 12.0523 0.5 11.5 0.5Z" stroke="#000001" stroke-linecap="round" stroke-linejoin="round"/>
<path d="M7 9C8.65685 9 10 7.65685 10 6C10 4.34315 8.65685 3 7 3C5.34315 3 4 4.34315 4 6C4 7.65685 5.34315 9 7 9Z" stroke="#000001" stroke-linecap="round" stroke-linejoin="round"/>
<path d="M4 6H10" stroke="#000001" stroke-linecap="round" stroke-linejoin="round"/>
<path d="M7 9V3" stroke="#000001" stroke-linecap="round" stroke-linejoin="round"/>
</g>
<defs>
<clipPath id="clip0_6_6841">
<rect width="14" height="14" fill="white"/>
</clipPath>
</defs>
</svg>
