<svg width="14" height="14" viewBox="0 0 14 14" fill="none" xmlns="http://www.w3.org/2000/svg">
<g clip-path="url(#clip0_6_6917)">
<path d="M5.5 10.5C5.5 11.2956 5.81607 12.0587 6.37868 12.6213C6.94129 13.1839 7.70435 13.5 8.5 13.5H10.5C11.2956 13.5 12.0587 13.1839 12.6213 12.6213C13.1839 12.0587 13.5 11.2956 13.5 10.5V0.5" stroke="#000001" stroke-linecap="round" stroke-linejoin="round"/>
<path d="M10.5 5.5C10.5 4.96957 10.2893 4.46086 9.91421 4.08579C9.53914 3.71071 9.03043 3.5 8.5 3.5H2.5C1.96957 3.5 1.46086 3.71071 1.08579 4.08579C0.710714 4.46086 0.5 4.96957 0.5 5.5V7.5C0.5 8.03043 0.710714 8.53914 1.08579 8.91421C1.46086 9.28929 1.96957 9.5 2.5 9.5H3.5L4.67 7.75C4.76148 7.61388 4.88503 7.50234 5.02977 7.42522C5.17451 7.3481 5.336 7.30776 5.5 7.30776C5.664 7.30776 5.82549 7.3481 5.97023 7.42522C6.11497 7.50234 6.23852 7.61388 6.33 7.75L7.5 9.5H8.5C9.03043 9.5 9.53914 9.28929 9.91421 8.91421C10.2893 8.53914 10.5 8.03043 10.5 7.5V5.5Z" stroke="#000001" stroke-linecap="round" stroke-linejoin="round"/>
</g>
<defs>
<clipPath id="clip0_6_6917">
<rect width="14" height="14" fill="white"/>
</clipPath>
</defs>
</svg>
