<svg width="14" height="14" viewBox="0 0 14 14" fill="none" xmlns="http://www.w3.org/2000/svg">
<g clip-path="url(#clip0_6_7074)">
<path d="M3.99997 2.52993C3.94829 2.50009 3.88966 2.48438 3.82997 2.48438C3.77029 2.48438 3.71166 2.50009 3.65997 2.52993C3.62481 2.57005 3.60543 2.62158 3.60543 2.67493C3.60543 2.72827 3.62481 2.77981 3.65997 2.81993C4.65997 4.55993 4.91997 7.02993 3.48997 8.37993C2.94109 7.9342 2.5001 7.37013 2.19997 6.72993C1.66756 7.02462 1.22699 7.46079 0.926974 7.99023C0.62696 8.51966 0.479181 9.12175 0.499974 9.72993C0.529261 10.2573 0.662703 10.7736 0.892601 11.2492C1.1225 11.7247 1.4443 12.15 1.83943 12.5005C2.23455 12.851 2.69519 13.1198 3.19474 13.2913C3.69429 13.4628 4.22287 13.5338 4.74997 13.4999C5.28388 13.5511 5.8226 13.4911 6.33212 13.3236C6.84164 13.156 7.3109 12.8847 7.71027 12.5267C8.10964 12.1687 8.43044 11.7317 8.65242 11.2435C8.87441 10.7552 8.99275 10.2262 8.99997 9.68993C9.10997 7.15993 7.32997 3.99993 3.99997 2.52993Z" stroke="#000001" stroke-linecap="round" stroke-linejoin="round"/>
<path d="M6.86992 9.68994C6.86993 9.91272 6.82588 10.1333 6.74033 10.339C6.65477 10.5447 6.52939 10.7314 6.3714 10.8885C6.21341 11.0456 6.02592 11.1698 5.81973 11.2542C5.61353 11.3385 5.3927 11.3813 5.16992 11.3799" stroke="#000001" stroke-linecap="round" stroke-linejoin="round"/>
<path d="M11.5 0.5L13.5 2.5L11.5 4.5" stroke="#000001" stroke-linecap="round" stroke-linejoin="round"/>
<path d="M13.5 2.5H9" stroke="#000001" stroke-linecap="round" stroke-linejoin="round"/>
</g>
<defs>
<clipPath id="clip0_6_7074">
<rect width="14" height="14" fill="white"/>
</clipPath>
</defs>
</svg>
