<svg width="14" height="14" viewBox="0 0 14 14" fill="none" xmlns="http://www.w3.org/2000/svg">
<g clip-path="url(#clip0_6_6851)">
<path d="M3 8H1.5C1.5 9.45869 2.07946 10.8576 3.11091 11.8891C4.14236 12.9205 5.54131 13.5 7 13.5C8.45869 13.5 9.85764 12.9205 10.8891 11.8891C11.9205 10.8576 12.5 9.45869 12.5 8H11" stroke="#000001" stroke-linecap="round" stroke-linejoin="round"/>
<path d="M7 3.5C7.82843 3.5 8.5 2.82843 8.5 2C8.5 1.17157 7.82843 0.5 7 0.5C6.17157 0.5 5.5 1.17157 5.5 2C5.5 2.82843 6.17157 3.5 7 3.5Z" stroke="#000001" stroke-linecap="round" stroke-linejoin="round"/>
<path d="M7 3.5V13.5" stroke="#000001" stroke-linecap="round" stroke-linejoin="round"/>
<path d="M5.5 6.5H8.5" stroke="#000001" stroke-linecap="round" stroke-linejoin="round"/>
</g>
<defs>
<clipPath id="clip0_6_6851">
<rect width="14" height="14" fill="white"/>
</clipPath>
</defs>
</svg>
