<svg width="14" height="14" viewBox="0 0 14 14" fill="none" xmlns="http://www.w3.org/2000/svg">
<g clip-path="url(#clip0_6_6883)">
<path d="M2.75 5C3.99264 5 5 3.99264 5 2.75C5 1.50736 3.99264 0.5 2.75 0.5C1.50736 0.5 0.5 1.50736 0.5 2.75C0.5 3.99264 1.50736 5 2.75 5Z" stroke="#000001" stroke-linecap="round" stroke-linejoin="round"/>
<path d="M11.25 5C12.4926 5 13.5 3.99264 13.5 2.75C13.5 1.50736 12.4926 0.5 11.25 0.5C10.0074 0.5 9 1.50736 9 2.75C9 3.99264 10.0074 5 11.25 5Z" stroke="#000001" stroke-linecap="round" stroke-linejoin="round"/>
<path d="M3 0.5H11" stroke="#000001" stroke-linecap="round" stroke-linejoin="round"/>
<path d="M4.15991 4.5H9.83991" stroke="#000001" stroke-linecap="round" stroke-linejoin="round"/>
<path d="M3 13.5V4.98999" stroke="#000001" stroke-linecap="round" stroke-linejoin="round"/>
<path d="M5.5 13.5V7.5" stroke="#000001" stroke-linecap="round" stroke-linejoin="round"/>
<path d="M8.5 13.5V7.5" stroke="#000001" stroke-linecap="round" stroke-linejoin="round"/>
<path d="M11 13.5V4.98999" stroke="#000001" stroke-linecap="round" stroke-linejoin="round"/>
</g>
<defs>
<clipPath id="clip0_6_6883">
<rect width="14" height="14" fill="white"/>
</clipPath>
</defs>
</svg>
