<svg width="14" height="14" viewBox="0 0 14 14" fill="none" xmlns="http://www.w3.org/2000/svg">
<g clip-path="url(#clip0_6_6820)">
<path d="M11.5 4H2.5C1.39543 4 0.5 4.89543 0.5 6V11.5C0.5 12.6046 1.39543 13.5 2.5 13.5H11.5C12.6046 13.5 13.5 12.6046 13.5 11.5V6C13.5 4.89543 12.6046 4 11.5 4Z" stroke="#000001" stroke-linecap="round" stroke-linejoin="round"/>
<path d="M4 13.5V4" stroke="#000001" stroke-linecap="round" stroke-linejoin="round"/>
<path d="M10 13.5V4" stroke="#000001" stroke-linecap="round" stroke-linejoin="round"/>
<path d="M4.5 4C4.5 3.33696 4.76339 2.70107 5.23223 2.23223C5.70107 1.76339 6.33696 1.5 7 1.5C7.66304 1.5 8.29893 1.76339 8.76777 2.23223C9.23661 2.70107 9.5 3.33696 9.5 4" stroke="#000001" stroke-linecap="round" stroke-linejoin="round"/>
</g>
<defs>
<clipPath id="clip0_6_6820">
<rect width="14" height="14" fill="white"/>
</clipPath>
</defs>
</svg>
