<svg width="14" height="14" viewBox="0 0 14 14" fill="none" xmlns="http://www.w3.org/2000/svg">
<g clip-path="url(#clip0_6_6979)">
<path d="M12.5 0.5H1.5C0.947715 0.5 0.5 0.947715 0.5 1.5V12.5C0.5 13.0523 0.947715 13.5 1.5 13.5H12.5C13.0523 13.5 13.5 13.0523 13.5 12.5V1.5C13.5 0.947715 13.0523 0.5 12.5 0.5Z" stroke="#000001" stroke-linecap="round" stroke-linejoin="round"/>
<path d="M7 11.5C8.933 11.5 10.5 9.933 10.5 8C10.5 6.067 8.933 4.5 7 4.5C5.067 4.5 3.5 6.067 3.5 8C3.5 9.933 5.067 11.5 7 11.5Z" stroke="#000001" stroke-linecap="round" stroke-linejoin="round"/>
<path d="M0.5 3.5H3.5" stroke="#000001" stroke-linecap="round" stroke-linejoin="round"/>
<path d="M10.5 3.5H13.5" stroke="#000001" stroke-linecap="round" stroke-linejoin="round"/>
<path d="M7 7.96997V11.47" stroke="#000001" stroke-linecap="round" stroke-linejoin="round"/>
<path d="M4 6.19995L7 7.96995" stroke="#000001" stroke-linecap="round" stroke-linejoin="round"/>
<path d="M10 6.19995L7 7.96995" stroke="#000001" stroke-linecap="round" stroke-linejoin="round"/>
</g>
<defs>
<clipPath id="clip0_6_6979">
<rect width="14" height="14" fill="white"/>
</clipPath>
</defs>
</svg>
