<svg width="14" height="14" viewBox="0 0 14 14" fill="none" xmlns="http://www.w3.org/2000/svg">
<g clip-path="url(#clip0_6_6900)">
<path d="M12 7C12.4183 7.21698 12.7751 7.53603 13.0373 7.92759C13.2995 8.31916 13.4587 8.77057 13.5 9.24C13.5 11.17 10.59 12.74 7 12.74C3.41 12.74 0.5 11.18 0.5 9.25C0.539699 8.77881 0.698081 8.32536 0.960374 7.93192C1.22267 7.53848 1.58033 7.21787 2 7" stroke="#000001" stroke-linecap="round" stroke-linejoin="round"/>
<path d="M4.08004 2.25C2.08004 4.75 6.08004 5.75 4.08004 8.25" stroke="#000001" stroke-linecap="round" stroke-linejoin="round"/>
<path d="M6.99996 1.25C4.99996 3.75 8.99996 6.75 6.99996 9.25" stroke="#000001" stroke-linecap="round" stroke-linejoin="round"/>
<path d="M9.91988 2.25C7.91988 4.75 11.9199 5.75 9.91988 8.25" stroke="#000001" stroke-linecap="round" stroke-linejoin="round"/>
</g>
<defs>
<clipPath id="clip0_6_6900">
<rect width="14" height="14" fill="white"/>
</clipPath>
</defs>
</svg>
