<svg width="14" height="14" viewBox="0 0 14 14" fill="none" xmlns="http://www.w3.org/2000/svg">
<g clip-path="url(#clip0_6_6739)">
<path d="M6.16016 8.75C7.81701 8.75 9.16016 7.40685 9.16016 5.75C9.16016 4.09315 7.81701 2.75 6.16016 2.75C4.5033 2.75 3.16016 4.09315 3.16016 5.75C3.16016 7.40685 4.5033 8.75 6.16016 8.75Z" stroke="#000001" stroke-linecap="round" stroke-linejoin="round"/>
<path d="M6.16016 11V13.5" stroke="#000001" stroke-linecap="round" stroke-linejoin="round"/>
<path d="M4.66016 13.5H7.66016" stroke="#000001" stroke-linecap="round" stroke-linejoin="round"/>
<path d="M6.16009 0.5C7.01503 0.500112 7.85701 0.709013 8.61285 1.10855C9.36869 1.50808 10.0155 2.08616 10.4971 2.79255C10.9787 3.49893 11.2806 4.31224 11.3763 5.1618C11.4721 6.01136 11.359 6.87146 11.0468 7.66735C10.7345 8.46324 10.2326 9.17083 9.58474 9.72863C8.93684 10.2864 8.16251 10.6776 7.32906 10.868C6.4956 11.0585 5.62824 11.0426 4.80236 10.8216C3.97647 10.6006 3.21705 10.1812 2.59009 9.6" stroke="#000001" stroke-linecap="round" stroke-linejoin="round"/>
</g>
<defs>
<clipPath id="clip0_6_6739">
<rect width="14" height="14" fill="white"/>
</clipPath>
</defs>
</svg>
