<svg width="14" height="14" viewBox="0 0 14 14" fill="none" xmlns="http://www.w3.org/2000/svg">
<g clip-path="url(#clip0_6_7003)">
<path d="M10.5 0.5H3.5C1.84315 0.5 0.5 1.84315 0.5 3.5V10.5C0.5 12.1569 1.84315 13.5 3.5 13.5H10.5C12.1569 13.5 13.5 12.1569 13.5 10.5V3.5C13.5 1.84315 12.1569 0.5 10.5 0.5Z" stroke="#000001" stroke-linecap="round" stroke-linejoin="round"/>
<path d="M5.5 3.5V10.5" stroke="#000001" stroke-linecap="round" stroke-linejoin="round"/>
<path d="M5.5 7.5H7.5C8.03043 7.5 8.53914 7.28929 8.91421 6.91421C9.28929 6.53914 9.5 6.03043 9.5 5.5C9.5 4.96957 9.28929 4.46086 8.91421 4.08579C8.53914 3.71071 8.03043 3.5 7.5 3.5H5.5" stroke="#000001" stroke-linecap="round" stroke-linejoin="round"/>
</g>
<defs>
<clipPath id="clip0_6_7003">
<rect width="14" height="14" fill="white"/>
</clipPath>
</defs>
</svg>
