<svg width="54" height="54" viewBox="0 0 54 54" fill="none" xmlns="http://www.w3.org/2000/svg">
<path d="M7.875 45C6.975 45 6.1875 44.6625 5.5125 43.9875C4.8375 43.3125 4.5 42.525 4.5 41.625V35.8875C4.5 35.4094 4.66275 35.0085 4.98825 34.6849C5.31337 34.3617 5.7165 34.2 6.19762 34.2C6.67837 34.2 7.07813 34.3617 7.39687 34.6849C7.71562 35.0085 7.875 35.4094 7.875 35.8875V41.625H13.6125C14.0906 41.625 14.4915 41.7878 14.8151 42.1132C15.1383 42.4384 15.3 42.8415 15.3 43.3226C15.3 43.8033 15.1383 44.2032 14.8151 44.5219C14.4915 44.8406 14.0906 45 13.6125 45H7.875ZM20.0813 36.2812L22.6687 23.0625L17.0437 25.7063V31.5562C17.0437 32.0344 16.881 32.4351 16.5555 32.7583C16.2304 33.082 15.8273 33.2437 15.3461 33.2437C14.8654 33.2437 14.4656 33.082 14.1469 32.7583C13.8282 32.4351 13.6687 32.0344 13.6687 31.5562V24.525C13.6687 24.1751 13.7602 23.8616 13.9432 23.5845C14.1258 23.3074 14.3719 23.0959 14.6813 22.95L22.8938 19.5188C24.0938 18.9937 24.9469 18.6657 25.4531 18.5344C25.9594 18.4031 26.4675 18.3375 26.9775 18.3375C27.7425 18.3375 28.4156 18.4969 28.9969 18.8156C29.5782 19.1343 30.075 19.6125 30.4875 20.25L32.85 24.0188C32.9374 24.1436 33.0249 24.2687 33.1127 24.3939C33.2001 24.5188 33.2812 24.6375 33.3562 24.75C31.4438 25.9875 29.9062 27.6094 28.7437 29.6156C27.5813 31.6218 26.9625 33.8437 26.8875 36.2812H20.0813ZM30.3795 16.0875C29.2515 16.0875 28.2844 15.6859 27.4781 14.8826C26.6718 14.0794 26.2688 13.1138 26.2688 11.9858C26.2688 10.8577 26.6704 9.89063 27.4736 9.08437C28.2769 8.27812 29.2425 7.875 30.3705 7.875C31.4985 7.875 32.4656 8.27662 33.2719 9.07987C34.0782 9.88313 34.4812 10.8487 34.4812 11.9767C34.4812 13.1048 34.0796 14.0718 33.2764 14.8781C32.4731 15.6844 31.5075 16.0875 30.3795 16.0875ZM4.5 9.1125V3.375C4.5 2.475 4.8375 1.6875 5.5125 1.0125C6.1875 0.3375 6.975 0 7.875 0H13.6125C14.0906 0 14.4915 0.162749 14.8151 0.48825C15.1383 0.813375 15.3 1.2165 15.3 1.69762C15.3 2.17837 15.1383 2.57813 14.8151 2.89688C14.4915 3.21562 14.0906 3.375 13.6125 3.375H7.875V9.1125C7.875 9.59063 7.71225 9.99132 7.38675 10.3146C7.06163 10.6382 6.6585 10.8 6.17738 10.8C5.69663 10.8 5.29687 10.6382 4.97813 10.3146C4.65938 9.99132 4.5 9.59063 4.5 9.1125ZM46.125 9.1125V3.375H40.3875C39.9094 3.375 39.5087 3.21225 39.1854 2.88675C38.8618 2.56163 38.7 2.1585 38.7 1.67738C38.7 1.19663 38.8618 0.796875 39.1854 0.478125C39.5087 0.159375 39.9094 0 40.3875 0H46.125C47.025 0 47.8125 0.3375 48.4875 1.0125C49.1625 1.6875 49.5 2.475 49.5 3.375V9.1125C49.5 9.59063 49.3372 9.99132 49.0118 10.3146C48.6866 10.6382 48.2835 10.8 47.8024 10.8C47.3217 10.8 46.9218 10.6382 46.6031 10.3146C46.2844 9.99132 46.125 9.59063 46.125 9.1125ZM41.0344 47.3625C38.0531 47.3625 35.5125 46.3149 33.4125 44.2198C31.3125 42.1247 30.2625 39.591 30.2625 36.6187C30.2625 33.6187 31.3101 31.0781 33.4052 28.9969C35.4999 26.9156 38.0337 25.875 41.0063 25.875C44.0063 25.875 46.5469 26.9156 48.6281 28.9969C50.7094 31.0781 51.75 33.6094 51.75 36.5906C51.75 39.5719 50.7094 42.1125 48.6281 44.2125C46.5469 46.3125 44.0156 47.3625 41.0344 47.3625ZM41.175 38.3062C41.475 38.3062 41.7094 38.2125 41.8781 38.025C42.0469 37.8375 42.1313 37.5938 42.1313 37.2938V31.2188C42.1313 30.9187 42.0375 30.6844 41.85 30.5156C41.6625 30.3469 41.4188 30.2625 41.1187 30.2625C40.8187 30.2625 40.5844 30.3562 40.4156 30.5437C40.2469 30.7313 40.1625 30.975 40.1625 31.275V37.35C40.1625 37.65 40.2562 37.8844 40.4438 38.0531C40.6313 38.2219 40.875 38.3062 41.175 38.3062ZM41.1469 43.0875C41.5032 43.0875 41.8031 42.975 42.0469 42.75C42.2907 42.525 42.4125 42.225 42.4125 41.85C42.4125 41.475 42.2887 41.175 42.0412 40.95C41.7937 40.725 41.505 40.6125 41.175 40.6125C40.8 40.6125 40.5 40.725 40.275 40.95C40.05 41.175 39.9375 41.475 39.9375 41.85C39.9375 42.225 40.05 42.525 40.275 42.75C40.5 42.975 40.7906 43.0875 41.1469 43.0875Z" fill="#EDF1FD"/>
</svg>
